<?xml version="1.0" encoding="utf-8"?>
<!-- Generator: Adobe Illustrator 17.1.0, SVG Export Plug-In . SVG Version: 6.00 Build 0)  -->
<!DOCTYPE svg PUBLIC "-//W3C//DTD SVG 1.1//EN" "http://www.w3.org/Graphics/SVG/1.1/DTD/svg11.dtd">
<svg version="1.1" id="Layer_1" xmlns="http://www.w3.org/2000/svg" xmlns:xlink="http://www.w3.org/1999/xlink" x="0px" y="0px"
	 viewBox="0 0 612 792" enable-background="new 0 0 612 792" xml:space="preserve">
<g>
	<circle cx="240.9" cy="396.3" r="14"/>
	<path d="M81.8,641.7c-1.1,6.1,1.5,8,6.6,4.4l48.1-34c5.1-3.6,12.5-2.6,16.4,2.2l28.8,35.3c4,4.9,10.5,4.9,14.5,0.2l30.4-35.6
		c4.1-4.8,10.3-4.5,14,0.6l27.8,38.5c3.7,5.1,10.2,5.6,14.7,1.2l38.8-38.8c-7.4-16.7-11.7-35.1-12.3-54.3H199.1
		c-6.3,0-11.3-8.3-11.3-14.6s5.1-14.6,11.3-14.6h112.5c5.9-34.9,24.2-65.7,50.3-87.6l-0.9-0.3c0,0-25.3,29.6-74.5,29.6h-4.7
		c-49.2,0-74.5-29.8-74.5-29.8L165.7,456l-6.1-18.1l35.8-10.5c-0.8-1.2-1.6-2.3-1.6-2.3h-32.2V396h27.4c0,0-1.2-19.7,11.4-27.4
		c2.5-3.6-14.6-70.8,3.7-77.3c14.6-5.7,55.8,41.5,55.8,41.5s16.4-4.7,22.1-4.7h4.7c5.7,0,22.1,4.7,22.1,4.7s41.1-47.1,55.8-41.5
		c18.3,6.5,1.2,73.7,3.7,77.3c12.6,7.7,11.4,27.4,11.4,27.4H414v20.4c13.2-3.9,27.1-6.1,41.6-6.1c14,0,27.6,2.1,40.4,5.8
		c3.4-55.4,1.7-125-14.7-199.9c-1.3-6.1-2.2-15.8-1.8-22l4.4-69.3c0.4-6.2-3.3-8.1-8.3-4.3l-33,25.4c-5,3.8-12.7,3.5-17.4-0.7
		l-28.3-25.8c-4.6-4.2-12.2-4.3-17-0.3l-37.6,32.3c-4.7,4.1-12.1,3.7-16.5-0.8L292.7,116c-4.3-4.5-11.4-4.5-15.7,0l-33.3,34.6
		c-4.3,4.5-11.2,4.4-15.4-0.3l-33.9-37.9c-4.2-4.7-11.2-4.9-15.7-0.6L142.2,147c-4.5,4.3-12.4,5-17.6,1.5l-41.9-28.4
		c-5.2-3.5-7.2-3-5.1,2.8c4.6,13.1,11.3,40,11.2,69.1h246.3c6.3,0,11.3,8.3,11.3,14.6s-5.1,14.6-11.3,14.6H87.6
		c-0.2,0-0.3,2.1-0.6,4.2C83.7,252,54.2,324,88.8,532.2c1,6.2,1.7,15.8,1.3,22C89.1,574.7,86.3,617.7,81.8,641.7z"/>
	<circle cx="328.8" cy="396.3" r="14"/>
	<path d="M494.5,435.9c-12.3-4-25.3-6.1-38.9-6.1c-17.2,0-33.7,3.5-48.6,9.7c-8.2,3.4-16,7.7-23.2,12.7
		c-26.7,18.4-46,46.9-52.5,79.9c-1.6,7.9-2.4,16.1-2.4,24.5c0,1.6,0.2,3.1,0.2,4.6c1.4,37.7,19,71.2,46.3,93.5
		c21.9,17.9,49.8,28.7,80.2,28.7c70,0,126.8-56.8,126.8-126.8C582.4,500.1,545.5,452.3,494.5,435.9z"/>
</g>
<g>
	<path fill="#FFFFFF" d="M382.4,539.1v-9.2c4.3-0.2,7.2-0.5,8.9-0.9c2.7-0.6,4.9-1.8,6.6-3.6c1.2-1.2,2-2.9,2.6-4.9
		c0.3-1.2,0.5-2.1,0.5-2.7h11.3v68.8h-13.9v-47.4H382.4L382.4,539.1z"/>
	<path fill="#FFFFFF" d="M435.8,516.9h13.3v37.7l17-19.5H483l-18.5,19.3l19.2,32.2h-16.4l-12.5-22.1l-5.6,5.8v16.3h-13.3
		L435.8,516.9L435.8,516.9z"/>
	<path fill="#FFFFFF" d="M515.6,534.8c3.3,1.4,5.9,3.9,8,7.5v-7.4h13.2v49c0,6.7-1.1,11.7-3.4,15.1c-3.9,5.8-11.3,8.7-22.2,8.7
		c-6.6,0-12-1.3-16.2-3.9c-4.2-2.6-6.5-6.5-6.9-11.6h14.7c0.4,1.6,1,2.7,1.8,3.4c1.4,1.2,3.9,1.8,7.4,1.8c4.9,0,8.1-1.6,9.8-4.9
		c1.1-2.1,1.6-5.6,1.6-10.5v-3.3c-1.3,2.2-2.7,3.9-4.2,5c-2.7,2-6.2,3.1-10.5,3.1c-6.6,0-11.9-2.3-15.9-7s-6-11-6-18.9
		c0-7.7,1.9-14.1,5.7-19.4c3.8-5.2,9.2-7.9,16.2-7.9C511.4,533.6,513.6,534,515.6,534.8z M520.2,571.9c2.2-2.4,3.3-6.2,3.3-11.4
		c0-4.9-1-8.6-3.1-11.2c-2.1-2.6-4.8-3.8-8.3-3.8c-4.7,0-8,2.2-9.8,6.7c-0.9,2.4-1.4,5.3-1.4,8.8c0,3,0.5,5.7,1.5,8
		c1.8,4.4,5.1,6.5,9.8,6.5C515.3,575.5,518,574.3,520.2,571.9z"/>
</g>
</svg>
