<?xml version="1.0" encoding="iso-8859-1"?>
<!-- Generator: Adobe Illustrator 17.1.0, SVG Export Plug-In . SVG Version: 6.00 Build 0)  -->
<!DOCTYPE svg PUBLIC "-//W3C//DTD SVG 1.1//EN" "http://www.w3.org/Graphics/SVG/1.1/DTD/svg11.dtd">
<svg version="1.1" id="Layer_1" xmlns="http://www.w3.org/2000/svg" xmlns:xlink="http://www.w3.org/1999/xlink" x="0px" y="0px"
	 viewBox="0 0 64 64" style="enable-background:new 0 0 64 64;" xml:space="preserve">
<g>
	<path d="M37.71,32.176l-0.502,0.008c0,0-1.817-0.137-3.002,0.697c-1.185,0.834,2.912,2.127,2.912,2.127l0.314,0.082l0.328-0.074
		c0,0,4.094-1.301,2.908-2.135C39.482,32.048,37.71,32.176,37.71,32.176z"/>
	<circle cx="42.614" cy="29.611" r="1.032"/>
	<circle cx="32.077" cy="29.611" r="1.032"/>
	<path d="M46.807,27.575c-0.688,0.026-0.784,3.36-0.744,6.25c1.037-0.227,2.111-0.354,3.216-0.354c3.596,0,6.9,1.271,9.492,3.383
		c0.472-6.01,0.411-13.809-1.427-22.213c-0.139-0.636-0.228-1.728-0.186-2.378l0.461-7.248c0.041-0.649-0.343-0.868-0.859-0.471
		l-3.428,2.63c-0.516,0.397-1.324,0.359-1.804-0.079l-2.944-2.69c-0.481-0.439-1.271-0.452-1.765-0.029l-3.914,3.354
		c-0.494,0.423-1.26,0.386-1.711-0.083l-3.459-3.597c-0.451-0.469-1.182-0.469-1.633,0l-3.459,3.597
		c-0.451,0.469-1.168,0.456-1.601-0.03l-3.523-3.945c-0.433-0.485-1.165-0.513-1.633-0.062l-3.802,3.661
		c-0.469,0.451-1.286,0.521-1.824,0.156l-4.363-2.956c-0.539-0.365-0.749-0.294-0.531,0.319C15.846,6.15,16.537,9,16.528,12h25.609
		c0.651,0,1.178,0.849,1.178,1.5c0,0.651-0.528,1.5-1.178,1.5H16.403c-0.021,0-0.03,0.21-0.057,0.43
		c-0.346,2.77-3.41,10.25,0.187,31.893c0.107,0.642,0.174,1.637,0.139,2.286c-0.114,2.13-0.398,6.607-0.864,9.099
		c-0.12,0.64,0.155,0.827,0.686,0.452l5-3.536c0.532-0.375,1.296-0.274,1.707,0.231l2.992,3.671
		c0.411,0.505,1.086,0.511,1.508,0.016l3.157-3.706c0.422-0.495,1.073-0.47,1.455,0.057l2.895,3.998
		c0.382,0.527,1.064,0.581,1.524,0.121l1.401-1.401c-2.11-2.33-3.512-5.31-3.835-8.61h-6.302c-0.651,0-1.178-0.349-1.178-1
		c0-0.651,0.528-1,1.178-1h6.254c0.089-2.557,0.813-4.949,2.028-7.03c-5.669-0.298-7.473-2.955-7.473-2.955
		c0-0.483,0.571-10.25-0.615-10.294c-0.878,0-0.351,3.91-0.351,3.91l-5.971-2.68c0,0,3.776-5.951,15.455-5.951h0.351
		c11.679,0,15.455,5.953,15.455,5.953l-5.971,2.6C47.158,31.554,47.685,27.575,46.807,27.575z"/>
	<path d="M49.279,35.471c-1.094,0-2.151,0.149-3.167,0.403c-3.061,0.764-5.691,2.601-7.468,5.098
		c-1.423,1.999-2.289,4.413-2.394,7.028c-0.007,0.176-0.027,0.348-0.027,0.526c0,0.499,0.034,0.99,0.089,1.474
		c0.31,2.753,1.48,5.239,3.23,7.201c2.391,2.681,5.861,4.379,9.736,4.379c2.671,0,5.153-0.806,7.221-2.182
		c0.36-0.24,0.709-0.496,1.043-0.769c2.923-2.394,4.79-6.03,4.79-10.103c0-3.588-1.449-6.836-3.791-9.195
		C56.177,36.948,52.901,35.471,49.279,35.471z"/>
</g>
<g>
	<path style="fill:#FFFFFF;" d="M41.9,46.738v-0.947c0.438-0.02,0.745-0.049,0.921-0.088c0.279-0.062,0.506-0.186,0.682-0.371
		c0.12-0.127,0.211-0.296,0.272-0.508c0.036-0.127,0.054-0.221,0.054-0.283h1.162v7.08h-1.426v-4.883H41.9z"/>
	<path style="fill:#FFFFFF;" d="M47.403,44.448h1.367v3.883l1.755-2.008h1.73l-1.907,1.983l1.981,3.315h-1.693l-1.29-2.274
		l-0.576,0.599v1.675h-1.367V44.448z"/>
	<path style="fill:#FFFFFF;" d="M55.612,46.294c0.338,0.14,0.611,0.397,0.819,0.771v-0.767h1.357v5.049
		c0,0.687-0.115,1.205-0.347,1.553c-0.397,0.599-1.159,0.898-2.285,0.898c-0.681,0-1.235-0.133-1.665-0.4s-0.667-0.666-0.713-1.196
		h1.514c0.039,0.163,0.103,0.28,0.19,0.352c0.149,0.127,0.402,0.19,0.757,0.19c0.501,0,0.837-0.167,1.006-0.503
		c0.11-0.215,0.166-0.576,0.166-1.084v-0.342c-0.134,0.228-0.276,0.399-0.43,0.513c-0.276,0.211-0.637,0.317-1.079,0.317
		c-0.684,0-1.229-0.24-1.638-0.72c-0.409-0.48-0.613-1.13-0.613-1.951c0-0.791,0.196-1.456,0.59-1.995s0.951-0.808,1.673-0.808
		C55.181,46.172,55.414,46.212,55.612,46.294z M56.086,50.11c0.224-0.246,0.336-0.637,0.336-1.174c0-0.504-0.106-0.889-0.318-1.152
		c-0.213-0.264-0.497-0.396-0.854-0.396c-0.486,0-0.821,0.229-1.007,0.688c-0.097,0.244-0.146,0.545-0.146,0.903
		c0,0.309,0.052,0.584,0.155,0.825c0.188,0.449,0.525,0.674,1.012,0.674C55.589,50.479,55.862,50.355,56.086,50.11z"/>
</g>
</svg>
