<?xml version="1.0" encoding="utf-8"?>
<!-- Generator: Adobe Illustrator 17.1.0, SVG Export Plug-In . SVG Version: 6.00 Build 0)  -->
<!DOCTYPE svg PUBLIC "-//W3C//DTD SVG 1.1//EN" "http://www.w3.org/Graphics/SVG/1.1/DTD/svg11.dtd">
<svg version="1.1" id="Layer_1" xmlns="http://www.w3.org/2000/svg" xmlns:xlink="http://www.w3.org/1999/xlink" x="0px" y="0px"
	 viewBox="0 0 612 792" enable-background="new 0 0 612 792" xml:space="preserve">
<g>
	<circle cx="257.1" cy="396.3" r="14.3"/>
	<path d="M466,410.6c17.9,0,35,3.3,50.9,9.1c3.8-57,2.3-129.1-14.7-207c-1.4-6.2-2.2-16.1-1.8-22.5l4.5-70.6
		c0.4-6.4-3.4-8.3-8.4-4.4l-33.6,25.9c-5.1,3.9-13,3.6-17.7-0.7L416.2,114c-4.7-4.3-12.5-4.4-17.3-0.3l-38.4,32.9
		c-4.8,4.1-12.4,3.8-16.8-0.8l-33.9-35.3c-4.4-4.6-11.6-4.6-16,0l-33.9,35.3c-4.4,4.6-11.5,4.5-15.7-0.3l-34.5-38.7
		c-4.2-4.8-11.4-5-16-0.6l-37.3,35.9c-4.6,4.4-12.6,5.1-17.9,1.5l-42.8-29c-5.3-3.6-7.3-3.1-5.2,2.9c4.7,13.3,11.5,40.7,11.4,70.4
		H353c6.4,0,11.6,8.5,11.6,14.9c0,6.4-5.2,14.9-11.6,14.9H100.7c-0.2,0-0.3,2.1-0.6,4.3c-3.4,27.2-33.4,100.5,1.8,312.7
		c1,6.3,1.7,16.1,1.4,22.4c-1.1,20.9-3.9,64.8-8.5,89.2c-1.2,6.3,1.5,8.1,6.7,4.4l49-34.7c5.2-3.7,12.7-2.7,16.7,2.3l29.3,36
		c4,5,10.7,5,14.8,0.2l31-36.3c4.1-4.9,10.5-4.6,14.3,0.6l28.4,39.2c3.7,5.2,10.4,5.7,14.9,1.2l32.9-32.9
		c-9.5-18.8-15-39.8-15.7-62.1H214.4c-6.4,0-11.6-8.5-11.6-14.9c0-6.4,5.2-14.9,11.6-14.9h104.8c4.4-26.1,15.5-50,31.7-69.6
		c-12,5.6-27.8,10.1-47.4,10.1h-4.8c-50.2,0-75.9-30.4-75.9-30.4l-42.4,12.4l-6.2-18.4l36.5-10.7c-0.8-1.2-1.7-2.3-1.7-2.3h-32.9
		V396H204c0,0-1.2-20.1,11.6-28c2.5-3.7-14.9-72.1,3.8-78.8c14.9-5.8,56.9,42.3,56.9,42.3s16.7-4.8,22.5-4.8h4.8
		c5.8,0,22.5,4.8,22.5,4.8s41.9-48.1,56.9-42.3c18.7,6.6,1.2,75.1,3.8,78.8c12.9,7.9,11.6,27.9,11.6,27.9h35.3v18.2
		C444,411.9,454.8,410.6,466,410.6z"/>
	<circle cx="346.6" cy="396.3" r="14.3"/>
	<path d="M515.2,440.1c-15.2-6.3-31.8-9.8-49.2-9.8c-15.8,0-30.8,3-44.7,8.1c-8.8,3.3-17.2,7.4-25,12.4c-29,18.7-50.1,48.6-57,83.7
		c-1.6,8.1-2.5,16.4-2.5,25c0,1.6,0.2,3.1,0.2,4.7c0.7,18.9,5.4,36.7,13.3,52.6c21.1,42.6,65,71.9,115.7,71.9
		c71.4,0,129.2-57.9,129.2-129.2C595.2,505.7,562.1,459.5,515.2,440.1z"/>
</g>
<g>
	<path fill="#FFFFFF" d="M388.5,537.1c1-3.4,2.6-6.4,4.8-8.9c2.1-2.5,4.8-4.5,8-5.9c3.2-1.4,6.9-2.1,11-2.1c3.2,0,6.2,0.5,9.1,1.5
		c2.9,1,5.4,2.4,7.6,4.3c2.2,1.9,3.9,4.1,5.2,6.8c1.3,2.7,1.9,5.7,1.9,9.1c0,3.5-0.6,6.5-1.7,9c-1.1,2.5-2.6,4.7-4.4,6.7
		c-1.9,2-3.9,3.7-6.3,5.3c-2.3,1.6-4.7,3.1-7.1,4.7c-2.4,1.6-4.7,3.2-6.9,5c-2.2,1.8-4.2,3.9-5.9,6.2h32.8v12.1h-50.9
		c0-4,0.6-7.5,1.7-10.5c1.2-3,2.7-5.6,4.7-8c2-2.3,4.3-4.5,7-6.5c2.7-2,5.5-4,8.5-6c1.5-1,3.1-2.1,4.9-3.2c1.7-1.1,3.3-2.3,4.7-3.6
		c1.4-1.3,2.6-2.8,3.6-4.4c1-1.7,1.4-3.5,1.4-5.6c0-3.4-1-6-2.9-7.9c-1.9-1.9-4.4-2.8-7.5-2.8c-2,0-3.8,0.5-5.2,1.4
		c-1.4,1-2.6,2.2-3.4,3.8c-0.9,1.5-1.5,3.3-1.8,5.1c-0.4,1.9-0.5,3.8-0.5,5.6h-13.5C387,544.1,387.5,540.5,388.5,537.1z"/>
	<path fill="#FFFFFF" d="M459.2,520.1V558l17.7-18.4h16.6l-19.3,18.8l21.5,32.4h-17l-14.1-22.9l-5.4,5.2v17.6h-14.1v-70.7
		L459.2,520.1L459.2,520.1z"/>
	<path fill="#FFFFFF" d="M549.1,594.5c-0.6,2.6-1.8,5.1-3.6,7.4s-4.5,4.2-8,5.8s-8.2,2.4-14.1,2.4c-2.5,0-5.1-0.3-7.7-0.9
		c-2.6-0.6-5-1.6-7.1-2.9c-2.1-1.3-3.9-3-5.3-5.1s-2.2-4.6-2.4-7.5h14c0.7,2.6,1.9,4.5,3.9,5.5c1.9,1,4.1,1.5,6.6,1.5
		c4,0,6.9-1.2,8.7-3.6c1.8-2.4,2.7-5.4,2.6-9v-6.7h-0.2c-1.5,2.7-3.7,4.7-6.5,6c-2.8,1.3-5.8,1.9-8.9,1.9c-3.8,0-7.1-0.7-9.9-2
		c-2.8-1.3-5-3.2-6.8-5.5c-1.8-2.3-3.1-5.1-3.9-8.2c-0.8-3.1-1.2-6.4-1.2-10c0-3.3,0.5-6.5,1.4-9.6c1-3.1,2.4-5.8,4.2-8.1
		c1.9-2.3,4.1-4.2,6.9-5.6c2.7-1.4,5.9-2.1,9.5-2.1c3.4,0,6.3,0.6,8.9,1.9c2.5,1.3,4.7,3.4,6.4,6.3h0.2v-6.8h13.4v47.9
		C549.9,589.6,549.6,591.9,549.1,594.5z M529.8,577.5c1.5-0.8,2.8-1.9,3.8-3.2c1-1.3,1.7-2.8,2.2-4.5c0.5-1.7,0.7-3.4,0.7-5.3
		c0-2.1-0.2-4.1-0.6-6c-0.4-1.9-1-3.5-2-5c-0.9-1.4-2.1-2.6-3.7-3.5c-1.5-0.9-3.4-1.3-5.7-1.3c-2,0-3.7,0.4-5.1,1.2
		c-1.4,0.8-2.6,1.9-3.6,3.2s-1.7,2.9-2.1,4.7c-0.4,1.8-0.6,3.6-0.6,5.5c0,1.9,0.2,3.7,0.6,5.5c0.4,1.8,1,3.5,1.9,4.9
		c0.9,1.4,2.1,2.6,3.5,3.6c1.4,0.9,3.3,1.4,5.4,1.4C526.6,578.7,528.3,578.3,529.8,577.5z"/>
</g>
</svg>
