<?xml version="1.0" encoding="iso-8859-1"?>
<!-- Generator: Adobe Illustrator 17.1.0, SVG Export Plug-In . SVG Version: 6.00 Build 0)  -->
<!DOCTYPE svg PUBLIC "-//W3C//DTD SVG 1.1//EN" "http://www.w3.org/Graphics/SVG/1.1/DTD/svg11.dtd">
<svg version="1.1" id="Layer_1" xmlns="http://www.w3.org/2000/svg" xmlns:xlink="http://www.w3.org/1999/xlink" x="0px" y="0px"
	 viewBox="0 0 64 64" style="enable-background:new 0 0 64 64;" xml:space="preserve">
<g>
	<circle cx="26.178" cy="33.026" r="1.445"/>
	<path d="M51.201,5.086c0.041-0.643-0.34-0.838-0.851-0.445l-3.394,2.615c-0.511,0.393-1.311,0.361-1.787-0.073l-2.916-2.661
		c-0.476-0.435-1.258-0.446-1.748-0.027L36.63,7.818c-0.489,0.419-1.248,0.383-1.695-0.082l-3.425-3.562
		c-0.447-0.464-1.171-0.464-1.617,0l-3.425,3.562c-0.447,0.465-1.157,0.451-1.586-0.029L21.394,3.8
		c-0.429-0.481-1.153-0.508-1.618-0.061l-3.765,3.625c-0.464,0.447-1.273,0.516-1.807,0.155L9.885,4.593
		C9.351,4.231,9.143,4.279,9.358,4.886C9.836,6.23,10.52,9,10.511,12H35.87c0.644,0,1.167,0.856,1.167,1.5
		c0,0.644-0.522,1.5-1.167,1.5H10.387c-0.021,0-0.029,0.216-0.057,0.435c-0.343,2.743-3.377,10.154,0.185,31.586
		c0.106,0.636,0.172,1.623,0.138,2.266c-0.113,2.109-0.394,6.543-0.856,9.011c-0.118,0.633,0.153,0.82,0.68,0.448l4.951-3.501
		c0.526-0.372,1.283-0.271,1.69,0.229l2.963,3.635c0.407,0.5,1.076,0.506,1.494,0.016l3.126-3.67
		c0.418-0.491,1.063-0.465,1.441,0.057l2.867,3.959c0.378,0.522,1.054,0.576,1.509,0.12l2.44-2.44
		c-1.451-2.066-2.401-4.506-2.659-7.149h-8.431c-0.644,0-1.167-0.856-1.167-1.5c0-0.644,0.522-1.5,1.167-1.5h8.434
		c0.223-2.209,0.939-4.269,2.015-6.093C31.857,40.962,31.379,41,30.869,41h-0.482c-5.068,0-7.669-3.068-7.669-3.068l-4.287,1.25
		l-0.628-1.862l3.685-1.085C21.404,36.109,21.32,36,21.32,36H18v-3h2.818c0,0-0.123-2.028,1.175-2.823
		c0.257-0.374-1.505-7.287,0.38-7.958c1.508-0.586,5.743,4.27,5.743,4.27S29.801,26,30.387,26h0.482
		c0.586,0,2.272,0.489,2.272,0.489s4.235-4.854,5.743-4.268c1.885,0.67,0.123,7.583,0.38,7.957C40.562,30.974,40.439,33,40.439,33
		H44v0.536c0.423-0.036,0.847-0.065,1.279-0.065c2.584,0,5.018,0.656,7.145,1.807c0.373-5.743,0.213-12.983-1.495-20.791
		c-0.138-0.63-0.225-1.625-0.184-2.268L51.201,5.086z"/>
	<circle cx="35.225" cy="33.026" r="1.445"/>
	<path d="M58.333,48.526c0-4.645-2.433-8.712-6.086-11.026c-2.018-1.278-4.403-2.029-6.968-2.029c-0.432,0-0.858,0.024-1.279,0.065
		c-0.818,0.08-1.61,0.241-2.377,0.464c-0.435,0.127-0.861,0.273-1.275,0.442c-1.976,0.807-3.708,2.082-5.061,3.69
		c-1.6,1.903-2.663,4.268-2.966,6.868c-0.058,0.501-0.096,1.009-0.096,1.526c0,0.499,0.034,0.99,0.089,1.474
		c0.236,2.097,0.967,4.042,2.076,5.718c2.337,3.53,6.339,5.862,10.889,5.862C52.489,61.58,58.333,55.735,58.333,48.526z"/>
</g>
<g>
	<path style="fill:#FFFFFF;" d="M38.838,49.448c0,0.283,0.046,0.518,0.137,0.703c0.169,0.342,0.476,0.513,0.92,0.513
		c0.273,0,0.511-0.094,0.714-0.281c0.203-0.187,0.305-0.456,0.305-0.808c0-0.466-0.188-0.776-0.564-0.933
		c-0.215-0.088-0.552-0.132-1.013-0.132v-0.996c0.451-0.007,0.766-0.05,0.944-0.132c0.308-0.137,0.462-0.414,0.462-0.83
		c0-0.27-0.079-0.49-0.236-0.659s-0.379-0.254-0.665-0.254c-0.327,0-0.568,0.104-0.723,0.312s-0.229,0.487-0.222,0.835h-1.299
		c0.013-0.352,0.073-0.686,0.181-1.001c0.113-0.276,0.292-0.532,0.536-0.767c0.183-0.166,0.398-0.293,0.648-0.381
		c0.251-0.088,0.559-0.132,0.922-0.132c0.677,0,1.223,0.175,1.637,0.524c0.415,0.351,0.622,0.82,0.622,1.409
		c0,0.417-0.124,0.769-0.371,1.055c-0.156,0.179-0.319,0.302-0.488,0.366c0.127,0,0.31,0.109,0.547,0.327
		c0.354,0.329,0.532,0.778,0.532,1.348c0,0.599-0.207,1.126-0.622,1.579c-0.414,0.455-1.028,0.682-1.841,0.682
		c-1.002,0-1.698-0.327-2.088-0.981c-0.205-0.349-0.319-0.804-0.342-1.367H38.838z"/>
	<path style="fill:#FFFFFF;" d="M43.403,44.448h1.367v3.883l1.755-2.008h1.73l-1.907,1.983l1.981,3.314h-1.693l-1.29-2.273
		l-0.576,0.599v1.675h-1.367V44.448z"/>
	<path style="fill:#FFFFFF;" d="M51.612,46.294c0.338,0.14,0.611,0.397,0.819,0.771v-0.767h1.357v5.049
		c0,0.688-0.115,1.205-0.347,1.553c-0.397,0.6-1.159,0.898-2.285,0.898c-0.681,0-1.235-0.133-1.665-0.4s-0.667-0.666-0.713-1.196
		h1.514c0.039,0.163,0.103,0.28,0.19,0.352c0.149,0.127,0.402,0.19,0.757,0.19c0.501,0,0.837-0.168,1.006-0.503
		c0.11-0.215,0.166-0.576,0.166-1.084v-0.342c-0.134,0.228-0.276,0.399-0.43,0.513c-0.276,0.211-0.637,0.317-1.079,0.317
		c-0.684,0-1.229-0.24-1.638-0.72c-0.409-0.48-0.613-1.131-0.613-1.951c0-0.791,0.196-1.456,0.59-1.994
		c0.394-0.539,0.951-0.809,1.673-0.809C51.181,46.172,51.414,46.213,51.612,46.294z M52.086,50.109
		c0.224-0.245,0.336-0.637,0.336-1.174c0-0.504-0.106-0.889-0.318-1.152c-0.213-0.264-0.497-0.396-0.854-0.396
		c-0.486,0-0.821,0.229-1.007,0.688c-0.097,0.244-0.146,0.545-0.146,0.903c0,0.31,0.052,0.585,0.155,0.825
		c0.188,0.449,0.525,0.674,1.012,0.674C51.589,50.479,51.862,50.355,52.086,50.109z"/>
</g>
</svg>
