<?xml version="1.0" encoding="iso-8859-1"?>
<!-- Generator: Adobe Illustrator 17.1.0, SVG Export Plug-In . SVG Version: 6.00 Build 0)  -->
<!DOCTYPE svg PUBLIC "-//W3C//DTD SVG 1.1//EN" "http://www.w3.org/Graphics/SVG/1.1/DTD/svg11.dtd">
<svg version="1.1" id="Layer_1" xmlns="http://www.w3.org/2000/svg" xmlns:xlink="http://www.w3.org/1999/xlink" x="0px" y="0px"
	 viewBox="0 0 64 64" style="enable-background:new 0 0 64 64;" xml:space="preserve">
<g>
	<path d="M33.71,32.176l-0.502,0.008c0,0-1.817-0.137-3.002,0.697c-1.185,0.834,2.912,2.127,2.912,2.127l0.314,0.082l0.328-0.074
		c0,0,4.094-1.301,2.908-2.135C35.482,32.048,33.71,32.176,33.71,32.176z"/>
	<circle cx="38.614" cy="29.611" r="1.032"/>
	<circle cx="28.077" cy="29.611" r="1.032"/>
	<path d="M42.807,27.575c-0.864,0.032-0.795,5.288-0.694,8.321c2.355-1.528,5.155-2.425,8.166-2.425
		c1.625,0,3.186,0.266,4.653,0.745c0.255-5.581-0.009-12.352-1.588-19.575c-0.139-0.636-0.228-1.728-0.186-2.378l0.461-7.248
		c0.041-0.649-0.343-0.868-0.859-0.471l-3.428,2.63c-0.516,0.397-1.324,0.359-1.804-0.079l-2.944-2.69
		c-0.481-0.439-1.271-0.452-1.765-0.029l-3.914,3.354c-0.494,0.423-1.26,0.386-1.711-0.083l-3.459-3.597
		c-0.451-0.469-1.182-0.469-1.633,0l-3.459,3.597c-0.451,0.469-1.168,0.456-1.601-0.03l-3.523-3.945
		c-0.433-0.485-1.165-0.513-1.633-0.062l-3.802,3.661c-0.469,0.451-1.286,0.521-1.824,0.156l-4.363-2.956
		c-0.539-0.365-0.749-0.294-0.531,0.319C11.846,6.15,12.537,9,12.528,12h25.609c0.651,0,1.178,0.849,1.178,1.5
		c0,0.651-0.528,1.5-1.178,1.5H12.403c-0.021,0-0.03,0.21-0.057,0.43c-0.346,2.77-3.41,10.25,0.187,31.893
		c0.107,0.642,0.174,1.637,0.139,2.286c-0.114,2.13-0.398,6.607-0.864,9.099c-0.12,0.64,0.155,0.827,0.686,0.452l5-3.536
		c0.532-0.375,1.296-0.274,1.707,0.231l2.992,3.671c0.411,0.505,1.086,0.511,1.508,0.016l3.157-3.706
		c0.422-0.495,1.073-0.47,1.455,0.057l2.895,3.998c0.382,0.527,1.064,0.581,1.524,0.121l4.037-4.037
		c0.094-0.094,0.205-0.155,0.317-0.21c-0.96-1.742-1.585-3.692-1.787-5.765H23.997c-0.651,0-1.178-0.349-1.178-1
		c0-0.651,0.528-1,1.178-1h11.254c0.095-2.719,0.91-5.252,2.266-7.421C36.456,40.831,35.192,41,33.675,41h-0.351
		c-6.498,0-8.518-2.985-8.518-2.985c0-0.483,0.571-10.25-0.615-10.294c-0.878,0-0.351,3.91-0.351,3.91l-5.971-2.68
		c0,0,3.776-5.951,15.455-5.951h0.351c11.679,0,15.455,5.953,15.455,5.953l-5.971,2.6C43.158,31.554,43.685,27.575,42.807,27.575z"
		/>
	<path d="M54.812,36.296c-1.414-0.524-2.936-0.825-4.533-0.825c-7.032,0-12.75,5.565-13.028,12.529
		c-0.007,0.176-0.027,0.348-0.027,0.526c0,0.499,0.034,0.99,0.089,1.474c0.461,4.1,2.824,7.615,6.184,9.665
		c1.978,1.207,4.295,1.915,6.782,1.915c7.21,0,13.054-5.845,13.054-13.054C63.333,42.912,59.784,38.141,54.812,36.296z"/>
</g>
<g>
	<path style="fill:#FFFFFF;" d="M43.837,49.448c0,0.283,0.046,0.518,0.137,0.703c0.169,0.342,0.476,0.513,0.92,0.513
		c0.273,0,0.511-0.094,0.714-0.281c0.203-0.187,0.305-0.456,0.305-0.808c0-0.466-0.188-0.776-0.564-0.933
		c-0.215-0.088-0.552-0.132-1.013-0.132v-0.996c0.451-0.007,0.766-0.05,0.944-0.132c0.308-0.137,0.462-0.414,0.462-0.83
		c0-0.27-0.079-0.49-0.236-0.659s-0.379-0.254-0.665-0.254c-0.327,0-0.568,0.104-0.723,0.312s-0.229,0.487-0.222,0.835h-1.299
		c0.013-0.352,0.073-0.686,0.181-1.001c0.113-0.276,0.292-0.532,0.536-0.767c0.183-0.166,0.398-0.293,0.648-0.381
		c0.251-0.088,0.559-0.132,0.922-0.132c0.677,0,1.223,0.175,1.637,0.524c0.415,0.351,0.622,0.82,0.622,1.409
		c0,0.417-0.124,0.769-0.371,1.055c-0.156,0.179-0.319,0.302-0.488,0.366c0.127,0,0.31,0.109,0.547,0.327
		c0.354,0.329,0.532,0.778,0.532,1.348c0,0.599-0.207,1.126-0.622,1.579c-0.414,0.455-1.028,0.682-1.841,0.682
		c-1.002,0-1.698-0.327-2.088-0.981c-0.205-0.349-0.319-0.804-0.342-1.367H43.837z"/>
	<path style="fill:#FFFFFF;" d="M48.403,44.448h1.367v3.883l1.755-2.008h1.73l-1.907,1.983l1.981,3.314h-1.693l-1.29-2.273
		l-0.576,0.599v1.675h-1.367V44.448z"/>
	<path style="fill:#FFFFFF;" d="M56.612,46.294c0.338,0.14,0.611,0.397,0.819,0.771v-0.767h1.357v5.049
		c0,0.688-0.115,1.205-0.347,1.553c-0.397,0.6-1.159,0.898-2.285,0.898c-0.681,0-1.235-0.133-1.665-0.4s-0.667-0.666-0.713-1.196
		h1.514c0.039,0.163,0.103,0.28,0.19,0.352c0.149,0.127,0.402,0.19,0.757,0.19c0.501,0,0.837-0.168,1.006-0.503
		c0.11-0.215,0.166-0.576,0.166-1.084v-0.342c-0.134,0.228-0.276,0.399-0.43,0.513c-0.276,0.211-0.637,0.317-1.079,0.317
		c-0.684,0-1.229-0.24-1.638-0.72c-0.409-0.48-0.613-1.131-0.613-1.951c0-0.791,0.196-1.456,0.59-1.994
		c0.394-0.539,0.951-0.809,1.673-0.809C56.181,46.172,56.413,46.213,56.612,46.294z M57.085,50.109
		c0.224-0.245,0.336-0.637,0.336-1.174c0-0.504-0.106-0.889-0.318-1.152c-0.213-0.264-0.497-0.396-0.854-0.396
		c-0.486,0-0.821,0.229-1.007,0.688c-0.097,0.244-0.146,0.545-0.146,0.903c0,0.31,0.052,0.585,0.155,0.825
		c0.188,0.449,0.525,0.674,1.012,0.674C56.588,50.479,56.862,50.355,57.085,50.109z"/>
</g>
</svg>
