<?xml version="1.0" encoding="utf-8"?>
<!-- Generator: Adobe Illustrator 17.1.0, SVG Export Plug-In . SVG Version: 6.00 Build 0)  -->
<!DOCTYPE svg PUBLIC "-//W3C//DTD SVG 1.1//EN" "http://www.w3.org/Graphics/SVG/1.1/DTD/svg11.dtd">
<svg version="1.1" id="Layer_1" xmlns="http://www.w3.org/2000/svg" xmlns:xlink="http://www.w3.org/1999/xlink" x="0px" y="0px"
	 viewBox="0 0 612 792" enable-background="new 0 0 612 792" xml:space="preserve">
<g>
	<circle cx="266.6" cy="396.3" r="14.3"/>
	<path d="M475.5,410.6c17.9,0,35,3.3,50.9,9.1c3.8-57,2.3-129.1-14.7-207c-1.4-6.2-2.2-16.1-1.8-22.5l4.5-70.6
		c0.4-6.4-3.4-8.3-8.4-4.4l-33.6,25.9c-5.1,3.9-13,3.6-17.7-0.7L425.8,114c-4.7-4.3-12.5-4.4-17.3-0.3l-38.4,32.9
		c-4.8,4.1-12.4,3.8-16.8-0.8l-33.9-35.3c-4.4-4.6-11.6-4.6-16,0l-33.9,35.3c-4.4,4.6-11.5,4.5-15.7-0.3l-34.5-38.7
		c-4.2-4.8-11.4-5-16-0.6l-37.3,35.9c-4.6,4.4-12.6,5.1-17.9,1.5l-42.8-29c-5.3-3.6-7.3-3.1-5.2,2.9c4.7,13.3,11.5,40.7,11.4,70.4
		h251.1c6.4,0,11.6,8.5,11.6,14.9c0,6.4-5.2,14.9-11.6,14.9H110.3c-0.2,0-0.3,2.1-0.6,4.3c-3.4,27.2-33.4,100.5,1.8,312.7
		c1,6.3,1.7,16.1,1.4,22.4c-1.1,20.9-3.9,64.8-8.5,89.2c-1.2,6.3,1.5,8.1,6.7,4.4l49-34.7c5.2-3.7,12.7-2.7,16.7,2.3l29.3,36
		c4,5,10.7,5,14.8,0.2l31-36.3c4.1-4.9,10.5-4.6,14.3,0.6l28.4,39.2c3.7,5.2,10.4,5.7,14.9,1.2l32.9-32.9
		c-9.5-18.8-15-39.8-15.7-62.1H223.9c-6.4,0-11.6-8.5-11.6-14.9c0-6.4,5.2-14.9,11.6-14.9h104.8c4.4-26.1,15.5-50,31.7-69.6
		c-12,5.6-27.8,10.1-47.4,10.1h-4.8c-50.2,0-75.9-30.4-75.9-30.4l-42.4,12.4l-6.2-18.4l36.5-10.7c-0.8-1.2-1.7-2.3-1.7-2.3h-32.9
		V396h27.9c0,0-1.2-20.1,11.6-28c2.5-3.7-14.9-72.1,3.8-78.8c14.9-5.8,56.9,42.3,56.9,42.3s16.7-4.8,22.5-4.8h4.8
		c5.8,0,22.5,4.8,22.5,4.8s41.9-48.1,56.9-42.3c18.7,6.6,1.2,75.1,3.8,78.8c12.9,7.9,11.6,27.9,11.6,27.9h35.3v18.2
		C453.5,411.9,464.4,410.6,475.5,410.6z"/>
	<circle cx="356.2" cy="396.3" r="14.3"/>
	<path d="M524.8,440.1c-15.2-6.3-31.8-9.8-49.2-9.8c-15.8,0-30.8,3-44.7,8.1c-8.8,3.3-17.2,7.4-25,12.4c-29,18.7-50.1,48.6-57,83.7
		c-1.6,8.1-2.5,16.4-2.5,25c0,1.6,0.2,3.1,0.2,4.7c0.7,18.9,5.4,36.7,13.3,52.6c21.1,42.6,65,71.9,115.7,71.9
		c71.4,0,129.2-57.9,129.2-129.2C604.8,505.7,571.7,459.5,524.8,440.1z"/>
</g>
<g>
	<path fill="#FFFFFF" d="M408.6,571.5c0.5,3,1.6,5.3,3.1,6.9c1.5,1.6,3.8,2.4,6.8,2.4c3.4,0,6-1.2,7.8-3.6c1.8-2.4,2.7-5.4,2.7-9.1
		c0-3.6-0.8-6.6-2.5-9.1c-1.7-2.5-4.3-3.7-7.8-3.7c-1.7,0-3.1,0.2-4.3,0.6c-2.2,0.8-3.8,2.2-4.9,4.3l-12.4-0.6l4.9-38.7h38.6v11.7
		H412l-2.5,15.3c2.1-1.4,3.8-2.3,5-2.8c2-0.7,4.4-1.1,7.3-1.1c5.8,0,10.9,2,15.2,5.9s6.5,9.6,6.5,17c0,6.5-2.1,12.3-6.2,17.4
		c-4.2,5.1-10.4,7.6-18.6,7.6c-6.7,0-12.1-1.8-16.4-5.4c-4.3-3.6-6.7-8.7-7.1-15.2L408.6,571.5L408.6,571.5z"/>
	<path fill="#FFFFFF" d="M453.7,519.2h13.5v38.4l17.4-19.9h17.1l-18.9,19.6l19.6,32.8h-16.8l-12.8-22.5l-5.7,5.9v16.6h-13.5
		L453.7,519.2L453.7,519.2z"/>
	<path fill="#FFFFFF" d="M534.9,537.5c3.3,1.4,6,3.9,8.1,7.6v-7.6h13.4v50c0,6.8-1.1,11.9-3.4,15.4c-3.9,5.9-11.5,8.9-22.6,8.9
		c-6.7,0-12.2-1.3-16.5-4c-4.3-2.6-6.6-6.6-7.1-11.8h15c0.4,1.6,1,2.8,1.9,3.5c1.5,1.3,4,1.9,7.5,1.9c5,0,8.3-1.7,10-5
		c1.1-2.1,1.6-5.7,1.6-10.7v-3.4c-1.3,2.3-2.7,4-4.3,5.1c-2.7,2.1-6.3,3.1-10.7,3.1c-6.8,0-12.2-2.4-16.2-7.1
		c-4-4.8-6.1-11.2-6.1-19.3c0-7.8,1.9-14.4,5.8-19.7c3.9-5.3,9.4-8,16.6-8C530.7,536.3,533,536.7,534.9,537.5z M539.6,575.3
		c2.2-2.4,3.3-6.3,3.3-11.6c0-5-1-8.8-3.1-11.4c-2.1-2.6-4.9-3.9-8.5-3.9c-4.8,0-8.1,2.3-10,6.8c-1,2.4-1.4,5.4-1.4,8.9
		c0,3.1,0.5,5.8,1.5,8.2c1.9,4.4,5.2,6.7,10,6.7C534.7,579,537.4,577.7,539.6,575.3z"/>
</g>
</svg>
