<?xml version="1.0" encoding="iso-8859-1"?>
<!-- Generator: Adobe Illustrator 17.1.0, SVG Export Plug-In . SVG Version: 6.00 Build 0)  -->
<!DOCTYPE svg PUBLIC "-//W3C//DTD SVG 1.1//EN" "http://www.w3.org/Graphics/SVG/1.1/DTD/svg11.dtd">
<svg version="1.1" id="Layer_1" xmlns="http://www.w3.org/2000/svg" xmlns:xlink="http://www.w3.org/1999/xlink" x="0px" y="0px"
	 viewBox="0 0 64 64" style="enable-background:new 0 0 64 64;" xml:space="preserve">
<g>
	<path d="M33.71,32.176l-0.502,0.008c0,0-1.817-0.137-3.002,0.697c-1.185,0.834,2.912,2.127,2.912,2.127l0.314,0.082l0.328-0.074
		c0,0,4.094-1.301,2.908-2.135C35.482,32.048,33.71,32.176,33.71,32.176z"/>
	<circle cx="38.614" cy="29.611" r="1.032"/>
	<circle cx="28.077" cy="29.611" r="1.032"/>
	<path d="M42.807,27.575c-0.81,0.03-0.8,4.647-0.712,7.724c2.136-1.165,4.584-1.828,7.184-1.828c1.994,0,3.894,0.398,5.637,1.105
		c0.283-5.648,0.042-12.556-1.571-19.935c-0.139-0.636-0.228-1.728-0.186-2.378l0.461-7.248c0.041-0.649-0.343-0.868-0.859-0.471
		l-3.428,2.63c-0.516,0.397-1.324,0.359-1.804-0.079l-2.944-2.69c-0.481-0.439-1.271-0.452-1.765-0.029l-3.914,3.354
		c-0.494,0.423-1.26,0.386-1.711-0.083l-3.459-3.597c-0.451-0.469-1.182-0.469-1.633,0l-3.459,3.597
		c-0.451,0.469-1.168,0.456-1.601-0.03l-3.523-3.945c-0.433-0.485-1.165-0.513-1.633-0.062l-3.802,3.661
		c-0.469,0.451-1.286,0.521-1.824,0.156l-4.363-2.956c-0.539-0.365-0.749-0.294-0.531,0.319C11.846,6.15,12.537,9,12.528,12h25.609
		c0.651,0,1.178,0.849,1.178,1.5c0,0.651-0.528,1.5-1.178,1.5H12.403c-0.021,0-0.03,0.21-0.057,0.43
		c-0.346,2.77-3.41,10.25,0.187,31.893c0.107,0.642,0.174,1.637,0.139,2.286c-0.114,2.13-0.398,6.607-0.864,9.099
		c-0.12,0.64,0.155,0.827,0.686,0.452l5-3.536c0.532-0.375,1.296-0.274,1.707,0.231l2.992,3.671
		c0.411,0.505,1.086,0.511,1.508,0.016l3.157-3.706c0.422-0.495,1.073-0.47,1.455,0.057l2.895,3.998
		c0.382,0.527,1.064,0.581,1.524,0.121l3.691-3.691c-1.144-1.88-1.9-4.021-2.125-6.32H23.997c-0.651,0-1.178-0.349-1.178-1
		c0-0.651,0.528-1,1.178-1h10.254c0.091-2.628,0.857-5.083,2.133-7.204C35.58,40.92,34.688,41,33.675,41h-0.351
		c-6.498,0-8.518-2.985-8.518-2.985c0-0.483,0.571-10.25-0.615-10.294c-0.878,0-0.351,3.91-0.351,3.91l-5.971-2.68
		c0,0,3.776-5.951,15.455-5.951h0.351c11.679,0,15.455,5.953,15.455,5.953l-5.971,2.6C43.158,31.554,43.685,27.575,42.807,27.575z"
		/>
	<path d="M54.782,36.7c-1.674-0.781-3.534-1.229-5.503-1.229c-2.621,0-5.056,0.78-7.101,2.109c-1.011,0.658-1.922,1.452-2.714,2.356
		c-1.903,2.173-3.09,4.978-3.213,8.063c-0.007,0.176-0.027,0.348-0.027,0.526c0,0.499,0.034,0.99,0.089,1.474
		c0.488,4.338,3.098,8.034,6.772,10.018c1.843,0.996,3.952,1.562,6.194,1.562c7.21,0,13.054-5.845,13.054-13.054
		C62.333,43.285,59.238,38.778,54.782,36.7z"/>
</g>
<g>
	<path style="fill:#FFFFFF;" d="M42.523,49.727c0.055,0.303,0.161,0.536,0.316,0.701c0.156,0.164,0.384,0.246,0.683,0.246
		c0.344,0,0.606-0.121,0.786-0.363c0.181-0.243,0.271-0.549,0.271-0.916c0-0.361-0.084-0.666-0.253-0.916
		c-0.169-0.248-0.433-0.373-0.789-0.373c-0.169,0-0.315,0.021-0.438,0.063c-0.218,0.078-0.382,0.224-0.492,0.435l-1.248-0.059
		l0.497-3.911h3.896v1.182h-2.892l-0.253,1.548c0.214-0.141,0.382-0.232,0.502-0.278c0.201-0.075,0.447-0.112,0.736-0.112
		c0.585,0,1.096,0.197,1.531,0.591s0.653,0.967,0.653,1.719c0,0.654-0.21,1.239-0.629,1.753c-0.42,0.514-1.048,0.771-1.883,0.771
		c-0.674,0-1.227-0.181-1.659-0.542s-0.673-0.874-0.722-1.538H42.523z"/>
	<path style="fill:#FFFFFF;" d="M47.069,44.448h1.367v3.883l1.755-2.008h1.73l-1.907,1.983l1.981,3.314h-1.693l-1.29-2.273
		l-0.576,0.599v1.675h-1.367V44.448z"/>
	<path style="fill:#FFFFFF;" d="M55.278,46.294c0.338,0.14,0.611,0.397,0.819,0.771v-0.767h1.357v5.049
		c0,0.688-0.115,1.205-0.347,1.553c-0.397,0.6-1.159,0.898-2.285,0.898c-0.681,0-1.235-0.133-1.665-0.4s-0.667-0.666-0.713-1.196
		h1.514c0.039,0.163,0.103,0.28,0.19,0.352c0.149,0.127,0.402,0.19,0.757,0.19c0.501,0,0.837-0.168,1.006-0.503
		c0.11-0.215,0.166-0.576,0.166-1.084v-0.342c-0.134,0.228-0.276,0.399-0.43,0.513c-0.276,0.211-0.637,0.317-1.079,0.317
		c-0.684,0-1.229-0.24-1.638-0.72c-0.409-0.48-0.613-1.131-0.613-1.951c0-0.791,0.196-1.456,0.59-1.994
		c0.394-0.539,0.951-0.809,1.673-0.809C54.847,46.172,55.08,46.213,55.278,46.294z M55.752,50.109
		c0.224-0.245,0.336-0.637,0.336-1.174c0-0.504-0.106-0.889-0.318-1.152c-0.213-0.264-0.497-0.396-0.854-0.396
		c-0.486,0-0.821,0.229-1.007,0.688c-0.097,0.244-0.146,0.545-0.146,0.903c0,0.31,0.052,0.585,0.155,0.825
		c0.188,0.449,0.525,0.674,1.012,0.674C55.255,50.479,55.528,50.355,55.752,50.109z"/>
</g>
</svg>
