<?xml version="1.0" encoding="iso-8859-1"?>
<!-- Generator: Adobe Illustrator 17.1.0, SVG Export Plug-In . SVG Version: 6.00 Build 0)  -->
<!DOCTYPE svg PUBLIC "-//W3C//DTD SVG 1.1//EN" "http://www.w3.org/Graphics/SVG/1.1/DTD/svg11.dtd">
<svg version="1.1" id="Layer_1" xmlns="http://www.w3.org/2000/svg" xmlns:xlink="http://www.w3.org/1999/xlink" x="0px" y="0px"
	 viewBox="0 0 64 64" style="enable-background:new 0 0 64 64;" xml:space="preserve">
<path d="M30.478,8.016c-0.188-0.022-15.271-1.944-16.112,7.535c-0.618,6.952,1.284,9.919,3.485,13.354
	c0.733,1.144,1.491,2.327,2.236,3.755c0.959,1.838,1.08,4.901,1.207,8.145c0.26,6.594,0.583,14.801,8.889,15.332
	c0.25,0.016,0.499,0.023,0.746,0.023h0c3.69,0,7.339-1.792,10.55-5.183c5.641-5.956,9.405-16.361,8.949-24.742
	C49.771,14.139,46.848,8.934,30.478,8.016z M24.8,32.859c-0.145-2.677-1.481-4.015-2.895-5.432
	c-1.803-1.808-3.667-3.676-3.667-8.791c0-6.401,6.556-7.357,10.463-7.357c1.241,0,2.092,0.103,2.14,0.106
	c10.536,0.468,15.548,5.04,15.772,14.388c0.151,6.311-3.662,17.447-8.992,22.906c-2.224,2.279-4.458,3.365-6.724,3.208
	c-6.814-0.467-6.458-8.418-6.17-14.807C24.798,35.514,24.864,34.033,24.8,32.859z"/>
<path d="M25.348,20.726c10.136,3.029,6.613,14.803,5.683,22.786c-0.059,0.509,0.225,0.805,0.595,0.907
	c0.435,0.282,1.043,0.273,1.352-0.319c3.03-5.788,4.713-14.995,1.721-21.294c2.281,0.052,4.558,0.172,6.832,0.373
	c1.186,0.105,1.254-1.573,0.258-1.924c0.04-0.264-0.031-0.544-0.301-0.783c-4.297-3.808-10.845-2.576-16.04-1.96
	c-1.007,0.119-1.207,1.399-0.606,1.844C24.955,20.515,25.11,20.655,25.348,20.726z"/>
</svg>
