<?xml version="1.0" encoding="iso-8859-1"?>
<!-- Generator: Adobe Illustrator 17.1.0, SVG Export Plug-In . SVG Version: 6.00 Build 0)  -->
<!DOCTYPE svg PUBLIC "-//W3C//DTD SVG 1.1//EN" "http://www.w3.org/Graphics/SVG/1.1/DTD/svg11.dtd">
<svg version="1.1" id="Layer_1" xmlns="http://www.w3.org/2000/svg" xmlns:xlink="http://www.w3.org/1999/xlink" x="0px" y="0px"
	 viewBox="0 0 64 64" style="enable-background:new 0 0 64 64;" xml:space="preserve">
<path d="M10.783,41.394c-0.661,1.128-0.44,6.165-0.881,9.688s2.452,5.366,2.862,3.743c0.22-4.403,1.761-4.513,1.761-4.513
	s-0.468,1.982,0.55,4.183c2.642,3.303,2.972-1.101,4.073-2.972c1.101-1.871,5.504-5.834,9.908-3.743
	c1.431,10.568,5.284,8.587,5.835,8.256c0.55-0.33-0.11-4.293-0.22-6.715c0-5.724,5.587-0.688,7.706,3.853
	c0.272,0.583,2.613,3.813,3.192,1.651c1.431-7.486-3.523-22.677-3.523-22.677s1.871,1.541,2.642-2.202
	c0.771-3.743-2.804-2.128-2.422-3.963c0.413-1.982,0.991-3.509,2.862-2.532c2.416,1.261,8.807,2.202,10.348-0.991
	c0.254-0.526,0.398-0.951,0.495-1.338c0.919-0.046,1.654-0.791,1.654-1.721c0-0.96-0.778-1.738-1.737-1.738
	c-0.462,0-0.877,0.187-1.188,0.482c-0.417-0.367-0.9-0.775-1.425-1.3c-2.202-2.202-7.816-1.431-8.587-3.853
	c-0.771-2.422,2.532-2.092,4.293-1.541c1.761,0.55,4.293,1.982,3.743-1.211c-0.55-3.193-9.908-7.926-11.119-4.624
	c-1.211,3.303,0.661,8.256-4.073,7.816c-1.982-0.33-1.431-1.982-4.293-8.146c-2.862-6.165-11.559,4.844-11.669,5.834
	c-0.11,0.991-0.508,8.753,5.614,2.972c4.08-3.853,7.926,0.881,7.156,1.211c-0.771,0.33-3.523,6.055-2.202,9.467
	c-4.513,0.33-1.437,4.51-2.532,4.624c-4.954,0.513-15.412,10.788-16.403,9.137c-4.293-4.073,0-10.458,0-10.458
	C-1.766,31.817,12.077,39.165,10.783,41.394z"/>
</svg>
