<?xml version="1.0" encoding="iso-8859-1"?>
<!-- Generator: Adobe Illustrator 17.1.0, SVG Export Plug-In . SVG Version: 6.00 Build 0)  -->
<!DOCTYPE svg PUBLIC "-//W3C//DTD SVG 1.1//EN" "http://www.w3.org/Graphics/SVG/1.1/DTD/svg11.dtd">
<svg version="1.1" id="Layer_1" xmlns="http://www.w3.org/2000/svg" xmlns:xlink="http://www.w3.org/1999/xlink" x="0px" y="0px"
	 viewBox="0 0 64 64" style="enable-background:new 0 0 64 64;" xml:space="preserve">
<path d="M60.298,34.98c-5.237,7.792-14.749,0.199-22.554,1.087c0.11-2.112-0.621-4.82-4.014-7.432
	c-10.301-8.051-21.903,5.551-21.853,4.551c0.05-1-0.378-2.436-2.6-2.15c-2.022,0.26-1.55,2.9-1.05,4.351
	c0.5,1.45-1.65,3.932-1.65,3.932C4.127,42.368,7.127,43,7.127,43s19.302,0,23.853,0c4.551,0,5.751-2.482,5.751-2.482
	c0.094-0.218,0.291-1.014,0.488-1.55c8.931-2.304,18.333,7.566,25.152-2.58C63.237,35.098,61.156,33.703,60.298,34.98z"/>
</svg>
