<?xml version="1.0" encoding="iso-8859-1"?>
<!-- Generator: Adobe Illustrator 17.1.0, SVG Export Plug-In . SVG Version: 6.00 Build 0)  -->
<!DOCTYPE svg PUBLIC "-//W3C//DTD SVG 1.1//EN" "http://www.w3.org/Graphics/SVG/1.1/DTD/svg11.dtd">
<svg version="1.1" id="Layer_1" xmlns="http://www.w3.org/2000/svg" xmlns:xlink="http://www.w3.org/1999/xlink" x="0px" y="0px"
	 viewBox="0 0 64 64" style="enable-background:new 0 0 64 64;" xml:space="preserve">
<path d="M22.025,50.593c0,0-0.312,0.074-0.977,0.143c-0.012,0.073-0.036,0.111-0.036,0.111L22.025,50.593z"/>
<path d="M52.841,45.709c-0.983-0.738-1.557-3.278-1.434-5.04c0.123-1.762-0.041-3.811-0.779-4.179s4.794-2.336,3.975-9.219
	c0,0-1.434,5.982-6.597,7.212c-2.049-1.065-4.425-0.983-6.433-0.82c-2.008,0.164-12.354-1.147-14.321-11.289
	s3.524-20.487,3.79-20.508c0,0-2.09,0-4.057,1.557c0,0-0.041-1.885-0.287-2.376c-0.246-0.492-4.22,3.073-4.958,4.589
	c-0.656,0.901-4.999-2.254-8.113,1.926c0,0-0.901,2.95-4.753,2.95s-5.409-0.574-3.36,3.852c2.049,4.425,11.227,4.077,13.255,4.016
	c2.028-0.061-2.766,5.47-3.565,7.744c-1.209,2.356-5.347,11.309,5.286,17.885c0.43,0.553,0.717,6.208,0.758,7.314
	c0.041,1.106,0.86,2.95-2.745,4.302c0,0-2.213,0.942-2.377,2.336c-0.164,1.393,4.794,0.901,5.04,0.86
	c0.246-0.041-1.188,1.762,4.343,1.68c5.532-0.082,3.77-1.885,3.647-2.458c-0.123-0.574-1.475-12.702,2.499-13.481
	c3.975-0.779,6.802-1.106,10.858,1.68c4.057,2.786,4.138,2.663,4.097,5.941c-0.041,3.278-0.901,3.647-3.319,3.729
	c-2.417,0.082-2.622,1.68-2.581,2.008c0.041,0.328,3.114,0.738,4.63,0.697c0,0-2.131,2.254,0.246,2.254
	c2.377,0,6.597,1.024,6.597-2.663s1.434-9.301,1.967-9.465C54.685,48.577,53.825,46.446,52.841,45.709z M26.577,53.617
	c-0.123,3.196-2.499,3.401-2.499,3.401C23.258,52.183,24.61,45.75,24.61,45.75s0.194-0.519,0.585-0.164
	C25.903,46.487,26.7,50.421,26.577,53.617z M50.362,55.256c-0.041,1.741-1.741,2.745-1.864,2.438c-0.123-0.307-0.184-2.049,0-3.913
	c0.184-1.864,1.188-4.057,1.188-4.057s0.16-0.204,0.307,0C50.608,50.626,50.403,53.514,50.362,55.256z"/>
</svg>
