<?xml version="1.0" encoding="iso-8859-1"?>
<!-- Generator: Adobe Illustrator 17.1.0, SVG Export Plug-In . SVG Version: 6.00 Build 0)  -->
<!DOCTYPE svg PUBLIC "-//W3C//DTD SVG 1.1//EN" "http://www.w3.org/Graphics/SVG/1.1/DTD/svg11.dtd">
<svg version="1.1" id="Layer_1" xmlns="http://www.w3.org/2000/svg" xmlns:xlink="http://www.w3.org/1999/xlink" x="0px" y="0px"
	 viewBox="0 0 64 64" style="enable-background:new 0 0 64 64;" xml:space="preserve">
<path d="M47.159,25.227c-0.992-2.127-2.42-3.534-2.42-3.534c-14.077-8.123-26.152,4.453-31.467,11.516
	c-2.139-2.274-3.912-4.862-5.876-7.288c-0.905-1.118-2.472,0.47-1.576,1.576c1.278,1.578,2.473,3.224,3.734,4.814
	c-0.847-0.554-1.689-1.114-2.523-1.688c-1.187-0.818-2.301,1.115-1.125,1.925c0.945,0.651,1.9,1.286,2.861,1.912
	c-1.108-0.146-2.222-0.253-3.343-0.297c-1.438-0.057-1.433,2.173,0,2.229c1.767,0.07,3.507,0.3,5.241,0.603
	c-0.187,0.304-0.295,0.488-0.295,0.488s-3.809-0.279-2.88,3.437c0.929,3.716,4.645,1.858,4.645,1.858
	c0.905,0.152,1.767,0.265,2.629,0.378c0.024,0.046,0.045,0.092,0.078,0.138c1.683,2.394,3.287,4.833,4.459,7.524
	c0.573,1.315,2.493,0.179,1.925-1.125c-0.96-2.206-2.216-4.239-3.562-6.219c0.873,0.077,1.714,0.127,2.541,0.165
	c0.001,0.001,0.001,0.003,0.002,0.004c1.25,1.748,2.61,3.412,3.936,5.102c0.887,1.13,2.453-0.459,1.576-1.576
	c-0.905-1.153-1.814-2.302-2.697-3.47c12.27-0.08,19.07-4.617,23.112-9.467c1.921-2.306,2.2-4.65,1.8-6.679
	c4.045,0.594,8.923,2.401,9.257,6.97c0.166,2.273-1.789,3.748-3.561,4.775c-0.822,0.476-1.734,0.771-2.682,0.805
	c-0.812,0.029-2.165-0.935-0.634-1.947c0.542-0.358,1.196-0.55,1.805-0.758c1.352-0.463,0.771-2.617-0.593-2.15
	c-1.375,0.471-3.583,1.169-4.042,2.77c-0.379,1.326,0.144,2.967,1.388,3.704c2.913,1.725,6.533-0.543,8.643-2.576
	c2.527-2.435,2.456-6.455,0.285-9.134C55.24,26.854,51.069,25.652,47.159,25.227z"/>
</svg>
