<?xml version="1.0" encoding="iso-8859-1"?>
<!-- Generator: Adobe Illustrator 17.1.0, SVG Export Plug-In . SVG Version: 6.00 Build 0)  -->
<!DOCTYPE svg PUBLIC "-//W3C//DTD SVG 1.1//EN" "http://www.w3.org/Graphics/SVG/1.1/DTD/svg11.dtd">
<svg version="1.1" id="Layer_1" xmlns="http://www.w3.org/2000/svg" xmlns:xlink="http://www.w3.org/1999/xlink" x="0px" y="0px"
	 viewBox="0 0 64 64" style="enable-background:new 0 0 64 64;" xml:space="preserve">
<path d="M6.902,24.276c0,0-0.245,0.798,1.166,2.332c-2.332,2.394-1.473,4.296-2.271,5.83c0.184,1.166,2.762,1.995,4.081,1.35
	c1.319-0.644,0.967,1.642,1.197,2.209c0.146,0.36,1.381,2.792-0.153,3.283L2.79,42.197c0,0-1.197,0.399-0.276,2.209
	c0.644,1.258,3.13-0.89,3.222-1.043c0.092-0.153,9.758,0,10.249-2.946c0.921,1.565,1.626,2.24,1.78,2.394
	c0.153,0.153,1.013,7.088-0.706,7.948c0,0-1.596,0.399-0.982,1.565c0.614,1.166,3.959,0.184,4.265-2.394s0.982-10.801,5.247-11.876
	s7.549-2.117,9.789-1.688s1.596,1.718,7.119,3.099c0,0,1.657-0.061,1.412,2.179c0,0,0,1.473-0.184,1.78s-0.43,1.841,0.583,1.841
	c1.013,0,1.964-2.025,1.995-3.682c0,0,2.117,0.43,4.357,2.67c2.025,2.332,1.197,3.989,2.117,3.989s2.792,0-0.46-5.462
	c-3.253-5.462-4.807-5.82-6.28-8.52s-0.327-4.501-3.232-5.769c-0.573-0.696,0.696-1.064,0.696-1.064s8.381-4.281,11.702-6.771
	c3.191-2.394,8.04-6.874,6.751-8.285s-6.301,4.828-9.39,6.69c-1.657,1.084-7.917,4.91-13.379,6.874
	c-6.567-0.88-11.804-0.348-16.345,1.984s-6.26,2.209-7.569,0.245s-3.437-2.373-4.419-2.332C10.85,25.831,8.395,24.276,6.902,24.276z
	"/>
</svg>
