<?xml version="1.0" encoding="iso-8859-1"?>
<!-- Generator: Adobe Illustrator 17.1.0, SVG Export Plug-In . SVG Version: 6.00 Build 0)  -->
<!DOCTYPE svg PUBLIC "-//W3C//DTD SVG 1.1//EN" "http://www.w3.org/Graphics/SVG/1.1/DTD/svg11.dtd">
<svg version="1.1" id="Layer_1" xmlns="http://www.w3.org/2000/svg" xmlns:xlink="http://www.w3.org/1999/xlink" x="0px" y="0px"
	 viewBox="0 0 64 64" style="enable-background:new 0 0 64 64;" xml:space="preserve">
<path d="M48.375,9.625c0,0,2-3.25-0.25-5.625l-1.833,5.25c0,0-2.75,2.417-4.292,4.833s-6.917,6.958-14.125,8.25
	c-10.667,2-11.583-1.958-18.417-0.458c0,0-2.625-7.583-4.125-7.417c-1.5,0.167,1.417,8.958,1.458,9.417
	c0.042,0.458-3.417,6.625,0.083,14.25C9.25,42.75,6.083,43.292,5.5,46.292c-0.167,1.375-0.083,6.5,2.417,11.125c1.333,3.125,3,2,3,2
	s0.542-0.583-0.958-5.625s0.917-9.042,1.458-9.833c0,0,0.625-1.375,0.5-1.583s0.667,0.125,0.167,3.167
	c-0.5,3.042,1.708,10.875,4.333,11.875c0,0,0.625,0.292,1.167,0.042c0,0,0.479-0.521-0.521-4.083c-1-3.562-2.562-9.688,0.375-12.438
	c0,0,2.313-3.25,1.688-6.938c5.312,0.188,4.562,3.688,16.437,4.125c0.229,0.542-0.146,12.625,0.604,14.625s2.708,7.169,4.667,7.169
	c1.958,0-1.5-7.419-1.583-9.419s0.375-11.583,1.542-11.292c1.167,0.292-1.542,15.875,4.083,18.167
	c2.75,0.958-0.833-2.333-0.458-13.542c-0.125-2.292,2.083-10,2.167-11.5c0.083-1.5-0.5-5.708-0.583-6.333s0.25-6.167,3.875-6.375
	c2.458,0,2.708,1.75,5.625,1.417c2.917-0.333,3.458-3.667,3.208-4.458c0.336-0.75,0.667-1.667-0.875-1.542
	c-1.542,0.125-3.5,0.542-6.583-3.833C49.655,9.255,48.375,9.625,48.375,9.625z"/>
</svg>
