<?xml version="1.0" encoding="iso-8859-1"?>
<!-- Generator: Adobe Illustrator 17.1.0, SVG Export Plug-In . SVG Version: 6.00 Build 0)  -->
<!DOCTYPE svg PUBLIC "-//W3C//DTD SVG 1.1//EN" "http://www.w3.org/Graphics/SVG/1.1/DTD/svg11.dtd">
<svg version="1.1" id="Layer_1" xmlns="http://www.w3.org/2000/svg" xmlns:xlink="http://www.w3.org/1999/xlink" x="0px" y="0px"
	 viewBox="0 0 64 64" style="enable-background:new 0 0 64 64;" xml:space="preserve">
<path d="M57.874,42.352c-0.375-0.958-4.167-1.375-6.458-6.875c-2.292-5.5-3.667-13.167-9.292-16.042s-11-6.312-17.875,2.5
	c-3.625,5.375-10.563,3.312-10.563,3.312s-0.437-2.438-2.187-2.562c0,0-0.688,1.75-0.375,3.438c-0.016,0.499-1.812-1-2.188-0.438
	c0,0-0.458,0.354,0.958,2.75c-2.365,4.094-0.507,4.302-0.083,7.094c0.391,0.523,3.354,0.281,5.312-0.906
	c0,0,1.922-0.953,2.172-0.938s1.078,4.083,1.036,4.625c0,0-5.375,3.583-7.167,3.833c-1.792,0.25-5.208,1.667-4.208,3.542
	s4.042-0.583,4.167-0.667s10.833-2.167,11.708-4.5c0,0,1.667-4.667,2.167-4.875c0,0,2.219,4.87,0.266,6.542
	c0,0-1.375,0.453-0.859,1.594c0.247,0.346,2.073,0.219,2.469,0.24s1.062-0.375,1.146-1.792c0.083-1.417,0.688-9.875,0.688-9.875
	s2.917-2.979,4.396-3.229c1.062-0.229,1.125,1.854,1.229,2.167c0.104,0.312,2.135,7.396,0.979,9.271
	c-1.156,1.875-2.562,2.328-2.844,2.359c-0.281,0.031-2.141,0.484-2.141,1.422s2.047,2.052,4.755-0.24
	c2.708-2.292,3.729-3.542,3.729-3.542s1.396,1.521,3.104-0.354c0.75-0.854,1.438-5.875,1.5-6.021
	c0.062-0.146,0.375-1.125-1.396-2.312c-0.938-1.083,1.958-2.354,1.958-5.417c-0.021-1.312,4.812,9.104,4.812,9.104
	s2.083,5.042,5,6.708C56.708,43.936,58.249,43.311,57.874,42.352z M40.291,37.832c0,0-0.146,0.833-0.604,1.208
	c0,0,0.479-2.979,0.479-3.417C40.166,35.623,40.874,35.457,40.291,37.832z"/>
</svg>
