<?xml version="1.0" encoding="iso-8859-1"?>
<!-- Generator: Adobe Illustrator 17.1.0, SVG Export Plug-In . SVG Version: 6.00 Build 0)  -->
<!DOCTYPE svg PUBLIC "-//W3C//DTD SVG 1.1//EN" "http://www.w3.org/Graphics/SVG/1.1/DTD/svg11.dtd">
<svg version="1.1" id="Layer_1" xmlns="http://www.w3.org/2000/svg" xmlns:xlink="http://www.w3.org/1999/xlink" x="0px" y="0px"
	 viewBox="0 0 64 64" style="enable-background:new 0 0 64 64;" xml:space="preserve">
<path d="M18.421,32.545c0,0-1.413,4.151,1.236,8.743c0.402,0.714-1.027-0.033-0.464,1.788c0.563,1.821,2.848,6.789,5.332,6.789
	c2.484,0,3.544-2.285,0.431-2.583c-2.285-0.828,0-2.881,0.497-3.212s3.345,3.709,5.994,3.709c2.649,0,2.583-1.888,1.325-2.186
	c-1.258-0.298-2.782-0.066-2.782-2.086s4.173-1.623,4.438-1.523s3.246,0.431,3.477,0.828s-3.047,0.994-3.047,3.212
	c0,2.219,1.325,1.292,1.821,0.795c0.497-0.497,1.557-1.258,3.494-1.739c0.199,0.911,1.275,5.613,4.603,5.613
	c4.223,0,0.878-2.12,0.58-2.401c-0.298-0.281-2.467-3.096,0.298-4.835c1.308,0.778,2.12,0.944,3.974,1.109s2.318,2.02,3.246,2.484
	c0.927,0.464,2.335,0.05,2.583-0.215c0.248-0.265-0.099-1.374-0.099-1.374s1.855-0.773,1.855-3.842
	c1.81-1.236,2.495-1.656,2.495-2.097s-3.257-0.718-4.051-1.545c-0.795-0.828-3.742-3.014-4.637-3.511
	c-0.894-0.497-2.683-3.809-5.398-3.709c-1.855,0-3.441-2.302-4.438-2.914C39,26.5,35.622,24.605,22.375,26.625
	c-1.258-0.033-3.594-1.235-5.25-2.062s-7.72-2.828-8.25-10.312C8.809,8.156,7.042,9.664,7.042,9.664s-1.729,0.821-1.817,4.203
	C5.122,17.812,5.062,23.188,18.421,32.545z"/>
</svg>
