<?xml version="1.0" encoding="iso-8859-1"?>
<!-- Generator: Adobe Illustrator 17.1.0, SVG Export Plug-In . SVG Version: 6.00 Build 0)  -->
<!DOCTYPE svg PUBLIC "-//W3C//DTD SVG 1.1//EN" "http://www.w3.org/Graphics/SVG/1.1/DTD/svg11.dtd">
<svg version="1.1" id="Layer_1" xmlns="http://www.w3.org/2000/svg" xmlns:xlink="http://www.w3.org/1999/xlink" x="0px" y="0px"
	 viewBox="0 0 64 64" style="enable-background:new 0 0 64 64;" xml:space="preserve">
<path d="M18.452,19.268c0,0.433,2.445,0.726,2.492,1.146c0.048,0.429-2.271,1.255-2.177,1.668c0.095,0.42,2.544,0.161,2.685,0.562
	c0.142,0.406-1.934,1.73-1.749,2.113c0.186,0.386,2.515-0.414,2.742-0.053c0.228,0.363-1.5,2.116-1.234,2.45
	c0.267,0.334,2.36-0.963,2.662-0.66s-0.995,2.395-0.661,2.662c0.334,0.267,2.087-1.462,2.45-1.233
	c0.135,0.085,0.107,0.466,0.04,0.919C21.919,29.328,19,30.359,19,31.902c0,0.034,0.014,0.065,0.017,0.098H19v1v21.821v0
	C19,56.163,19,58,22.5,58h18.214h0c0.001,0,0.001,0,0.002,0C43,57.999,43,56.086,43,54.821V32.112
	c0.013-0.07,0.036-0.138,0.036-0.211c0-1.521-2.833-2.544-6.535-3.039c-0.07-0.461-0.101-0.852,0.037-0.939
	c0.363-0.228,2.116,1.5,2.45,1.234c0.334-0.267-0.963-2.36-0.66-2.662s2.395,0.995,2.662,0.661c0.266-0.334-1.462-2.087-1.233-2.45
	c0.227-0.361,2.556,0.44,2.743,0.053c0.185-0.384-1.89-1.708-1.748-2.114c0.14-0.401,2.589-0.142,2.685-0.562
	c0.094-0.414-2.225-1.239-2.177-1.669c0.047-0.421,2.492-0.713,2.492-1.146c0-0.433-2.445-0.726-2.492-1.146
	c-0.048-0.429,2.271-1.255,2.177-1.668c-0.095-0.42-2.544-0.161-2.685-0.562c-0.142-0.406,1.934-1.73,1.749-2.113
	c-0.186-0.386-2.515,0.414-2.742,0.053c-0.228-0.363,1.5-2.116,1.234-2.45c-0.267-0.334-2.36,0.963-2.662,0.66
	c-0.302-0.302,0.995-2.395,0.661-2.662c-0.334-0.266-2.088,1.462-2.45,1.233c-0.361-0.227,0.44-2.556,0.053-2.743
	c-0.384-0.185-1.708,1.89-2.114,1.748c-0.401-0.14-0.142-2.589-0.562-2.685c-0.414-0.094-1.239,2.225-1.669,2.177
	c-0.42-0.047-0.713-2.492-1.146-2.492c-0.433,0-0.726,2.445-1.146,2.492C29.526,9.159,28.7,6.84,28.287,6.934
	c-0.42,0.096-0.161,2.544-0.562,2.685c-0.406,0.142-1.73-1.934-2.113-1.749c-0.386,0.186,0.414,2.515,0.053,2.742
	c-0.363,0.228-2.116-1.5-2.45-1.234c-0.334,0.267,0.963,2.36,0.66,2.662c-0.302,0.302-2.395-0.995-2.662-0.661
	c-0.266,0.334,1.462,2.087,1.233,2.45c-0.227,0.361-2.556-0.44-2.743-0.053c-0.185,0.384,1.89,1.708,1.748,2.114
	c-0.14,0.401-2.589,0.142-2.685,0.562c-0.094,0.414,2.225,1.239,2.177,1.669C20.898,18.542,18.452,18.835,18.452,19.268z
	 M42.036,31.902c0,0.031-0.016,0.065-0.026,0.098c-0.094,0.292-0.593,0.651-1.499,1c-1.732,0.666-4.921,1.286-9.493,1.286
	c-4.571,0-7.76-0.62-9.492-1.286c-0.906-0.349-1.406-0.708-1.499-1C20.016,31.967,20,31.933,20,31.902
	c0-0.587,1.892-1.53,5.542-2.036c0.378-0.052,0.776-0.099,1.192-0.141c0.388-0.039,0.793-0.073,1.214-0.102
	c0.575-0.039,1.172-0.071,1.807-0.088c0.11-0.003,0.227-0.002,0.339-0.005c0.304-0.006,0.606-0.012,0.924-0.012
	c0.374,0,0.733,0.007,1.089,0.015c0.115,0.003,0.232,0.005,0.346,0.008c0.633,0.019,1.229,0.052,1.801,0.094
	c0.427,0.031,0.838,0.067,1.231,0.109c0.41,0.044,0.805,0.091,1.178,0.145C40.204,30.399,42.036,31.324,42.036,31.902z
	 M26.205,44.637c0.751-0.336,1.832,0.412,1.956,0.356l3.663-1.636c0.124-0.056,0.289-1.359,1.04-1.695
	c0.841-0.375,1.932,0.237,2.307,1.078c0.203,0.455,0.184,0.952-0.008,1.373c0.441,0.137,0.861,0.537,1.064,0.992
	c0.375,0.841,0.035,1.909-0.806,2.284c-0.735,0.328-1.816-0.447-1.959-0.383l-3.678,1.643c-0.143,0.064-0.294,1.372-1.029,1.7
	c-0.841,0.375-1.906-0.18-2.282-1.021c-0.203-0.455-0.198-0.982-0.005-1.402c-0.441-0.138-0.851-0.514-1.054-0.969
	C25.04,46.116,25.365,45.012,26.205,44.637z M30.898,12.298c3.683,0,6.68,2.996,6.68,6.678s-2.997,6.679-6.68,6.679
	s-6.679-2.996-6.679-6.679S27.216,12.298,30.898,12.298z"/>
<path d="M30.898,24.441c3.014,0,5.465-2.452,5.465-5.465s-2.451-5.464-5.465-5.464c-3.013,0-5.464,2.451-5.464,5.464
	S27.886,24.441,30.898,24.441z"/>
</svg>
