<?xml version="1.0" encoding="iso-8859-1"?>
<!-- Generator: Adobe Illustrator 17.1.0, SVG Export Plug-In . SVG Version: 6.00 Build 0)  -->
<!DOCTYPE svg PUBLIC "-//W3C//DTD SVG 1.1//EN" "http://www.w3.org/Graphics/SVG/1.1/DTD/svg11.dtd">
<svg version="1.1" id="Layer_1" xmlns="http://www.w3.org/2000/svg" xmlns:xlink="http://www.w3.org/1999/xlink" x="0px" y="0px"
	 viewBox="0 0 64 64" style="enable-background:new 0 0 64 64;" xml:space="preserve">
<path d="M46.144,13.123c0-1.035,5.121-2.234,5.067-3.487c0-0.654-7.137,0.054-7.137,3.923c0,4.522,15.091,3.705,15.091,8.989
	s-15.309,3.977-15.309,3.977c-11.223,0.109-9.97,13.674-17.052,19.613c-1.798,1.416-3.105-1.362-3.105-1.362
	c-3.16-4.304-5.829-3.705-5.829-3.705c1.362,0.545,1.852,3.16,1.852,3.16c-3.048,0.601-4.685,2.179-4.631,4.74
	c-1.199,1.035-1.035,1.525-1.035,1.525c1.417,3.269,7.736,0.545,7.736,0.545c-4.576,2.887-16.671,2.67-17.542,2.397
	c-0.872-0.272-2.561,0.381-2.343,1.199c0.218,0.817,1.743,0.926,2.125,0.872c0.381-0.054,19.231,0.545,20.43-0.381
	c1.199-0.926,3.432-4.14,8.281-5.176c6.701-1.144,7.954-6.483,7.954-6.483s1.335,2.234,1.335,4.304c0,2.07-3.677,6.565-3.841,6.401
	s-0.872-0.436-2.043-0.354s-2.479,2.806,0.599,2.806c3.078,0,4.004-2.043,5.148-3.841c1.144-1.798,3.977-4.522,3.977-4.522
	c3.214-2.397,1.199-3.759,2.506-8.226c4.031-6.647,1.144-7.573,1.09-9.643c0-2.833,12.095-0.436,12.095-7.573
	C61.562,15.683,46.306,16.068,46.144,13.123z"/>
</svg>
