<?xml version="1.0" encoding="iso-8859-1"?>
<!-- Generator: Adobe Illustrator 17.1.0, SVG Export Plug-In . SVG Version: 6.00 Build 0)  -->
<!DOCTYPE svg PUBLIC "-//W3C//DTD SVG 1.1//EN" "http://www.w3.org/Graphics/SVG/1.1/DTD/svg11.dtd">
<svg version="1.1" id="Layer_1" xmlns="http://www.w3.org/2000/svg" xmlns:xlink="http://www.w3.org/1999/xlink" x="0px" y="0px"
	 viewBox="0 0 64 64" style="enable-background:new 0 0 64 64;" xml:space="preserve">
<path d="M38,57.417v-29.19c0-0.552,0.108-1.435,0.241-1.971l2.92-12.759c0.133-0.536-0.097-0.677-0.515-0.316l-4.884,5.229
	c-0.418,0.362-1.2,0.595-1.747,0.521l-15.782-2.137c-0.547-0.074-1.202,0.261-1.462,0.748l-3.3,6.179
	C13.211,24.208,13,25.051,13,25.603V54.21c0,0.552,0.444,1.057,0.992,1.127l23.016,2.952C37.556,58.36,38,57.969,38,57.417z
	 M32.08,40.992c-1.032,0.224-2.066,0.426-3.1,0.632c-0.042,0.209-0.092,0.414-0.15,0.614c0.941,0.223,1.897,0.371,2.844,0.571
	c0.409,0.086,0.322,0.869-0.09,0.782c-1.009-0.213-2.025-0.376-3.026-0.62c-0.094,0.211-0.205,0.407-0.325,0.593
	c0.871,0.576,1.768,1.076,2.731,1.423c0.398,0.143,0.137,0.877-0.259,0.734c-1.045-0.376-2.013-0.937-2.954-1.57
	c-0.439,0.42-0.997,0.699-1.712,0.75c-2.36,0.168-4.169-0.161-5.227-1.393c-1.046,0.428-2.106,0.771-3.184,1.032
	c-0.417,0.101-0.5-0.673-0.085-0.774c0.958-0.232,1.9-0.533,2.832-0.901c-0.093-0.175-0.188-0.347-0.26-0.549
	c-1.163,0.096-2.325,0.159-3.488,0.207c-0.42,0.018-0.325-0.765,0.09-0.782c1.062-0.045,2.123-0.104,3.184-0.19
	c-0.038-0.194-0.069-0.398-0.091-0.613c-1.035-0.176-2.069-0.359-3.096-0.584c-0.408-0.089-0.321-0.872,0.09-0.782
	c0.982,0.215,1.97,0.392,2.96,0.561c-0.008-0.567,0.029-1.193,0.116-1.886c0,0,0.26-2.738,0.922-2.662
	c0.662,0.076,1.195,2.231,1.322,2.583c0,0,2.76-1.639,4.907,0.567c0,0,0.709-2.754,1.426-2.671c0.381,0.044,0.9,2.451,0.65,4.743
	c0.964-0.191,1.928-0.38,2.89-0.589C32.413,40.127,32.497,40.901,32.08,40.992z"/>
<path d="M52,53.044V23.125c0-0.552-0.209-1.396-0.468-1.884L44.078,7.159c-0.258-0.488-0.914-0.919-1.465-0.962L22.663,4.64
	c-0.551-0.043-1.337,0.214-1.755,0.574l-9.086,7.806c-0.419,0.36-0.314,0.705,0.234,0.772l20.894,2.529
	c0.548,0.066,1.336-0.167,1.76-0.521l7.716-6.443c0.424-0.354,0.698-0.199,0.611,0.347l-2.88,15.871C40.07,26.12,40,27.01,40,27.562
	l1,29.854c0,0.552,0.416,0.835,0.929,0.631l9.141-3.634C51.584,54.21,52,53.596,52,53.044z"/>
</svg>
