<?xml version="1.0" encoding="iso-8859-1"?>
<!-- Generator: Adobe Illustrator 17.1.0, SVG Export Plug-In . SVG Version: 6.00 Build 0)  -->
<!DOCTYPE svg PUBLIC "-//W3C//DTD SVG 1.1//EN" "http://www.w3.org/Graphics/SVG/1.1/DTD/svg11.dtd">
<svg version="1.1" id="Layer_1" xmlns="http://www.w3.org/2000/svg" xmlns:xlink="http://www.w3.org/1999/xlink" x="0px" y="0px"
	 viewBox="0 0 64 64" style="enable-background:new 0 0 64 64;" xml:space="preserve">
<path d="M54.915,29.721c1.429,0.801,3.712-0.723,3.991-2.565c0.279-1.228-1.312-0.951-1.535-2.682
	c-0.223-1.73-1.228-5.302-7.925-5.246c0,0,0.056-3.87,2.177-5.395c0,0-8.483,2.307-8.037,9.748c0.447,7.442-3.721,8.409-8.93,3.051
	C29.447,21.275,6.75,19.414,6.75,35.265c0,12.279,7.739,10.716,8.186,10.716s11.46-0.447,17.413,0.967
	c5.953,1.414,8.483-3.349,8.483-3.349s2.865-0.093,4.763,0.912c1.898,1.005,8.148-1.005,4.577-4.744
	c1.172-2.232-0.67-6.251,0.837-9.544C51.567,29.163,53.867,29.133,54.915,29.721z"/>
</svg>
