<?xml version="1.0" encoding="iso-8859-1"?>
<!-- Generator: Adobe Illustrator 17.1.0, SVG Export Plug-In . SVG Version: 6.00 Build 0)  -->
<!DOCTYPE svg PUBLIC "-//W3C//DTD SVG 1.1//EN" "http://www.w3.org/Graphics/SVG/1.1/DTD/svg11.dtd">
<svg version="1.1" id="Layer_1" xmlns="http://www.w3.org/2000/svg" xmlns:xlink="http://www.w3.org/1999/xlink" x="0px" y="0px"
	 viewBox="0 0 64 64" style="enable-background:new 0 0 64 64;" xml:space="preserve">
<g>
	<path d="M7.992,49.566l6.772-2.194c0,0,4.109,4.628,12.113,4.628h0.761c8.004,0,12.113-4.64,12.113-4.64l6.772,2.269l0.992-2.949
		l-5.821-2.041c0.132-0.198,0.265-0.64,0.265-0.64H47v-4h-4.248c0,0,0.156-2.706-1.375-4.135c-3.566-2.058-6.056-5.769-6.414-10.083
		c-2.01,1.839-3.737,3.83-3.737,3.83S28.564,29,27.638,29h-0.761c-0.926,0-3.589,0.692-3.589,0.692s-6.689-7.79-9.07-6.864
		c-2.977,1.058-0.194,11.996-0.599,12.588C11.568,36.673,11.763,40,11.763,40H7v4h5.556c0,0,0.132,0.435,0.265,0.634L7,46.637
		L7.992,49.566z M34.517,37.549c1.26,0,2.282,1.022,2.282,2.282s-1.022,2.282-2.282,2.282c-1.26,0-2.282-1.022-2.282-2.282
		S33.257,37.549,34.517,37.549z M20.229,37.549c1.26,0,2.282,1.022,2.282,2.282s-1.022,2.282-2.282,2.282
		c-1.26,0-2.282-1.022-2.282-2.282S18.969,37.549,20.229,37.549z"/>
	<path d="M47.789,13.83c-5.815,0-10.55,4.565-10.851,10.304c-0.01,0.192-0.029,0.381-0.029,0.576c0,3.471,1.631,6.555,4.162,8.547
		c1.851,1.457,4.18,2.333,6.718,2.333c6.009,0,10.88-4.871,10.88-10.88C58.67,18.702,53.798,13.83,47.789,13.83z M53.685,18.899
		l-8.813,11.399c-0.24,0.31-0.597,0.289-0.798-0.048l-2.398-4.028l-0.437-0.733c-0.201-0.337-0.065-0.5,0.303-0.364l0.045,0.03
		l2.394,1.581c0.368,0.136,0.895,0.025,1.177-0.247l7.383-7.857c0.282-0.273,0.541-0.587,0.836-0.531
		C53.673,18.155,53.998,18.506,53.685,18.899z"/>
</g>
</svg>
