<?xml version="1.0" encoding="iso-8859-1"?>
<!-- Generator: Adobe Illustrator 17.1.0, SVG Export Plug-In . SVG Version: 6.00 Build 0)  -->
<!DOCTYPE svg PUBLIC "-//W3C//DTD SVG 1.1//EN" "http://www.w3.org/Graphics/SVG/1.1/DTD/svg11.dtd">
<svg version="1.1" id="Layer_1" xmlns="http://www.w3.org/2000/svg" xmlns:xlink="http://www.w3.org/1999/xlink" x="0px" y="0px"
	 viewBox="0 0 64 64" style="enable-background:new 0 0 64 64;" xml:space="preserve">
<path d="M7.937,31.156c1.855,0.219,3.281,3.406,3.531,3.844c0.312,0.812,3.219,3.719,6.062,5.625
	c0.75,0.875,0.312,3.406,0.281,4.031c-0.031,0.625-0.437,2.25-0.5,2.344c-0.062,0.094-2.125,0.469-2.125,1.875
	s3.875,0.688,4.344,0.344c0.75,0.375,3.938,1.062,4.562-1.312c0.969-2.875-0.75-10,4.688-10s12.969,4.156,12.969,7.156
	c0,0.922-0.938,1.562-1.094,1.75C40.5,47,38.031,46.078,38.031,47.625s3.391,2.281,5.062,0.812s3.141-4.156,3.188-4.391
	s0.547,1.656-0.297,2.578s0.641,2.047,1.547,2.047c0.906,0,1.969-0.047,1.781-3.609c-0.187-3.562-0.644-5.719,0.022-7.344
	s0.072-3.156-1.428-3.219c-0.938,0-0.312-1.406-0.188-2.312s0.094-3.656-0.031-3.781s12.151-1.425,12.607-6.722
	c0.414-4.809-5.836-7.267-10.076-5.997c-1.957,0.587-8.719,4.812-6.385,6.146c2.333,1.333,7.292-5.083,10.073-2.896
	c2.781,2.188-0.25,5.312-4.031,5.469S39.5,23.25,37.917,23.042c-1.583-0.208-12.589-0.214-19.208,1.833
	c-4.646,0.984-7.395-1.898-8.25-2.375C9.768,22.115,8.021,21,8.021,21l-0.333,1.625L6,22v2c0,0-1.844,0.844-1.563,2.625
	c0.281,1.781-0.594,1.875-0.594,2.281S4.094,31.562,7.937,31.156z"/>
</svg>
