<?xml version="1.0" encoding="iso-8859-1"?>
<!-- Generator: Adobe Illustrator 17.1.0, SVG Export Plug-In . SVG Version: 6.00 Build 0)  -->
<!DOCTYPE svg PUBLIC "-//W3C//DTD SVG 1.1//EN" "http://www.w3.org/Graphics/SVG/1.1/DTD/svg11.dtd">
<svg version="1.1" id="Layer_1" xmlns="http://www.w3.org/2000/svg" xmlns:xlink="http://www.w3.org/1999/xlink" x="0px" y="0px"
	 viewBox="0 0 64 64" style="enable-background:new 0 0 64 64;" xml:space="preserve">
<path d="M57.531,11.702c0.673-0.477,0.834,0.447,0.861-0.052C58.42,11.142,58.775,11,59.35,11h0.146
	c0.026,0,0.046,0.012,0.073,0.013c0.955-0.143,0.652,1.152,1.114,1.057c0.461-0.095,0.684,0.385,0.509,0.672
	c-0.175,0.286-0.696,1.06-0.414,1.211c0.795,0.095,0.694,0.494,0.694,0.494c-0.133,0.35-1.792,1.241-1.792,1.241
	c-0.048,0.764-3.293,8.687-3.962,10.119s-3.198,3.15-3.962,3.58c-0.764,0.43-5.441,7.303-6.014,8.257
	c-0.573,0.955-0.239,1.384-0.239,1.384c0.43,0.095,1.527,1.05,1.527,2.052s-0.811,4.164-0.811,4.164
	c1.492,0.107,2.124,0.764,1.289,1.885c-0.835,1.122-2.577,0.179-2.673,0.251c-0.095,0.072-2.124,2.112-2.124,2.112
	c3.747-0.823,4.176-0.155,4.666,0.131c0.489,0.286,1.396,1.444,0.179,1.778c-1.217,0.334-2.088-0.024-2.088-0.024
	c-3.926,1.014-9.104,1.062-9.486,0.346s-6.054,0.541-6.054,0.541C6.702,56.592,5.429,51.946,4.984,51.31
	c-0.445-0.636-0.636-3.691,2.736-0.764c3.373,2.927,18.871-0.496,19.311-0.562c1.477-0.221,5.516-0.281,4.935-3.511
	c-1.209-8.973,3.691-15.878,5.918-17.151c3.162-1.807,3.85-7.668,2.737-9.196c-1.114-1.527,0.35-1.591-0.509-3.787
	c-0.859-2.196,0-2.386,0-2.386s1.21-0.223,1.958,1.209c0.764,1.177,1.386,0.525,3.645,0.493c2.259-0.032,2.055,0.907,3.153,1.241
	c1.098,0.334,0.626,0.97,0.786,1.066C49.813,18.059,50,18.902,50,18.902v0.064c0,0.509-1.03,1.368-1.014,3.055
	c0.048,1.193,1.356,1.177,3.074,1.114c1.718-0.064,3.771-4.9,4.455-6.237c0.684-1.336,0.016-1.225-0.143-1.909
	c-0.159-0.684,1.018-0.445,0.97-1.13c-0.048-0.684-0.78-1.098-0.143-1.845c0.05-0.057,0.096-0.104,0.142-0.148L57.531,11.702z"/>
</svg>
