<?xml version="1.0" encoding="iso-8859-1"?>
<!-- Generator: Adobe Illustrator 17.1.0, SVG Export Plug-In . SVG Version: 6.00 Build 0)  -->
<!DOCTYPE svg PUBLIC "-//W3C//DTD SVG 1.1//EN" "http://www.w3.org/Graphics/SVG/1.1/DTD/svg11.dtd">
<svg version="1.1" id="Layer_1" xmlns="http://www.w3.org/2000/svg" xmlns:xlink="http://www.w3.org/1999/xlink" x="0px" y="0px"
	 viewBox="0 0 64 64" style="enable-background:new 0 0 64 64;" xml:space="preserve">
<path d="M45.162,26.863c0,0-1.673-2.328-2.91-2.255c0,0-1.601,1.528-1.601,2.838c0,0-0.728,1.161-5.384-2.839
	s-18.262-2.618-26.193,7.205s6.33,15.279,17.316,11.787c0,0,5.821-0.8,6.694-3.638c0,0,0.267-0.243,0.485,0.655
	c0.218,0.897,5.869,0.994,6.451,0.994s12.805,1.407,12.902-0.049c0,0,0.049-0.873,0-1.067s6.463,1.231,6.991-0.57
	c0.527-1.801-2.565-1.801-3.292-1.855c-0.728-0.055-4.656-0.928-4.675-0.982s3.159-3.432,1.461-7.312c0,0,0.388-3.977,1.067-4.85
	s-0.291-1.31-1.261-0.776c-0.97,0.534-3.492,2.328-3.88,2.425C48.945,26.669,46.665,26.378,45.162,26.863z"/>
</svg>
