<?xml version="1.0" encoding="iso-8859-1"?>
<!-- Generator: Adobe Illustrator 17.1.0, SVG Export Plug-In . SVG Version: 6.00 Build 0)  -->
<!DOCTYPE svg PUBLIC "-//W3C//DTD SVG 1.1//EN" "http://www.w3.org/Graphics/SVG/1.1/DTD/svg11.dtd">
<svg version="1.1" id="Layer_1" xmlns="http://www.w3.org/2000/svg" xmlns:xlink="http://www.w3.org/1999/xlink" x="0px" y="0px"
	 viewBox="0 0 64 64" style="enable-background:new 0 0 64 64;" xml:space="preserve">
<path d="M48.283,18.463c-0.57-0.946-1.089-1.88-1.158-2.088S47,15.105,47,14v-2c0-1.105-0.895-2-2-2H24c-1.105,0-2,0.895-2,2v2.272
	c0,1.105-0.443,2.778-0.99,3.738l-2.993,5.253c-0.547,0.96-0.998,2.633-1.001,3.738C17.003,32.456,17.001,47.547,17,53.001
	C17,54.105,17.895,55,19,55h31c1.105,0,2-0.895,2-2V25c0,0,0-0.084,0-0.188c0-0.104-0.462-0.954-1.033-1.9L48.283,18.463z
	 M42.896,30.621c-1.115,0.381-2.235,0.737-3.354,1.097c-0.02,0.237-0.049,0.471-0.088,0.699c1.072,0.127,2.15,0.168,3.224,0.268
	c0.464,0.043,0.468,0.922,0,0.878c-1.145-0.107-2.292-0.158-3.433-0.3c-0.077,0.246-0.175,0.477-0.284,0.698
	c1.038,0.526,2.097,0.966,3.208,1.227c0.46,0.108,0.265,0.954-0.193,0.847c-1.206-0.283-2.35-0.78-3.474-1.361
	c-0.433,0.522-1.016,0.903-1.801,1.05c-2.594,0.489-4.64,0.355-5.97-0.874c-1.104,0.608-2.235,1.124-3.396,1.551
	c-0.449,0.165-0.64-0.682-0.193-0.847c1.032-0.38,2.037-0.834,3.022-1.361c-0.126-0.182-0.253-0.361-0.358-0.574
	c-1.276,0.255-2.556,0.473-3.839,0.676c-0.464,0.073-0.458-0.806,0-0.878c1.171-0.185,2.339-0.387,3.504-0.618
	c-0.067-0.211-0.127-0.433-0.179-0.668c-1.17-0.063-2.339-0.133-3.506-0.251c-0.463-0.047-0.467-0.925,0-0.878
	c1.116,0.113,2.233,0.182,3.352,0.243c-0.081-0.628-0.12-1.326-0.113-2.104c0,0-0.062-3.067,0.681-3.067s1.61,2.319,1.795,2.693
	c0,0,2.848-2.17,5.51,0c0,0,0.433-3.142,1.238-3.142c0.428,0,1.311,2.601,1.327,5.172c1.044-0.335,2.088-0.668,3.127-1.022
	C43.155,29.62,43.346,30.468,42.896,30.621z"/>
</svg>
