<?xml version="1.0" encoding="iso-8859-1"?>
<!-- Generator: Adobe Illustrator 17.1.0, SVG Export Plug-In . SVG Version: 6.00 Build 0)  -->
<!DOCTYPE svg PUBLIC "-//W3C//DTD SVG 1.1//EN" "http://www.w3.org/Graphics/SVG/1.1/DTD/svg11.dtd">
<svg version="1.1" id="Layer_1" xmlns="http://www.w3.org/2000/svg" xmlns:xlink="http://www.w3.org/1999/xlink" x="0px" y="0px"
	 viewBox="0 0 64 64" style="enable-background:new 0 0 64 64;" xml:space="preserve">
<path d="M50.303,37.118c-4.536-1.982-6.899-8.919-10.329-11.358s-13.645-3.468-21.687,1.258c0,0-1.258-4.955-6.213-4.955
	c-3.697,0-5.298,2.477-5.412,2.668c-0.114,0.191-4.421,0.305-5.412,2.63c0,0,4.269,2.287,4.726,2.439
	c0.457,0.152,0.203,2.363,2.211,2.948c2.007,0.584-0.432,1.093,1.677,1.143c2.109,0.051,2.795,0,3.024-0.203
	c-0.229,2.236-5.133,4.015-5.26,5.133c-0.534,1.067-0.813-2.973-4.752-0.966c0,0-2.376,1.442-0.584,4.167
	c1.626,2.211,4.345,0.762,4.777,0c0.483-0.61,0.762-1.423,0.737-1.804c-0.025-0.381,0.724,1.461,3.278-0.14
	c2.554-1.601,3.557-0.597,5.717-0.419c2.16,0.178,4.472-1.143,5.336-1.22c0.864-0.076,7.775-0.483,8.716,0.457
	c0.94,0.94,5.107,1.398,7.725,1.118c2.617-0.28,5.26-1.804,4.904-3.811s1.855,3.786,6.2,4.193
	c4.345,0.407,12.527,1.194,12.527-0.152C62.208,38.896,52.438,38.223,50.303,37.118z"/>
</svg>
