<?xml version="1.0" encoding="utf-8"?>
<!-- Generator: Adobe Illustrator 17.1.0, SVG Export Plug-In . SVG Version: 6.00 Build 0)  -->
<!DOCTYPE svg PUBLIC "-//W3C//DTD SVG 1.1//EN" "http://www.w3.org/Graphics/SVG/1.1/DTD/svg11.dtd">
<svg version="1.1" id="Layer_1" xmlns="http://www.w3.org/2000/svg" xmlns:xlink="http://www.w3.org/1999/xlink" x="0px" y="0px"
	 viewBox="0 0 612 792" enable-background="new 0 0 612 792" xml:space="preserve">
<path d="M362.4,254.3h-37.8v-66.1c0-10.4-8.5-18.9-18.9-18.9H249c-10.4,0-18.9,8.5-18.9,18.9v66.1h-37.8
	c-15.7,0-28.3,12.7-28.3,28.3v321.3c0,15.7,12.7,28.3,28.3,28.3h170.1c15.7,0,28.3-12.7,28.3-28.3V282.7
	C390.7,267,378,254.3,362.4,254.3z M205.8,481.5c-0.5,1-1.1,1.9-2,2.6c-0.9,0.7-2,1.3-3.3,1.7c-1.3,0.4-2.9,0.6-4.6,0.6
	c-1.4,0-2.8-0.2-4.1-0.5s-2.5-0.9-3.5-1.6c-1-0.7-1.8-1.7-2.4-2.8c-0.6-1.2-0.9-2.5-0.9-4.1h5.5c0,0.9,0.2,1.6,0.5,2.2
	c0.3,0.6,0.7,1.1,1.2,1.5s1.1,0.6,1.8,0.8c0.7,0.2,1.4,0.3,2.2,0.3c0.5,0,1,0,1.6-0.1c0.6-0.1,1.1-0.2,1.6-0.5
	c0.5-0.2,0.9-0.6,1.3-1c0.3-0.4,0.5-1,0.5-1.6c0-0.7-0.2-1.3-0.7-1.7c-0.4-0.4-1-0.8-1.7-1.1c-0.7-0.3-1.5-0.5-2.4-0.8
	c-0.9-0.2-1.8-0.5-2.8-0.7c-1-0.2-1.9-0.5-2.8-0.9c-0.9-0.3-1.7-0.8-2.4-1.3c-0.7-0.6-1.3-1.2-1.7-2.1c-0.4-0.8-0.7-1.8-0.7-3
	c0-1.3,0.3-2.5,0.8-3.4c0.6-1,1.3-1.8,2.2-2.4c0.9-0.6,1.9-1.1,3.1-1.4c1.2-0.3,2.3-0.5,3.5-0.5c1.3,0,2.6,0.2,3.9,0.5
	c1.2,0.3,2.3,0.8,3.3,1.5c1,0.7,1.7,1.5,2.3,2.6c0.6,1,0.8,2.3,0.8,3.8h-5.5c0-0.8-0.2-1.4-0.5-1.9c-0.3-0.5-0.6-0.9-1.1-1.2
	c-0.5-0.3-1-0.5-1.6-0.6c-0.6-0.1-1.2-0.2-1.9-0.2c-0.5,0-0.9,0-1.4,0.1c-0.5,0.1-0.9,0.3-1.2,0.5c-0.4,0.2-0.7,0.5-0.9,0.9
	c-0.2,0.4-0.4,0.8-0.4,1.4c0,0.5,0.1,0.9,0.3,1.2c0.2,0.3,0.6,0.6,1.1,0.9c0.6,0.3,1.3,0.5,2.3,0.8c1,0.3,2.3,0.6,3.9,1
	c0.5,0.1,1.1,0.3,2,0.5c0.9,0.3,1.7,0.7,2.5,1.2c0.8,0.6,1.6,1.3,2.2,2.2s0.9,2.1,0.9,3.5C206.5,479.4,206.3,480.5,205.8,481.5z
	 M231.6,485.9h-5.7v-11.1h-10.4v11.1h-5.7v-25.7h5.7v9.9h10.4v-9.9h5.7V485.9z M253.1,485.9l-1.9-5.7h-9.6l-2,5.7h-5.7l9.7-25.7h5.8
	l9.6,25.7H253.1z M288.9,485.9h-5.3v-18.2h-0.1l-6.3,18.2h-4.4l-6.3-18h-0.1v18h-5.3v-25.7h8l6,17.7h0.1l5.7-17.7h8V485.9z
	 M313.8,471.5c-0.3,1-0.8,1.9-1.5,2.6c-0.7,0.8-1.6,1.4-2.8,1.9c-1.1,0.5-2.5,0.7-4.1,0.7h-5.9v9.2h-5.7v-25.7h11.6
	c1.6,0,3,0.2,4.1,0.7c1.1,0.5,2,1.1,2.8,1.9c0.7,0.8,1.2,1.6,1.5,2.6c0.3,1,0.5,2,0.5,3.1C314.3,469.5,314.2,470.5,313.8,471.5z
	 M299.5,420.7c-24.1,4.5-43.1,3.3-55.4-8.1c-10.2,5.6-20.7,10.4-31.5,14.4c-4.2,1.5-5.9-6.3-1.8-7.9c9.6-3.5,18.9-7.7,28-12.6
	c-1.2-1.7-2.3-3.4-3.3-5.3c-11.8,2.4-23.7,4.4-35.6,6.3c-4.3,0.7-4.3-7.5,0-8.1c10.9-1.7,21.7-3.6,32.5-5.7c-0.6-2-1.2-4-1.7-6.2
	c-10.9-0.6-21.7-1.2-32.5-2.3c-4.3-0.4-4.3-8.6,0-8.1c10.4,1,20.7,1.7,31.1,2.3c-0.8-5.8-1.1-12.3-1-19.5c0,0-0.6-28.5,6.3-28.5
	c6.9,0,14.9,21.5,16.7,25c0,0,26.4-20.1,51.1,0c0,0,4-29.2,11.5-29.2c4,0,12.2,24.1,12.3,48c9.7-3.1,19.4-6.2,29-9.5
	c4.2-1.4,6,6.4,1.8,7.9c-10.3,3.5-20.7,6.8-31.1,10.2c-0.2,2.2-0.5,4.4-0.8,6.5c9.9,1.2,20,1.6,29.9,2.5c4.3,0.4,4.3,8.6,0,8.1
	c-10.6-1-21.3-1.5-31.9-2.8c-0.7,2.3-1.6,4.4-2.6,6.5c9.6,4.9,19.5,9,29.8,11.4c4.3,1,2.5,8.9-1.8,7.9c-11.2-2.6-21.8-7.2-32.2-12.6
	C312.2,415.8,306.7,419.4,299.5,420.7z M341.1,478.4c-0.6,1.6-1.4,3-2.5,4.2c-1.1,1.2-2.4,2.1-4,2.8c-1.6,0.7-3.3,1-5.3,1
	c-2,0-3.7-0.3-5.3-1c-1.6-0.7-2.9-1.6-4-2.8c-1.1-1.2-1.9-2.6-2.5-4.2c-0.6-1.6-0.9-3.4-0.9-5.2c0-1.9,0.3-3.7,0.9-5.3
	c0.6-1.6,1.4-3.1,2.5-4.3c1.1-1.2,2.4-2.2,4-2.9c1.6-0.7,3.3-1,5.3-1c2,0,3.8,0.3,5.3,1c1.6,0.7,2.9,1.7,4,2.9
	c1.1,1.2,1.9,2.7,2.5,4.3c0.6,1.6,0.9,3.4,0.9,5.3C342,475,341.7,476.8,341.1,478.4z M369.1,478.4c-0.6,1.6-1.4,3-2.5,4.2
	c-1.1,1.2-2.4,2.1-4,2.8c-1.6,0.7-3.3,1-5.3,1c-2,0-3.7-0.3-5.3-1c-1.6-0.7-2.9-1.6-4-2.8c-1.1-1.2-1.9-2.6-2.5-4.2
	c-0.6-1.6-0.9-3.4-0.9-5.2c0-1.9,0.3-3.7,0.9-5.3c0.6-1.6,1.4-3.1,2.5-4.3c1.1-1.2,2.4-2.2,4-2.9c1.6-0.7,3.3-1,5.3-1
	c2,0,3.8,0.3,5.3,1c1.6,0.7,2.9,1.7,4,2.9c1.1,1.2,1.9,2.7,2.5,4.3c0.6,1.6,0.9,3.4,0.9,5.3C370,475,369.7,476.8,369.1,478.4z"/>
<polygon points="246.4,466.5 243,476 249.7,476 246.4,466.5 "/>
<path d="M334.8,467.1c-0.6-0.8-1.3-1.5-2.2-2c-0.9-0.5-2-0.7-3.2-0.7c-1.3,0-2.4,0.2-3.2,0.7c-0.9,0.5-1.6,1.2-2.2,2
	c-0.6,0.8-1,1.8-1.2,2.8c-0.3,1.1-0.4,2.1-0.4,3.3c0,1.1,0.1,2.1,0.4,3.2s0.7,1.9,1.2,2.8c0.6,0.8,1.3,1.5,2.2,2
	c0.9,0.5,2,0.7,3.2,0.7c1.3,0,2.4-0.2,3.2-0.7c0.9-0.5,1.6-1.1,2.2-2c0.6-0.8,1-1.7,1.2-2.8s0.4-2.1,0.4-3.2c0-1.1-0.1-2.2-0.4-3.3
	C335.7,468.8,335.3,467.9,334.8,467.1z"/>
<path d="M307.3,465.3c-0.5-0.3-1-0.5-1.6-0.6c-0.6-0.1-1.2-0.1-1.9-0.1h-4.4v7.7h4.4c0.6,0,1.3,0,1.9-0.1c0.6-0.1,1.1-0.3,1.6-0.6
	c0.5-0.3,0.8-0.7,1.1-1.2c0.3-0.5,0.4-1.2,0.4-2c0-0.8-0.1-1.5-0.4-2C308.2,466,307.8,465.6,307.3,465.3z"/>
<path d="M362.8,467.1c-0.6-0.8-1.3-1.5-2.2-2c-0.9-0.5-2-0.7-3.2-0.7c-1.3,0-2.4,0.2-3.2,0.7c-0.9,0.5-1.6,1.2-2.2,2
	c-0.6,0.8-1,1.8-1.2,2.8c-0.3,1.1-0.4,2.1-0.4,3.3c0,1.1,0.1,2.1,0.4,3.2s0.7,1.9,1.2,2.8c0.6,0.8,1.3,1.5,2.2,2
	c0.9,0.5,2,0.7,3.2,0.7c1.3,0,2.4-0.2,3.2-0.7c0.9-0.5,1.6-1.1,2.2-2c0.6-0.8,1-1.7,1.2-2.8s0.4-2.1,0.4-3.2c0-1.1-0.1-2.2-0.4-3.3
	C363.7,468.8,363.3,467.9,362.8,467.1z"/>
</svg>
