<?xml version="1.0" encoding="iso-8859-1"?>
<!-- Generator: Adobe Illustrator 17.1.0, SVG Export Plug-In . SVG Version: 6.00 Build 0)  -->
<!DOCTYPE svg PUBLIC "-//W3C//DTD SVG 1.1//EN" "http://www.w3.org/Graphics/SVG/1.1/DTD/svg11.dtd">
<svg version="1.1" id="Layer_1" xmlns="http://www.w3.org/2000/svg" xmlns:xlink="http://www.w3.org/1999/xlink" x="0px" y="0px"
	 viewBox="0 0 64 64" style="enable-background:new 0 0 64 64;" xml:space="preserve">
<polygon points="33.465,41 32.752,43 34.171,43 33.481,41 "/>
<path d="M36.366,49.94c-0.118-0.177-0.271-0.317-0.46-0.422c-0.189-0.105-0.419-0.157-0.69-0.157c-0.271,0-0.501,0.052-0.69,0.157
	c-0.189,0.104-0.343,0.245-0.46,0.422s-0.204,0.377-0.257,0.603c-0.054,0.225-0.081,0.457-0.081,0.698
	c0,0.229,0.027,0.454,0.081,0.671c0.054,0.218,0.14,0.413,0.257,0.587s0.271,0.313,0.46,0.418c0.189,0.105,0.419,0.157,0.69,0.157
	c0.271,0,0.501-0.052,0.69-0.157c0.189-0.104,0.343-0.244,0.46-0.418s0.203-0.369,0.257-0.587c0.054-0.217,0.081-0.441,0.081-0.671
	c0-0.241-0.027-0.474-0.081-0.698C36.569,50.317,36.484,50.117,36.366,49.94z"/>
<path d="M42.169,49.982c-0.123-0.158-0.285-0.526-0.487-0.61C41.48,49.288,41.231,49,40.934,49H40v4h1.149
	c0.174,0,0.343-0.056,0.506-0.113c0.164-0.056,0.31-0.163,0.438-0.293c0.128-0.131,0.23-0.308,0.307-0.518s0.115-0.468,0.115-0.771
	c0-0.275-0.027-0.527-0.081-0.75C42.38,50.334,42.292,50.141,42.169,49.982z"/>
<path d="M30.256,49.94c-0.118-0.177-0.271-0.317-0.46-0.422c-0.189-0.105-0.419-0.157-0.69-0.157c-0.271,0-0.501,0.052-0.69,0.157
	c-0.189,0.104-0.343,0.245-0.46,0.422s-0.204,0.377-0.257,0.603c-0.054,0.225-0.081,0.457-0.081,0.698
	c0,0.229,0.027,0.454,0.081,0.671c0.054,0.218,0.14,0.413,0.257,0.587s0.271,0.313,0.46,0.418c0.189,0.105,0.419,0.157,0.69,0.157
	c0.271,0,0.501-0.052,0.69-0.157c0.189-0.104,0.343-0.244,0.46-0.418s0.203-0.369,0.257-0.587c0.054-0.217,0.081-0.441,0.081-0.671
	c0-0.241-0.027-0.474-0.081-0.698C30.459,50.317,30.374,50.117,30.256,49.94z"/>
<path d="M44.562,20.968c-0.198-1.755-1.293-3.289-2.775-4.173c-0.896-6.385-4.572-11.17-8.975-11.17
	c-4.323,0-7.939,4.617-8.918,10.828c-1.807,0.783-3.186,2.508-3.384,4.523l-3.148,32.048C17.094,55.772,19.114,58,21.875,58H43.75
	c2.761,0,4.748-2.224,4.438-4.968L44.562,20.968z M32.719,8.438c3.127,0,5.712,3.277,6.194,7.562H26.525
	C27.006,11.714,29.592,8.438,32.719,8.438z M23.778,28.887c1.092,0.11,2.185,0.178,3.279,0.237c-0.079-0.614-0.118-1.297-0.11-2.059
	c0,0-0.061-3.001,0.666-3.001c0.727,0,1.575,2.269,1.757,2.635c0,0,2.787-2.123,5.391,0c0,0,0.424-3.075,1.212-3.075
	c0.419,0,1.282,2.545,1.299,5.061c1.021-0.328,2.043-0.653,3.059-1c0.442-0.151,0.629,0.678,0.189,0.828
	c-1.091,0.372-2.187,0.721-3.282,1.073c-0.019,0.232-0.048,0.461-0.086,0.684c1.049,0.124,2.104,0.164,3.155,0.262
	c0.454,0.042,0.457,0.902,0,0.859c-1.12-0.105-2.242-0.154-3.359-0.294c-0.076,0.241-0.171,0.467-0.278,0.683
	c1.016,0.515,2.052,0.945,3.139,1.201c0.45,0.106,0.259,0.934-0.189,0.828c-1.18-0.277-2.299-0.763-3.399-1.332
	c-0.424,0.511-0.994,0.883-1.762,1.028c-2.538,0.478-4.54,0.347-5.841-0.855c-1.08,0.595-2.187,1.099-3.323,1.517
	c-0.44,0.162-0.626-0.668-0.189-0.828c1.01-0.371,1.993-0.816,2.957-1.332c-0.123-0.178-0.247-0.353-0.351-0.562
	c-1.248,0.25-2.501,0.463-3.756,0.662c-0.454,0.072-0.448-0.788,0-0.859c1.145-0.181,2.288-0.379,3.428-0.604
	c-0.066-0.206-0.124-0.423-0.175-0.653c-1.145-0.061-2.288-0.13-3.43-0.246C23.324,29.7,23.321,28.841,23.778,28.887z M36,40v-1h4v1
	h-1v5h-2v-5H36z M26,49h-3v2h3v1h-3v2h-1v-6h4V49z M25.619,43.15c-0.123-0.346-0.184-0.718-0.184-1.116
	c0-0.409,0.062-0.789,0.184-1.14c0.123-0.351,0.299-0.656,0.53-0.917c0.23-0.261,0.513-0.466,0.848-0.614
	c0.335-0.147,0.712-0.222,1.132-0.222c0.302,0,0.587,0.043,0.855,0.13s0.509,0.214,0.721,0.38s0.388,0.315,0.525,0.561
	C30.369,40.458,30.456,41,30.492,41h-1.167c-0.021,0-0.066-0.208-0.138-0.323s-0.161-0.188-0.269-0.275
	c-0.107-0.087-0.229-0.14-0.364-0.189c-0.136-0.048-0.278-0.065-0.426-0.065c-0.271,0-0.501,0.055-0.69,0.161
	c-0.189,0.104-0.343,0.247-0.46,0.424s-0.204,0.378-0.257,0.603c-0.054,0.225-0.081,0.458-0.081,0.699
	c0,0.229,0.027,0.454,0.081,0.671c0.054,0.218,0.14,0.413,0.257,0.587s0.271,0.314,0.46,0.418c0.189,0.105,0.419,0.157,0.69,0.157
	c0.368,0,0.656,0.068,0.863-0.157c0.207-0.226,0.333-0.71,0.379-0.71h1.167c-0.031,0-0.11,0.472-0.238,0.749
	s-0.297,0.422-0.506,0.616c-0.21,0.194-0.456,0.298-0.737,0.4c-0.281,0.102-0.591,0.131-0.928,0.131
	c-0.419,0-0.797-0.085-1.132-0.23s-0.618-0.352-0.848-0.608C25.918,43.802,25.742,43.495,25.619,43.15z M31.614,52.357
	c-0.123,0.345-0.299,0.646-0.529,0.901s-0.512,0.457-0.844,0.603s-0.711,0.219-1.135,0.219c-0.419,0-0.797-0.073-1.132-0.219
	s-0.618-0.347-0.848-0.603c-0.23-0.256-0.407-0.557-0.53-0.901c-0.123-0.346-0.184-0.718-0.184-1.116
	c0-0.409,0.062-0.789,0.184-1.14c0.123-0.351,0.299-0.656,0.53-0.917c0.23-0.261,0.513-0.466,0.848-0.614
	c0.335-0.147,0.712-0.222,1.132-0.222c0.424,0,0.803,0.074,1.135,0.222c0.333,0.148,0.614,0.354,0.844,0.614
	s0.407,0.566,0.529,0.917c0.123,0.351,0.184,0.73,0.184,1.14C31.798,51.64,31.737,52.012,31.614,52.357z M32.008,45h-1.212l2.072-6
	h1.235l2.049,6H34.9l-0.415-1h-2.048L32.008,45z M37.724,52.357c-0.123,0.345-0.299,0.646-0.529,0.901s-0.512,0.457-0.844,0.603
	s-0.711,0.219-1.135,0.219c-0.419,0-0.797-0.073-1.132-0.219s-0.618-0.347-0.848-0.603c-0.23-0.256-0.407-0.557-0.53-0.901
	c-0.123-0.346-0.184-0.718-0.184-1.116c0-0.409,0.062-0.789,0.184-1.14c0.123-0.351,0.299-0.656,0.53-0.917
	c0.23-0.261,0.513-0.466,0.848-0.614c0.335-0.147,0.712-0.222,1.132-0.222c0.424,0,0.803,0.074,1.135,0.222
	c0.333,0.148,0.614,0.354,0.844,0.614s0.407,0.566,0.529,0.917c0.123,0.351,0.184,0.73,0.184,1.14
	C37.908,51.64,37.847,52.012,37.724,52.357z M43.566,52.292c-0.102,0.338-0.257,0.629-0.464,0.875
	c-0.208,0.245-0.466,0.46-0.775,0.601S41.653,54,41.233,54H39v-6h2.233c0.353,0,0.682,0.296,0.986,0.408
	c0.305,0.112,0.568,0.401,0.791,0.625c0.223,0.226,0.396,0.567,0.522,0.905c0.125,0.337,0.188,0.763,0.188,1.219
	C43.72,51.556,43.668,51.954,43.566,52.292z"/>
</svg>
