<?xml version="1.0" encoding="iso-8859-1"?>
<!-- Generator: Adobe Illustrator 17.1.0, SVG Export Plug-In . SVG Version: 6.00 Build 0)  -->
<!DOCTYPE svg PUBLIC "-//W3C//DTD SVG 1.1//EN" "http://www.w3.org/Graphics/SVG/1.1/DTD/svg11.dtd">
<svg version="1.1" id="Layer_1" xmlns="http://www.w3.org/2000/svg" xmlns:xlink="http://www.w3.org/1999/xlink" x="0px" y="0px"
	 viewBox="0 0 64 64" style="enable-background:new 0 0 64 64;" xml:space="preserve">
<g>
	<path d="M7.992,46.566l6.772-2.194c0,0,4.109,4.628,12.113,4.628h0.761c8.004,0,12.113-4.64,12.113-4.64l6.772,2.269l0.992-2.949
		l-5.821-2.041c0.132-0.198,0.265-0.64,0.265-0.64H47v-4h-4.248c0,0,0.156-2.706-1.375-4.135c-3.566-2.058-6.056-5.769-6.414-10.083
		c-2.01,1.839-3.737,3.83-3.737,3.83S28.564,26,27.638,26h-0.761c-0.926,0-3.589,0.692-3.589,0.692s-6.689-7.79-9.07-6.864
		c-2.977,1.058-0.194,11.996-0.599,12.588C11.568,33.673,11.763,37,11.763,37H7v4h5.556c0,0,0.132,0.435,0.265,0.634L7,43.637
		L7.992,46.566z M34.517,34.549c1.26,0,2.282,1.022,2.282,2.282s-1.022,2.282-2.282,2.282c-1.26,0-2.282-1.022-2.282-2.282
		S33.257,34.549,34.517,34.549z M20.229,34.549c1.26,0,2.282,1.022,2.282,2.282s-1.022,2.282-2.282,2.282
		c-1.26,0-2.282-1.022-2.282-2.282S18.969,34.549,20.229,34.549z"/>
	<path d="M41.071,30.258c1.851,1.457,4.18,2.333,6.718,2.333c6.009,0,10.88-4.871,10.88-10.88c0-6.009-4.871-10.88-10.88-10.88
		c-5.815,0-10.55,4.565-10.851,10.304c-0.01,0.192-0.029,0.381-0.029,0.576C36.909,25.182,38.54,28.266,41.071,30.258z M44,20h3v-3
		c0-0.552,0.448-1,1-1s1,0.448,1,1v3h3c0.552,0,1,0.448,1,1c0,0.552-0.448,1-1,1h-3v3c0,0.552-0.448,1-1,1s-1-0.448-1-1v-3h-3
		c-0.552,0-1-0.448-1-1C43,20.448,43.448,20,44,20z"/>
</g>
</svg>
