<?xml version="1.0" encoding="iso-8859-1"?>
<!-- Generator: Adobe Illustrator 17.1.0, SVG Export Plug-In . SVG Version: 6.00 Build 0)  -->
<!DOCTYPE svg PUBLIC "-//W3C//DTD SVG 1.1//EN" "http://www.w3.org/Graphics/SVG/1.1/DTD/svg11.dtd">
<svg version="1.1" id="Layer_1" xmlns="http://www.w3.org/2000/svg" xmlns:xlink="http://www.w3.org/1999/xlink" x="0px" y="0px"
	 viewBox="0 0 64 64" style="enable-background:new 0 0 64 64;" xml:space="preserve">
<path d="M40.875,23c0,0,1.25,3.438,1.187,4c0,0-5-9.938-22.562-5.188c-1.708-1.354,0.583-5.312,0.667-7.229
	C20.25,12.667,21.917,0.25,10.5,2.75c0,0-0.969,0.359-0.781,1.266s2.016,0.438,2.578,0.734s4.391,0.688,3.766,8.312
	c-0.625,7.625-1.437,7.562-0.5,12.25c0,0-2,2.25-1.312,4.875c0.75,3.812,5,4.906,0.469,10.562c0,0,0.25,9.281,2.25,11.312
	c1.188,1.031,2.312-0.156,2.375-0.5s0.25-0.938-0.656-1.812c0,0-0.625-3.469-0.469-4.594c0,0,5.375,9.969,8.625,9.781
	c0,0,2.344-0.344,0.719-2.562s-5.437-5.031-4.5-6.969c0.938-1.938,4.375-6.094,5.438-8.125c0.312-2.031,1.281-1.406,2.094-0.969
	c0,0,5.594,4.094,5.625,5.562c0.031,1.469,0.49,5.042,0.781,6.75s0.875,7.208,2.5,9.5s2,2.167,2.917,2.125
	c0.917-0.042,1.958-0.458,1.958-1.417c-0.042-1.792-3-1-3-4.167l0.25-4c0,0,3.25,7.083,7.083,7.083c0,0,1.458,0,1.458-1.625
	c-0.042-0.729-1.542-1.25-1.833-1.208c0,0-1.896-0.604-5.146-10.417c0,0,4.5-3.438,4.688-5.375c1.187-1.688,4.625-5.5,3.75-12.5
	c0,0,0-3.438-1.313-3.938c0,0-1.562,0.75-1.875,2.5c0,0-2.25,0.688-4.375-0.25L40.875,23z"/>
</svg>
