<?xml version="1.0" encoding="iso-8859-1"?>
<!-- Generator: Adobe Illustrator 17.1.0, SVG Export Plug-In . SVG Version: 6.00 Build 0)  -->
<!DOCTYPE svg PUBLIC "-//W3C//DTD SVG 1.1//EN" "http://www.w3.org/Graphics/SVG/1.1/DTD/svg11.dtd">
<svg version="1.1" id="Layer_1" xmlns="http://www.w3.org/2000/svg" xmlns:xlink="http://www.w3.org/1999/xlink" x="0px" y="0px"
	 viewBox="0 0 64 64" style="enable-background:new 0 0 64 64;" xml:space="preserve">
<path d="M21,33.125c1.281,0.844,2.937,0.688,2.812,1.062c-1,3.188,2,8.188,2.938,10.104c-1.583,1,3.542,7.042,6.203,7.052
	c2.109,0,2.016-1.219,1.795-1.547s0-0.266,0-0.266c2.875,2.281,3.654,1.875,5.435,1.875S41.46,49.438,38.96,49
	s-1.884-2.125-1.884-4.531s3.795-2.938,4.795-2.375s0.746,5.031,1.059,7.938s1.914,2.031,1.914,2.031c0.531,0.672,1.156,0,1.156,0
	l0.141,0.094c0.562,0.391,1.328-0.578,0.844-1.781c0.781-0.531,0.484-1.094-0.703-2.219c0.25-2.469,6.312-6.031,9.531-9.844
	c2.313-2.281,1.875-9.469,2.094-10.594c0.219-1.125,0.5-3.812-0.156-4.047s-1.5,0.266-2.75,1.641c-1.25-0.875-3.438-0.5-3.438-0.5
	s-1.437-2.312-2.187-2.125s-1.063,2.562-1.063,3.25s0.5,2.438-1.375,3.062c-5-4.25-13.5-3.875-18-1.5s-13.312-5.25-14.125-6
	S3.062,12.312,3.25,18S20.445,32.76,21,33.125z"/>
</svg>
