<?xml version="1.0" encoding="iso-8859-1"?>
<!-- Generator: Adobe Illustrator 17.1.0, SVG Export Plug-In . SVG Version: 6.00 Build 0)  -->
<!DOCTYPE svg PUBLIC "-//W3C//DTD SVG 1.1//EN" "http://www.w3.org/Graphics/SVG/1.1/DTD/svg11.dtd">
<svg version="1.1" id="Layer_1" xmlns="http://www.w3.org/2000/svg" xmlns:xlink="http://www.w3.org/1999/xlink" x="0px" y="0px"
	 viewBox="0 0 64 64" style="enable-background:new 0 0 64 64;" xml:space="preserve">
<path d="M59.25,24.25c0,0-2.625,0.031-3.5-0.469s-3.563-0.906-7.938,1.688c-3.062,1.719-8.687-2.375-9.281-2.625
	c-0.594-0.25-5.448-3.302-15.031,0.49c-4.125,1.542-10.708-1.399-11.958-1.887s-8.625-2.738-4.25-8.738c0,0,2.708-2.292,0.125-3.375
	C6.417,9,2.25,12.375,2.75,17.167C3.083,20,4.937,24.875,17.125,27c0,0,1.375,0.125,1.031,1.062
	c-0.344,0.938-0.875,5.969-0.719,7.781c0,1.375-0.781,1.969-1.187,2.344s-3.313,3.031-3.406,4.25c-0.094,1.219-1.312,7.219,1,7.531
	c0,0,2.156,0.594,2.375-0.469c0,0,0.656-1.594-1.25-2c0,0-0.062-3.094,1.281-3.75l4.062-2.062l-0.042-0.083c0,0,3,4.354,5.042,4.521
	c0,0,2.063,0.333,2.188-0.688s-1.146-1.417-2.167-1.333c0,0-1.667-1.792-1.688-2.167c-0.021-0.375,0.771-1.688,1.396-2.396
	c0.625-0.708,2.75-3,3.208-4.292c2.594-1.125,9.078-0.391,10.609,0.328c0,0,0.203,1,2.734,4.453
	c-1.25,1.312-3.453,2.891-2.172,4.188s4.578-1.802,4.849-3.823c0.271-2.021-0.708-3.417-0.708-3.417s0.812,0.479,1.896,1.75
	c1.083,1.271,0.51,1.427,3.979,3.677c3.469,2.25,7.5,4.969,7.5,4.969s0.813,1.5,2.719,1.406c1.906-0.094,1.219-2.031,0.781-2.344
	c-0.437-0.312-1.312-1.062-2.594-1.688c-1.281-0.625-6.094-4.938-6.406-5.312c-0.312-0.375-0.406-1.938-0.062-2.688l1.656-4.25
	c0,0,0.469-0.312,0.875,0.25c0.406,0.562,1.469,0.781,1.688,0.531c0,0,0.865,0.073,1.573-0.073c0.708-0.146,0.583-1.604,1.25-2.958
	c0,0,0.646-0.875,0.458-2.917l2.292-1.208l-2.458-0.875L59.25,24.25z"/>
</svg>
