<?xml version="1.0" encoding="iso-8859-1"?>
<!-- Generator: Adobe Illustrator 17.1.0, SVG Export Plug-In . SVG Version: 6.00 Build 0)  -->
<!DOCTYPE svg PUBLIC "-//W3C//DTD SVG 1.1//EN" "http://www.w3.org/Graphics/SVG/1.1/DTD/svg11.dtd">
<svg version="1.1" id="Layer_1" xmlns="http://www.w3.org/2000/svg" xmlns:xlink="http://www.w3.org/1999/xlink" x="0px" y="0px"
	 viewBox="0 0 64 64" style="enable-background:new 0 0 64 64;" xml:space="preserve">
<path d="M55.859,39.202c-3.914-3.567-0.446-7.332,0.198-7.629s3.864,0.545,4.161-1.09c0.297-1.635-0.05-1.585-0.743-2.725
	c-0.694-1.139-1.819-1.345-2.527-2.279c-0.489-0.645-0.396-1.784-0.396-1.784s-4.261,5.351-6.936,5.648
	c-5.251,0-8.026-2.873-14.466-2.824c-6.44,0.05-7.53,2.031-7.53,2.031s-2.774-4.459-8.521-0.991
	c-4.553,3.167-5.549,5.053-9.611,5.053s-5.251-4.161-3.963-6.837c1.288-2.675,7.134-3.567,7.53-0.495
	c0.396,3.072-2.675,1.034-1.684,2.697c0.991,1.663,6.143-0.814,2.675-5.57c-3.27-3.567-11.296,0.099-11.296,5.846
	c0,5.747,5.351,8.818,12.187,4.954c6.837-3.864,8.62-6.738,11.791-2.873c0,0-1.784,4.013-1.982,6.044s-5.152,5.499-5.251,9.314
	s1.932,3.914,2.824,2.873c0.892-1.04-2.13-1.139-0.297-4.112c1.833-2.973,2.279-2.527,4.161-2.923
	c1.883-0.396,3.072-2.725,3.468-3.716c0.396-0.991,1.585,0.545,1.734,4.459c0.149,3.914,2.13,5.945,3.418,6.341
	c1.288,0.396,2.675,0.248,2.428-0.594c-0.248-0.842-3.914-1.437-2.328-6.193c0.991-1.982,1.338-3.468,2.378-3.418
	c1.04,0.05,6.193,0.743,6.738,1.932c0.545,1.189-3.963,7.719-0.545,8.789c3.418,1.07,0.842-1.606,0.644-1.804
	s1.536-7.084,5.004-7.035c3.468,0.049,9.71,0.892,9.661,3.27c-0.05,2.378,1.288,2.725,1.486,1.932
	C60.466,44.701,61.209,41.778,55.859,39.202z"/>
</svg>
