<?xml version="1.0" encoding="iso-8859-1"?>
<!-- Generator: Adobe Illustrator 17.1.0, SVG Export Plug-In . SVG Version: 6.00 Build 0)  -->
<!DOCTYPE svg PUBLIC "-//W3C//DTD SVG 1.1//EN" "http://www.w3.org/Graphics/SVG/1.1/DTD/svg11.dtd">
<svg version="1.1" id="Layer_1" xmlns="http://www.w3.org/2000/svg" xmlns:xlink="http://www.w3.org/1999/xlink" x="0px" y="0px"
	 viewBox="0 0 64 64" style="enable-background:new 0 0 64 64;" xml:space="preserve">
<path d="M22.5,19.188c-1.375,7.188,0.917,11.771,2.042,13.021s2.667,2.958,1.458,6.208c-1.583,0.583-1.417,1.583-0.875,2
	c-0.167,0.833,0.708,1.167,1.167,1c0.208,0.5,1.583,0.833,2.292-0.625c0.208,0.708,4.917,5.146,13.792,3.896
	c-3.833,9.333-13.75,6.438-13.167,6.229c0.583-0.208,1.958-3.958-1.542-4.167c-3.417,0.292-3.788,6.763,1.083,8.312
	c7.074,2.25,11.951-0.044,15.312-4.75c4.375-6.125,3.266-9.867,2.979-10.521c0.167-0.708,2.25-3.333,0.458-12.375
	c-2.042-9.542-9-6.896-11.75-7.729c-2.75-0.833-2.417-7.438-2.271-7.958c0.146-0.521,0.792-4.062,0.188-4.083
	c-0.604-0.021-1.646,0.896-1.812,0.896C31.687,8.542,31,8,31,8V5l-1.167,2.042c-2.312-1.062-4.562,0.021-5.25,0.354
	s-1.312,0.083-1.708,0.125s-0.563,0.271-0.625,0.708c-0.458,0.25-0.625,0.812-0.667,1.917c-0.75,0.688,0.49,2.229,0.49,2.229
	S23.646,12.792,22.5,19.188z"/>
</svg>
