<?xml version="1.0" encoding="iso-8859-1"?>
<!-- Generator: Adobe Illustrator 17.1.0, SVG Export Plug-In . SVG Version: 6.00 Build 0)  -->
<!DOCTYPE svg PUBLIC "-//W3C//DTD SVG 1.1//EN" "http://www.w3.org/Graphics/SVG/1.1/DTD/svg11.dtd">
<svg version="1.1" id="Layer_1" xmlns="http://www.w3.org/2000/svg" xmlns:xlink="http://www.w3.org/1999/xlink" x="0px" y="0px"
	 viewBox="0 0 64 64" style="enable-background:new 0 0 64 64;" xml:space="preserve">
<g>
	<path d="M33.679,3.227c-10.132,0-18.345,8.214-18.345,18.345c0,3.536,1.018,6.826,2.751,9.627c0.797,1.57,1.864,3.299,3.332,5.186
		c6.965,8.955,11.969,22.548,12.165,23.992c0.196,1.444,2.06-11.408,11.576-22.984c0,0,4.494-4.58,5.93-10.06
		c0.6-1.814,0.937-3.747,0.937-5.763C52.024,11.44,43.811,3.227,33.679,3.227z M33.482,29.252c-5.147,0-9.32-4.173-9.32-9.32
		s4.173-9.32,9.32-9.32s9.32,4.173,9.32,9.32S38.63,29.252,33.482,29.252z"/>
	<path d="M37.879,18.247c-0.134-0.195,0.786-3.972-0.198-4.322c-0.787-0.306-2.999,2.262-2.999,2.262S33.801,16,33.494,16h-0.252
		c-0.306,0-1.187,0.148-1.187,0.148s-2.212-2.616-2.999-2.31c-0.984,0.35-0.064,4.209-0.198,4.404
		C28.181,18.658,28.245,20,28.245,20H27v1h1.507c0,0,0.044,0.043,0.087,0.109l-1.925,0.612l0.328,0.943l2.239-0.46
		c0,0,1.359,1.796,4.006,1.796h0.252c2.647,0,4.006-1.812,4.006-1.812l2.239,0.611l0.328-0.994l-1.925-0.694
		C38.186,21.045,38.23,21,38.23,21H41v-1h-2.508C38.492,20,38.557,18.662,37.879,18.247z M31.045,20.175
		c-0.417,0-0.755-0.338-0.755-0.755s0.338-0.755,0.755-0.755s0.755,0.338,0.755,0.755S31.461,20.175,31.045,20.175z M35.769,20.175
		c-0.417,0-0.755-0.338-0.755-0.755s0.338-0.755,0.755-0.755c0.417,0,0.755,0.338,0.755,0.755S36.186,20.175,35.769,20.175z"/>
</g>
</svg>
