<?xml version="1.0" encoding="iso-8859-1"?>
<!-- Generator: Adobe Illustrator 17.1.0, SVG Export Plug-In . SVG Version: 6.00 Build 0)  -->
<!DOCTYPE svg PUBLIC "-//W3C//DTD SVG 1.1//EN" "http://www.w3.org/Graphics/SVG/1.1/DTD/svg11.dtd">
<svg version="1.1" id="Layer_1" xmlns="http://www.w3.org/2000/svg" xmlns:xlink="http://www.w3.org/1999/xlink" x="0px" y="0px"
	 viewBox="0 0 64 64" style="enable-background:new 0 0 64 64;" xml:space="preserve">
<path d="M55.327,27.856c-3.063,1.046-6.14,2.027-9.216,3.013c-0.05-7.578-2.651-15.244-3.912-15.244
	c-2.372,0-3.649,9.261-3.649,9.261c-7.846-6.395-16.24,0-16.24,0c-0.548-1.102-3.102-7.938-5.292-7.938
	c-2.19,0-2.007,9.041-2.007,9.041c-0.022,2.295,0.093,4.352,0.333,6.202c-3.296-0.179-6.59-0.383-9.878-0.715
	c-1.377-0.139-1.366,2.45,0,2.588c3.44,0.348,6.886,0.556,10.333,0.741c0.154,0.692,0.331,1.347,0.529,1.968
	C12.893,37.45,9.451,38.046,6,38.592c-1.349,0.213-1.366,2.804,0,2.588c3.78-0.598,7.553-1.241,11.314-1.993
	c0.311,0.63,0.686,1.157,1.057,1.693c-2.903,1.554-5.866,2.894-8.907,4.012c-1.317,0.485-0.755,2.983,0.569,2.495
	c3.423-1.259,6.756-2.778,10.01-4.571c3.918,3.622,9.951,4.016,17.595,2.576c2.316-0.436,4.033-1.557,5.309-3.096
	c3.313,1.713,6.685,3.178,10.239,4.012c1.349,0.317,1.924-2.177,0.569-2.495c-3.274-0.769-6.395-2.065-9.455-3.617
	c0.323-0.652,0.61-1.334,0.838-2.058c3.363,0.419,6.742,0.569,10.117,0.884c1.378,0.129,1.368-2.46,0-2.588
	c-3.167-0.296-6.344-0.416-9.503-0.791c0.115-0.674,0.201-1.363,0.259-2.061c3.299-1.061,6.6-2.111,9.886-3.233
	C57.223,29.898,56.659,27.401,55.327,27.856z"/>
</svg>
