<?xml version="1.0" encoding="iso-8859-1"?>
<!-- Generator: Adobe Illustrator 17.1.0, SVG Export Plug-In . SVG Version: 6.00 Build 0)  -->
<!DOCTYPE svg PUBLIC "-//W3C//DTD SVG 1.1//EN" "http://www.w3.org/Graphics/SVG/1.1/DTD/svg11.dtd">
<svg version="1.1" id="Layer_1" xmlns="http://www.w3.org/2000/svg" xmlns:xlink="http://www.w3.org/1999/xlink" x="0px" y="0px"
	 viewBox="0 0 64 64" style="enable-background:new 0 0 64 64;" xml:space="preserve">
<g>
	<path d="M9.992,46.566l6.772-2.194c0,0,4.109,4.628,12.113,4.628h0.761c8.004,0,12.113-4.64,12.113-4.64l6.772,2.269l0.992-2.949
		l-5.821-2.041c0.132-0.198,0.265-0.64,0.265-0.64H49v-4h-4.248c0,0,0.156-2.706-1.375-4.135c-3.566-2.058-6.056-5.769-6.414-10.083
		c-2.01,1.839-3.737,3.83-3.737,3.83S30.564,26,29.638,26h-0.761c-0.926,0-3.589,0.692-3.589,0.692s-6.689-7.79-9.07-6.864
		c-2.977,1.058-0.194,11.996-0.599,12.588C13.568,33.673,13.763,37,13.763,37H9v4h5.556c0,0,0.132,0.435,0.265,0.634L9,43.637
		L9.992,46.566z M36.517,34.549c1.26,0,2.282,1.022,2.282,2.282s-1.022,2.282-2.282,2.282c-1.26,0-2.282-1.022-2.282-2.282
		S35.257,34.549,36.517,34.549z M22.229,34.549c1.26,0,2.282,1.022,2.282,2.282s-1.022,2.282-2.282,2.282
		c-1.26,0-2.282-1.022-2.282-2.282S20.969,34.549,22.229,34.549z"/>
	<path d="M43.071,30.258c1.851,1.457,4.18,2.333,6.718,2.333c6.009,0,10.88-4.871,10.88-10.88c0-6.009-4.871-10.88-10.88-10.88
		c-5.815,0-10.55,4.565-10.851,10.304c-0.01,0.192-0.029,0.381-0.029,0.576C38.909,25.182,40.54,28.266,43.071,30.258z
		 M46.464,19.879c-0.391-0.391-0.391-1.024,0-1.414c0.391-0.391,1.024-0.391,1.414,0L50,20.586l2.121-2.121
		c0.391-0.391,1.024-0.391,1.414,0c0.391,0.391,0.391,1.024,0,1.414L51.414,22l2.121,2.121c0.391,0.391,0.391,1.024,0,1.414
		c-0.391,0.391-1.024,0.391-1.414,0L50,23.414l-2.121,2.121c-0.391,0.391-1.024,0.391-1.414,0c-0.391-0.391-0.391-1.024,0-1.414
		L48.586,22L46.464,19.879z"/>
</g>
</svg>
