<?xml version="1.0" encoding="iso-8859-1"?>
<!-- Generator: Adobe Illustrator 17.1.0, SVG Export Plug-In . SVG Version: 6.00 Build 0)  -->
<!DOCTYPE svg PUBLIC "-//W3C//DTD SVG 1.1//EN" "http://www.w3.org/Graphics/SVG/1.1/DTD/svg11.dtd">
<svg version="1.1" id="Layer_1" xmlns="http://www.w3.org/2000/svg" xmlns:xlink="http://www.w3.org/1999/xlink" x="0px" y="0px"
	 viewBox="0 0 64 64" style="enable-background:new 0 0 64 64;" xml:space="preserve">
<g>
	<path d="M6.333,41h50.5c0.552,0,0.869-0.428,0.707-0.956l-5.246-17.088C52.131,22.428,51.552,22,51,22H12
		c-0.552,0-1.128,0.429-1.286,0.958L5.619,40.042C5.461,40.571,5.781,41,6.333,41z M25.421,34H23l0.012-1h2.066
		c0,0-0.099-2.243,0.818-2.805c0.181-0.265-1.064-5.038,0.268-5.512c1.066-0.414,4.059,3.257,4.059,3.257S31.415,28,31.83,28h0.34
		c0.414,0,1.606-0.119,1.606-0.119s2.993-3.849,4.059-3.434c1.332,0.474,0.087,5.361,0.268,5.626C39.021,30.635,38.934,33,38.934,33
		H41v1h-2.421c0,0-0.059,0.184-0.118,0.273l2.605,0.963l-0.444,1.369l-3.03-0.904c0,0-1.839,2.3-5.421,2.3h-0.34
		c-3.582,0-5.421-2.293-5.421-2.293l-3.03,0.76l-0.444-1.307l2.605-0.89C25.48,34.181,25.421,34,25.421,34z"/>
	<circle cx="35.249" cy="32.107" r="1.021"/>
	<circle cx="28.855" cy="32.107" r="1.021"/>
	<path d="M11,21h41c0,0,1.167-4-3.833-3.667c0,0-2.833-5.5-9.167-2.833c0,0-5.833-4-10.5,0.5c0,0-5-4.167-7.5-0.333
		c0,0-5.833,0.333-5.167,3.333C15.833,18,10,17.167,11,21z"/>
</g>
</svg>
