<?xml version="1.0" encoding="iso-8859-1"?>
<!-- Generator: Adobe Illustrator 17.1.0, SVG Export Plug-In . SVG Version: 6.00 Build 0)  -->
<!DOCTYPE svg PUBLIC "-//W3C//DTD SVG 1.1//EN" "http://www.w3.org/Graphics/SVG/1.1/DTD/svg11.dtd">
<svg version="1.1" id="Layer_1" xmlns="http://www.w3.org/2000/svg" xmlns:xlink="http://www.w3.org/1999/xlink" x="0px" y="0px"
	 viewBox="0 0 64 64" style="enable-background:new 0 0 64 64;" xml:space="preserve">
<path d="M3.937,10.562c0,0-0.5-4.438,0.938-4.625c1.437-0.188,1.812,2.5,2.062,2.812s2.75,2.125,5.313,0.062
	c2.562-2.062,3.062-1.438,3.187-1.062s0.25,2.438-1.062,4.188c0,0-0.031,0.844,0.187,1.781c0.219,0.938-0.812,2.281-0.625,3.438
	c0.188,1.156,1.875,5.094,6.25,6.844s10.896,1.667,12.896,14.417c0,0,0,5.167-0.917,8.083c-0.917,2.917,1.678,2.461,2.25,2.583
	c0.588,0.126,6.833,1.583,17.5,2.667s9.417,2.75,9.25,3.75c-0.167,1-1.75,1.583-15.583-0.833c-14.167-1.833-17.25-3.75-17.333-2.083
	c-0.083,1.667-2.875,0.854-3.5,0.823s-11.313,0.438-11.219-3.062c0-1.844,5.031-0.969,5.031-0.969s-5.719-1.969-2.75-3.375
	c-0.344-1.719-1.187-2.812-0.531-4.531c0.656-1.719-0.719-2.781-1.594-1.156s-0.281,6.375-3.625,6.781
	c-1.531,4.219-1.875,6.094-5.125,5.781s-1.875-2.188-1.219-2.562c0.656-0.375,2.406-0.375,2.469-2.812
	c0.063-2.438,1.25-8.594,1.563-9.375C5.083,28.75,5,22.417,3.75,17.917C2.125,13.125,2.125,13.125,3.937,10.562z"/>
</svg>
