<?xml version="1.0" encoding="iso-8859-1"?>
<!-- Generator: Adobe Illustrator 17.1.0, SVG Export Plug-In . SVG Version: 6.00 Build 0)  -->
<!DOCTYPE svg PUBLIC "-//W3C//DTD SVG 1.1//EN" "http://www.w3.org/Graphics/SVG/1.1/DTD/svg11.dtd">
<svg version="1.1" id="Layer_1" xmlns="http://www.w3.org/2000/svg" xmlns:xlink="http://www.w3.org/1999/xlink" x="0px" y="0px"
	 viewBox="0 0 64 64" style="enable-background:new 0 0 64 64;" xml:space="preserve">
<path d="M54.236,25.642C52.377,26.992,46.798,31,34,31h-2c-12.798,0-18.377-4.008-20.236-5.358C11.317,25.318,11,25.448,11,26v15
	c0,0.552,0.228,1.389,0.588,1.808C13.165,44.65,18.336,49,32,49h2c13.664,0,18.835-4.35,20.412-6.192C54.772,42.389,55,41.552,55,41
	V26C55,25.448,54.683,25.318,54.236,25.642z M40.382,42.99l-3.195-1.404c-0.391-0.172-0.93-0.045-1.231,0.259
	c-1.45,1.465-6.204,3.815-9.603-0.391c-0.269-0.332-0.803-0.913-0.722-1.333c1.089-5.616,7.647-5.779,10.384-3.026
	c0.301,0.303,0.726,0.39,1.049,0.111l2.392-2.063c0.324-0.279,0.511-0.167,0.418,0.25l-0.643,2.891
	c-0.093,0.417-0.019,1.068,0.164,1.454l1.362,2.865C40.942,42.988,40.773,43.162,40.382,42.99z"/>
<path d="M33,11.917c-12.15,0-22,3.88-22,8.667c0,4.786,9.85,8.667,22,8.667s22-3.88,22-8.667C55,15.797,45.15,11.917,33,11.917z
	 M33,26.562c-10.033,0-18.167-2.454-18.167-6.021c0-3.567,8.133-6.458,18.167-6.458s18.167,2.891,18.167,6.458
	C51.167,24.109,43.033,26.562,33,26.562z"/>
<ellipse cx="33.25" cy="20.417" rx="14.917" ry="4.667"/>
</svg>
