<?xml version="1.0" encoding="iso-8859-1"?>
<!-- Generator: Adobe Illustrator 17.1.0, SVG Export Plug-In . SVG Version: 6.00 Build 0)  -->
<!DOCTYPE svg PUBLIC "-//W3C//DTD SVG 1.1//EN" "http://www.w3.org/Graphics/SVG/1.1/DTD/svg11.dtd">
<svg version="1.1" id="Layer_1" xmlns="http://www.w3.org/2000/svg" xmlns:xlink="http://www.w3.org/1999/xlink" x="0px" y="0px"
	 viewBox="0 0 64 64" style="enable-background:new 0 0 64 64;" xml:space="preserve">
<g>
	<path d="M49.321,46.956c0.38,0.142,0.831,0.182,1.288,0.194c-0.033-0.277-0.064-0.566-0.093-0.864
		C50.133,46.53,49.734,46.759,49.321,46.956z"/>
	<path d="M17.543,49.929c4.092,3.99,10.879,2.728,13.607,2.728s1.842-0.512,2.558-0.75c0.716-0.239,1.886,0.007,1.978-0.887
		c-0.034-2.387-1.739-1.228-1.773-2.387s4.638-6.275,5.184-5.934c0.546,0.341,1.262,5.763,0.102,8.799
		c-1.159,3.035,0.818,2.626,2.455,2.629c1.637,0.003,1.501-0.685,1.33-2.629s0-4.638,0-7.469s2.183-3.819,2.694-3.649
		c0.121,0.04,0.338,0.437,0.594,1.06c0.046-0.01,0.085-0.029,0.135-0.034c1.349-0.133,2.645-0.822,3.895-1.412
		c0.038-1.142,0.13-2.014,0.286-2.308c3.001-2.524,1.91-10.776,2.114-11.936s1.569-1.978,3.274-4.024s1.228-7.025,1.228-7.025
		L57.5,9.312c0,0-2.842,3.115-3.537,3.706c-0.695,0.591-4.819,0.832-5.716,0c-2.478-2.296-2.673-3.045-3.433-3.706
		c-0.813,2.021-0.397,5.271-0.397,5.271s2.167,8.375-4.946,9.03c-17.461,1.91-18.188,16.278-21.507,20.871
		S4.184,37.845,7.187,34.253s-3.228-7.412-3.228,1.41C4.004,44.666,14.326,48.303,17.543,49.929z"/>
	<path d="M47.55,45.499c0.481-0.16,0.959-0.369,1.414-0.618c-0.572-0.063-1.131-0.179-1.667-0.35
		C47.384,44.846,47.468,45.169,47.55,45.499z"/>
	<path d="M48.232,49.171c0.3-0.069,0.595-0.156,0.873-0.279c-0.334-0.081-0.65-0.199-0.951-0.349
		C48.184,48.754,48.208,48.963,48.232,49.171z"/>
	<path d="M53.453,52.964c0-1.58-1.364-1.229-2.226-3.041c-0.814,0.683-1.823,1.067-2.873,1.26
		C48.526,54.949,53.453,54.567,53.453,52.964z"/>
	<path d="M48.678,42.837c0.528,0.099,1.082,0.126,1.633,0.122c-0.009-0.271-0.016-0.539-0.021-0.803
		C49.758,42.397,49.223,42.633,48.678,42.837z"/>
</g>
</svg>
