<?xml version="1.0" encoding="iso-8859-1"?>
<!-- Generator: Adobe Illustrator 17.1.0, SVG Export Plug-In . SVG Version: 6.00 Build 0)  -->
<!DOCTYPE svg PUBLIC "-//W3C//DTD SVG 1.1//EN" "http://www.w3.org/Graphics/SVG/1.1/DTD/svg11.dtd">
<svg version="1.1" id="Layer_1" xmlns="http://www.w3.org/2000/svg" xmlns:xlink="http://www.w3.org/1999/xlink" x="0px" y="0px"
	 viewBox="0 0 64 64" style="enable-background:new 0 0 64 64;" xml:space="preserve">
<path d="M37,11.062c0,0-2-4.625-3.312-4.875s-0.5,4.125-0.5,4.375l-3.875-2.625c0,0-0.375-0.188,1.312,3.688
	C31.375,12,28.312,12,28,14.75s-2,2.375-1.188,3.438s1.75,1.625,1.938,1.625s0.375,0.688,1.188,0.625S33.625,18.75,34,20.125
	c0,0,1.333,4.458-3.167,9.042s-9.583,14.5-8.667,22.167c0,0,0.417,3.833,0.583,4.75c0,0-4.333,0.75-3.583,4.333
	c0.75,3.583,9.583,1.25,10.5,1c0.917-0.25,6.417,0.167,5.083,2.25c-1.333,2.083,3.167,3.667,5.417-0.917c0,0,1,0.083,1.25-0.75
	c0,0,2.333,0.167,1.417-2.083c-0.917-2.25-1.667-1.167-1.917-0.833c0,0-0.198-8.208,2.13-17.958S47.375,19.75,37,11.062z"/>
</svg>
