<?xml version="1.0" encoding="iso-8859-1"?>
<!-- Generator: Adobe Illustrator 17.1.0, SVG Export Plug-In . SVG Version: 6.00 Build 0)  -->
<!DOCTYPE svg PUBLIC "-//W3C//DTD SVG 1.1//EN" "http://www.w3.org/Graphics/SVG/1.1/DTD/svg11.dtd">
<svg version="1.1" id="Layer_1" xmlns="http://www.w3.org/2000/svg" xmlns:xlink="http://www.w3.org/1999/xlink" x="0px" y="0px"
	 viewBox="0 0 64 64" style="enable-background:new 0 0 64 64;" xml:space="preserve">
<g>
	<circle cx="25.178" cy="33.026" r="1.445"/>
	<path d="M34.87,15H9.387c-0.021,0-0.029,0.216-0.057,0.435C8.987,18.178,5.954,25.589,9.515,47.02
		c0.106,0.636,0.172,1.623,0.138,2.266c-0.113,2.109-0.394,6.543-0.856,9.011c-0.118,0.633,0.153,0.82,0.68,0.448l4.951-3.501
		c0.526-0.372,1.283-0.271,1.69,0.229l2.963,3.635c0.407,0.5,1.076,0.506,1.494,0.016l3.126-3.67
		c0.418-0.491,1.063-0.465,1.441,0.057l2.867,3.959c0.378,0.522,1.054,0.576,1.509,0.12l3.665-3.665
		c-1.011-1.783-1.675-3.786-1.884-5.924H20.868c-0.644,0-1.167-0.856-1.167-1.5c0-0.644,0.522-1.5,1.167-1.5h10.434
		c0.245-2.424,1.077-4.673,2.336-6.621C32.588,40.741,31.335,41,29.869,41h-0.482c-5.068,0-7.669-3.068-7.669-3.068l-4.287,1.25
		l-0.628-1.862l3.685-1.085C20.404,36.109,20.32,36,20.32,36H17v-3h2.818c0,0-0.123-2.028,1.175-2.823
		c0.257-0.374-1.505-7.287,0.38-7.958c1.508-0.586,5.743,4.27,5.743,4.27S28.801,26,29.387,26h0.482
		c0.586,0,2.272,0.489,2.272,0.489s4.235-4.854,5.743-4.268c1.885,0.67,0.123,7.583,0.38,7.957C39.562,30.974,39.439,33,39.439,33
		H43v0.842c1.057-0.236,2.152-0.371,3.279-0.371c1.827,0,3.572,0.344,5.193,0.943c0.302-5.598,0.08-12.503-1.543-19.926
		c-0.138-0.63-0.225-1.625-0.184-2.268l0.456-7.134c0.041-0.643-0.34-0.838-0.851-0.445l-3.394,2.615
		c-0.511,0.393-1.311,0.361-1.787-0.073l-2.916-2.661c-0.476-0.435-1.258-0.446-1.748-0.027L35.63,7.818
		c-0.489,0.419-1.248,0.383-1.695-0.082l-3.425-3.562c-0.447-0.464-1.171-0.464-1.617,0l-3.425,3.562
		c-0.447,0.465-1.157,0.451-1.586-0.029L20.394,3.8c-0.429-0.481-1.153-0.508-1.618-0.061l-3.765,3.625
		c-0.464,0.447-1.273,0.516-1.807,0.155L8.885,4.593C8.351,4.231,8.143,4.279,8.358,4.886C8.836,6.23,9.52,9,9.511,12H34.87
		c0.644,0,1.167,0.856,1.167,1.5C36.037,14.144,35.515,15,34.87,15z"/>
	<circle cx="34.225" cy="33.026" r="1.445"/>
	<path d="M33.225,48.526c0,0.499,0.034,0.99,0.089,1.474c0.278,2.466,1.245,4.719,2.701,6.573c0.432,0.55,0.908,1.061,1.422,1.535
		c0.633,0.584,1.322,1.105,2.062,1.556c1.978,1.207,4.294,1.915,6.782,1.915c7.21,0,13.054-5.845,13.054-13.054
		c0-5.417-3.3-10.062-7.999-12.038c-1.555-0.654-3.263-1.016-5.055-1.016c-1.135,0-2.229,0.16-3.279,0.432
		c-0.125,0.033-0.253,0.061-0.377,0.097c-0.744,0.217-1.458,0.502-2.141,0.841c-0.779,0.387-1.512,0.847-2.193,1.375
		c-2.698,2.094-4.553,5.215-4.969,8.783C33.263,47.501,33.225,48.009,33.225,48.526z"/>
</g>
<g>
	<path style="fill:#FFFFFF;" d="M37.925,48.787c0,0.227,0.036,0.414,0.109,0.562c0.135,0.273,0.38,0.41,0.736,0.41
		c0.218,0,0.408-0.074,0.571-0.225c0.162-0.149,0.243-0.365,0.243-0.646c0-0.372-0.15-0.621-0.452-0.746
		c-0.171-0.07-0.44-0.105-0.81-0.105V47.24c0.36-0.005,0.612-0.04,0.755-0.105c0.247-0.109,0.37-0.33,0.37-0.664
		c0-0.216-0.062-0.392-0.189-0.527c-0.125-0.135-0.303-0.203-0.531-0.203c-0.263,0-0.455,0.084-0.578,0.25
		c-0.124,0.167-0.183,0.39-0.178,0.668h-1.039c0.011-0.281,0.059-0.548,0.145-0.801c0.091-0.221,0.234-0.426,0.429-0.613
		c0.146-0.133,0.319-0.234,0.52-0.305s0.446-0.105,0.737-0.105c0.541,0,0.978,0.141,1.31,0.42c0.331,0.28,0.497,0.656,0.497,1.127
		c0,0.334-0.099,0.615-0.297,0.844c-0.125,0.144-0.255,0.241-0.391,0.293c0.102,0,0.247,0.088,0.438,0.262
		c0.284,0.264,0.426,0.623,0.426,1.078c0,0.479-0.166,0.9-0.498,1.264c-0.331,0.363-0.822,0.545-1.473,0.545
		c-0.801,0-1.358-0.262-1.67-0.785c-0.164-0.278-0.255-0.643-0.273-1.094H37.925z"/>
	<path style="fill:#FFFFFF;" d="M41.569,49.357h1.184v1.168h-1.184V49.357z"/>
	<path style="fill:#FFFFFF;" d="M44.612,49.01c0.044,0.242,0.129,0.43,0.253,0.561c0.125,0.132,0.307,0.197,0.546,0.197
		c0.275,0,0.485-0.097,0.629-0.291c0.145-0.193,0.217-0.438,0.217-0.732c0-0.289-0.067-0.533-0.203-0.732
		c-0.135-0.199-0.345-0.299-0.631-0.299c-0.135,0-0.252,0.018-0.351,0.051c-0.174,0.062-0.306,0.179-0.394,0.348l-0.998-0.047
		l0.397-3.129h3.116v0.945h-2.313l-0.202,1.238c0.172-0.111,0.306-0.186,0.401-0.223c0.161-0.06,0.357-0.09,0.589-0.09
		c0.469,0,0.877,0.158,1.226,0.473c0.349,0.315,0.522,0.773,0.522,1.375c0,0.523-0.168,0.991-0.504,1.402
		c-0.335,0.412-0.837,0.617-1.506,0.617c-0.538,0-0.98-0.145-1.327-0.434c-0.346-0.289-0.538-0.699-0.577-1.23H44.612z"/>
	<path style="fill:#FFFFFF;" d="M48.249,44.787h1.094v3.106l1.404-1.606h1.385l-1.526,1.586l1.585,2.652h-1.354l-1.032-1.819
		l-0.461,0.479v1.34h-1.094V44.787z"/>
	<path style="fill:#FFFFFF;" d="M54.816,46.264c0.271,0.112,0.489,0.318,0.655,0.617v-0.613h1.086v4.039
		c0,0.55-0.093,0.964-0.277,1.242c-0.317,0.479-0.927,0.719-1.828,0.719c-0.544,0-0.988-0.106-1.332-0.32
		c-0.344-0.213-0.534-0.532-0.57-0.957h1.211c0.031,0.131,0.082,0.225,0.152,0.281c0.12,0.102,0.321,0.152,0.605,0.152
		c0.401,0,0.669-0.134,0.805-0.402c0.089-0.172,0.133-0.461,0.133-0.867v-0.273c-0.106,0.183-0.222,0.319-0.344,0.41
		c-0.222,0.17-0.509,0.254-0.863,0.254c-0.547,0-0.983-0.191-1.311-0.576c-0.327-0.384-0.49-0.904-0.49-1.561
		c0-0.633,0.157-1.164,0.472-1.596c0.315-0.431,0.761-0.646,1.339-0.646C54.471,46.166,54.657,46.199,54.816,46.264z M55.195,49.316
		c0.179-0.196,0.269-0.51,0.269-0.939c0-0.403-0.085-0.711-0.255-0.922s-0.397-0.316-0.683-0.316c-0.389,0-0.657,0.184-0.805,0.551
		c-0.078,0.195-0.117,0.437-0.117,0.723c0,0.248,0.041,0.468,0.124,0.66c0.15,0.359,0.421,0.539,0.81,0.539
		C54.798,49.611,55.016,49.514,55.195,49.316z"/>
</g>
</svg>
