<?xml version="1.0" encoding="iso-8859-1"?>
<!-- Generator: Adobe Illustrator 17.1.0, SVG Export Plug-In . SVG Version: 6.00 Build 0)  -->
<!DOCTYPE svg PUBLIC "-//W3C//DTD SVG 1.1//EN" "http://www.w3.org/Graphics/SVG/1.1/DTD/svg11.dtd">
<svg version="1.1" id="Layer_1" xmlns="http://www.w3.org/2000/svg" xmlns:xlink="http://www.w3.org/1999/xlink" x="0px" y="0px"
	 viewBox="0 0 64 64" style="enable-background:new 0 0 64 64;" xml:space="preserve">
<g>
	<circle cx="22.694" cy="34.794" r="1.238"/>
	<path d="M9.388,48.686c-0.097,1.807-0.338,5.629-0.734,7.744c-0.102,0.543,0.131,0.713,0.582,0.395l4.243-2.995
		c0.451-0.319,1.1-0.23,1.449,0.199l2.54,3.117c0.349,0.428,0.922,0.434,1.28,0.014l2.679-3.145c0.358-0.42,0.911-0.399,1.235,0.049
		l2.457,3.393c0.324,0.447,0.903,0.493,1.294,0.103l3.426-3.426c0.391-0.391,1.011-0.379,1.386,0.027l2.963,3.2
		c0.375,0.405,0.964,0.388,1.314-0.039l2.706-3.295c0.351-0.427,0.972-0.479,1.389-0.116l3.851,3.354
		c0.416,0.363,0.717,0.21,0.673-0.34c-0.147-1.825-0.452-5.7-0.565-7.923H19c-0.552,0-1-0.448-1-1c0-0.552,0.448-1,1-1h24.711
		c0.017-0.084,0.032-0.175,0.05-0.248c0.553-2.316,1.808-8.592,1.522-16.659c-5.401-1.532-9.374-6.497-9.374-12.383
		c0-2.301,0.614-4.457,1.675-6.329l-1.113-1.016c-0.408-0.372-1.078-0.383-1.498-0.023l-3.322,2.847
		c-0.419,0.359-1.07,0.328-1.452-0.07l-2.935-3.053c-0.383-0.398-1.003-0.398-1.386,0l-2.935,3.053
		c-0.383,0.398-0.991,0.387-1.359-0.025l-2.99-3.348c-0.368-0.412-0.989-0.435-1.386-0.052l-3.227,3.107
		c-0.398,0.383-1.091,0.443-1.548,0.133l-3.703-2.508c-0.457-0.31-0.636-0.156-0.451,0.364c0.41,1.152,0.996,3.336,0.988,6.21H31
		c0.552,0,1,0.448,1,1c0,0.552-0.448,1-1,1H9.16c-0.018,0.183-0.025,0.357-0.049,0.545c-0.294,2.351-2.894,8.789,0.158,27.156
		C9.361,47.246,9.418,48.135,9.388,48.686z M18.53,37H16v-2h2.1c0,0-0.105-1.852,1.007-2.534c0.22-0.321-1.29-6.303,0.325-6.877
		c1.292-0.502,4.922,3.745,4.922,3.745S25.799,29,26.301,29h0.413c0.503,0,1.947,0.305,1.947,0.305s3.63-4.217,4.922-3.715
		c1.615,0.574,0.105,6.584,0.325,6.905C35.021,33.178,34.915,35,34.915,35H38v2h-3.515c0,0-0.072,0.268-0.144,0.375l3.159,1.197
		l-0.538,1.689l-3.675-1.081c0,0-2.23,2.819-6.573,2.819h-0.413c-4.343,0-6.573-2.816-6.573-2.816l-3.674,0.885l-0.538-1.596
		l3.159-1.101C18.602,37.264,18.53,37,18.53,37z"/>
	<circle cx="30.447" cy="34.794" r="1.238"/>
	<path d="M59.67,17.711c0-6.009-4.871-10.88-10.88-10.88c-4.216,0-7.864,2.402-9.67,5.908c-0.768,1.491-1.21,3.179-1.21,4.972
		c0,4.739,3.035,8.759,7.264,10.252c1.133,0.4,2.347,0.629,3.617,0.629C54.798,28.591,59.67,23.72,59.67,17.711z M52.536,20.121
		c0.391,0.391,0.391,1.024,0,1.414c-0.391,0.391-1.024,0.391-1.414,0L49,19.414l-2.121,2.121c-0.391,0.391-1.024,0.391-1.414,0
		c-0.391-0.391-0.391-1.024,0-1.414L47.586,18l-2.121-2.121c-0.391-0.391-0.391-1.024,0-1.414c0.391-0.391,1.024-0.391,1.414,0
		L49,16.586l2.121-2.121c0.391-0.391,1.024-0.391,1.414,0c0.391,0.391,0.391,1.024,0,1.414L50.414,18L52.536,20.121z"/>
</g>
</svg>
