<?xml version="1.0" encoding="utf-8"?>
<!-- Generator: Adobe Illustrator 17.1.0, SVG Export Plug-In . SVG Version: 6.00 Build 0)  -->
<!DOCTYPE svg PUBLIC "-//W3C//DTD SVG 1.1//EN" "http://www.w3.org/Graphics/SVG/1.1/DTD/svg11.dtd">
<svg version="1.1" id="Layer_1" xmlns="http://www.w3.org/2000/svg" xmlns:xlink="http://www.w3.org/1999/xlink" x="0px" y="0px"
	 viewBox="0 0 612 792" enable-background="new 0 0 612 792" xml:space="preserve">
<g>
	<path d="M117.1,326.7c28.7,0,53.8-10.8,69.3-27.5l51.4,17.9l0.4,1.2l-35.9,40.8c-22-6.1-49-2.2-73.5,12.9
		c-24.4,15-50.8,70.7-20.7,108.3c30.1,37.6,94,43.3,130.9-1.8s-2.4-97.4-2.4-97.4l25.2-34.7c14.6-17.4,27.6-16,27.6-16
		c12.1,7.3,27.3,12.5,42.8,16.1c3.5-22.6,12.8-43.3,26.3-60.6l-12.2,0.1l-0.3-1.1l32.6-19.6c9.8-8.1,20.8-14.7,32.7-19.7l122.8-73.9
		c0,0-68.7-29.2-161.2,17c0,0-73.3,43-97.2,89.2c0,0-10.4,8-31.9,0.8l-46.6-10.8c0,0,12-63.4-43-82.5S55,200,49,247.8
		S88.5,326.7,117.1,326.7z M173.3,486.8c-28.4,0-51.4-21.4-51.4-47.8s23-47.8,51.4-47.8s51.4,21.4,51.4,47.8
		S201.7,486.8,173.3,486.8z M125.5,209.5c28.4,0,51.4,21.4,51.4,47.8s-23,47.8-51.4,47.8s-51.4-21.4-51.4-47.8
		S97.1,209.5,125.5,209.5z"/>
	<path d="M544,582.5l-8.1,2.4c-10.1,3-19.7,0.6-21.3-5.4s5.2-13.3,15.3-16.4l4.1-1.3c10.1-3.1,16.7-11.8,14.7-19.4
		c-2-7.6-11.7-10.9-21.7-7.5l-8.7,3c-10,3.4-19.7,1.4-21.7-4.5c-2-5.9,4.5-13.5,14.6-16.8l12.1-4c10-3.3,16.3-12.3,14-20.1
		c-1.8-6.1-8.4-9.6-15.9-9.2c-17.9,9.2-38.2,14.5-59.7,14.5c-48.9,0-91.5-26.9-114.1-66.7c-9.4,3.5-15.7,13.8-14.1,23.8l8.3,52.2
		c0,0,7.6,45.7-119.6,52c-10.5,0.5-27.7,0.7-38.2,1.2c-128.2,6.4-132,54.6-129.7,73.5c2.3,18.9,37.9,73.8,149.3-0.9
		c8.8-5.9,23-15.4,32.3-20.5c119.7-65.9,133.1-20.1,140-0.7c3.3,9.3,6.7,20,9.4,28.9c3.1,10.1,13.7,15.9,23.8,12.8l144.5-43.4
		c10.1-3,16.2-11.7,13.5-19.2C564.5,583.2,554.2,579.5,544,582.5z"/>
	<path d="M461.4,385.5l1.4,0.4l1.5-0.3c0,0,18.8-6,13.4-9.8c-5.4-3.8-13.6-3.2-13.6-3.2l-2.3,0c0,0-8.3-0.6-13.8,3.2
		C442.6,379.5,461.4,385.5,461.4,385.5z"/>
	<circle cx="486.7" cy="360.7" r="4.7"/>
	<circle cx="438.2" cy="360.7" r="4.7"/>
	<path d="M386.4,285.6c-17.9,16.6-30.3,39.7-34.1,64.9c0,0,0,0,0,0c0,0.1,0,0.2,0,0.4c0,0.1,0,0.1,0,0.2c0,0,0,0,0,0
		c-0.7,5.1-1.2,10.1-1.2,15.4c0,21.4,6.2,39,16.8,58.1c19.5,28.7,54.3,52.6,94,52.6c8.1,0,16.1-0.9,23.7-2.5
		c10.8-2.4,21.1-6.3,30.5-11.6c1.9-1.1,3.8-2.2,5.6-3.4c30.6-19.7,51-54,51-93.1c0-24.8-8.2-47.6-22-66c-4.4-5.9-9.4-11.4-14.9-16.4
		c-19.6-17.6-45.4-28.4-73.8-28.4C432.6,255.9,406.1,267.3,386.4,285.6z M464,329.1c14.7,0,26.5,2.1,36.1,5.2
		C525.7,342.3,535,357,535,357l-27.4,12.8c0,0,2.4-17.5-1.6-17.5c-5.1,0.2-3.1,39.8-2.9,46.8c0,0.5,0,0.8,0,1c0,0-9.3,15-39.1,15
		h-1.6c-28.8,0-39.1-15.3-39.1-15.3c0-5.3,0.4-10.6,0.5-15.8c0.1-4.3,0.1-8.6,0-12.9c-0.1-4.8-0.2-9.6-1-14.4
		c-0.2-1.2-0.5-5.3-2.3-5.3c-1.9-0.1-2.1,3.7-2.2,4.9c0,1.4-0.2,2.8-0.1,4.2c0,1.4,0.2,2.8,0.3,4.2c0.1,1.9,0.2,3.8,0.4,5.7
		l-27.4-12.9c0,0,0.5-1,1.5-2.2c5.4-6.6,25.1-26.3,69.5-26.3H464z"/>
</g>
</svg>
