<?xml version="1.0" encoding="iso-8859-1"?>
<!-- Generator: Adobe Illustrator 17.1.0, SVG Export Plug-In . SVG Version: 6.00 Build 0)  -->
<!DOCTYPE svg PUBLIC "-//W3C//DTD SVG 1.1//EN" "http://www.w3.org/Graphics/SVG/1.1/DTD/svg11.dtd">
<svg version="1.1" id="Layer_1" xmlns="http://www.w3.org/2000/svg" xmlns:xlink="http://www.w3.org/1999/xlink" x="0px" y="0px"
	 viewBox="0 0 64 64" style="enable-background:new 0 0 64 64;" xml:space="preserve">
<path d="M53.292,16.335c3.554-8.016-8.545-15.351-9.225-13.611c-0.681,1.739,4.537,3.932,5.823,8.469
	c1.286,4.537-7.713,14.216-8.394,14.216c-0.681,0-3.857,0.756-3.857,0.756c-3.1,0.681-8.696,3.932-10.965,10.133
	c-2.193,0.227-5.369,3.781-5.52,6.73c-2.42,0.302-3.554,1.664-3.554,1.664c-0.113-0.227-2.647-3.138-2.949-2.269
	c-0.681,1.512-0.567,4.461,0.416,6.692c-1.172,1.928,0.454,4.121,0.454,4.121s0.345,0.969-2.042,2.117
	c-5.293,2.193-3.63,3.63-3.63,3.63c3.025,2.684,7.335-3.743,7.411-3.441c0.076,0.302,0.87,1.021,1.966,0.87
	c1.096-0.151,1.312-0.927,3.441-1.89c3.743-1.399,3.403-3.705,3.857-3.327c0.454,0.378,3.1,0,3.1,0
	c-3.176,2.873-1.739,4.083-1.739,4.083c4.764,2.798,7.637-11.04,8.242-11.116c0.605-0.076,1.664-1.21,3.1-2.042
	c1.059,2.874,2.798,1.891,2.042,3.403c-0.605,2.495-4.84,5.369-3.554,6.579c3.1,2.874,4.235-2.42,6.428-5.066
	c2.193-2.647,1.588-3.252-0.227-4.31s-0.076-2.344,2.117-7.259c2.193-4.915-2.495-6.503-1.664-7.486
	C45.201,26.997,50.041,23.292,53.292,16.335z"/>
</svg>
