<?xml version="1.0" encoding="iso-8859-1"?>
<!-- Generator: Adobe Illustrator 17.1.0, SVG Export Plug-In . SVG Version: 6.00 Build 0)  -->
<!DOCTYPE svg PUBLIC "-//W3C//DTD SVG 1.1//EN" "http://www.w3.org/Graphics/SVG/1.1/DTD/svg11.dtd">
<svg version="1.1" id="Layer_1" xmlns="http://www.w3.org/2000/svg" xmlns:xlink="http://www.w3.org/1999/xlink" x="0px" y="0px"
	 viewBox="0 0 64 64" style="enable-background:new 0 0 64 64;" xml:space="preserve">
<path d="M8.503,52.466c0,0,2.748,0.406,2.748-0.781s-3.778-0.749-1.842-3.622c1.922-2.852,9.244-4.611,10.13-10.089
	c0.007-0.04,0.013-0.081,0.019-0.122c0.374-1.531,2.389,3.7,1.874,5.48c-0.515,1.78-0.047,4.356,1.265,5.761
	c1.312,1.405,3.981,5.293,5.246,2.763c1.218-2.061-5.105-2.623-3.513-7.354c0.843-1.452,2.81-3.56,3.279-9.18
	c2.248,2.529,7.354,4.028,10.679,3.513c0.923,0.532-2.014,13.162-0.047,13.583c1.967,0.422,3.7,0.703,3.7-0.609
	c0,0-0.141-1.171-1.827-1.218c0,0-0.515-1.546,0.234-1.967c0.749-0.422,0.656,2.201,2.248,2.904s2.67,0.609,2.67-0.703
	c0-1.312-3.091-0.843-3.185-3.841s1.015-6.479,2.451-8.696s3.872-8.4,3.497-12.428s4.497-3.185,5.433-2.998
	c0.937,0.187,5.808,0.468,5.808-2.436c0,0,0.375-2.81-2.717-2.81c0,0-1.311-0.749-1.499-1.967c-0.187-1.218-1.03-1.874-1.686-1.967
	l0.164-3.841l-2.412,2.6L51.782,9c0,0-8.244,12.928-19.017,15.082c-10.773,2.155-20.515,1.967-21.546,1.967
	s-1.405,1.124-0.749,1.592c0.656,0.468,5.059-0.187,4.965,0.749s-3.747,3.747-3.279,7.682s-1.215,3.56-2.012,4.871
	C8.472,43.286,4.569,52.466,8.503,52.466z"/>
</svg>
