<?xml version="1.0" encoding="iso-8859-1"?>
<!-- Generator: Adobe Illustrator 17.1.0, SVG Export Plug-In . SVG Version: 6.00 Build 0)  -->
<!DOCTYPE svg PUBLIC "-//W3C//DTD SVG 1.1//EN" "http://www.w3.org/Graphics/SVG/1.1/DTD/svg11.dtd">
<svg version="1.1" id="Layer_1" xmlns="http://www.w3.org/2000/svg" xmlns:xlink="http://www.w3.org/1999/xlink" x="0px" y="0px"
	 viewBox="0 0 64 64" style="enable-background:new 0 0 64 64;" xml:space="preserve">
<path d="M33.197,19h-0.081c0,0-11.131-12.142-20.845-3.237c-9.714,8.905-1.214,29.446,20.845,38.351l0.081,0.102
	c22.059-8.905,30.559-29.548,20.845-38.453C44.327,6.858,33.197,19,33.197,19z M48.963,32.549c-1.679,5.48-7.513,0.884-7.513,1.02
	s1.944,4.902,1.944,4.902s1.676,4.698-4.596,4.684c-2.09-0.004-3.49-0.455-4.43-1.027c-0.495,0.643-1.355,1.024-2.292,0.914
	c-1.021-0.12-1.829-0.782-2.105-1.621c-0.913,0.213-2.083,0.192-3.547-0.388c-4.243-1.679-4.38-3.63-4.154-5.126
	c0.26-1.725,4.066-5.392,3.712-5.215c-0.354,0.177-6.717,2.033-7.159-2.74c-0.442-4.773,3.977-4.331,4.861-3.359
	c0.884,0.972,3.005,2.475,6.099,1.237c3.094-1.237,5.038-1.237,5.038-1.237c1.503,0.044,2.652,0.354,4.331,2.121
	c1.679,1.768,4.386,2.144,4.861,2.121C44.645,28.807,50.642,27.069,48.963,32.549z"/>
<path d="M33.495,34.582c0,0-1.591-0.53-1.679,0.354s0.84,1.724,1.237,1.945c0.398,0.221,1.839,0.034,2.475-1.016
	C36.067,34.974,34.099,34.771,33.495,34.582z"/>
</svg>
