<?xml version="1.0" encoding="iso-8859-1"?>
<!-- Generator: Adobe Illustrator 17.1.0, SVG Export Plug-In . SVG Version: 6.00 Build 0)  -->
<!DOCTYPE svg PUBLIC "-//W3C//DTD SVG 1.1//EN" "http://www.w3.org/Graphics/SVG/1.1/DTD/svg11.dtd">
<svg version="1.1" id="Layer_1" xmlns="http://www.w3.org/2000/svg" xmlns:xlink="http://www.w3.org/1999/xlink" x="0px" y="0px"
	 viewBox="0 0 64 64" style="enable-background:new 0 0 64 64;" xml:space="preserve">
<path d="M59.9,30.835L33.677,5.43c-1.967-1.904-3.546-0.007-3.546-0.007L3.808,30.812c0,0-2.181,1.935-0.011,4.271
	c2.17,2.336,6.336-2.844,6.676-3.254l-0.088,21.603c0,0-0.343,3.568,3.487,3.568h8.937C23.939,57,25,55.689,25,54.602V36.895
	c0,0,0.024-1.895,1.896-1.895h3.064h4.086h2.666C38.585,35,39,36.895,39,36.895v17.707C39,55.689,40.068,57,41.196,57h8.539
	c3.83,0,3.5-3.568,3.5-3.568L53.16,31.936c0.34,0.41,4.531,5.536,6.701,3.2C62.031,32.799,59.9,30.835,59.9,30.835z M32.605,20.835
	c0.297-0.972,1.09-1.574,1.772-1.346c0.682,0.228,0.994,1.201,0.698,2.172c-0.297,0.972-1.09,1.574-1.772,1.346
	C32.621,22.779,32.308,21.807,32.605,20.835z M30.18,19.455c0.647-0.205,1.431,0.438,1.752,1.437s0.056,1.976-0.591,2.181
	c-0.647,0.205-1.431-0.438-1.752-1.437S29.533,19.66,30.18,19.455z M29.12,25.378c-0.616,0.195-1.364-0.418-1.671-1.367
	s-0.055-1.877,0.561-2.072c0.616-0.195,1.364,0.418,1.671,1.367C29.988,24.256,29.736,25.184,29.12,25.378z M33.513,27.982
	c0,0-0.627-0.637-1.15-0.637l-0.134,0.06c-0.523,0-1.15,0.754-1.15,0.754s-1.484,0.983-1.476-0.884C29.591,24.095,32.23,24,32.23,24
	h0.134c0,0,2.639,0.105,2.626,3.285C34.997,29.152,33.513,27.982,33.513,27.982z M37.206,24.064c-0.284,0.93-1.014,1.516-1.631,1.31
	c-0.617-0.206-0.887-1.127-0.603-2.057c0.284-0.93,1.014-1.516,1.631-1.31C37.22,22.213,37.49,23.134,37.206,24.064z"/>
</svg>
