<?xml version="1.0" encoding="iso-8859-1"?>
<!-- Generator: Adobe Illustrator 17.1.0, SVG Export Plug-In . SVG Version: 6.00 Build 0)  -->
<!DOCTYPE svg PUBLIC "-//W3C//DTD SVG 1.1//EN" "http://www.w3.org/Graphics/SVG/1.1/DTD/svg11.dtd">
<svg version="1.1" id="Layer_1" xmlns="http://www.w3.org/2000/svg" xmlns:xlink="http://www.w3.org/1999/xlink" x="0px" y="0px"
	 viewBox="0 0 64 64" style="enable-background:new 0 0 64 64;" xml:space="preserve">
<path d="M31.369,33.383c0.206,0.114,0.951,0.017,1.28-0.526c0.279-0.46-0.739-0.565-1.051-0.663c0,0-0.823-0.274-0.869,0.183
	C30.684,32.834,31.164,33.268,31.369,33.383z"/>
<path d="M22,21.78v10.223l-0.998,24.175C20.944,57.672,22.056,59,23.551,59h16.688c1.495,0,2.781-1.328,2.713-2.821L42,31.998V21.78
	c0-4.128-3-7.6-7-8.672v-1.471c1-0.978,2.319-2.732,2.319-4.741c0-3.072-2.508-5.563-5.456-5.563c-2.948,0-5.453,2.491-5.453,5.563
	c0,2.074,0.59,3.88,2.59,4.836v1.376C25,14.18,22,17.652,22,21.78z M29.678,27.668c1.6-0.64,2.606-0.64,2.606-0.64
	c0.777,0.023,1.371,0.183,2.24,1.097c0.869,0.914,2.268,1.109,2.514,1.097c0.327-0.016,3.429-0.914,2.56,1.92
	c-0.869,2.834-3.886,0.457-3.886,0.527c0,0.07,1.006,2.535,1.006,2.535s0.867,2.43-2.377,2.423
	c-1.081-0.002-1.805-0.236-2.291-0.531c-0.256,0.333-0.701,0.53-1.185,0.473c-0.528-0.062-0.946-0.405-1.089-0.838
	c-0.472,0.11-1.078,0.099-1.835-0.2c-2.194-0.869-2.265-1.878-2.148-2.651c0.135-0.892,2.103-2.789,1.92-2.697
	s-3.474,1.051-3.703-1.417c-0.229-2.469,2.057-2.24,2.514-1.737C26.981,27.531,28.078,28.308,29.678,27.668z"/>
</svg>
