<?xml version="1.0" encoding="utf-8"?>
<!-- Generator: Adobe Illustrator 16.0.4, SVG Export Plug-In . SVG Version: 6.00 Build 0)  -->
<!DOCTYPE svg PUBLIC "-//W3C//DTD SVG 1.1//EN" "http://www.w3.org/Graphics/SVG/1.1/DTD/svg11.dtd">
<svg version="1.1" id="Layer_1" xmlns="http://www.w3.org/2000/svg" xmlns:xlink="http://www.w3.org/1999/xlink" x="0px" y="0px"
	 width="144px" height="144px" viewBox="0 0 144 144" enable-background="new 0 0 144 144" xml:space="preserve">
<path d="M97.808,41.828c-3.373,5.195-15.039,8.658-17.044,15.493s0.274,16.955-8.476,29.896
	c-8.75,12.944-13.212,22.604-21.098,17.683c-2.122-2.86,8.156-15.129,9.067-16.04s-11.484-2.554-18.594,3.28
	c-7.11,5.832-14.582,23.697-21.875,17.318c-3.098-3.099,12.213-21.327,12.942-21.692c0.729-0.364-10.391-18.594-29.075-6.289
	c0,0,4.921-13.398,15.039-13.398s12.031,5.742,13.945,9.569c1.913,3.829,28.982-15.039,30.897-24.608c0,0,1.73-4.034,2.644-9.844
	c0,0,0.272-10.573-0.457-13.945c0,0,4.921,1.276,8.296,6.925c0,0,12.76,0.547,16.587-0.911S101.18,36.632,97.808,41.828z
	 M126.365,40.274c-9.539-3.523-18.388-3.356-19.766,0.374s5.237,9.61,14.775,13.133s18.387,3.356,19.766-0.374
	C142.518,49.678,135.902,43.798,126.365,40.274z"/>
</svg>
