<?xml version="1.0" encoding="iso-8859-1"?>
<!-- Generator: Adobe Illustrator 17.1.0, SVG Export Plug-In . SVG Version: 6.00 Build 0)  -->
<!DOCTYPE svg PUBLIC "-//W3C//DTD SVG 1.1//EN" "http://www.w3.org/Graphics/SVG/1.1/DTD/svg11.dtd">
<svg version="1.1" id="Layer_1" xmlns="http://www.w3.org/2000/svg" xmlns:xlink="http://www.w3.org/1999/xlink" x="0px" y="0px"
	 viewBox="0 0 64 64" style="enable-background:new 0 0 64 64;" xml:space="preserve">
<path d="M21.666,36H20v6h1.666c0.853,0,1.448-0.67,1.784-1.51c0.184-0.461,0.276-1.135,0.276-1.771c0-0.879-0.138-1.548-0.414-2.019
	C23.037,36.229,22.488,36,21.666,36z"/>
<path d="M30.734,35.629c-0.715,0-1.285,0.264-1.711,0.791s-0.639,1.277-0.639,2.25s0.213,1.723,0.639,2.25s0.996,0.791,1.711,0.791
	s1.282-0.264,1.702-0.791s0.63-1.277,0.63-2.25c0-0.969-0.21-1.718-0.63-2.247S31.449,35.629,30.734,35.629z"/>
<path d="M29.426,50.302l2.934,0.018c0,0,22.436,0.928,24.339-5.099c0.667-2.589-0.317-4.018-1.375-4.124
	c-1.057-0.106-0.549-17.42-3.298-18.688S42.531,19,32.909,19h-3.906c-9.622,0-16.415,2.062-19.164,3.331s-2.194,18.794-3.251,18.9
	c-1.057,0.106-2.041,1.469-1.375,4.057C7.116,51.315,29.426,50.302,29.426,50.302z M33.564,42.232
	c-0.652,0.672-1.596,1.008-2.83,1.008s-2.178-0.336-2.83-1.008c-0.875-0.824-1.312-2.012-1.312-3.562
	c0-1.582,0.438-2.77,1.312-3.562c0.652-0.672,1.596-1.008,2.83-1.008s2.178,0.336,2.83,1.008c0.871,0.793,1.307,1.98,1.307,3.562
	C34.871,40.221,34.435,41.408,33.564,42.232z M44,43h-1.336l-0.182-1.078c-0.348,0.408-0.66,0.696-0.938,0.863
	c-0.477,0.292-1.062,0.438-1.758,0.438c-1.145,0-2.082-0.396-2.812-1.188c-0.762-0.797-1.143-1.886-1.143-3.268
	c0-1.397,0.385-2.518,1.154-3.361c0.77-0.843,1.787-1.265,3.053-1.265c1.098,0,1.979,0.249,2.646,0.806S43.732,36,43.83,37h-1.775
	c-0.137-1-0.471-0.973-1.002-1.207c-0.297-0.129-0.627-0.179-0.99-0.179c-0.695,0-1.267,0.269-1.714,0.794
	c-0.447,0.523-0.671,1.316-0.671,2.369c0,1.061,0.242,1.812,0.727,2.253s1.035,0.662,1.652,0.662c0.605,0,1.102-0.077,1.488-0.424
	C41.931,40.921,42.169,40,42.259,40H40v-2h4V43z M11.028,24.67c0-2.168,8.734-3.925,19.508-3.925s19.508,1.758,19.508,3.925
	s-8.734,3.925-19.508,3.925S11.028,26.838,11.028,24.67z M24.868,41.389C24.243,42.463,23.277,43,21.971,43H18v-9h3.971
	c0.536,0,0.981,0.252,1.337,0.369c0.606,0.199,1.097,0.655,1.472,1.187c0.301,0.43,0.506,0.94,0.616,1.44
	c0.109,0.5,0.164,0.999,0.164,1.452C25.56,39.596,25.33,40.592,24.868,41.389z"/>
</svg>
