<?xml version="1.0" encoding="iso-8859-1"?>
<!-- Generator: Adobe Illustrator 17.1.0, SVG Export Plug-In . SVG Version: 6.00 Build 0)  -->
<!DOCTYPE svg PUBLIC "-//W3C//DTD SVG 1.1//EN" "http://www.w3.org/Graphics/SVG/1.1/DTD/svg11.dtd">
<svg version="1.1" id="Layer_1" xmlns="http://www.w3.org/2000/svg" xmlns:xlink="http://www.w3.org/1999/xlink" x="0px" y="0px"
	 viewBox="0 0 64 64" style="enable-background:new 0 0 64 64;" xml:space="preserve">
<path d="M10.191,55.583c4.526,0,2.745-4.304,0.965-5.342c-1.781-2.894,4.229-5.787,5.268-6.678s4.674-2.894,4.452-6.975
	c-0.074-1.707,7.939,1.855,10.462,2.3c2.523,0.445,7.791,0.371,8.681-0.594c0.89-0.965-2.003,14.691,3.19,15.73
	c5.194,1.039,7.717-0.965,6.455-3.042c-1.261-2.078-4.081-1.558-2.597-7.197s0.074-5.862,0-6.159
	c-0.074-0.297,7.865-8.088,8.013-11.723c0.148-3.636-1.187-9.646,3.487-11.575c4.674-1.929,3.562-4.452,3.413-5.12
	c-0.148-0.668-5.194-0.519-5.194-0.519s-0.519-2.449-4.229-2.449L51.816,3.57l-1.484,1.558L49.59,3.125
	c0,0-7.271,9.201-9.572,13.504c-2.3,4.304-14.32,5.491-15.953,5.491s-9.497-0.668-6.604-4.674c1.712-1.263,4.155,2.597,4.378,3.19
	c0.223,0.594,6.678,1.484,3.487-5.936c-3.19-7.42-13.207-8.013-16.324-2.152c-3.116,5.862,1.632,13.949,2.152,14.394
	c0,0-6.233,6.084-1.41,13.059c1.1,1.828-2.82,4.007-3.562,5.787S5.665,55.583,10.191,55.583z"/>
</svg>
