<?xml version="1.0" encoding="iso-8859-1"?>
<!-- Generator: Adobe Illustrator 17.1.0, SVG Export Plug-In . SVG Version: 6.00 Build 0)  -->
<!DOCTYPE svg PUBLIC "-//W3C//DTD SVG 1.1//EN" "http://www.w3.org/Graphics/SVG/1.1/DTD/svg11.dtd">
<svg version="1.1" id="Layer_1" xmlns="http://www.w3.org/2000/svg" xmlns:xlink="http://www.w3.org/1999/xlink" x="0px" y="0px"
	 viewBox="0 0 64 64" style="enable-background:new 0 0 64 64;" xml:space="preserve">
<g>
	<path d="M5.053,40.974c-0.132,0.564-0.135,1.297-0.067,2.112c0.354,0.14,0.732,0.21,1.122,0.224
		C5.591,42.617,5.246,41.825,5.053,40.974z"/>
	<path d="M7.759,46.067c-0.043-0.274-0.08-0.57-0.111-0.89c-0.424,0.056-0.849,0.097-1.271,0.103
		C6.804,45.599,7.27,45.859,7.759,46.067z"/>
	<path d="M9.89,50.892c0.772-1.513-0.496-0.753-1.447-2.534c-1.039-0.234-2.025-0.664-2.911-1.248
		c0.097,0.714,0.169,1.38,0.169,1.932C5.701,51.526,8.721,53.181,9.89,50.892z"/>
	<path d="M8.675,37.791c-0.292,0.284-0.615,0.573-0.977,0.868c0.692,0.593,1.377,1.202,2.117,1.719
		C9.713,39.401,9.354,38.498,8.675,37.791z"/>
	<path d="M57.14,15.249c1.104,0.455,4.611,1.039,4.092-2.013c-0.065-2.013-2.598,0.649-4.027-3.182
		c-1.429-3.832-5.391-3.572-6.43-3.507l-3.28-0.593l1.607,2.034c0,0-6.259,10.759-15.807,10.759S9.219,16.38,9.219,27.682
		c0,0-0.006,2.617,1.942,5.052c0,0,0.223,1.077-0.646,2.702c1.353,0.108,2.706,0.209,3.979,0.658
		c0.11-0.139,0.205-0.263,0.266-0.354c0.525-0.208,1.948,2.046,2.046,4.189c0,0,1.948-3.41-1.007-5.131
		c0.942-1.299,0.585-1.104,1.104-2.306c0.52-1.202,3.02,3.637,0.844,7.859c-1.364,2.403,0.227,4.319,0.844,5.651
		c0.617,1.331,2.143,4.319,4.027,4.319s1.819-1.429,1.754-1.754c0.032-1.461-4.904,0.065-4.904-5.586
		c0-3.41,4.741-1.202,6.592-13.38c4.871,3.605,6.722,5.358,11.399,5.456l0.52,14.256c0,0,0.26,2.111,2.988,2.111
		s0.325-2.143-0.585-3.247c-0.909-1.104-1.299-10.067-0.52-10.132c0.779-0.065,0.779,6.625,1.039,8.313
		c0.26,1.689,0.39,3.962,2.468,4.027s1.429-1.948-0.26-2.728c-1.689-0.779-0.844-11.496-0.455-12.6s5.716-0.195,5.716-12.6
		C48.501,15.119,55.451,13.82,57.14,15.249z"/>
	<path d="M8.781,42.03c-0.607-0.429-1.184-0.901-1.761-1.385c0.177,0.736,0.545,1.384,1.102,1.935
		C8.315,42.432,8.539,42.243,8.781,42.03z"/>
	<path d="M13.071,37.731c-0.709-0.18-1.451-0.274-2.202-0.331c0.351,0.578,0.596,1.209,0.75,1.874
		C12.13,38.745,12.625,38.218,13.071,37.731z"/>
</g>
</svg>
