<?xml version="1.0" encoding="iso-8859-1"?>
<!-- Generator: Adobe Illustrator 17.1.0, SVG Export Plug-In . SVG Version: 6.00 Build 0)  -->
<!DOCTYPE svg PUBLIC "-//W3C//DTD SVG 1.1//EN" "http://www.w3.org/Graphics/SVG/1.1/DTD/svg11.dtd">
<svg version="1.1" id="Layer_1" xmlns="http://www.w3.org/2000/svg" xmlns:xlink="http://www.w3.org/1999/xlink" x="0px" y="0px"
	 viewBox="0 0 64 64" style="enable-background:new 0 0 64 64;" xml:space="preserve">
<g>
	<path d="M27.561,22.796c-0.715,0-1.285,0.264-1.711,0.791s-0.639,1.277-0.639,2.25s0.213,1.723,0.639,2.25s0.996,0.791,1.711,0.791
		s1.282-0.264,1.702-0.791s0.63-1.277,0.63-2.25c0-0.969-0.21-1.718-0.63-2.247S28.275,22.796,27.561,22.796z"/>
	<path d="M32.721,6.333c-14.665,0-26.554,8.829-26.554,19.72c0,5.535,3.075,10.535,8.021,14.117
		c-0.948,3.704-2.644,8.394-5.287,9.313c-3.989,1.388,6.041,3.382,14.08-5.085c3.017,0.884,6.3,1.375,9.74,1.375
		c14.665,0,26.554-8.829,26.554-19.72C59.275,15.162,47.386,6.333,32.721,6.333z M20.222,30h-1.729l-1.043-4.967l-0.305-1.628
		l-0.305,1.607L15.798,30h-1.676l-2.449-8h1.916l1.141,4.711l0.248,1.259l0.249-1.172L16.202,22h1.904l1.026,4.71l0.263,1.26
		l0.267-1.147L20.813,22h1.838L20.222,30z M30.391,29.399c-0.652,0.672-1.596,1.008-2.83,1.008s-2.178-0.336-2.83-1.008
		c-0.875-0.824-1.312-2.012-1.312-3.562c0-1.582,0.438-2.77,1.312-3.562c0.652-0.672,1.596-1.008,2.83-1.008s2.178,0.336,2.83,1.008
		c0.871,0.793,1.307,1.98,1.307,3.562C31.697,27.388,31.262,28.575,30.391,29.399z M39.725,29.399
		c-0.652,0.672-1.596,1.008-2.83,1.008s-2.178-0.336-2.83-1.008c-0.875-0.824-1.312-2.012-1.312-3.562
		c0-1.582,0.438-2.77,1.312-3.562c0.652-0.672,1.596-1.008,2.83-1.008s2.178,0.336,2.83,1.008c0.871,0.793,1.307,1.98,1.307,3.562
		C41.031,27.388,40.596,28.575,39.725,29.399z M49,23h-5v2h4v2h-4v3h-2v-8h7V23z M51.936,30.167h-1.752v-1.693h1.752V30.167z
		 M52,23.749L51.502,28h-0.873L50,23.749V22h2V23.749z"/>
	<path d="M36.895,22.796c-0.715,0-1.285,0.264-1.711,0.791s-0.639,1.277-0.639,2.25s0.213,1.723,0.639,2.25s0.996,0.791,1.711,0.791
		s1.282-0.264,1.702-0.791s0.63-1.277,0.63-2.25c0-0.969-0.21-1.718-0.63-2.247S37.609,22.796,36.895,22.796z"/>
</g>
</svg>
