<?xml version="1.0" encoding="iso-8859-1"?>
<!-- Generator: Adobe Illustrator 17.1.0, SVG Export Plug-In . SVG Version: 6.00 Build 0)  -->
<!DOCTYPE svg PUBLIC "-//W3C//DTD SVG 1.1//EN" "http://www.w3.org/Graphics/SVG/1.1/DTD/svg11.dtd">
<svg version="1.1" id="Layer_1" xmlns="http://www.w3.org/2000/svg" xmlns:xlink="http://www.w3.org/1999/xlink" x="0px" y="0px"
	 viewBox="0 0 64 64" style="enable-background:new 0 0 64 64;" xml:space="preserve">
<path d="M52.301,22.385c0.484-0.749,2.176,0.172,3.454,0.683c1.278,0.511,3.239,1.407,5.241-0.382c0,0-4.258-3.577-4.471-3.833
	s0.597-1.576-2.129-2.385c-2.726-0.809-5.494-0.298-7.198,2.3c-1.704,2.598-4.856,6.219-10.265,3.45
	c-11.884-2.47-16.91,0.767-21.851,6.048s-4.515,9.541-11.756,5.622c0,0-1.193,0.298,0,1.15c1.193,0.852,6.219,5.367,12.097-5.239
	c0.682-0.596-0.894,2.982-0.128,8.774c0.256,1.704-2.594,5.796-2.896,6.176c-0.784,0.986,0.085,9.158,1.278,9.158
	s2.556,0.341,2.556-2.002c0-0.894-2.172,0.937-2.257-2.044c0,0-0.469-3.748,1.363-5.409s5.111-4.941,5.367-7.071
	s0.852,2.556-0.809,5.111c-1.491,2.087,1.141,7.04,1.789,7.113c0,0,2.939,0.341,2.939-0.596s-1.363-1.065-2.172-0.894
	c-0.98-0.554-1.491-5.793-0.085-6.432c1.406-0.639,5.367-6.985,3.365-10.521c-0.043-1.15,3.876-1.789,5.367,0.469
	c1.491,2.258,4.685,4.004,8.391,4.856c0,0-0.639,4.941-0.043,6.559c0,0-4.046,4.046-2.257,10.137c0,0-9.882,2.385-9.882-2.258
	c0,0-0.682-0.871-1.406,0.875C25.177,53.549,26.881,56,30.288,56c3.407,0,17.08,0,17.08,0s0.767-2.068-0.681-2.068
	s0.554-1.436,0.937-1.479C48.007,52.41,47.453,56,48.518,56c1.065,0,3.45,0,3.45,0s1.406-1.259-0.043-2.026
	c-1.448-0.767-0.98-4.718-0.916-7.402s2.747-4.169,0.958-8.833c0,0-0.128-1.937,1.789-1.931c1.917,0.006,2.939,0.034,3.258-1.755
	s-0.064-1.871-0.447-1.999c-0.383-0.128-1.406-2.245-4.089-2.245l-0.469-2.032c0,0-1.597,2.289-2.108,3.269
	c-0.511,0.98-5.463,6.746-5.889,6.874c-0.426,0.128,3.551-5.657,3.679-8.426C47.906,27.322,51.236,24.728,52.301,22.385z"/>
</svg>
