<?xml version="1.0" encoding="iso-8859-1"?>
<!-- Generator: Adobe Illustrator 17.1.0, SVG Export Plug-In . SVG Version: 6.00 Build 0)  -->
<!DOCTYPE svg PUBLIC "-//W3C//DTD SVG 1.1//EN" "http://www.w3.org/Graphics/SVG/1.1/DTD/svg11.dtd">
<svg version="1.1" id="Layer_1" xmlns="http://www.w3.org/2000/svg" xmlns:xlink="http://www.w3.org/1999/xlink" x="0px" y="0px"
	 viewBox="0 0 64 64" style="enable-background:new 0 0 64 64;" xml:space="preserve">
<g>
	<path d="M38.034,42.382c0.807,0,1.447-0.298,1.921-0.893c0.474-0.595,0.711-1.442,0.711-2.54c0-1.094-0.237-1.939-0.711-2.537
		c-0.474-0.597-1.115-0.896-1.921-0.896c-0.807,0-1.451,0.298-1.931,0.893c-0.481,0.595-0.721,1.442-0.721,2.54
		s0.24,1.945,0.721,2.54C36.584,42.085,37.227,42.382,38.034,42.382z"/>
	<path d="M27.013,60.595c11.845,0,21.448-9.834,21.448-21.964c0-2.076-0.294-4.079-0.82-5.981c-0.019,0-0.037,0.003-0.055,0.003
		c-8.017,0-14.54-6.522-14.54-14.54c0-0.172,0.02-0.339,0.026-0.51c-0.275-0.083-0.544-0.178-0.823-0.25
		c0.012-0.156,0.046-0.306,0.046-0.466c0-3.292-2.606-5.96-5.82-5.96s-5.82,2.669-5.82,5.96c0,0.254,0.043,0.496,0.073,0.742
		C11.95,20.381,5.565,28.74,5.565,38.63C5.565,50.761,15.168,60.595,27.013,60.595z M34.84,34.928
		c0.736-0.758,1.801-1.138,3.195-1.138c1.393,0,2.458,0.379,3.195,1.138c0.983,0.895,1.475,2.236,1.475,4.021
		c0,1.751-0.492,3.091-1.475,4.021c-0.736,0.758-1.801,1.138-3.195,1.138c-1.393,0-2.458-0.379-3.195-1.138
		c-0.988-0.93-1.482-2.271-1.482-4.021C33.358,37.164,33.852,35.823,34.84,34.928z M26.461,14.668c1.342,0,2.43,0.89,2.43,1.988
		c0,1.098-1.088,1.988-2.43,1.988c-1.342,0-2.43-0.89-2.43-1.988C24.031,15.558,25.119,14.668,26.461,14.668z M24,34h4.143
		c0.605,0,1.108,0.123,1.509,0.256c0.684,0.225,1.238,0.659,1.662,1.259c0.34,0.485,0.571,1.021,0.695,1.585
		c0.123,0.564,0.185,1.108,0.185,1.619c0,1.296-0.26,2.478-0.781,3.378C30.707,43.31,29.617,44,28.143,44H24V34z M20,34h2v10h-2V34z
		 M12,34h7v2h-5v2h4v2h-4v4h-2V34z"/>
	<path d="M29.812,40.65c0.208-0.52,0.311-1.104,0.311-1.822c0-0.992-0.156-1.627-0.467-2.158C29.345,36.138,28.726,36,27.798,36H26
		v6h1.798C28.761,42,29.433,41.598,29.812,40.65z"/>
	<path d="M47.585,5.83c-6.783,0-12.282,5.499-12.282,12.282c0,0.102,0.013,0.2,0.015,0.301c0.156,6.401,5.201,11.575,11.546,11.945
		c0.24,0.014,0.477,0.036,0.721,0.036c6.783,0,12.282-5.499,12.282-12.282S54.368,5.83,47.585,5.83z M52.666,18.539
		c0,0,0.268-1.889-0.179-1.889c-0.604,0.022-0.313,5.186-0.313,5.432c0,0-1.029,1.918-4.339,1.918h-0.179
		c-3.31,0-4.339-1.899-4.339-1.899c0-0.246,0.291-5.656-0.313-5.679c-0.447,0-0.179,2.005-0.179,2.005l-3.041-1.357
		c0,0,1.923-3.071,7.872-3.071h0.179c5.949,0,7.872,3.072,7.872,3.072L52.666,18.539z"/>
	<circle cx="44.984" cy="17.447" r="0.526"/>
	<circle cx="50.351" cy="17.447" r="0.526"/>
	<path d="M49.36,19.113c-0.604-0.425-1.506-0.359-1.506-0.359l-0.256,0.004c0,0-0.925-0.07-1.529,0.355s1.483,1.083,1.483,1.083
		l0.16,0.042l0.167-0.038C47.879,20.201,49.964,19.538,49.36,19.113z"/>
</g>
</svg>
