<?xml version="1.0" encoding="iso-8859-1"?>
<!-- Generator: Adobe Illustrator 17.1.0, SVG Export Plug-In . SVG Version: 6.00 Build 0)  -->
<!DOCTYPE svg PUBLIC "-//W3C//DTD SVG 1.1//EN" "http://www.w3.org/Graphics/SVG/1.1/DTD/svg11.dtd">
<svg version="1.1" id="Layer_1" xmlns="http://www.w3.org/2000/svg" xmlns:xlink="http://www.w3.org/1999/xlink" x="0px" y="0px"
	 viewBox="0 0 64 64" style="enable-background:new 0 0 64 64;" xml:space="preserve">
<g>
	<path d="M12.68,32.083c1.878,0.069,0.974,15.07,0.974,15.834c0,0,3.199,4.083,13.49,4.083h0.556
		c10.292,0,13.491-4.101,13.491-4.101c0-0.618-0.59-10.62,0.176-14.466c-2.432-2.11-4.072-5.107-4.395-8.489
		C34.306,24.362,31.233,24,27.701,24h-0.556C8.647,24,2.667,33.864,2.667,33.864l9.457,4.376
		C12.124,38.24,11.289,32.083,12.68,32.083z M35.524,33.714c0.903,0,1.634,0.732,1.634,1.634s-0.732,1.634-1.634,1.634
		s-1.634-0.732-1.634-1.634S34.621,33.714,35.524,33.714z M22.207,40.529c1.878-1.321,4.755-1.104,4.755-1.104l0.795-0.013
		c0,0,2.806-0.204,4.684,1.117c1.878,1.321-4.606,3.381-4.606,3.381l-0.519,0.117l-0.498-0.13
		C26.818,43.898,20.329,41.85,22.207,40.529z M18.834,33.714c0.903,0,1.634,0.732,1.634,1.634s-0.732,1.634-1.634,1.634
		c-0.903,0-1.634-0.732-1.634-1.634S17.932,33.714,18.834,33.714z"/>
	<path d="M42.967,34.616c0,1.671-0.246,3.506-0.246,3.506l4.165-1.873C45.476,35.922,44.158,35.364,42.967,34.616z"/>
	<path d="M49.789,12.83c-6.009,0-10.88,4.871-10.88,10.88c0,0.6,0.061,1.185,0.155,1.759c0.843,5.17,5.317,9.121,10.725,9.121
		c0.297,0,0.59-0.021,0.881-0.044c5.596-0.45,9.999-5.124,9.999-10.836C60.67,17.702,55.798,12.83,49.789,12.83z M55.685,17.899
		l-8.627,11.158l-0.186,0.241c-0.24,0.31-0.597,0.289-0.798-0.048l-0.735-1.235l-2.099-3.526c-0.201-0.337-0.065-0.5,0.303-0.364
		l2.44,1.611c0.368,0.136,0.895,0.025,1.177-0.247l7.383-7.857c0.282-0.273,0.541-0.587,0.836-0.531
		C55.673,17.155,55.998,17.506,55.685,17.899z"/>
</g>
</svg>
