<?xml version="1.0" encoding="iso-8859-1"?>
<!-- Generator: Adobe Illustrator 17.1.0, SVG Export Plug-In . SVG Version: 6.00 Build 0)  -->
<!DOCTYPE svg PUBLIC "-//W3C//DTD SVG 1.1//EN" "http://www.w3.org/Graphics/SVG/1.1/DTD/svg11.dtd">
<svg version="1.1" id="Layer_1" xmlns="http://www.w3.org/2000/svg" xmlns:xlink="http://www.w3.org/1999/xlink" x="0px" y="0px"
	 viewBox="0 0 64 64" style="enable-background:new 0 0 64 64;" xml:space="preserve">
<path d="M21.516,13l-6.586,9.636c0.903,0.954,1.607,2.137,1.748,3.012c0.237,1.323,0.558,2.785,0.666,3.121
	c0.051,0.143,0.455,1.331,0.464,2.738c0.053,0.118,0.117,0.241,0.181,0.315c0.52,0.594,0.965,1.46,1.539,2.556
	c0.125,0.239,0.239,0.487,0.374,0.74c0.189,0.075,0.678,0.218,1.793,0.243c0.248-4.44,0.769-8.345,1.836-8.345
	c2.474,0,2.291,19.983,2.382,20.983H55V28h5L49.554,13H21.516z"/>
<path d="M23,48.186V37.328c0,0.01-0.564,0.039-1.164,0.039c-0.077,0-0.156-0.003-0.234-0.004c-1.361-0.018-2.844-0.207-3.324-1.098
	c-0.722-1.34-1.305-2.575-1.786-3.125c-0.481-0.55-0.687-1.302-0.687-1.302c0.069-1.237-0.344-2.398-0.344-2.398
	c-0.206-0.55-0.756-3.628-0.756-3.628c-0.047-0.403-0.336-0.916-0.705-1.41c-0.668-0.896-1.609-1.729-1.931-1.729
	c-0.016,0-0.031-0.018-0.044-0.014c-0.412,0.137-0.344,2.785-0.344,2.785c-0.275-0.55-2.611-1.784-2.611-1.784
	C9.07,23.845,9.239,26,9.14,26c0,0-0.001,0-0.002,0c-0.013,0-0.031,0.073-0.056,0.073c-0.172,0-0.635,0.241-1.388,1.325
	c-0.859,1.237-3.231,1.856-4.434,2.371c-1.203,0.515,0.204,1.856,0.204,1.856c0.859,1.615,3.157,1.821,4.979,1.821
	c1.821,0,0.714,3.333,0.714,3.333c-0.144,1.816,0.622,1.766,0.775,3.092c0.111,0.958,0.623,4.742,1.345,5.67
	c-0.223,0.125-0.632,0.177-1.137,0.177c-1.985,0-5.579-0.804-6.154-1.105c-0.077-0.04-0.192-0.06-0.276-0.06
	c-0.708,0-1.6,1.364-0.127,3.359c1.652,0.788,4.6,1.039,7.841,1.039C17.082,48.95,23,48.186,23,48.186z"/>
</svg>
