<?xml version="1.0" encoding="iso-8859-1"?>
<!-- Generator: Adobe Illustrator 17.1.0, SVG Export Plug-In . SVG Version: 6.00 Build 0)  -->
<!DOCTYPE svg PUBLIC "-//W3C//DTD SVG 1.1//EN" "http://www.w3.org/Graphics/SVG/1.1/DTD/svg11.dtd">
<svg version="1.1" id="Layer_1" xmlns="http://www.w3.org/2000/svg" xmlns:xlink="http://www.w3.org/1999/xlink" x="0px" y="0px"
	 viewBox="0 0 64 64" style="enable-background:new 0 0 64 64;" xml:space="preserve">
<path d="M11,47.84c0.33,9.779,11.921,9.065,12.306,8.35c0.385-0.714,1.538-1.209,1.483-0.714c-0.055,0.494,0.549,0.95,0.549,0.95
	s17.14,1.193,17.14-1.774s-2.417-2.582-1.483-2.967c0.934-0.385,2.362-2.527,2.362-2.527s-0.165,5.109-0.275,5.439
	c-0.783,2.348,7.417,2.307,7.417,0.604c0-1.703-2.033-2.198-2.033-2.198s0.549-20.107-0.22-20.986
	c-0.769-0.879-0.33-1.868-0.33-1.868c7.801-5.384,4.285-11.757,4.285-13.405C52.203,15.097,52.972,4,51.104,4
	s-5.384,4.944-6.373,6.812c-0.122-0.104-0.263-0.192-0.419-0.265c-1.82-0.853-5.734,0.265-5.734,0.265
	c-1.318-1.099-9.669-6.043-11.097-4.615c-2.088,1.978,4.505,12.855,4.505,12.855C30.997,28.282,36.82,30.15,36.82,30.15
	s-0.33,3.296-5.933,6.592c-7.142,3.406-8.57,7.911-8.68,9.669c-0.11,1.758,1.209,6.592-4.615,4.725
	c-5.823-1.868-4.065-6.592-4.065-6.592C11.22,45.367,11,47.84,11,47.84z"/>
</svg>
