<?xml version="1.0" encoding="iso-8859-1"?>
<!-- Generator: Adobe Illustrator 17.1.0, SVG Export Plug-In . SVG Version: 6.00 Build 0)  -->
<!DOCTYPE svg PUBLIC "-//W3C//DTD SVG 1.1//EN" "http://www.w3.org/Graphics/SVG/1.1/DTD/svg11.dtd">
<svg version="1.1" id="Layer_1" xmlns="http://www.w3.org/2000/svg" xmlns:xlink="http://www.w3.org/1999/xlink" x="0px" y="0px"
	 viewBox="0 0 64 64" style="enable-background:new 0 0 64 64;" xml:space="preserve">
<path d="M18.884,29.251c0.666-0.333-6.501,6.572-6.991,9.821c-0.425,2.817-0.166,6.492,7.823,9.654
	c2.757,1.091,4.961,1.131,6.681,0.73c0.519,1.579,2.042,2.826,3.964,3.052c1.764,0.208,3.384-0.51,4.316-1.721
	c1.77,1.076,4.408,1.926,8.343,1.934c11.812,0.025,8.655-8.822,8.655-8.822s-3.662-8.976-3.662-9.232s10.986,8.4,14.148-1.92
	c3.163-10.32-8.131-7.047-9.321-6.991c-0.895,0.042-5.992-0.666-9.155-3.995c-3.163-3.329-5.326-3.912-8.156-3.995
	c0,0-3.662,0-9.488,2.33c-5.826,2.33-9.821-0.499-11.485-2.33c-1.665-1.831-9.987-2.663-9.155,6.325
	C6.234,33.08,18.218,29.584,18.884,29.251z M33.033,36.575c1.138,0.355,4.844,0.738,3.828,2.414
	c-1.198,1.978-3.912,2.33-4.661,1.914s-2.497-1.997-2.33-3.662C30.036,35.577,33.033,36.575,33.033,36.575z"/>
</svg>
