<?xml version="1.0" encoding="iso-8859-1"?>
<!-- Generator: Adobe Illustrator 17.1.0, SVG Export Plug-In . SVG Version: 6.00 Build 0)  -->
<!DOCTYPE svg PUBLIC "-//W3C//DTD SVG 1.1//EN" "http://www.w3.org/Graphics/SVG/1.1/DTD/svg11.dtd">
<svg version="1.1" id="Layer_1" xmlns="http://www.w3.org/2000/svg" xmlns:xlink="http://www.w3.org/1999/xlink" x="0px" y="0px"
	 viewBox="0 0 64 64" style="enable-background:new 0 0 64 64;" xml:space="preserve">
<path d="M57.792,18.208c-3.25-0.458-4.208-4.167-8.25-4.417c0,0-3.542,0.083-5.583,1.167l-5.333-3.208c0,0-0.5,2.625,2.5,5.625
	c0,0-2,9-5,9S19.062,29.5,11.875,24c0,0-6.125-6.188-7.5-5.125c-3.325,2.569,6.125,9.375,8.5,10.75c0,0-3.5,27.5,3,27.5
	c0,0,3.25,0.708,3.25-16.375c0,0,8.949,4.9,20.199,4.15c0,0-1.574,12.319,3.426,12.335c5,0.015,3-11.735,2.75-16.11
	c0,0,4.125-11.875,4-14.375c0,0,6.75,2.625,7.625,1c0,0,0.958-1.208-2.792-3.208c0,0,5.292-0.333,5.917-3.75
	C60.25,20.792,61.042,18.667,57.792,18.208z"/>
</svg>
