<?xml version="1.0" encoding="iso-8859-1"?>
<!-- Generator: Adobe Illustrator 17.1.0, SVG Export Plug-In . SVG Version: 6.00 Build 0)  -->
<!DOCTYPE svg PUBLIC "-//W3C//DTD SVG 1.1//EN" "http://www.w3.org/Graphics/SVG/1.1/DTD/svg11.dtd">
<svg version="1.1" id="Layer_1" xmlns="http://www.w3.org/2000/svg" xmlns:xlink="http://www.w3.org/1999/xlink" x="0px" y="0px"
	 viewBox="0 0 64 64" style="enable-background:new 0 0 64 64;" xml:space="preserve">
<path d="M46.841,28.052c3.902,1.126,7.805-3.977,5.778-11.107c-2.026-7.129-9.456-6.154-10.731-5.253c0,0-7.354-3.077-11.669,0.338
	c0,0-5.178-5.065-11.257,6.191c0,0-2.139,11.257,6.754,9.343c5.178-1.914-1.801-7.429,1.351-11.482c0,0,0.901,5.741,3.152,7.655
	c0,0-3.152,3.602,1.013,5.966c0,0-1.576,5.741-7.992,8.893c-6.416,3.152-4.166,9.231-4.503,10.244c0,0-8.217,3.715-7.879-4.728
	c0,0-2.139,11.032,9.343,8.893c0,0-0.27,1.013,0.765,1.126c1.036,0.113,13.418,0,13.418,0s3.94-0.563,0-4.39
	c0,0,2.083-1.576,2.026-2.477l0.001,6.529c0,0,4.839,0.507,5.683-0.056c0.844-0.563,0.901-2.251-1.013-2.702
	s1.823-18.106-0.804-20.733c0,0,3.336-2.1,1.835-6.002c0,0,3.152-3.752,2.176-9.381C47.817,19.497,41.964,25.651,46.841,28.052z"/>
</svg>
