<?xml version="1.0" encoding="iso-8859-1"?>
<!-- Generator: Adobe Illustrator 17.1.0, SVG Export Plug-In . SVG Version: 6.00 Build 0)  -->
<!DOCTYPE svg PUBLIC "-//W3C//DTD SVG 1.1//EN" "http://www.w3.org/Graphics/SVG/1.1/DTD/svg11.dtd">
<svg version="1.1" id="Layer_1" xmlns="http://www.w3.org/2000/svg" xmlns:xlink="http://www.w3.org/1999/xlink" x="0px" y="0px"
	 viewBox="0 0 64 64" style="enable-background:new 0 0 64 64;" xml:space="preserve">
<path d="M57.652,22.324c-0.707-2.062-3.3-3.418-9.015-3.889c-3.038-0.251-4.894,0.947-5.303,2.328L42,19.984
	c-1.078-0.75-25.948-6.086-25.948,14.773c0,0-8.485,1.95-10.488-0.91c0,0-1.532-1.264-2.946,0c-1.414,1.264,2.121,3.857,5.775,4.681
	c3.653,0.825,10.606,0.589,11.313,0.471c0.707-0.118,1.482,1.917,0.825,3.535c-0.48,1.181,4.596,5.892,7.307,6.128
	c2.71,0.236,6.246,0.825,6.285-3.418c0.039-4.242-9.271,0.864-5.971-5.185c3.3-6.049,3.663-4.955,3.85-4.91
	c0,0,2.985,3.143,4.085,3.614c0,0-1.414,10.528,2.2,10.528s2.357-11.313,2.357-12.099c0,0,6.108-5.264,6.58-6.501
	c0,0,9.781,2.475,12.02,2.121c2.239-0.354,3.123-3.83,2.946-4.419S58.359,24.387,57.652,22.324z"/>
<path d="M9.217,49H20.53c0,0,0.928-2.542-1.405-2.708c0,0-0.083-2.583-1.917-2.375c0,0-1.471-3.362-3.906-0.691
	c0,0,1.257-0.109,1.178,0.519c0,0-2.647-0.161-2.147,2.339C12.333,46.083,8.981,46,9.217,49z"/>
</svg>
