<?xml version="1.0" encoding="iso-8859-1"?>
<!-- Generator: Adobe Illustrator 17.1.0, SVG Export Plug-In . SVG Version: 6.00 Build 0)  -->
<!DOCTYPE svg PUBLIC "-//W3C//DTD SVG 1.1//EN" "http://www.w3.org/Graphics/SVG/1.1/DTD/svg11.dtd">
<svg version="1.1" id="Layer_1" xmlns="http://www.w3.org/2000/svg" xmlns:xlink="http://www.w3.org/1999/xlink" x="0px" y="0px"
	 viewBox="0 0 64 64" style="enable-background:new 0 0 64 64;" xml:space="preserve">
<g>
	<path d="M57.833,41c0.552,0,0.869-0.428,0.707-0.956l-5.246-17.088C53.131,22.428,52.552,22,52,22H13
		c-0.552,0-1.128,0.429-1.286,0.958L6.619,40.042C6.461,40.571,6.781,41,7.333,41H57.833z M32.59,26h0.212
		c7.047,0,9.325,3.53,9.325,3.53l-3.603,1.605c0,0,0.318-2.37-0.212-2.37c-0.715,0.026-0.371,5.986-0.371,6.277
		c0,0-1.219,1.958-5.139,1.958H32.59c-3.921,0-5.139-1.923-5.139-1.923c0-0.291,0.344-6.373-0.371-6.4
		c-0.53,0-0.212,2.403-0.212,2.403l-3.603-1.552C23.265,29.528,25.543,26,32.59,26z"/>
	<path d="M32.466,33.121l0.19,0.05l0.198-0.045c0,0,2.47-0.785,1.755-1.288c-0.715-0.503-1.784-0.426-1.784-0.426l-0.303,0.005
		c0,0-1.096-0.083-1.811,0.421C29.994,32.341,32.466,33.121,32.466,33.121z"/>
	<circle cx="35.782" cy="29.865" r="0.623"/>
	<circle cx="29.424" cy="29.865" r="0.623"/>
	<path d="M12,21h41c0,0,1.167-4-3.833-3.667c0,0-2.833-5.5-9.167-2.833c0,0-5.833-4-10.5,0.5c0,0-5-4.167-7.5-0.333
		c0,0-5.833,0.333-5.167,3.333C16.833,18,11,17.167,12,21z"/>
</g>
</svg>
