<?xml version="1.0" encoding="iso-8859-1"?>
<!-- Generator: Adobe Illustrator 17.1.0, SVG Export Plug-In . SVG Version: 6.00 Build 0)  -->
<!DOCTYPE svg PUBLIC "-//W3C//DTD SVG 1.1//EN" "http://www.w3.org/Graphics/SVG/1.1/DTD/svg11.dtd">
<svg version="1.1" id="Layer_1" xmlns="http://www.w3.org/2000/svg" xmlns:xlink="http://www.w3.org/1999/xlink" x="0px" y="0px"
	 viewBox="0 0 64 64" style="enable-background:new 0 0 64 64;" xml:space="preserve">
<path d="M60.018,17.841c0.511-1.511,0.299-4.902-2.07-5.634c-0.528-0.163-0.922-0.584-0.842-1.13l0.547-3.743
	c0.08-0.547-0.155-0.656-0.524-0.246l-2.138,2.38c-0.369,0.411-0.704,0.298-0.748-0.253l-0.136-1.699
	c-0.044-0.551-0.229-0.574-0.445-0.065c-1.385,3.263-6.879,13.98-19.284,13.98c-14.632,0-22.854,0.557-22.715-3.763
	c0.105-3.246,2.737-1.261,4.04-0.073c0.408,0.372,0.925,0.3,1.112-0.219c0.675-1.877,1.401-5.979-5.153-5.979
	c-8.499,0-4.04,11.427-2.925,12.681c1.072,1.205-1.719,5.887,3.507,11.941c0.361,0.418,0.925,1.111,1.184,1.598
	c2.286,4.297-0.8,6.425-1.376,7.665c-0.769,1.656-1.087,4.131,2.606,7.406c0.999,1,4.082,0.891,5.406,0.891
	c0.608,0,1.483-2.741-1.875-3.007c-0.551-0.044-1.453-0.048-1.971-0.24c-1.498-0.555-1.827-1.841-1.698-3.191
	c0.138-1.452,1.428-3.275,2.857-4.459c0.633-0.609,0.176,6.002,2.947,7.059c0.918,0.35,1.66,0.521,2.626,0.394
	c0.548-0.072,1.769-0.472,1.422-0.901c-0.648-0.803-4.359-2.127-4.765-7.609c-0.041-0.551,0.353-1.222,0.795-1.553
	c1.05-0.786,2.851-2.431,3.948-5.091c0.211-0.511,0.7-0.667,1.163-0.367c1.693,1.098,5.878,3.407,11.349,3.598
	c0.552,0.019,0.905,0.449,0.818,0.994c-0.454,2.833-1.227,10.862,4.41,11.697c0.546,0.081,1.041,0.537,1.348,0.996
	c0.455,0.678,1.497,1.481,3.882,1.48c4.128-0.001,1.672-2.039,0.157-2.771c-1.516-0.732-4.285-5.592-0.418-12.072
	c0,0,3.658-5.644,3.24-9.929c-0.418-4.285,4.076-5.121,6.271-5.226c2.195-0.105,4.416-0.601,4.416-2.717
	C60.984,18.546,59.443,19.539,60.018,17.841z M41.623,38.117c-0.627,6.236,0.627,10.295,0.627,10.295
	C37.912,44.544,41.623,38.117,41.623,38.117z"/>
</svg>
