<?xml version="1.0" encoding="iso-8859-1"?>
<!-- Generator: Adobe Illustrator 17.1.0, SVG Export Plug-In . SVG Version: 6.00 Build 0)  -->
<!DOCTYPE svg PUBLIC "-//W3C//DTD SVG 1.1//EN" "http://www.w3.org/Graphics/SVG/1.1/DTD/svg11.dtd">
<svg version="1.1" id="Layer_1" xmlns="http://www.w3.org/2000/svg" xmlns:xlink="http://www.w3.org/1999/xlink" x="0px" y="0px"
	 viewBox="0 0 64 64" style="enable-background:new 0 0 64 64;" xml:space="preserve">
<g>
	<path d="M36.71,32.176l-0.502,0.008c0,0-1.817-0.137-3.002,0.697c-1.185,0.834,2.912,2.127,2.912,2.127l0.314,0.082l0.328-0.074
		c0,0,4.094-1.301,2.908-2.135C38.482,32.048,36.71,32.176,36.71,32.176z"/>
	<circle cx="41.614" cy="29.611" r="1.032"/>
	<circle cx="31.077" cy="29.611" r="1.032"/>
	<path d="M41.137,15H15.403c-0.021,0-0.03,0.21-0.057,0.43c-0.346,2.77-3.41,10.25,0.187,31.893
		c0.107,0.642,0.174,1.637,0.139,2.286c-0.114,2.13-0.398,6.607-0.864,9.099c-0.12,0.64,0.155,0.827,0.686,0.452l5-3.536
		c0.532-0.375,1.296-0.274,1.707,0.231l2.992,3.671c0.411,0.505,1.086,0.511,1.508,0.016l3.157-3.706
		c0.422-0.495,1.073-0.47,1.455,0.057l2.895,3.998c0.382,0.527,1.064,0.581,1.524,0.121l1.926-1.926
		c-1.85-2.245-3.061-5.033-3.359-8.086h-7.302c-0.651,0-1.178-0.349-1.178-1c0-0.651,0.528-1,1.178-1h7.254
		c0.089-2.545,0.806-4.928,2.01-7.002c-6.447-0.02-8.456-2.984-8.456-2.984c0-0.483,0.571-10.25-0.615-10.294
		c-0.878,0-0.351,3.91-0.351,3.91l-5.971-2.68c0,0,3.776-5.951,15.455-5.951h0.351c11.679,0,15.455,5.953,15.455,5.953l-5.971,2.6
		c0,0,0.527-3.979-0.351-3.979c-0.708,0.026-0.789,3.562-0.74,6.507c1.338-0.391,2.749-0.611,4.212-0.611
		c3.172,0,6.114,0.992,8.544,2.674c0.412-5.91,0.287-13.426-1.479-21.504c-0.139-0.636-0.228-1.728-0.186-2.378l0.461-7.248
		c0.041-0.649-0.343-0.868-0.859-0.471l-3.428,2.63c-0.516,0.397-1.324,0.359-1.804-0.079l-2.944-2.69
		c-0.481-0.439-1.271-0.452-1.765-0.029l-3.914,3.354c-0.494,0.423-1.26,0.386-1.711-0.083l-3.459-3.597
		c-0.451-0.469-1.182-0.469-1.633,0l-3.459,3.597c-0.451,0.469-1.168,0.456-1.601-0.03l-3.523-3.945
		c-0.433-0.485-1.165-0.513-1.633-0.062l-3.802,3.661c-0.469,0.451-1.286,0.521-1.824,0.156l-4.363-2.956
		c-0.539-0.365-0.749-0.294-0.531,0.319C14.846,6.15,15.537,9,15.528,12h25.609c0.651,0,1.178,0.849,1.178,1.5
		C42.315,14.151,41.788,15,41.137,15z"/>
	<path d="M56.595,59.338c3.463-2.347,5.739-6.314,5.739-10.812c0-4.035-1.832-7.64-4.708-10.035c-2.263-1.884-5.171-3.02-8.346-3.02
		c-1.455,0-2.85,0.248-4.157,0.688c-2.604,0.875-4.836,2.547-6.415,4.729c-1.459,2.015-2.35,4.46-2.456,7.112
		c-0.007,0.176-0.027,0.348-0.027,0.526c0,0.499,0.034,0.99,0.089,1.474c0.282,2.505,1.273,4.793,2.768,6.663
		c2.392,2.994,6.068,4.917,10.198,4.917c2.433,0,4.702-0.678,6.652-1.837C56.154,59.611,56.38,59.483,56.595,59.338z"/>
</g>
<g>
	<path style="fill:#FFFFFF;" d="M41.588,50.28c0.198-0.472,0.667-0.972,1.406-1.499c0.642-0.459,1.057-0.788,1.245-0.986
		c0.29-0.31,0.435-0.647,0.435-1.016c0-0.3-0.083-0.549-0.249-0.747s-0.403-0.298-0.713-0.298c-0.423,0-0.711,0.158-0.864,0.474
		c-0.088,0.183-0.14,0.472-0.156,0.869h-1.353c0.022-0.603,0.132-1.089,0.327-1.46c0.372-0.706,1.031-1.06,1.979-1.06
		c0.75,0,1.346,0.208,1.789,0.622c0.443,0.416,0.665,0.965,0.665,1.648c0,0.524-0.156,0.989-0.47,1.396
		c-0.205,0.271-0.543,0.571-1.013,0.903l-0.558,0.396c-0.349,0.247-0.588,0.427-0.717,0.537c-0.128,0.11-0.236,0.239-0.324,0.386
		h3.091v1.226H41.26C41.273,51.164,41.383,50.7,41.588,50.28z"/>
	<path style="fill:#FFFFFF;" d="M47.144,44.499h1.367v3.883l1.755-2.008h1.73l-1.907,1.982l1.981,3.315h-1.693l-1.29-2.274
		l-0.576,0.6v1.675h-1.367V44.499z"/>
	<path style="fill:#FFFFFF;" d="M55.353,46.345c0.338,0.14,0.611,0.397,0.819,0.771V46.35h1.357v5.049
		c0,0.687-0.115,1.204-0.347,1.553c-0.397,0.599-1.159,0.898-2.285,0.898c-0.681,0-1.235-0.134-1.665-0.4s-0.667-0.666-0.713-1.196
		h1.514c0.039,0.163,0.103,0.28,0.19,0.352c0.149,0.127,0.402,0.19,0.757,0.19c0.501,0,0.837-0.168,1.006-0.503
		c0.11-0.215,0.166-0.576,0.166-1.084v-0.342c-0.134,0.228-0.276,0.398-0.43,0.513c-0.276,0.212-0.637,0.317-1.079,0.317
		c-0.684,0-1.229-0.24-1.638-0.72c-0.409-0.48-0.613-1.131-0.613-1.951c0-0.791,0.196-1.456,0.59-1.994
		c0.394-0.539,0.951-0.809,1.673-0.809C54.923,46.223,55.155,46.264,55.353,46.345z M55.827,50.16
		c0.224-0.245,0.336-0.637,0.336-1.174c0-0.505-0.106-0.889-0.318-1.152c-0.213-0.264-0.497-0.396-0.854-0.396
		c-0.486,0-0.821,0.229-1.007,0.688c-0.097,0.244-0.146,0.545-0.146,0.903c0,0.31,0.052,0.584,0.155,0.825
		c0.188,0.449,0.525,0.674,1.012,0.674C55.33,50.529,55.603,50.406,55.827,50.16z"/>
</g>
</svg>
