<?xml version="1.0" encoding="iso-8859-1"?>
<!-- Generator: Adobe Illustrator 17.1.0, SVG Export Plug-In . SVG Version: 6.00 Build 0)  -->
<!DOCTYPE svg PUBLIC "-//W3C//DTD SVG 1.1//EN" "http://www.w3.org/Graphics/SVG/1.1/DTD/svg11.dtd">
<svg version="1.1" id="Layer_1" xmlns="http://www.w3.org/2000/svg" xmlns:xlink="http://www.w3.org/1999/xlink" x="0px" y="0px"
	 viewBox="0 0 64 64" style="enable-background:new 0 0 64 64;" xml:space="preserve">
<path d="M53.014,42.933c-0.255,0.031-0.512,0.057-0.777,0.057c-3.156,0-6.294-2.302-8.381-4.034c-0.936-0.777-1.774-1.17-2.492-1.17
	c-0.706,0-1.211,0.409-1.517,0.765c0.418,0.541,0.78,1.195,1.094,1.857c1.359,1.461,3.076,2.736,4.384,3.226
	c2.615,2.049,1.613,5.623,1.003,5.928c-0.247,0.123-0.614,0.151-0.965,0.245c0.14,0.846,0.146,1.591,0.068,2.171
	c1.224,0.028,3.076-0.686,3.164-0.803c0.131-0.174,1.744-5.536,0.61-7.497s5.013,3.749,5.143,5.797
	c0.131,2.049-2.016,0.049-2.016,2.359c0,0.768,3.482,0.327,4.724-0.065c0.362-0.114,0.62-1.373,0.213-1.945
	C56.234,48.373,54.573,45.581,53.014,42.933z"/>
<path d="M19.041,52.833c0.171,0.829,4.097,1.09,4.228-1.264c0,0,0.048-0.802,0.104-2.015c-0.186-0.246-0.362-0.47-0.489-0.631
	c-0.25-0.316-0.477-0.605-0.644-0.844c-0.088-0.126-0.163-0.247-0.235-0.361c-0.15-0.239-0.237-0.368-0.461-0.438
	c0.041,1.111,0.045,2.04-0.018,2.547C21.526,49.825,19.041,49.825,19.041,52.833z"/>
<path d="M52.266,37.053l-0.142,0.124c-0.281,0.244-0.574,0.433-0.871,0.591c0.601,0.332,1.298,0.688,2.052,1.008
	c0.637-0.416,1.052-1.143,1.196-1.841c0.184-0.893-0.002-2.01-1.073-2.47c-0.627-0.269-1.174-0.405-1.627-0.405
	c-0.128,0-0.242,0.011-0.342,0.031c0.361,0.189,0.686,0.459,0.901,0.815c0.207,0.342,0.481,1.053-0.006,1.981L52.266,37.053z"/>
<path d="M14,31.283l1.719,0.956c0.565,0.353,2.805,2.285,3.408,2.858c0.625,0.574,1.892,1.537,3.361,1.537
	c0.468,0,0.927-0.103,1.364-0.305c2.61-1.653,5.255-2.491,7.862-2.491c2.064,0,4.047,0.53,5.9,1.577
	c1.466-1.044,2.784-1.534,4.099-1.534c1.703,0,3.187,0.795,4.938,2.005c-0.005-0.014,0.005-0.029-0.001-0.043
	c-0.591-1.613-0.116-3.353,1.161-4.434c0.522-0.442,1.149-0.774,1.942-0.985c-6.489-8.889-19.786-5.444-22.561-5.618
	c-2.79-0.174-8.543-1.133-13.599-8.892c0,0-0.697-4.097-2.092-4.664c0,0-1.111,1.831-0.981,3.727c0,0-4.119,0.523-4.054,3.531
	c-1.438,1.308-3.988,1.896-4.25,2.092c-0.262,0.196,0.785,3.334,5.623,2.942c0,0,2.585,4.625,6.161,8.884V31.283z"/>
<path d="M58.885,36.597c-0.037,0.547-0.129,1.139-0.307,1.79l-0.031,0.112L58.492,38.6c-0.228,0.419-0.47,0.8-0.72,1.16
	c1.215-0.057,2.374-0.465,3.331-1.442C61.555,37.301,60.588,37.097,58.885,36.597z"/>
<path d="M50.165,38.14c-0.105,0.017-0.21,0.042-0.316,0.048c0.075,0.053,0.151,0.106,0.228,0.159
	c0.116,0.081,0.23,0.144,0.344,0.213C50.334,38.417,50.246,38.27,50.165,38.14z"/>
<path d="M51.876,31.162c-0.484,0-0.946,0.058-1.389,0.141c-0.844,0.158-1.591,0.445-2.092,0.869
	c-1.976,1.672-0.848,4.865,1.158,5.007c0.046,0.003,0.089,0.013,0.135,0.013c0.152,0,0.309-0.022,0.468-0.059
	c0.418-0.096,0.86-0.319,1.312-0.712c0.614-1.173-0.727-1.678-1.376-1.678c-0.111,0-0.201,0.015-0.258,0.043
	c-0.012,0.006-0.024,0.009-0.034,0.009c-0.251,0,0.073-1.738,2-1.738c0.136,0,0.279,0.009,0.431,0.027
	c0.453,0.055,0.98,0.197,1.59,0.459c0.819,0.352,1.32,0.975,1.563,1.699c0.437,1.304,0.016,2.934-1.004,3.943
	c-0.571,0.565-1.323,0.938-2.222,0.938c-0.276,0-0.57-0.049-0.872-0.123c-0.558-0.137-1.152-0.395-1.783-0.834
	c-3.405-2.371-5.478-4.287-7.804-4.287c-1.202,0-2.479,0.512-4.039,1.737c-1.888-1.199-3.912-1.779-5.972-1.78
	c-2.434,0-4.958,0.81-7.401,2.368c-0.624,0.3-1.292,0.427-1.895,0.427c-1.584,0-3.129-0.88-4.131-1.8c0,0-2.261-2.419-3.261-2.746
	v0.489v0.656v0.424c0,0-1.62,0.131-1.969,1.547c-0.349,1.417-1.032,1.264-0.443,2.223c0.379,0.618,0.971,0.892,1.77,0.892
	c0.441,0,0.944-0.083,1.51-0.238c0.07-0.019,0.14-0.029,0.209-0.029c1.475,0,2.402,4.323,0.069,5.76
	c-2.441,1.504-3.424,2.038-3.424,5.764c0,0,0.134,0.133,0.359,0.133c0.193,0,0.454-0.097,0.756-0.46
	c0.654-0.785-1.175-3.138,4.677-3.89c0.924-0.105,1.627-0.153,2.17-0.153c0.333,0,0.59,0.024,0.816,0.058
	c1.015,0.153,1.127,0.622,1.559,1.24c0.104,0.148,0.237,0.322,0.38,0.505c0.802,1.027,2.053,2.503,1.942,3.418
	c-0.131,1.079-0.915,0.392-0.915,1.21c0,0.376,0.478,0.531,1.012,0.531c0.628,0,1.334-0.213,1.44-0.531
	c0.196-0.588,0.065-2.583-0.817-3.89c-0.883-1.308-1.569-3.334,1.896-3.759c0.717-0.088,1.294-0.137,1.767-0.137
	c1.813,0,2.097,0.716,2.875,2.687c0.981,2.484-0.85,3.171-1.569,4.25c-0.294,0.327-0.36,0.883-0.196,0.981
	c0,0,0.315,0.18,0.761,0.18c0.374,0,0.839-0.127,1.287-0.594c0.982-1.024,2.365-3.084,2.496-4.555
	c0.119-1.336-0.194-3.536,0.679-3.536c0.088,0,0.188,0.022,0.302,0.07c1.242,0.523,0.556,2.027,4.773,3.4
	c2.321,1.144,1.635,3.596,1.21,4.119s-0.49,0.49-0.36,1.013c0.05,0.201,0.331,0.295,0.683,0.295c0.565,0,1.311-0.245,1.573-0.688
	c0.091-0.154,0.167-0.463,0.2-0.877c0.023-0.287,0.023-0.624-0.01-1.006c-0.142-1.648-0.903-4.069-3.197-6.322
	c0,0-1.046-4.119-2.681-5.623c0,0,0.184-0.372,0.544-0.781c0.448-0.509,1.176-1.078,2.231-1.078c0.839,0,1.878,0.361,3.131,1.401
	c2.343,1.944,5.121,3.803,7.742,3.803c0.072,0,0.142-0.012,0.214-0.015c1.459-0.057,2.862-0.714,4.111-2.269
	c0.364-0.454,0.718-0.97,1.053-1.585c0.183-0.666,0.266-1.274,0.277-1.836C57.961,32.653,54.722,31.162,51.876,31.162z"/>
</svg>
