<?xml version="1.0" encoding="iso-8859-1"?>
<!-- Generator: Adobe Illustrator 17.1.0, SVG Export Plug-In . SVG Version: 6.00 Build 0)  -->
<!DOCTYPE svg PUBLIC "-//W3C//DTD SVG 1.1//EN" "http://www.w3.org/Graphics/SVG/1.1/DTD/svg11.dtd">
<svg version="1.1" id="Layer_1" xmlns="http://www.w3.org/2000/svg" xmlns:xlink="http://www.w3.org/1999/xlink" x="0px" y="0px"
	 viewBox="0 0 64 64" style="enable-background:new 0 0 64 64;" xml:space="preserve">
<path d="M38.857,42.807l-8.772-8.772c-0.791,0.827-1.822,1.649-3.163,2.308c-4.434,2.178-2.879,6.379-3.112,7.079
	c0,0-5.678,2.567-5.445-3.267c0,0-1.478,7.624,6.457,6.146c0,0-0.187,0.7,0.529,0.778c0.716,0.078,9.273,0,9.273,0
	s2.711-0.389-0.012-3.034c0,0,1.388-1.089,1.388-1.711v4.512c0,0,3.356,0.35,3.94-0.039c0.583-0.389,0.628-1.556-0.694-1.867
	C38.914,44.86,38.828,44.032,38.857,42.807z"/>
<path d="M39.809,17.75c0,0-5.082-2.126-8.064,0.233c0,0-2.673-2.608-6.11,1.702l3.378,3.378c-0.099-0.787-0.001-1.566,0.554-2.279
	c0,0,0.387,2.45,1.308,4.141l8.478,8.478c-0.044-1.322-0.224-2.357-0.66-2.793c0,0,2.307-1.451,1.27-4.148
	c0,0,2.179-2.593,1.505-6.483c2.437,3.163-1.607,7.416,1.764,9.076c2.697,0.778,5.394-2.749,3.993-7.675
	C45.825,16.454,40.691,17.128,39.809,17.75z"/>
<path d="M33.267,6.4c-14.359,0-26,11.641-26,26c0,14.359,11.641,26,26,26c14.359,0,26-11.641,26-26
	C59.267,18.041,47.626,6.4,33.267,6.4z M33.383,53.883c-11.598,0-21-9.402-21-21c0-5.026,1.77-9.635,4.715-13.25l7.146,7.146
	l1.895,1.895l4.605,4.605l8.177,8.177l7.712,7.712C43.019,52.113,38.409,53.883,33.383,53.883z M50.097,45.561L39.355,34.82
	l-8.058-8.058l-1.781-1.781L25.035,20.5l-4.329-4.329c3.525-2.678,7.909-4.287,12.678-4.287c11.598,0,21,9.402,21,21
	C54.383,37.652,52.775,42.036,50.097,45.561z"/>
</svg>
