<?xml version="1.0" encoding="iso-8859-1"?>
<!-- Generator: Adobe Illustrator 17.1.0, SVG Export Plug-In . SVG Version: 6.00 Build 0)  -->
<!DOCTYPE svg PUBLIC "-//W3C//DTD SVG 1.1//EN" "http://www.w3.org/Graphics/SVG/1.1/DTD/svg11.dtd">
<svg version="1.1" id="Layer_1" xmlns="http://www.w3.org/2000/svg" xmlns:xlink="http://www.w3.org/1999/xlink" x="0px" y="0px"
	 viewBox="0 0 64 64" style="enable-background:new 0 0 64 64;" xml:space="preserve">
<path d="M9.203,55H55.15C57,55,57,53.75,57,51.393V20.311C57,18.818,56.643,18,55.15,18H44.339C41.125,18,41,16.398,41,14.906
	v-2.703C41,10.71,40.426,10,38.933,10H25.419C23.167,10,22,10.167,22,12.203v2.703C22,16.398,21.507,18,20.014,18H9.203
	C7.71,18,6,18.818,6,20.311v31.082C6,53.625,6.25,55,9.203,55z M40.285,40H42v-3.472C42,35.781,42.771,36,44.375,36h2.687
	c0.746,0,0.906-0.043,0.938,0.528V40h3.096c0.746,0,0.815,0.07,0.904,0.582v2.703C52,44.969,52.187,45,51.096,45H48v2.339
	C48,48.085,48.203,49,47.042,49h-2.703C42.016,49,42,49,42,47.339V45h-1.715C38.271,45,38,45.104,38,43.285v-2.703
	C38,39.836,38.962,40.002,40.285,40z M25,13h13v5H25V13z M15.792,25.481c0.723,0.795,2.457,2.023,4.986,1.012
	c2.529-1.012,4.119-1.012,4.119-1.012c1.229,0.036,2.168,0.289,3.541,1.734c1.373,1.445,3.586,1.753,3.974,1.734
	c0.517-0.024,5.42-1.445,4.047,3.035s-6.142,0.723-6.142,0.834c0,0.111,1.59,4.008,1.59,4.008s1.37,3.841-3.758,3.83
	c-1.708-0.004-2.854-0.372-3.622-0.84c-0.404,0.526-1.108,0.837-1.874,0.747c-0.835-0.098-1.495-0.64-1.721-1.325
	c-0.747,0.174-1.703,0.157-2.9-0.317c-3.469-1.373-3.581-2.968-3.396-4.191c0.213-1.41,3.324-4.408,3.035-4.263
	s-5.492,1.662-5.853-2.24C11.456,24.324,15.069,24.686,15.792,25.481z"/>
<path d="M23.452,35.525c0.325,0.181,1.503,0.028,2.023-0.831c0.441-0.727-1.168-0.893-1.662-1.048c0,0-1.301-0.434-1.373,0.289
	C22.368,34.658,23.126,35.344,23.452,35.525z"/>
</svg>
