<?xml version="1.0" encoding="iso-8859-1"?>
<!-- Generator: Adobe Illustrator 17.1.0, SVG Export Plug-In . SVG Version: 6.00 Build 0)  -->
<!DOCTYPE svg PUBLIC "-//W3C//DTD SVG 1.1//EN" "http://www.w3.org/Graphics/SVG/1.1/DTD/svg11.dtd">
<svg version="1.1" id="Layer_1" xmlns="http://www.w3.org/2000/svg" xmlns:xlink="http://www.w3.org/1999/xlink" x="0px" y="0px"
	 viewBox="0 0 64 64" style="enable-background:new 0 0 64 64;" xml:space="preserve">
<g>
	<path d="M41.959,42H47v-4h-4.248c0,0,0.156-2.706-1.375-4.135c-3.566-2.058-6.056-5.769-6.414-10.083
		c-2.01,1.839-3.737,3.83-3.737,3.83S28.564,27,27.638,27h-0.761c-0.926,0-3.589,0.692-3.589,0.692s-6.689-7.79-9.07-6.864
		c-2.977,1.058-0.194,11.996-0.599,12.588C11.568,34.673,11.763,38,11.763,38H7v4h5.556c0,0,0.132,0.435,0.265,0.634L7,44.637
		l0.992,2.928l6.772-2.194c0,0,4.109,4.628,12.113,4.628h0.761c8.004,0,12.113-4.64,12.113-4.64l6.772,2.269l0.992-2.949
		l-5.821-2.041C41.826,42.442,41.959,42,41.959,42z M20.229,40.113c-1.26,0-2.282-1.022-2.282-2.282s1.022-2.282,2.282-2.282
		c1.26,0,2.282,1.022,2.282,2.282S21.49,40.113,20.229,40.113z M34.517,40.113c-1.26,0-2.282-1.022-2.282-2.282
		s1.022-2.282,2.282-2.282c1.26,0,2.282,1.022,2.282,2.282S35.777,40.113,34.517,40.113z"/>
	<path d="M47.789,11.83c-5.815,0-10.55,4.565-10.851,10.304c-0.01,0.192-0.029,0.381-0.029,0.576c0,3.471,1.631,6.555,4.162,8.547
		c1.851,1.457,4.18,2.333,6.718,2.333c6.009,0,10.88-4.871,10.88-10.88C58.67,16.702,53.798,11.83,47.789,11.83z M48,24.016V26h2
		c0.276,0,0.5,0.224,0.5,0.5S50.276,27,50,27h-2v2c0,0.276-0.224,0.5-0.5,0.5S47,29.276,47,29v-2h-2c-0.276,0-0.5-0.224-0.5-0.5
		S44.724,26,45,26h2v-1.99c-1.972-0.262-3.504-1.937-3.504-3.981c0-2.224,1.81-4.033,4.033-4.033c2.225,0,4.034,1.81,4.034,4.033
		C51.563,22.093,50.001,23.779,48,24.016z"/>
	<path d="M47.529,17.004c-1.668,0-3.025,1.357-3.025,3.025c0,1.669,1.357,3.026,3.025,3.026c1.669,0,3.026-1.357,3.026-3.026
		C50.556,18.361,49.198,17.004,47.529,17.004z"/>
</g>
</svg>
