<?xml version="1.0" encoding="iso-8859-1"?>
<!-- Generator: Adobe Illustrator 17.1.0, SVG Export Plug-In . SVG Version: 6.00 Build 0)  -->
<!DOCTYPE svg PUBLIC "-//W3C//DTD SVG 1.1//EN" "http://www.w3.org/Graphics/SVG/1.1/DTD/svg11.dtd">
<svg version="1.1" id="Layer_1" xmlns="http://www.w3.org/2000/svg" xmlns:xlink="http://www.w3.org/1999/xlink" x="0px" y="0px"
	 viewBox="0 0 64 64" style="enable-background:new 0 0 64 64;" xml:space="preserve">
<g>
	<path d="M36.972,22.944C34.306,22.362,31.233,22,27.701,22h-0.556C8.647,22,2.667,31.864,2.667,31.864l9.457,4.376
		c0,0-0.834-6.157,0.556-6.157c1.878,0.069,0.974,15.07,0.974,15.834c0,0,3.199,4.083,13.49,4.083h0.556
		c10.292,0,13.491-4.101,13.491-4.101c0-0.618-0.59-10.62,0.176-14.466C38.935,29.323,37.295,26.326,36.972,22.944z M18.834,34.983
		c-0.903,0-1.634-0.732-1.634-1.634s0.732-1.634,1.634-1.634c0.903,0,1.634,0.732,1.634,1.634S19.737,34.983,18.834,34.983z
		 M27.835,41.911l-0.519,0.117l-0.498-0.13c0,0-6.489-2.047-4.611-3.368c1.878-1.321,4.755-1.104,4.755-1.104l0.795-0.013
		c0,0,2.806-0.204,4.684,1.117C34.319,39.85,27.835,41.911,27.835,41.911z M35.524,34.983c-0.903,0-1.634-0.732-1.634-1.634
		s0.732-1.634,1.634-1.634s1.634,0.732,1.634,1.634S36.426,34.983,35.524,34.983z"/>
	<path d="M42.721,36.122l4.165-1.873c-1.409-0.326-2.727-0.885-3.918-1.633C42.967,34.287,42.721,36.122,42.721,36.122z"/>
	<path d="M49.789,10.83c-6.009,0-10.88,4.871-10.88,10.88c0,0.6,0.061,1.185,0.155,1.759c0.843,5.17,5.317,9.121,10.725,9.121
		c0.297,0,0.59-0.021,0.881-0.044c5.596-0.45,9.999-5.124,9.999-10.836C60.67,15.702,55.798,10.83,49.789,10.83z M50,23.016V25h2
		c0.276,0,0.5,0.224,0.5,0.5S52.276,26,52,26h-2v2c0,0.276-0.224,0.5-0.5,0.5S49,28.276,49,28v-2h-2c-0.276,0-0.5-0.224-0.5-0.5
		S46.724,25,47,25h2v-1.99c-1.973-0.263-3.504-1.937-3.504-3.981c0-2.224,1.81-4.033,4.034-4.033s4.034,1.81,4.034,4.033
		C53.564,21.093,52.001,22.78,50,23.016z"/>
	<path d="M49.53,16.004c-1.668,0-3.025,1.357-3.025,3.025c0,1.669,1.357,3.026,3.025,3.026s3.025-1.357,3.025-3.026
		C52.555,17.361,51.198,16.004,49.53,16.004z"/>
</g>
</svg>
