<?xml version="1.0" encoding="iso-8859-1"?>
<!-- Generator: Adobe Illustrator 17.1.0, SVG Export Plug-In . SVG Version: 6.00 Build 0)  -->
<!DOCTYPE svg PUBLIC "-//W3C//DTD SVG 1.1//EN" "http://www.w3.org/Graphics/SVG/1.1/DTD/svg11.dtd">
<svg version="1.1" id="Layer_1" xmlns="http://www.w3.org/2000/svg" xmlns:xlink="http://www.w3.org/1999/xlink" x="0px" y="0px"
	 viewBox="0 0 64 64" style="enable-background:new 0 0 64 64;" xml:space="preserve">
<path d="M42.961,42.939c-0.016,0.01-0.025,0.023-0.042,0.033c-0.179,0.103-0.385,0.158-0.596,0.158
	c-0.714,0-1.315-0.559-2.402-1.631c-0.092-0.09-0.199-0.195-0.311-0.305c0.006,0.152,0.013,0.298,0.018,0.423
	c0.078,1.678,0.133,2.892-0.913,3.232c-0.116,0.038-0.238,0.06-0.361,0.06c-0.863,0-1.418-0.838-2.258-2.115
	c-0.072-0.109-0.155-0.223-0.243-0.355c-0.026,0.147-0.049,0.313-0.069,0.435c-0.276,1.66-0.475,2.909-1.57,3.023L34.146,46h-0.052
	c-1.007,0-1.427-1.149-2.008-2.638c-0.049-0.126-0.107-0.347-0.168-0.501c-0.061,0.153-0.119,0.35-0.168,0.476
	C31.167,44.826,30.747,46,29.74,46h-0.069l-0.052-0.104c-1.096-0.114-1.295-1.412-1.571-3.072c-0.02-0.122-0.044-0.264-0.069-0.411
	c-0.088,0.132-0.172,0.259-0.243,0.368c-0.84,1.277-1.395,2.121-2.259,2.121c-0.123,0-0.245-0.019-0.362-0.057
	c-1.046-0.34-0.99-1.552-0.912-3.23c0.006-0.125,0.013-0.271,0.018-0.422c-0.112,0.109-0.219,0.215-0.311,0.305
	c-1.087,1.072-1.688,1.631-2.403,1.631c-0.211,0-0.418-0.055-0.597-0.158c-0.076-0.044-0.13-0.098-0.19-0.149l-3.013,7.955
	c-0.391,1.033,0.16,1.653,1.232,1.384l2.849-0.714c1.071-0.268,2.524,0.193,3.244,1.03l2.466,2.867
	c0.72,0.837,1.558,0.658,1.871-0.402l2.103-7.121c0.313-1.059,0.657-1.568,0.769-1.135l0.202,0.783l2.829,11.424
	c0.266,1.072,0.933,1.168,1.49,0.215l1.29-2.206c0.558-0.953,1.867-1.468,2.925-1.15l5.767,1.736
	c1.058,0.318,1.599-0.261,1.21-1.295L42.961,42.939z"/>
<path d="M48.825,22.137c-0.069-0.666,3.773-1.942,3.637-2.586c-0.138-0.653-4.169-0.263-4.372-0.89
	c-0.206-0.634,3.285-2.686,3.016-3.289c-0.057-0.127-0.27-0.174-0.576-0.174c-0.864,0-2.463,0.376-3.324,0.376
	c-0.29,0-0.496-0.043-0.562-0.157c-0.333-0.575,2.653-3.31,2.264-3.845c-0.047-0.065-0.139-0.092-0.266-0.092
	c-0.81,0-3.028,1.142-3.836,1.142c-0.117,0-0.204-0.024-0.254-0.079c-0.444-0.493,1.911-3.787,1.418-4.231
	c-0.038-0.034-0.091-0.05-0.156-0.05c-0.729,0-3.032,1.939-3.762,1.939c-0.058,0-0.107-0.012-0.143-0.039
	c-0.535-0.39,1.087-4.1,0.512-4.433c-0.028-0.016-0.06-0.024-0.096-0.024c-0.676,0-2.73,2.693-3.41,2.693
	c-0.03,0-0.057-0.006-0.081-0.017c-0.603-0.269,0.21-4.237-0.425-4.443c-0.017-0.005-0.034-0.01-0.053-0.01
	c-0.651,0-2.205,3.353-2.864,3.353c-0.013,0-0.025-0.009-0.037-0.011C34.811,7.134,34.776,3,34.11,3c-0.001,0-0.012,0-0.017,0
	c-0.651,0-1.511,3.888-2.177,3.888c-0.654,0-1.496-3.749-2.143-3.876c-0.021-0.002-0.04-0.007-0.061-0.007
	c-0.655,0.048-0.693,4.13-1.333,4.266c-0.012,0.003-0.024,0.019-0.037,0.019c-0.659,0-2.212-3.357-2.863-3.357
	c-0.018,0-0.036,0.003-0.053,0.008c-0.634,0.206,0.178,4.173-0.425,4.442c-0.024,0.011-0.052,0.016-0.081,0.016
	c-0.68,0-2.734-2.693-3.41-2.693c-0.036,0-0.068,0.008-0.096,0.024c-0.575,0.333,1.047,4.043,0.511,4.433
	c-0.037,0.027-0.085,0.039-0.143,0.039c-0.73,0-3.033-1.939-3.761-1.939c-0.065,0-0.118,0.016-0.156,0.05
	c-0.493,0.444,1.862,3.738,1.418,4.231c-0.049,0.055-0.137,0.079-0.254,0.079c-0.808,0-3.027-1.142-3.836-1.142
	c-0.127,0-0.219,0.028-0.266,0.092c-0.39,0.535,2.596,3.27,2.263,3.846c-0.066,0.114-0.272,0.157-0.562,0.157
	c-0.861,0-2.46-0.376-3.324-0.376c-0.305,0-0.519,0.047-0.576,0.174c-0.269,0.603,3.221,2.655,3.015,3.289
	c-0.204,0.627-4.234,0.237-4.373,0.89c-0.136,0.644,3.706,1.92,3.637,2.586c-0.068,0.653-4.092,1.109-4.092,1.78
	c0,0.671,4.024,1.127,4.092,1.78c0.069,0.666-3.773,1.942-3.637,2.586c0.138,0.653,4.169,0.263,4.372,0.89
	c0.206,0.634-3.285,2.686-3.016,3.289c0.057,0.127,0.27,0.174,0.576,0.174c0.864,0,2.463-0.376,3.324-0.376
	c0.29,0,0.496,0.043,0.562,0.157c0.333,0.575-2.653,3.31-2.264,3.845c0.047,0.065,0.139,0.092,0.266,0.092
	c0.81,0,3.028-1.142,3.836-1.142c0.117,0,0.204,0.024,0.254,0.079c0.444,0.493-1.911,3.787-1.418,4.231
	c0.038,0.034,0.091,0.05,0.156,0.05c0.729,0,3.032-1.939,3.762-1.939c0.058,0,0.107,0.013,0.143,0.039
	c0.381,0.277-0.328,2.231-0.563,3.458c-0.095,0.497-0.115,0.879,0.051,0.975c0.028,0.016,0.06,0.024,0.096,0.024
	c0.676,0,2.73-2.692,3.41-2.691c0.03,0,0.057,0.008,0.081,0.019c0.603,0.269-0.21,4.242,0.425,4.448
	c0.017,0.005,0.034,0.02,0.053,0.02c0.651,0,2.205-3.333,2.864-3.332c0.013,0,0.025,0.05,0.037,0.053
	C29.022,40.783,29.057,45,29.723,45c0.006,0,0.011,0,0.017,0c0.651,0,1.511-3.888,2.177-3.888c0.665,0,1.526,3.888,2.177,3.888
	c0.006,0,0.011,0,0.017,0c0.666,0,0.701-4.217,1.344-4.353c0.012-0.003,0.024-0.102,0.037-0.102c0.659,0,2.212,3.357,2.863,3.357
	c0.018,0,0.036-0.003,0.053-0.008c0.634-0.206-0.178-4.173,0.425-4.442c0.024-0.011,0.052-0.016,0.081-0.016
	c0.68,0,2.734,2.693,3.41,2.693c0.036,0,0.068-0.008,0.096-0.024c0.074-0.043,0.111-0.143,0.121-0.284
	c0.071-0.951-1.099-3.81-0.633-4.149c0.037-0.027,0.085-0.039,0.143-0.039c0.73,0,3.033,1.939,3.761,1.939
	c0.065,0,0.118-0.016,0.156-0.05c0.493-0.444-1.862-3.738-1.418-4.231c0.049-0.055,0.137-0.079,0.254-0.079
	c0.808,0,3.027,1.142,3.836,1.142c0.127,0,0.219-0.028,0.266-0.092c0.39-0.535-2.596-3.27-2.263-3.846
	c0.066-0.114,0.272-0.157,0.562-0.157c0.861,0,2.46,0.376,3.324,0.376c0.305,0,0.519-0.047,0.576-0.174
	c0.269-0.603-3.221-2.655-3.015-3.289c0.204-0.627,4.234-0.237,4.373-0.89c0.136-0.644-3.706-1.92-3.637-2.586
	c0.068-0.653,4.092-1.109,4.092-1.78S48.893,22.79,48.825,22.137z M40.615,36.712c-2.476,1.653-5.455,2.621-8.657,2.621
	c-3.295,0-6.349-1.03-8.866-2.772c-4.029-2.788-6.675-7.412-6.675-12.644c0-8.501,6.972-15.417,15.541-15.417
	c8.57,0,15.542,6.916,15.542,15.417C47.5,29.24,44.765,33.941,40.615,36.712z"/>
<path d="M31.958,11.5c-6.915,0-12.541,5.57-12.541,12.417c0,3.944,1.873,7.457,4.778,9.733c2.138,1.675,4.832,2.683,7.763,2.683
	c2.841,0,5.455-0.951,7.56-2.532c3.02-2.269,4.982-5.849,4.982-9.884C44.5,17.07,38.874,11.5,31.958,11.5z M31.801,18H33v11h-1V19
	h-0.412l-2.015,1.255l-0.303-1.046L31.801,18z"/>
</svg>
