<?xml version="1.0" encoding="iso-8859-1"?>
<!-- Generator: Adobe Illustrator 17.1.0, SVG Export Plug-In . SVG Version: 6.00 Build 0)  -->
<!DOCTYPE svg PUBLIC "-//W3C//DTD SVG 1.1//EN" "http://www.w3.org/Graphics/SVG/1.1/DTD/svg11.dtd">
<svg version="1.1" id="Layer_1" xmlns="http://www.w3.org/2000/svg" xmlns:xlink="http://www.w3.org/1999/xlink" x="0px" y="0px"
	 viewBox="0 0 64 64" style="enable-background:new 0 0 64 64;" xml:space="preserve">
<path d="M56.15,17H45.339C42.125,17,42,15.398,42,13.906v-2.703C42,9.71,41.426,9,39.933,9H26.419C24.167,9,23,9.167,23,11.203
	v2.703C23,15.398,22.507,17,21.014,17H10.203C8.71,17,7,17.818,7,19.311v31.082C7,52.625,7.25,54,10.203,54H56.15
	C58,54,58,52.75,58,50.393V19.311C58,17.818,57.643,17,56.15,17z M26,12h13v5H26V12z M35.834,36.804
	c-1.795,0.025-3.578-0.273-5.363-0.696c-0.426,0.886-1.112,1.625-2.165,2.109c-3.476,1.596-6.401,2.126-8.702,0.864
	c-1.339,1.242-2.749,2.364-4.232,3.372c-0.574,0.39-1.139-0.735-0.568-1.123c1.318-0.895,2.573-1.887,3.773-2.974
	c-0.24-0.211-0.482-0.419-0.705-0.682c-1.705,0.806-3.429,1.562-5.161,2.297c-0.626,0.266-0.926-0.972-0.308-1.235
	c1.581-0.671,3.153-1.365,4.71-2.097c-0.168-0.273-0.33-0.564-0.486-0.876c-1.667,0.322-3.336,0.633-5.018,0.876
	c-0.668,0.097-0.981-1.137-0.308-1.235c1.609-0.233,3.204-0.527,4.798-0.834c-0.334-0.854-0.634-1.822-0.896-2.92
	c0,0-1.163-4.292-0.118-4.552c1.045-0.26,3.077,2.697,3.469,3.158c0,0,3.244-4.05,7.749-1.932c0,0-0.492-4.571,0.64-4.853
	c0.602-0.15,2.755,3.198,3.68,6.808c1.35-0.837,2.702-1.671,4.039-2.534c0.581-0.375,1.148,0.749,0.568,1.123
	c-1.434,0.926-2.885,1.82-4.332,2.718c0.055,0.34,0.096,0.679,0.122,1.014c1.552-0.197,3.082-0.518,4.628-0.753
	c0.668-0.102,0.981,1.132,0.308,1.235c-1.648,0.251-3.278,0.581-4.932,0.782c-0.023,0.373-0.078,0.732-0.155,1.082
	c1.645,0.376,3.288,0.623,4.942,0.601C36.494,35.537,36.516,36.795,35.834,36.804z M52.096,44H49v2.339
	C49,47.085,49.203,48,48.042,48h-2.703C43.016,48,43,48,43,46.339V44h-1.715C39.271,44,39,44.104,39,42.285v-2.703
	c0-0.746,0.962-0.579,2.285-0.582H43v-3.472C43,34.781,43.771,35,45.375,35h2.687c0.746,0,0.906-0.043,0.938,0.528V39h3.096
	c0.746,0,0.815,0.07,0.904,0.582v2.703C53,43.969,53.187,44,52.096,44z"/>
</svg>
