<?xml version="1.0" encoding="iso-8859-1"?>
<!-- Generator: Adobe Illustrator 17.1.0, SVG Export Plug-In . SVG Version: 6.00 Build 0)  -->
<!DOCTYPE svg PUBLIC "-//W3C//DTD SVG 1.1//EN" "http://www.w3.org/Graphics/SVG/1.1/DTD/svg11.dtd">
<svg version="1.1" id="Layer_1" xmlns="http://www.w3.org/2000/svg" xmlns:xlink="http://www.w3.org/1999/xlink" x="0px" y="0px"
	 viewBox="0 0 64 64" style="enable-background:new 0 0 64 64;" xml:space="preserve">
<path d="M35.75,23.5c-1.5,1.125-9.5,5.251-14,5.25c-5.299-0.002-5.375,2.625-5.375,2.625c0,5.422,3.542,2.208,13.625,6.208
	c14.167,7.333,36.833-5.25,32-9.417C48.917,17.75,37.25,22.375,35.75,23.5z"/>
<path d="M36.5,14.5c-5.417,1.167-12.563,9.469-11.313,12.469c0.292,1.333,9.896-4.516,10.688-5.062
	c1.577-0.913,5.527-2.028,8.492-1.985c1.104,0.016,1.479-0.482,0.757-1.319C43.445,16.655,40.204,13.702,36.5,14.5z"/>
<path d="M33.708,44.292c4.75,1.125,9.003-1.284,8.958-2.417c-0.096-2.424-5.042,1.708-13.673-3.517
	c-1.016-0.434-0.57,1.992,0.05,2.906C29.798,42.375,31.192,43.696,33.708,44.292z"/>
<path d="M17.148,35.963c-1.081-0.733-2.245-1.979-2.211-3.932c0.036-2.1,1.604-3.557,2.916-4.41
	c0.926-0.602,1.173-1.588,0.377-2.355c-2.433-2.344-7.545-6.564-11.231-4.74C2,23,0.25,38.025,7,42.013
	c2.742,1.704,7.857-1.847,10.408-3.88C18.272,37.445,18.062,36.584,17.148,35.963z"/>
</svg>
