<?xml version="1.0" encoding="iso-8859-1"?>
<!-- Generator: Adobe Illustrator 17.1.0, SVG Export Plug-In . SVG Version: 6.00 Build 0)  -->
<!DOCTYPE svg PUBLIC "-//W3C//DTD SVG 1.1//EN" "http://www.w3.org/Graphics/SVG/1.1/DTD/svg11.dtd">
<svg version="1.1" id="Layer_1" xmlns="http://www.w3.org/2000/svg" xmlns:xlink="http://www.w3.org/1999/xlink" x="0px" y="0px"
	 viewBox="0 0 64 64" style="enable-background:new 0 0 64 64;" xml:space="preserve">
<path d="M52.488,21.231c0.285-1.284-0.291-1.628-1.287-0.769l-7.361,6.351c-0.996,0.859-2.303,0.592-3.23-0.341
	C32.185,17.999,12,18.5,8.649,35.786c-0.25,1.291,1.395,3.079,2.221,4.102c10.463,12.946,25.093,5.713,29.557,1.203
	c0.925-0.935,2.585-1.326,3.789-0.796l9.833,4.321c1.204,0.529,1.722-0.005,1.158-1.193l-4.192-8.817
	c-0.565-1.188-0.791-3.192-0.506-4.476L52.488,21.231z"/>
</svg>
