<?xml version="1.0" encoding="utf-8"?>
<!-- Generator: Adobe Illustrator 17.1.0, SVG Export Plug-In . SVG Version: 6.00 Build 0)  -->
<!DOCTYPE svg PUBLIC "-//W3C//DTD SVG 1.1//EN" "http://www.w3.org/Graphics/SVG/1.1/DTD/svg11.dtd">
<svg version="1.1" id="Layer_1" xmlns="http://www.w3.org/2000/svg" xmlns:xlink="http://www.w3.org/1999/xlink" x="0px" y="0px"
	 viewBox="0 0 612 792" enable-background="new 0 0 612 792" xml:space="preserve">
<path fill="#1D1D1B" d="M389.5,312.7c2.4-1.1,4.9-1.6,7.4-1.6c1.6,0,3.1,0.2,4.5,0.6c1.1,0.3,1.9-0.2,1.9-1.3
	c0.5-25.6-1.4-55.4-8.4-87.2c-0.7-3.2-1.1-8.1-0.9-11.4l2.3-36.3c0.2-3.3-1.7-4.2-4.3-2.2l-17.3,13.4c-2.6,2-6.7,1.9-9.1-0.4
	l-14.9-13.6c-2.4-2.2-6.4-2.3-8.9-0.1l-19.8,17c-2.5,2.1-6.4,2-8.6-0.4L295.9,171c-2.3-2.4-6-2.4-8.3,0l-17.5,18.2
	c-2.3,2.4-5.9,2.3-8.1-0.2l-17.8-19.9c-2.2-2.4-5.9-2.6-8.3-0.3l-19.2,18.5c-2.4,2.3-6.5,2.6-9.2,0.8l-22-14.9
	c-2.7-1.8-3.8,0.8-2.7,3.9c2.4,6.6,5.7,18.7,5.9,36.7c0,1.1,0.9,2,2,2h127.3c3.3,0,5.9,1.5,5.9,4.8s-2.7,4.8-5.9,4.8h-130
	c-0.1,0-0.2,1.6-0.3,2.7c-1.5,11.9-12.9,41.5-5,117.9c0.1,1.1,1.1,2.1,2.2,2.2c40.7,4.3,77.9,17.3,90.3,38c0.6,0.9,1.9,1.7,3,1.7
	h18.6c1.1,0,2.4-0.8,3-1.7c5-8.5,11.5-17.4,20.1-26.5c13-15.7,46.7-35.4,46.7-35.4C373.8,320.2,381.3,316.4,389.5,312.7z"/>
<path fill="#1D1D1B" d="M402.9,324.8c-1-2.6-3.2-4.1-5.9-4.1c-1.1,0-2.3,0.3-3.5,0.8c-14.3,6.3-26.4,13.1-36.9,20.2
	c-3.9,2.6-7.6,5.3-11.1,8c-16.4,12.8-27.7,26-35.3,38.2c-2.1,3.3-3.8,6.5-5.4,9.6c-6.6,12.9-9.4,24.2-10.5,31.9
	c-0.7,5.1,2.9,9.6,7.7,11c1.1,0.3,2.9,0.4,4,0.5c5.8,0.5,22.5,2,22.5,2l18.2,1.6c1.1,0.1,1.4,0.9,0.8,1.8l-6.2,8l-15.6,20
	c-3.6,4.6-3.5,12,1.1,15.5c9.5,7.2,20.8,9.7,32,9.7c16.3,0,32.3-5.4,42-9.4c5.4-2.2,9.3-9.1,9.1-14.9l-2.9-70c0-1.1,0.8-2.1,1.9-2.3
	c7.2-1.2,14.3-2.6,21.5-4.1c1.1-0.2,2,0.5,2.1,1.6c0.4,4.7,0.8,9.4,1.2,14c0.4,4.5,4.2,6.8,7.7,6.8c3.5,0,6.8-2.2,6.4-6.8
	c-0.6-5.7-1-11.4-1.5-17c-0.1-1.1,0.7-2.2,1.8-2.4c4.5-1,9-2,13.4-3c1.1-0.2,2.2,0.4,2.5,1.5c0.7,2.3,1.3,4.7,2,7c1,3.5,3.7,5,6.5,5
	c4.2,0,8.6-3.4,7.1-8.7c-0.6-2.1-1.2-4.3-1.8-6.4c-0.3-1.1,0.3-2.1,1.4-2.4c4-0.9,8-1.7,12-2.5c1.1-0.2,2.3,0.4,2.6,1.5
	c0.8,2.5,1.7,4.9,2.6,7.4c1.3,3.3,4.2,4.7,7,4.7c4.4,0,8.5-3.4,6.5-8.5c-0.8-2.1-1.5-4.2-2.2-6.3c-0.4-1,0.2-2.1,1.3-2.2
	c0.8-0.1,1.5-0.3,2.3-0.4c1.1-0.2,2.7,0.2,3.5,0.9l43.5,34.7c2,1.6,4.6,2.4,7.1,2.4c3.1,0,6.1-1.2,8.3-3.5l10.6-11.2
	c4-4.2,3.7-10.7-0.7-14.5l-34.9-25.7c-0.9-0.7-1.1-1.9-0.5-2.9l18-27.6c3.6-4.6,4-12.3,1-17.3l-8.5-14.2c-1.5-2.4-3.3-3.7-5.2-3.7
	c-1.9,0-3.8,1.3-5.2,3.9L514.3,365c-0.5,1-1.8,1.9-2.9,2.1c-2.3,0.4-4.6,0.8-6.9,1.3c-1.1,0.2-2.2-0.5-2.5-1.5
	c-1.1-3.6-2.1-7.1-3.1-10.7c-0.9-3.5-3.7-5-6.5-5c-4.2,0-8.6,3.5-7.1,8.7c0.9,3.2,1.8,6.5,2.8,9.7c0.3,1.1-0.3,2.1-1.4,2.3
	c-3.8,0.8-7.7,1.6-11.5,2.4c-1.1,0.2-2.2-0.4-2.5-1.5c-1.8-6.2-3.6-12.3-5.5-18.5c-1.1-3.4-3.9-4.9-6.7-4.9c-4.3,0-8.5,3.4-6.9,8.7
	c1.8,5.9,3.6,11.9,5.3,17.8c0.3,1.1-0.3,2.1-1.4,2.4c-3.5,0.8-7,1.6-10.4,2.4c-1.1,0.2-2-0.5-2-1.6c-0.3-6.3-0.5-12.6-0.5-18.9
	c0-4.5-3.6-6.8-7.1-6.8c-3.5,0-7,2.3-7,6.8c0,7.3,0.3,14.6,0.7,21.9c0.1,1.1-0.8,2.2-1.9,2.4c-7,1.5-14.1,2.9-21.1,4.1
	c-1.1,0.2-2-0.6-2.1-1.7l-2.4-59.1C403.4,326.7,403.2,325.7,402.9,324.8z"/>
<path fill="#1D1D1B" d="M154.9,448c10.6,0,20.8-0.6,30.5-1.7c3.7-0.4,7.3-0.9,10.9-1.4c10.9-1.6,20.9-3.9,29.9-6.7
	c26.8-8.3,44.1-21.2,44.1-35.7c0-1.4-0.2-2.7-0.5-4.1c-0.7-3.3-2.3-6.5-4.8-9.6c-11.8-14.8-42.4-26.3-80.8-30.3
	c-9.4-1-19.2-1.5-29.4-1.5c-63.7,0-115.4,20.4-115.4,45.5C39.5,427.6,91.2,448,154.9,448z M98.9,374.9c18.1-5.4,40.7-7.3,57.4-7.3
	c8.7,0,19,0.5,29.4,1.8c15,1.8,30.3,5.2,41.4,10.8c6.8,2.8,12.3,6,16.2,9.5c3.1,2.8,5.3,5.7,6.2,8.8c0.4,1.3,0.7,2.5,0.7,3.8
	c0,8.8-9.6,16.4-25.2,21.8c-10.6,4.8-24.3,7.8-37.9,9.6c-10.9,1.4-21.8,2-30.9,2c-17.4,0-41.1-2.1-59.5-8
	c-22.5-5.5-37.1-14.4-37.1-25.4C59.6,391,75.1,381.1,98.9,374.9z"/>
<path fill="#1D1D1B" d="M100,418.6c14.2,4.6,34.1,7.5,56.2,7.5c11.4,0,22.1-0.8,31.8-2.1c12.8-1.8,23.7-4.6,31.7-8.1
	c9.2-4,14.7-8.9,14.7-14.2c0-4.8-4.4-9.2-11.9-12.9c-8.4-4.2-20.7-7.6-35.4-9.6c-9.5-1.3-19.9-2-30.9-2c-21.6,0-41.2,2.7-55.4,7.2
	C86.8,388.7,78,394.9,78,401.6C78,408.2,86.4,414.2,100,418.6z"/>
<path fill="#1D1D1B" d="M210.9,556.1c22.6-4.7,43.3-14.6,58.7-31.8c0.7-0.8,1.3-2.4,1.3-3.5c-0.1-12.8-0.5-76.8-0.7-88.9
	c0-1.1-0.8-1.6-1.8-1.1c-4.8,2.1-17.8,7.2-19.1,7.8c-42.8,20.5-92,26-140.2,16.6c-12.5-2.4-24.7-6-36.6-10.6
	c-5.9-2.3-11.8-4.8-17.5-7.6c-1-0.5-9.6-4-13.2-6c-1-0.5-1.6-0.2-1.6,0.9c0,12.3,0,76.7,0,76.7c0,11,13.1,20.8,20.9,26.4
	c9.8,7,20.8,12.2,32.3,15.9c1.1,0.3,2.8,0.9,3.8,1.2c19,5.6,39,7.3,58.8,7.8c4.1,0.1,8.1,0.2,12.2,0.1
	C182.5,560,196.9,559.1,210.9,556.1z M128.1,511c-1.4-1.7-4.2-4.8-3.8-7c3.4-17.6,17.1-25,30.6-25c9.1,0,18.1,3.3,23.9,9.1
	c0.9,0.9,2.1,1.5,3.2,1.5c0.8,0,1.6-0.3,2.3-0.9l12.5-10.8c0.6-0.5,1.2-0.8,1.6-0.8c0.7,0,0.9,0.7,0.6,2.1l-3.4,15.2
	c-0.5,2.2-0.1,5.6,0.9,7.6l7.1,15c0.7,1.5,0.4,2.4-0.6,2.4c-0.4,0-0.8-0.1-1.4-0.3l-16.8-7.4c-0.6-0.3-1.3-0.4-2-0.4
	c-1.6,0-3.3,0.7-4.4,1.8c-4.4,4.4-14.6,10.4-25.9,10.4C144.4,523.5,135.6,520.3,128.1,511z"/>
</svg>
