<?xml version="1.0" encoding="iso-8859-1"?>
<!-- Generator: Adobe Illustrator 17.1.0, SVG Export Plug-In . SVG Version: 6.00 Build 0)  -->
<!DOCTYPE svg PUBLIC "-//W3C//DTD SVG 1.1//EN" "http://www.w3.org/Graphics/SVG/1.1/DTD/svg11.dtd">
<svg version="1.1" id="Layer_1" xmlns="http://www.w3.org/2000/svg" xmlns:xlink="http://www.w3.org/1999/xlink" x="0px" y="0px"
	 viewBox="0 0 64 64" style="enable-background:new 0 0 64 64;" xml:space="preserve">
<circle cx="28.158" cy="38.654" r="0.63"/>
<path d="M54.344,13.631c0-2.557-2.488-4.631-5.557-4.631H17.298c-3.069,0-5.557,2.073-5.557,4.631c0,1.93,2.28,3.674,4.295,4.369
	C11.906,22.297,8.5,28.039,8.5,34.469c0,13.203,10.703,23.906,23.906,23.906c13.203,0,23.906-10.703,23.906-23.906
	c0-6.301-2.442-12.029-6.425-16.299C52.429,17.744,54.344,15.874,54.344,13.631z M39.17,33.106c0,0-2.158,0.953-2.409,1.907
	c0,0,3.262,0.502,4.667,2.509c0,0,2.559-3.513,6.072-2.509c-2.459,1.807-3.713,3.111-3.713,5.169c0,2.057,1.807,3.964,3.713,4.567
	c-1.054,0.903-5.169,0.452-6.122-2.359c0,0-2.308,1.606-3.563,1.706c0,0,1.857,0.753,2.609,0.652
	c-0.753,0.903-3.764,1.756-5.62-0.05c-2.911,0.602-10.388-1.255-10.388-5.119c0,0,0.703-4.617,8.631-4.617
	C33.048,34.963,35.707,31.852,39.17,33.106z M25.349,20.54c2.979,0,5.394,2.415,5.394,5.394s-2.415,5.394-5.394,5.394
	s-5.394-2.415-5.394-5.394S22.369,20.54,25.349,20.54z M23.819,36.374c0,0.8-0.649,1.449-1.449,1.449
	c-0.8,0-1.449-0.649-1.449-1.449c0-0.8,0.649-1.449,1.449-1.449C23.17,34.925,23.819,35.574,23.819,36.374z M18.907,29.396
	c1.438,0,2.603,1.166,2.603,2.603s-1.166,2.603-2.603,2.603S16.304,33.437,16.304,32S17.47,29.396,18.907,29.396z M49.083,49.417
	C48.083,50.604,42.562,57,32,57c-10.563,0-17.563-8.875-17.563-8.875c-0.656-1,5.5-0.938,8.688,1.25
	c3.187,2.188,8.062,3.812,12,1.062C39.062,47.688,50.083,48.229,49.083,49.417z"/>
</svg>
