<?xml version="1.0" encoding="iso-8859-1"?>
<!-- Generator: Adobe Illustrator 17.1.0, SVG Export Plug-In . SVG Version: 6.00 Build 0)  -->
<!DOCTYPE svg PUBLIC "-//W3C//DTD SVG 1.1//EN" "http://www.w3.org/Graphics/SVG/1.1/DTD/svg11.dtd">
<svg version="1.1" id="Layer_1" xmlns="http://www.w3.org/2000/svg" xmlns:xlink="http://www.w3.org/1999/xlink" x="0px" y="0px"
	 viewBox="0 0 64 64" style="enable-background:new 0 0 64 64;" xml:space="preserve">
<path d="M53.337,22.503l3.639-4.674c0.679-0.872,0.766-2.345,0.196-3.291l-1.627-2.7c-0.57-0.946-1.461-0.927-1.989,0.043
	l-6.638,12.18c-0.693,0.117-1.383,0.251-2.073,0.38c-0.241-0.802-0.482-1.604-0.702-2.414c-0.453-1.669-3.044-0.96-2.589,0.714
	c0.202,0.743,0.425,1.478,0.644,2.214c-0.979,0.204-1.958,0.409-2.934,0.625c-0.377-1.299-0.762-2.597-1.163-3.889
	c-0.512-1.648-3.104-0.945-2.589,0.714c0.388,1.25,0.76,2.506,1.125,3.763c-0.911,0.207-1.821,0.414-2.732,0.618
	c-0.064-1.326-0.112-2.652-0.119-3.982c-0.01-1.731-2.695-1.732-2.685,0c0.008,1.523,0.064,3.043,0.146,4.561
	c-1.587,0.337-3.178,0.656-4.778,0.931L25.98,16.662c-0.046-1.104-0.917-1.668-1.927-1.221C8.82,22.188,5.747,31.866,5.142,35.999
	c-0.16,1.093,0.751,2.072,1.852,2.168l8.497,0.748l-4.393,5.639c-0.679,0.871-0.666,2.288,0.217,2.952
	c4.468,3.359,10.979,1.351,14.11,0.053c1.02-0.423,1.777-1.735,1.73-2.839l-0.575-13.73c1.622-0.268,3.234-0.585,4.842-0.921
	c0.078,1.019,0.165,2.037,0.264,3.055c0.167,1.707,2.854,1.723,2.685,0c-0.118-1.208-0.217-2.416-0.305-3.626
	c1.103-0.245,2.205-0.496,3.307-0.746c0.161,0.569,0.326,1.138,0.486,1.708c0.468,1.664,3.059,0.956,2.589-0.714
	c-0.148-0.528-0.301-1.055-0.45-1.582c1.008-0.224,2.019-0.436,3.031-0.646c0.204,0.59,0.392,1.185,0.62,1.767
	c0.625,1.593,3.223,0.9,2.589-0.714c-0.202-0.516-0.366-1.044-0.55-1.567c0.395-0.073,0.791-0.144,1.186-0.217l8.589,6.845
	c0.864,0.688,2.181,0.597,2.942-0.203l2.028-2.135c0.761-0.801,0.701-2.036-0.134-2.76L53.337,22.503z M16.078,29.936
	c-0.834,0-1.51-0.676-1.51-1.51c0-0.834,0.676-1.51,1.51-1.51s1.51,0.676,1.51,1.51C17.589,29.26,16.912,29.936,16.078,29.936z"/>
</svg>
