<?xml version="1.0" encoding="iso-8859-1"?>
<!-- Generator: Adobe Illustrator 17.1.0, SVG Export Plug-In . SVG Version: 6.00 Build 0)  -->
<!DOCTYPE svg PUBLIC "-//W3C//DTD SVG 1.1//EN" "http://www.w3.org/Graphics/SVG/1.1/DTD/svg11.dtd">
<svg version="1.1" id="Layer_1" xmlns="http://www.w3.org/2000/svg" xmlns:xlink="http://www.w3.org/1999/xlink" x="0px" y="0px"
	 viewBox="0 0 64 64" style="enable-background:new 0 0 64 64;" xml:space="preserve">
<path d="M7.125,49H32h1h24.576c3.469,0,2.648-2.738,1.335-2.738c-2.062,0-4.352-6.113-5.352-10.301
	c-0.69-2.892-2.223-4.705-3.106-5.552c-15.94,4.603-30.683,1.612-36.258,0.124c-0.907,0.896-2.354,2.682-3.015,5.452
	c-1,4.188-3.309,10.289-5.371,10.289C4.496,46.273,3.656,49,7.125,49z M24.5,39.257c0-1.232,0.999-2.189,2.231-2.189
	c1.101,0,2.013,0.932,2.196,1.932h5.369c0.182-1,1.095-1.932,2.196-1.932c1.232,0,2.231,0.914,2.231,2.146
	c0,0.667-0.294,1.264-0.759,1.673c0.464,0.409,0.759,1.002,0.759,1.67c0,1.232-0.999,2.227-2.231,2.227
	c-1.077,0-1.975-0.785-2.185-1.785h-5.391c-0.209,1-1.108,1.79-2.185,1.79c-1.232,0-2.231-0.986-2.231-2.218
	c0-0.667,0.294-1.254,0.759-1.663C24.794,40.5,24.5,39.924,24.5,39.257z"/>
<path d="M32.819,23h-0.788c0,0-10.855-0.251-16.301,5.92c6.223,1.485,19.152,3.564,33.223-0.104C43.485,22.752,32.819,23,32.819,23z
	"/>
</svg>
