<?xml version="1.0" encoding="utf-8"?>
<!-- Generator: Adobe Illustrator 17.1.0, SVG Export Plug-In . SVG Version: 6.00 Build 0)  -->
<!DOCTYPE svg PUBLIC "-//W3C//DTD SVG 1.1//EN" "http://www.w3.org/Graphics/SVG/1.1/DTD/svg11.dtd">
<svg version="1.1" id="Layer_1" xmlns="http://www.w3.org/2000/svg" xmlns:xlink="http://www.w3.org/1999/xlink" x="0px" y="0px"
	 viewBox="0 0 612 792" enable-background="new 0 0 612 792" xml:space="preserve">
<g>
	<path d="M312.8,407.2l-4.8,0.1c0,0-17.4-1.3-28.7,6.7s27.8,20.3,27.8,20.3l3,0.8l3.1-0.7c0,0,39.1-12.4,27.8-20.4
		C329.7,406,312.8,407.2,312.8,407.2z"/>
	<circle cx="359.7" cy="382.7" r="9.9"/>
	<circle cx="258.9" cy="382.7" r="9.9"/>
	<path d="M339,577.7h-119c-6.2,0-11.3-3.3-11.3-9.6c0-6.2,5-9.6,11.3-9.6h117.2c0-1.5-0.2-3-0.2-4.5c0-24.4,6.2-47.4,16.9-67.6
		c-11,3.1-24.6,5.2-41.3,5.2h-3.4c-62.1,0-81.5-28.5-81.5-28.5c0-4.6,5.5-98-5.9-98.4c-8.4,0-3.4,37.4-3.4,37.4l-57.1-25.6
		c0,0,36.1-56.9,147.8-56.9h3.4c111.7,0,147.8,56.9,147.8,56.9l-57.1,24.9c0,0,5-38-3.4-38c-8,0.3-7.6,47.6-6.7,76.9
		c24.3-18.8,54.7-30.1,87.7-30.1c12.2,0,24.1,1.7,35.4,4.6c1.5-50.9-1.7-111.2-15.7-175.1c-1.3-6.1-2.2-16.5-1.8-22.7l4.4-69.3
		c0.4-6.2-3.3-8.3-8.2-4.5l-32.8,25.1c-4.9,3.8-12.7,3.4-17.3-0.8l-28.2-25.7c-4.6-4.2-12.2-4.3-16.9-0.3l-37.4,32.1
		c-4.7,4-12,3.7-16.4-0.8L313,138.3c-4.3-4.5-11.3-4.5-15.6,0l-33.1,34.4c-4.3,4.5-11.2,4.4-15.3-0.3l-33.7-37.7
		c-4.1-4.6-11.1-4.9-15.6-0.6l-36.4,35c-4.5,4.3-12.3,5-17.4,1.5l-41.7-28.3c-5.2-3.5-7.2-2.8-5.1,3.1c4.6,13,11.2,40.3,11.1,68.9
		h244.9c6.2,0,11.3,8.1,11.3,14.3s-5,14.3-11.3,14.3H109c-0.2,0-0.3,2-0.5,4.1c-3.3,26.5-32.6,98,1.8,305c1,6.1,1.7,15.7,1.3,21.9
		c-1.1,20.4-3.8,63.2-8.3,87c-1.1,6.1,1.5,7.9,6.6,4.3l47.8-33.8c5.1-3.6,12.4-2.6,16.3,2.2l28.6,35.1c3.9,4.8,10.4,4.9,14.4,0.2
		l30.2-35.4c4-4.7,10.3-4.5,13.9,0.5l27.7,38.2c3.7,5,10.2,5.6,14.6,1.2l38.6-38.6c4.4-4.4,11.4-4.3,15.6,0.3"/>
	<path d="M515.4,434.2c-11-3.2-22.6-5-34.6-5C411.8,429.2,356,485.1,356,554c0,1.5,0.2,3,0.2,4.5c0.2,6.5,0.9,12.9,2.1,19.1
		c6.7,34.6,27.6,64.1,56.5,82.2c19.2,12,41.7,19,66,19c68.9,0,124.8-55.9,124.8-124.8C605.6,497.1,567.5,449.2,515.4,434.2z"/>
</g>
<g>
	<path fill="#FFFFFF" d="M400.9,556.5c0,2.2,0.3,4,1,5.4c1.3,2.6,3.6,3.9,7,3.9c2.1,0,3.9-0.7,5.5-2.2c1.5-1.4,2.3-3.5,2.3-6.2
		c0-3.6-1.4-5.9-4.3-7.1c-1.6-0.7-4.2-1-7.7-1v-7.6c3.4,0,5.9-0.4,7.2-1c2.4-1,3.5-3.2,3.5-6.3c0-2.1-0.6-3.7-1.8-5
		c-1.2-1.3-2.9-1.9-5.1-1.9c-2.5,0-4.4,0.8-5.5,2.4c-1.2,1.6-1.7,3.7-1.7,6.4h-9.9c0.1-2.7,0.6-5.2,1.4-7.7c0.9-2.1,2.2-4.1,4.1-5.9
		c1.4-1.3,3.1-2.2,5-2.9s4.3-1,7-1c5.2,0,9.4,1.3,12.5,4c3.2,2.7,4.8,6.3,4.8,10.8c0,3.2-0.9,5.9-2.8,8.1c-1.2,1.4-2.4,2.3-3.7,2.8
		c1,0,2.4,0.8,4.2,2.5c2.7,2.5,4.1,6,4.1,10.3c0,4.6-1.6,8.6-4.8,12.1c-3.2,3.5-7.9,5.2-14.1,5.2c-7.7,0-13-2.5-16-7.5
		c-1.6-2.7-2.4-6.1-2.6-10.5L400.9,556.5L400.9,556.5z"/>
	<path fill="#FFFFFF" d="M435.8,562h11.3v11.2h-11.3V562z"/>
	<path fill="#FFFFFF" d="M464.9,558.7c0.4,2.3,1.2,4.1,2.4,5.4c1.2,1.3,2.9,1.9,5.2,1.9c2.6,0,4.6-0.9,6-2.8c1.4-1.8,2.1-4.2,2.1-7
		c0-2.8-0.6-5.1-1.9-7c-1.3-1.9-3.3-2.9-6-2.9c-1.3,0-2.4,0.2-3.4,0.5c-1.7,0.6-2.9,1.7-3.8,3.3l-9.5-0.4l3.8-29.9h29.8v9h-22.1
		l-1.9,11.8c1.6-1.1,2.9-1.8,3.8-2.1c1.5-0.6,3.4-0.9,5.6-0.9c4.5,0,8.4,1.5,11.7,4.5c3.3,3,5,7.4,5,13.1c0,5-1.6,9.5-4.8,13.4
		c-3.2,3.9-8,5.9-14.4,5.9c-5.1,0-9.4-1.4-12.7-4.2c-3.3-2.8-5.1-6.7-5.5-11.8H464.9z"/>
	<path fill="#FFFFFF" d="M499.6,518.3h10.5V548l13.4-15.4h13.2l-14.6,15.2l15.2,25.4h-12.9l-9.9-17.4l-4.4,4.6v12.8h-10.5
		L499.6,518.3L499.6,518.3z"/>
	<path fill="#FFFFFF" d="M562.4,532.4c2.6,1.1,4.7,3,6.3,5.9v-5.9h10.4v38.6c0,5.3-0.9,9.2-2.6,11.9c-3,4.6-8.9,6.9-17.5,6.9
		c-5.2,0-9.4-1-12.7-3.1c-3.3-2-5.1-5.1-5.5-9.2h11.6c0.3,1.3,0.8,2.2,1.5,2.7c1.1,1,3.1,1.5,5.8,1.5c3.8,0,6.4-1.3,7.7-3.8
		c0.9-1.6,1.3-4.4,1.3-8.3V567c-1,1.7-2.1,3.1-3.3,3.9c-2.1,1.6-4.9,2.4-8.3,2.4c-5.2,0-9.4-1.8-12.5-5.5c-3.1-3.7-4.7-8.6-4.7-14.9
		c0-6.1,1.5-11.1,4.5-15.3c3-4.1,7.3-6.2,12.8-6.2C559.1,531.5,560.9,531.8,562.4,532.4z M566.1,561.6c1.7-1.9,2.6-4.9,2.6-9
		c0-3.9-0.8-6.8-2.4-8.8c-1.6-2-3.8-3-6.5-3c-3.7,0-6.3,1.8-7.7,5.3c-0.7,1.9-1.1,4.2-1.1,6.9c0,2.4,0.4,4.5,1.2,6.3
		c1.4,3.4,4,5.2,7.7,5.2C562.2,564.4,564.3,563.5,566.1,561.6z"/>
</g>
</svg>
