<?xml version="1.0" encoding="iso-8859-1"?>
<!-- Generator: Adobe Illustrator 17.1.0, SVG Export Plug-In . SVG Version: 6.00 Build 0)  -->
<!DOCTYPE svg PUBLIC "-//W3C//DTD SVG 1.1//EN" "http://www.w3.org/Graphics/SVG/1.1/DTD/svg11.dtd">
<svg version="1.1" id="Layer_1" xmlns="http://www.w3.org/2000/svg" xmlns:xlink="http://www.w3.org/1999/xlink" x="0px" y="0px"
	 viewBox="0 0 64 64" style="enable-background:new 0 0 64 64;" xml:space="preserve">
<g>
	<path d="M25.314,34.472c-1.009,0.71,2.478,1.81,2.478,1.81l0.268,0.07l0.279-0.063c0,0,3.483-1.107,2.475-1.817
		c-1.009-0.71-2.517-0.6-2.517-0.6l-0.427,0.007C27.869,33.878,26.323,33.762,25.314,34.472z"/>
	<circle cx="32.469" cy="31.688" r="0.878"/>
	<circle cx="23.502" cy="31.688" r="0.878"/>
	<path d="M32.063,19H10.164c-0.018,0-0.025,0.306-0.049,0.494c-0.295,2.358-2.902,8.786,0.159,27.203
		c0.091,0.546,0.148,1.425,0.118,1.978c-0.097,1.812-0.339,5.638-0.736,7.759c-0.102,0.544,0.132,0.712,0.584,0.393l4.255-3.005
		c0.452-0.319,1.103-0.231,1.453,0.198l2.547,3.125c0.35,0.429,0.924,0.435,1.284,0.014l2.686-3.153
		c0.359-0.422,0.914-0.4,1.238,0.049l2.464,3.402c0.325,0.449,0.906,0.495,1.297,0.103l3.435-3.435
		c0.392-0.392,1.014-0.38,1.39,0.027l2.971,3.208c0.376,0.406,0.966,0.389,1.318-0.039l2.714-3.304
		c0.351-0.428,0.975-0.48,1.393-0.116l3.861,3.363c0.418,0.364,0.719,0.223,0.674-0.329C45.072,55.103,44.767,52,44.653,49H20.03
		c-0.554,0-1.003-0.446-1.003-1c0-0.554,0.449-1,1.003-1h24.778c0.017,0,0.032-0.19,0.05-0.263c0.612-2.56,2.075-9.948,1.384-19.248
		c-6.374-0.768-11.333-6.201-11.333-12.778c0-1.437,0.247-2.815,0.683-4.107l-2.876,2.465c-0.42,0.36-1.072,0.329-1.456-0.07
		l-2.943-3.061c-0.384-0.399-1.006-0.399-1.39,0l-2.943,3.061c-0.384,0.399-0.994,0.388-1.363-0.025l-2.998-3.357
		c-0.369-0.413-0.991-0.437-1.39-0.052l-3.235,3.116c-0.399,0.384-1.094,0.444-1.552,0.133l-3.713-2.515
		c-0.458-0.311-0.638-0.101-0.452,0.421C9.69,11.873,10.278,14,10.27,17h21.793c0.554,0,1.003,0.446,1.003,1
		C33.065,18.554,32.617,19,32.063,19z M41.417,31.097l-5.081,2.229c0,0,0.448-3.378-0.299-3.378
		c-1.009,0.037-0.523,8.255-0.523,8.666c0,0-1.719,2.386-7.248,2.386h-0.299c-5.53,0-7.248-2.351-7.248-2.351
		c0-0.411,0.486-8.628-0.523-8.665c-0.747,0-0.299,3.359-0.299,3.359l-5.081-2.249c0,0,3.213-5.095,13.152-5.095h0.299
		C38.204,26,41.417,31.097,41.417,31.097z"/>
	<path d="M46.057,25.44c0.565,0.091,1.141,0.151,1.732,0.151c6.009,0,10.88-4.871,10.88-10.88c0-6.009-4.871-10.88-10.88-10.88
		c-4.495,0-8.353,2.727-10.011,6.617c-0.558,1.31-0.869,2.75-0.869,4.264C36.909,20.129,40.874,24.609,46.057,25.44z M44,14h1.029
		H47v-3c0-0.552,0.448-1,1-1s1,0.448,1,1v3h3c0.552,0,1,0.448,1,1c0,0.552-0.448,1-1,1h-3v3c0,0.552-0.448,1-1,1s-1-0.448-1-1v-3
		h-2.098H44c-0.552,0-1-0.448-1-1C43,14.448,43.448,14,44,14z"/>
</g>
</svg>
