<?xml version="1.0" encoding="iso-8859-1"?>
<!-- Generator: Adobe Illustrator 17.1.0, SVG Export Plug-In . SVG Version: 6.00 Build 0)  -->
<!DOCTYPE svg PUBLIC "-//W3C//DTD SVG 1.1//EN" "http://www.w3.org/Graphics/SVG/1.1/DTD/svg11.dtd">
<svg version="1.1" id="Layer_1" xmlns="http://www.w3.org/2000/svg" xmlns:xlink="http://www.w3.org/1999/xlink" x="0px" y="0px"
	 viewBox="0 0 64 64" style="enable-background:new 0 0 64 64;" xml:space="preserve">
<path d="M42.656,22.444c0,0.565,2.134,3.044,4.707-1.055c2.636-4.632-3.201-8.924-6.59-7.607c-3.389,1.318-4.707,3.954-4.425,6.778
	c-0.565,2.542,7.437,13.462,6.025,19.393c-0.188-1.883-3.766-8.661-6.59-15.722c-2.824-7.061-0.141-9.226-0.141-9.226
	s4.472-0.706,3.06-5.037C37.29,5.64,40.02,3.333,39.126,2.862S34.324,6.44,34.324,6.44c-2.307-1.083-4.284,0-4.284,0
	c-3.107-3.107-4.613-3.577-4.613-3.577c-1.036,0.565,1.836,3.154,1.036,7.343c-0.8,4.189,1.271,4.189,2.73,4.895
	c1.036,2.259,1.318,6.496-5.554,20.523s3.525,22.948,5.084,24.1c1.84,1.359,3.569-0.058,3.569-0.058
	c0.941,1.318,3.398,0.528,3.398,0.528c11.297-5.178,10.544-18.828,9.32-23.724c-1.224-4.895-7.563-14.937-6.276-18.295
	c1.287-3.358,5.868-2.824,6.653,0.188C46.171,21.377,42.656,21.879,42.656,22.444z"/>
</svg>
