<?xml version="1.0" encoding="iso-8859-1"?>
<!-- Generator: Adobe Illustrator 17.1.0, SVG Export Plug-In . SVG Version: 6.00 Build 0)  -->
<!DOCTYPE svg PUBLIC "-//W3C//DTD SVG 1.1//EN" "http://www.w3.org/Graphics/SVG/1.1/DTD/svg11.dtd">
<svg version="1.1" id="Layer_1" xmlns="http://www.w3.org/2000/svg" xmlns:xlink="http://www.w3.org/1999/xlink" x="0px" y="0px"
	 viewBox="0 0 64 64" style="enable-background:new 0 0 64 64;" xml:space="preserve">
<path d="M20.742,12.9c0,0-0.553-0.387-1.604,1.494c-1.051,1.881-2.545,2.102-2.932,2.157c-0.387,0.055-1.328,0.332-1.936,2.157
	s-2.047,0.885-0.719,2.766s2.379,1.189,3.043,1.314c0.664,0.124,1.618,0.996,1.743,1.369c0,0-0.539,0.373-1.079,1.037
	c0,0-0.415,1.286-3.734,0.249s-3.693-0.249-6.14-2.074s-2.738,0.207-2.738,0.664s0.498,1.203,2.074,1.411
	c1.577,0.207,5.891,2.572,6.431,2.904c0,0-5.394-0.083-6.099-0.249C6.346,27.933,3.4,26.19,2.985,28.555s3.734,2.157,4.398,2.074
	c6.555,0.373,9.376,3.568,13.359,1.494c2.282-1.369,9.294,3.485,10.372,4.024c1.079,0.539,7.675,2.614,10.123,2.697
	c1.826,0.083,4.813,3.527,5.228,4.024c0.415,0.498,2.448,1.826,7.053,1.494c0,0,0.774,0.567,1.908,3.748s2.379,1.189,2.462,0.498
	c0.304-1.106-2.794-5.532-2.904-5.753c0,0,0.304-0.221,2.323,1.604c2.019,1.826,3.596,2.351,3.651,0.774
	c0.055-1.577-1.577-1.604-1.964-1.853c-0.387-0.249-2.849-3.845-4.26-3.845c-1.411,0-3.153-4.094-3.762-5.172
	c-0.609-1.079-1.77-1.964-2.213-2.13c0,0,0.719,0.221,0.774-3.181c0.055-3.402,0.47-5.394,1.964-4.73s0.996,4.813,0.747,5.642
	s-0.691,3.125,0.194,3.236c0.885,0.111,4.232-7.675,0.207-10.497s-5.186,0.913-5.684,3.858c-0.498,2.946,0.705,4.771-1.826,3.858
	c-2.531-0.913-10.912-4.315-15.932-5.311c0,0-0.996-1.701-3.07-2.614c-1.162-1.286-3.75-5.107-5.103-6.514
	C21.033,15.984,21.199,13.674,20.742,12.9z"/>
</svg>
