<?xml version="1.0" encoding="iso-8859-1"?>
<!-- Generator: Adobe Illustrator 17.1.0, SVG Export Plug-In . SVG Version: 6.00 Build 0)  -->
<!DOCTYPE svg PUBLIC "-//W3C//DTD SVG 1.1//EN" "http://www.w3.org/Graphics/SVG/1.1/DTD/svg11.dtd">
<svg version="1.1" id="Layer_1" xmlns="http://www.w3.org/2000/svg" xmlns:xlink="http://www.w3.org/1999/xlink" x="0px" y="0px"
	 viewBox="0 0 64 64" style="enable-background:new 0 0 64 64;" xml:space="preserve">
<g>
	<path d="M26.639,58.35c11.317,0,20.492-9.395,20.492-20.985c0-1.696-0.209-3.34-0.581-4.918
		c-7.569-0.106-13.697-6.287-13.697-13.881c0-0.386,0.027-0.766,0.058-1.144c-0.419-0.138-0.84-0.275-1.27-0.386
		c0.011-0.149,0.044-0.292,0.044-0.445c0-3.145-2.49-5.695-5.561-5.695c-3.071,0-5.561,2.549-5.561,5.695
		c0,0.243,0.041,0.474,0.07,0.709C12.247,19.929,6.147,27.915,6.147,37.364C6.147,48.954,15.322,58.35,26.639,58.35z M39.414,34
		l1.934,4.057L43.199,34h2.205L42,39.92V43h-2v-3.08L37.12,34H39.414z M26.111,14.471c1.282,0,2.321,0.85,2.321,1.899
		c0,1.049-1.039,1.899-2.321,1.899c-1.282,0-2.321-0.85-2.321-1.899C23.79,15.321,24.829,14.471,26.111,14.471z M21,34h8h8v2h-3v7
		h-2v-7h-3h-3v7h-2v-7h-3V34z M18,34h2v9h-2V34z M11,40.297V43H9v-9h2v3.936L14.677,34h2.515l-3.822,3.674L17.388,43h-2.503
		l-2.909-3.86L11,40.297z"/>
	<path d="M58.479,18.565c0-6.481-5.254-11.734-11.734-11.734c-6.373,0-11.548,5.084-11.718,11.416
		c-0.003,0.107-0.016,0.211-0.016,0.318c0,6.202,4.814,11.267,10.908,11.693c0.274,0.019,0.548,0.042,0.827,0.042
		C53.225,30.299,58.479,25.045,58.479,18.565z M55,21h-3.084c0,0-0.047,0.26-0.093,0.33l2.048,0.643l-0.349,0.962l-2.382-1.054
		c0,0-1.445,1.12-4.261,1.12h-0.268c-2.815,0-4.261-1.129-4.261-1.129l-1.252,0.668l-1.13,0.603l-0.349-1.056l0.745-0.276
		l1.302-0.482C41.62,21.258,41.573,21,41.573,21h-2.151H39v-0.34V19h2.294c0,0-0.068-0.895,0.653-1.337
		c0.143-0.208-0.836-3.78,0.211-4.153c0.838-0.326,3.191,2.161,3.191,2.161S46.285,16,46.611,16h0.268
		c0.326,0,1.262-0.457,1.262-0.457s2.353-2.31,3.191-1.985c1.047,0.372,0.068,4.049,0.211,4.257C52.263,18.257,52.195,19,52.195,19
		H55V21z"/>
	<circle cx="44.272" cy="19.744" r="0.803"/>
	<circle cx="49.298" cy="19.744" r="0.803"/>
</g>
</svg>
