<?xml version="1.0" encoding="iso-8859-1"?>
<!-- Generator: Adobe Illustrator 17.1.0, SVG Export Plug-In . SVG Version: 6.00 Build 0)  -->
<!DOCTYPE svg PUBLIC "-//W3C//DTD SVG 1.1//EN" "http://www.w3.org/Graphics/SVG/1.1/DTD/svg11.dtd">
<svg version="1.1" id="Layer_1" xmlns="http://www.w3.org/2000/svg" xmlns:xlink="http://www.w3.org/1999/xlink" x="0px" y="0px"
	 viewBox="0 0 64 64" style="enable-background:new 0 0 64 64;" xml:space="preserve">
<path d="M32.197,20h-0.081c0,0-11.131-12.142-20.845-3.237c-9.714,8.905-1.214,29.446,20.845,38.351l0.081,0.102
	c22.059-8.905,30.559-29.548,20.845-38.453C43.327,7.858,32.197,20,32.197,20z M32.565,27.518c0.709-2.221,2.607-3.599,4.238-3.078
	c1.631,0.521,2.378,2.744,1.669,4.965c-0.71,2.221-2.607,3.599-4.238,3.078S31.856,29.739,32.565,27.518z M26.765,24.363
	c1.547-0.469,3.424,1.001,4.19,3.285s0.134,4.515-1.413,4.985s-3.423-1.001-4.19-3.285S25.218,24.832,26.765,24.363z M24.231,37.902
	c-1.474,0.445-3.263-0.954-3.996-3.125c-0.733-2.17-0.132-4.29,1.342-4.735c1.474-0.445,3.263,0.954,3.996,3.125
	C26.306,35.338,25.705,37.458,24.231,37.902z M34.738,43.798c0,0-1.5-1.511-2.75-1.511l-0.319,0.027c-1.25,0-2.75,1.505-2.75,1.505
	s-3.55,1.81-3.53-2.458c-0.03-7.268,6.28-8.361,6.28-8.361h0.319c0,0,6.31,1.088,6.28,8.356
	C38.288,45.624,34.738,43.798,34.738,43.798z M43.57,34.899c-0.679,2.125-2.426,3.466-3.901,2.995
	c-1.476-0.471-2.121-2.577-1.442-4.702s2.426-3.466,3.901-2.995C43.603,30.668,44.249,32.773,43.57,34.899z"/>
</svg>
