<?xml version="1.0" encoding="iso-8859-1"?>
<!-- Generator: Adobe Illustrator 17.1.0, SVG Export Plug-In . SVG Version: 6.00 Build 0)  -->
<!DOCTYPE svg PUBLIC "-//W3C//DTD SVG 1.1//EN" "http://www.w3.org/Graphics/SVG/1.1/DTD/svg11.dtd">
<svg version="1.1" id="Layer_1" xmlns="http://www.w3.org/2000/svg" xmlns:xlink="http://www.w3.org/1999/xlink" x="0px" y="0px"
	 viewBox="0 0 64 64" style="enable-background:new 0 0 64 64;" xml:space="preserve">
<path d="M33.197,18h-0.081c0,0-11.131-12.142-20.845-3.237c-9.714,8.905-1.214,29.446,20.845,38.351l0.081,0.102
	c22.059-8.905,30.559-29.548,20.845-38.453C44.327,5.858,33.197,18,33.197,18z M47.667,36.392c-2.117,0.029-4.221-0.322-6.326-0.821
	c-0.502,1.045-1.311,1.917-2.553,2.487c-4.1,1.883-7.551,2.508-10.264,1.019c-1.579,1.465-3.242,2.788-4.992,3.977
	c-0.677,0.46-1.344-0.867-0.671-1.325c1.555-1.056,3.035-2.226,4.45-3.508c-0.284-0.249-0.569-0.494-0.832-0.805
	c-2.011,0.951-4.044,1.842-6.088,2.709c-0.739,0.313-1.093-1.147-0.363-1.456c1.865-0.791,3.719-1.61,5.556-2.474
	c-0.198-0.322-0.39-0.665-0.574-1.033c-1.966,0.38-3.935,0.746-5.919,1.033c-0.788,0.114-1.158-1.342-0.363-1.456
	c1.897-0.274,3.78-0.622,5.66-0.984c-0.394-1.007-0.748-2.149-1.057-3.444c0,0-1.371-5.063-0.139-5.37
	c1.232-0.307,3.629,3.182,4.092,3.725c0,0,3.827-4.777,9.14-2.279c0,0-0.581-5.392,0.754-5.724c0.71-0.177,3.25,3.772,4.341,8.03
	c1.593-0.987,3.187-1.971,4.764-2.989c0.686-0.443,1.354,0.883,0.671,1.325c-1.692,1.092-3.403,2.146-5.11,3.206
	c0.065,0.401,0.114,0.801,0.144,1.196c1.83-0.233,3.636-0.611,5.459-0.889c0.788-0.12,1.157,1.336,0.363,1.456
	c-1.944,0.296-3.867,0.686-5.818,0.922c-0.027,0.44-0.093,0.864-0.183,1.276c1.94,0.444,3.879,0.735,5.829,0.709
	C48.444,34.897,48.47,36.381,47.667,36.392z"/>
</svg>
