<?xml version="1.0" encoding="iso-8859-1"?>
<!-- Generator: Adobe Illustrator 17.1.0, SVG Export Plug-In . SVG Version: 6.00 Build 0)  -->
<!DOCTYPE svg PUBLIC "-//W3C//DTD SVG 1.1//EN" "http://www.w3.org/Graphics/SVG/1.1/DTD/svg11.dtd">
<svg version="1.1" id="Layer_1" xmlns="http://www.w3.org/2000/svg" xmlns:xlink="http://www.w3.org/1999/xlink" x="0px" y="0px"
	 viewBox="0 0 64 64" style="enable-background:new 0 0 64 64;" xml:space="preserve">
<g>
	<path d="M42.959,40H48v-4h-4.248c0,0,0.156-2.706-1.375-4.135c-3.566-2.058-6.056-5.769-6.414-10.083
		c-2.01,1.839-3.737,3.83-3.737,3.83S29.564,25,28.638,25h-0.761c-0.926,0-3.589,0.692-3.589,0.692s-6.689-7.79-9.07-6.864
		c-2.977,1.058-0.194,11.996-0.599,12.588C12.568,32.673,12.763,36,12.763,36H8v4h5.556c0,0,0.132,0.435,0.265,0.634L8,42.637
		l0.992,2.928l6.772-2.194c0,0,4.109,4.628,12.113,4.628h0.761c8.004,0,12.113-4.64,12.113-4.64l6.772,2.269l0.992-2.949
		l-5.821-2.041C42.826,40.442,42.959,40,42.959,40z M21.229,38.113c-1.26,0-2.282-1.022-2.282-2.282s1.022-2.282,2.282-2.282
		c1.26,0,2.282,1.022,2.282,2.282S22.49,38.113,21.229,38.113z M35.517,38.113c-1.26,0-2.282-1.022-2.282-2.282
		s1.022-2.282,2.282-2.282c1.26,0,2.282,1.022,2.282,2.282S36.777,38.113,35.517,38.113z"/>
	<path d="M48.789,9.83c-5.815,0-10.55,4.565-10.851,10.304c-0.01,0.192-0.029,0.381-0.029,0.576c0,3.471,1.631,6.555,4.162,8.547
		c1.851,1.457,4.18,2.333,6.718,2.333c6.009,0,10.88-4.871,10.88-10.88C59.67,14.702,54.798,9.83,48.789,9.83z M53.637,20.221
		c-0.016,0.001-0.031,0.002-0.047,0.002c-0.255,0-0.473-0.194-0.497-0.454l-0.2-2.177l-3.418,3.419
		c0.538,0.7,0.843,1.544,0.843,2.441c0,1.077-0.419,2.091-1.182,2.853c-0.762,0.762-1.774,1.182-2.852,1.182
		c-1.078,0-2.091-0.42-2.853-1.182c-0.373-0.373-0.651-0.804-0.847-1.261c-0.453-1.056-0.426-2.26,0.064-3.304
		c0.193-0.411,0.444-0.801,0.783-1.14c0.762-0.762,1.774-1.182,2.853-1.182c0.918,0,1.778,0.321,2.487,0.882l3.445-3.446
		l-2.35-0.296c-0.274-0.034-0.468-0.284-0.434-0.559c0.035-0.274,0.284-0.474,0.559-0.434l3.364,0.424
		c0.232,0.029,0.414,0.217,0.436,0.45l0.298,3.237C54.114,19.952,53.911,20.195,53.637,20.221z"/>
	<path d="M46.284,20.427c-0.809,0-1.568,0.314-2.14,0.886c-0.571,0.572-0.887,1.332-0.887,2.14s0.315,1.567,0.887,2.14
		c1.142,1.143,3.136,1.145,4.278,0c0.571-0.572,0.887-1.332,0.887-2.14s-0.315-1.567-0.887-2.14
		C47.852,20.741,47.092,20.427,46.284,20.427z"/>
</g>
</svg>
