<?xml version="1.0" encoding="iso-8859-1"?>
<!-- Generator: Adobe Illustrator 17.1.0, SVG Export Plug-In . SVG Version: 6.00 Build 0)  -->
<!DOCTYPE svg PUBLIC "-//W3C//DTD SVG 1.1//EN" "http://www.w3.org/Graphics/SVG/1.1/DTD/svg11.dtd">
<svg version="1.1" id="Layer_1" xmlns="http://www.w3.org/2000/svg" xmlns:xlink="http://www.w3.org/1999/xlink" x="0px" y="0px"
	 viewBox="0 0 64 64" style="enable-background:new 0 0 64 64;" xml:space="preserve">
<g>
	<path d="M36.972,20.944C34.306,20.362,31.233,20,27.701,20h-0.556C8.647,20,2.667,29.864,2.667,29.864l9.457,4.376
		c0,0-0.834-6.157,0.556-6.157c1.878,0.069,0.974,15.07,0.974,15.834c0,0,3.199,4.083,13.49,4.083h0.556
		c10.292,0,13.491-4.101,13.491-4.101c0-0.618-0.59-10.62,0.176-14.466C38.935,27.323,37.295,24.326,36.972,20.944z M18.834,32.983
		c-0.903,0-1.634-0.732-1.634-1.634s0.732-1.634,1.634-1.634c0.903,0,1.634,0.732,1.634,1.634S19.737,32.983,18.834,32.983z
		 M27.835,39.911l-0.519,0.117l-0.498-0.13c0,0-6.489-2.047-4.611-3.368c1.878-1.321,4.755-1.104,4.755-1.104l0.795-0.013
		c0,0,2.806-0.204,4.684,1.117C34.319,37.85,27.835,39.911,27.835,39.911z M35.524,32.983c-0.903,0-1.634-0.732-1.634-1.634
		s0.732-1.634,1.634-1.634s1.634,0.732,1.634,1.634S36.426,32.983,35.524,32.983z"/>
	<path d="M42.721,34.122l4.165-1.873c-1.409-0.326-2.727-0.885-3.918-1.633C42.967,32.287,42.721,34.122,42.721,34.122z"/>
	<path d="M47.284,19.427c-0.809,0-1.568,0.314-2.14,0.886c-0.571,0.572-0.887,1.332-0.887,2.14c0,0.384,0.076,0.756,0.213,1.103
		c0.15,0.383,0.375,0.736,0.674,1.036c0.648,0.648,1.567,0.915,2.452,0.829c0.676-0.066,1.332-0.333,1.826-0.829
		c0.571-0.572,0.887-1.332,0.887-2.14s-0.315-1.567-0.887-2.14C48.852,19.741,48.092,19.427,47.284,19.427z"/>
	<path d="M49.789,8.83c-6.009,0-10.88,4.871-10.88,10.88c0,0.6,0.061,1.185,0.155,1.759c0.843,5.17,5.317,9.121,10.725,9.121
		c0.297,0,0.59-0.021,0.881-0.044c5.596-0.45,9.999-5.124,9.999-10.836C60.67,13.702,55.798,8.83,49.789,8.83z M54.637,19.221
		c-0.016,0.001-0.031,0.002-0.047,0.002c-0.255,0-0.473-0.194-0.497-0.454l-0.2-2.177l-3.418,3.419
		c0.538,0.7,0.843,1.544,0.843,2.441c0,1.077-0.419,2.091-1.182,2.853c-0.419,0.419-0.918,0.723-1.458,0.922
		c-0.441,0.163-0.909,0.259-1.393,0.259c-1.078,0-2.091-0.42-2.853-1.182c-0.646-0.646-1.012-1.459-1.127-2.301
		c-0.166-1.209,0.2-2.477,1.127-3.404c0.762-0.762,1.774-1.182,2.853-1.182c0.918,0,1.778,0.321,2.487,0.882l3.445-3.446
		l-2.35-0.296c-0.274-0.034-0.468-0.284-0.434-0.559c0.035-0.275,0.287-0.472,0.559-0.434l3.364,0.424
		c0.232,0.029,0.414,0.217,0.436,0.45l0.298,3.237C55.114,18.952,54.911,19.195,54.637,19.221z"/>
</g>
</svg>
