<?xml version="1.0" encoding="iso-8859-1"?>
<!-- Generator: Adobe Illustrator 17.1.0, SVG Export Plug-In . SVG Version: 6.00 Build 0)  -->
<!DOCTYPE svg PUBLIC "-//W3C//DTD SVG 1.1//EN" "http://www.w3.org/Graphics/SVG/1.1/DTD/svg11.dtd">
<svg version="1.1" id="Layer_1" xmlns="http://www.w3.org/2000/svg" xmlns:xlink="http://www.w3.org/1999/xlink" x="0px" y="0px"
	 viewBox="0 0 64 64" style="enable-background:new 0 0 64 64;" xml:space="preserve">
<g>
	<path d="M33.721,7.333c-14.665,0-26.554,8.829-26.554,19.72c0,5.535,3.075,10.535,8.021,14.117
		c-0.948,3.704-2.644,8.394-5.287,9.313c-3.989,1.388,6.041,3.382,14.08-5.085c3.017,0.884,6.3,1.375,9.74,1.375
		c14.665,0,26.554-8.829,26.554-19.72C60.275,16.162,48.386,7.333,33.721,7.333z M22,31h-2v-5.675c0-0.168,0.031-0.403,0.035-0.706
		s0.021-0.62,0.021-0.784L18.434,31H16.68l-1.625-7.165c0,0.164-0.031,0.439-0.027,0.742S15,25.157,15,25.325V31h-2v-8h3.011
		l1.572,6.791L19.144,23H22V31z M30,24h-5v2h4v1h-4v3h5v1h-7v-8h7V24z M38.064,30.399c-0.652,0.672-1.596,1.008-2.83,1.008
		s-2.178-0.336-2.83-1.008c-0.875-0.824-1.312-2.012-1.312-3.562c0-1.582,0.438-2.77,1.312-3.562
		c0.652-0.672,1.596-1.008,2.83-1.008s2.178,0.336,2.83,1.008c0.871,0.793,1.307,1.98,1.307,3.562
		C39.371,28.388,38.936,29.575,38.064,30.399z M48.556,31h-1.729l-1.043-4.967l-0.305-1.628l-0.305,1.607L44.132,31h-1.676l-2.449-8
		h1.916l1.141,4.711l0.248,1.259l0.249-1.172L44.536,23h1.904l1.026,4.71l0.263,1.26l0.267-1.147L49.147,23h1.838L48.556,31z M52,23
		h2v1.749L53.838,29h-0.873L52,24.749V23z M54.271,31.167H52.52v-1.693h1.752V31.167z"/>
	<path d="M35.234,23.796c-0.715,0-1.285,0.264-1.711,0.791s-0.639,1.277-0.639,2.25s0.213,1.723,0.639,2.25s0.996,0.791,1.711,0.791
		s1.282-0.264,1.702-0.791s0.63-1.277,0.63-2.25c0-0.969-0.21-1.718-0.63-2.247S35.949,23.796,35.234,23.796z"/>
</g>
</svg>
