<?xml version="1.0" encoding="iso-8859-1"?>
<!-- Generator: Adobe Illustrator 17.1.0, SVG Export Plug-In . SVG Version: 6.00 Build 0)  -->
<!DOCTYPE svg PUBLIC "-//W3C//DTD SVG 1.1//EN" "http://www.w3.org/Graphics/SVG/1.1/DTD/svg11.dtd">
<svg version="1.1" id="Layer_1" xmlns="http://www.w3.org/2000/svg" xmlns:xlink="http://www.w3.org/1999/xlink" x="0px" y="0px"
	 viewBox="0 0 64 64" style="enable-background:new 0 0 64 64;" xml:space="preserve">
<g>
	<circle cx="23.694" cy="33.794" r="1.238"/>
	<path d="M9.655,55.43c-0.102,0.543,0.131,0.713,0.582,0.395l4.243-2.995c0.451-0.319,1.1-0.23,1.449,0.199l2.54,3.117
		c0.349,0.428,0.922,0.434,1.28,0.014l2.679-3.145c0.358-0.42,0.911-0.399,1.235,0.049l2.457,3.393
		c0.324,0.447,0.903,0.493,1.294,0.103l3.426-3.426c0.391-0.391,1.011-0.379,1.386,0.027l2.963,3.2
		c0.375,0.405,0.964,0.388,1.314-0.039l2.706-3.295c0.351-0.427,0.972-0.479,1.389-0.116l3.851,3.354
		c0.416,0.363,0.717,0.21,0.673-0.34c-0.147-1.825-0.452-5.7-0.565-7.923H20c-0.552,0-1-0.448-1-1c0-0.552,0.448-1,1-1h24.711
		c0.017-0.084,0.032-0.175,0.05-0.248c0.57-2.387,1.883-8.986,1.488-17.416c-5.889-1.183-10.34-6.394-10.34-12.626
		c0-2.277,0.6-4.415,1.641-6.273l-0.079-0.072c-0.408-0.372-1.078-0.383-1.498-0.023l-3.322,2.847
		c-0.419,0.359-1.07,0.328-1.452-0.07l-2.935-3.053c-0.383-0.398-1.003-0.398-1.386,0l-2.935,3.053
		c-0.383,0.398-0.991,0.387-1.359-0.025l-2.99-3.348c-0.368-0.412-0.989-0.435-1.386-0.052l-3.227,3.107
		c-0.398,0.383-1.091,0.443-1.548,0.133L9.729,9.425C9.272,9.115,9.094,9.269,9.279,9.79c0.41,1.152,0.996,3.336,0.988,6.21H32
		c0.552,0,1,0.448,1,1c0,0.552-0.448,1-1,1H10.16c-0.018,0.183-0.025,0.357-0.049,0.545c-0.294,2.351-2.894,8.789,0.158,27.156
		c0.091,0.545,0.148,1.434,0.118,1.985C10.291,49.493,10.05,53.315,9.655,55.43z M19.53,36H17v-2h2.1c0,0-0.105-1.852,1.007-2.534
		c0.22-0.321-1.29-6.303,0.325-6.877c1.292-0.502,4.922,3.745,4.922,3.745S26.799,28,27.301,28h0.413
		c0.503,0,1.947,0.305,1.947,0.305s3.63-4.217,4.922-3.715c1.615,0.574,0.105,6.584,0.325,6.905C36.021,32.178,35.915,34,35.915,34
		H39v2h-3.515c0,0-0.072,0.268-0.144,0.375l3.159,1.197l-0.538,1.689l-3.675-1.081c0,0-2.23,2.819-6.573,2.819h-0.413
		c-4.343,0-6.573-2.816-6.573-2.816l-3.674,0.885l-0.538-1.596l3.159-1.101C19.602,36.264,19.53,36,19.53,36z"/>
	<circle cx="31.447" cy="33.794" r="1.238"/>
	<path d="M39.075,10.83c-0.74,1.469-1.166,3.123-1.166,4.88c0,5.085,3.493,9.342,8.207,10.536c0.857,0.217,1.749,0.345,2.673,0.345
		c6.009,0,10.88-4.871,10.88-10.88c0-6.009-4.871-10.88-10.88-10.88C44.537,4.83,40.865,7.275,39.075,10.83z M44.809,15.039
		C44.873,15.026,44.932,15,45,15h8c0.552,0,1,0.448,1,1c0,0.552-0.448,1-1,1h-8c-0.082,0-0.155-0.028-0.232-0.047
		C44.331,16.846,44,16.47,44,16C44,15.516,44.351,15.13,44.809,15.039z"/>
</g>
</svg>
