<?xml version="1.0" encoding="iso-8859-1"?>
<!-- Generator: Adobe Illustrator 17.1.0, SVG Export Plug-In . SVG Version: 6.00 Build 0)  -->
<!DOCTYPE svg PUBLIC "-//W3C//DTD SVG 1.1//EN" "http://www.w3.org/Graphics/SVG/1.1/DTD/svg11.dtd">
<svg version="1.1" id="Layer_1" xmlns="http://www.w3.org/2000/svg" xmlns:xlink="http://www.w3.org/1999/xlink" x="0px" y="0px"
	 viewBox="0 0 64 64" style="enable-background:new 0 0 64 64;" xml:space="preserve">
<g>
	<path d="M57.009,39.442c-1.648-4.213-6.167-7.204-6.167-7.204c0.244-0.611,1.038-7.449-4.152-8.853
		c-8.12-1.954-8.975,5.251-8.975,5.251c-5.19-1.221-8.426,0.55-8.426,0.55l-1.466-5.495c12.456-0.672,10.808-6.533,10.808-6.533
		c-3.604-7.083-12.765,0.306-13.742,1.466c-2.442-1.282-14.658-0.182-12.643,6.106c2.015,6.289,11.957,0.612,11.957,0.612
		l1.507,5.254c-8.731,2.686-9.257,10.448-9.257,10.448c-8.059,0.549-10.333-7.291-10.333-7.291C7.983,42.576,13.783,44,13.783,44
		s41.089,0,43.593,0c2.503,0,2.503-1.455,2.503-1.455C59.879,39.737,57.009,39.442,57.009,39.442z M19.73,24.946
		c-2.232,0.695-4.36,0.236-4.753-1.027c-0.394-1.263,1.096-2.85,3.328-3.546c2.232-0.696,4.36-0.236,4.753,1.027
		S21.961,24.25,19.73,24.946z M27.431,20.255c-0.394-1.263,1.096-2.85,3.328-3.546s4.36-0.236,4.753,1.027
		c0.394,1.263-1.096,2.85-3.328,3.546C29.953,21.978,27.825,21.518,27.431,20.255z"/>
</g>
</svg>
