<?xml version="1.0" encoding="iso-8859-1"?>
<!-- Generator: Adobe Illustrator 17.1.0, SVG Export Plug-In . SVG Version: 6.00 Build 0)  -->
<!DOCTYPE svg PUBLIC "-//W3C//DTD SVG 1.1//EN" "http://www.w3.org/Graphics/SVG/1.1/DTD/svg11.dtd">
<svg version="1.1" id="Layer_1" xmlns="http://www.w3.org/2000/svg" xmlns:xlink="http://www.w3.org/1999/xlink" x="0px" y="0px"
	 viewBox="0 0 64 64" style="enable-background:new 0 0 64 64;" xml:space="preserve">
<path d="M46.448,19.617c-3.391-3.346-8.046-5.415-13.186-5.415c-3.389,0-6.559,0.911-9.304,2.481
	c-0.105-0.235-4.82-6.488-9.478-0.813c-2.984,3.635,0.178,7.241,1.956,8.807c-1.241,2.507-1.956,5.321-1.956,8.308
	c0,3.931,1.212,7.577,3.276,10.593C17.417,42.524,25.182,20.558,46.448,19.617z M18.529,21.357
	c-1.355-1.248-2.317-2.775-1.066-4.083c1.079-1.128,2.896-0.173,4.291,0.888C20.554,19.095,19.471,20.165,18.529,21.357z"/>
<path d="M20.852,47.058c3.311,2.922,7.646,4.709,12.409,4.709c3.984,0,7.672-1.249,10.711-3.365l-5.796-5.763l-0.1-0.216
	c-0.552,0.181-1.13,0.304-1.743,0.304c-3.102,0-5.617-2.515-5.617-5.617c0-3.102,2.515-5.617,5.617-5.617
	c3.102,0,5.617,2.515,5.617,5.617c0,0.849-0.202,1.646-0.54,2.367l0.189,0.09l5.9,5.646c2.826-3.287,4.544-7.553,4.544-12.228
	c0-4.053-1.297-7.796-3.48-10.865C48.202,22.154,29.766,24.003,20.852,47.058z"/>
</svg>
