<?xml version="1.0" encoding="iso-8859-1"?>
<!-- Generator: Adobe Illustrator 17.1.0, SVG Export Plug-In . SVG Version: 6.00 Build 0)  -->
<!DOCTYPE svg PUBLIC "-//W3C//DTD SVG 1.1//EN" "http://www.w3.org/Graphics/SVG/1.1/DTD/svg11.dtd">
<svg version="1.1" id="Layer_1" xmlns="http://www.w3.org/2000/svg" xmlns:xlink="http://www.w3.org/1999/xlink" x="0px" y="0px"
	 viewBox="0 0 64 64" style="enable-background:new 0 0 64 64;" xml:space="preserve">
<path d="M5,21.814v18.332c0,0.562,0.535,1.445,0.786,1.948c1.555,3.115,8.29,12.989,26.468,12.989
	c18.131,0,23.54-9.823,24.886-12.965c0.221-0.517-0.14-1.41-0.14-1.972c0-3.962,0-18.161,0-18.672
	c0-0.594-4.935-12.391-26.177-12.391c-17.599,0-23.343,8.039-24.881,10.797C5.668,20.372,5,21.251,5,21.814z M12.799,27.796
	c1.919-1.557,7.604-5.275,18.154-5.275c10.868,0,17.141,3.835,19.234,5.393c0.449,0.334,0.416,0.903-0.039,1.23l-1.234,0.887
	c-0.455,0.327-0.796,0.872-0.78,1.218c0.01,0.208,0.015,0.418,0.015,0.628c0,8.088-7.22,14.644-16.126,14.644
	s-16.126-6.556-16.126-14.644c0-0.154,0.003-0.308,0.008-0.461c0.009-0.255-0.359-0.706-0.832-1.009l-2.17-1.39
	C12.429,28.715,12.365,28.148,12.799,27.796z"/>
</svg>
