<?xml version="1.0" encoding="iso-8859-1"?>
<!-- Generator: Adobe Illustrator 17.1.0, SVG Export Plug-In . SVG Version: 6.00 Build 0)  -->
<!DOCTYPE svg PUBLIC "-//W3C//DTD SVG 1.1//EN" "http://www.w3.org/Graphics/SVG/1.1/DTD/svg11.dtd">
<svg version="1.1" id="Layer_1" xmlns="http://www.w3.org/2000/svg" xmlns:xlink="http://www.w3.org/1999/xlink" x="0px" y="0px"
	 viewBox="0 0 64 64" style="enable-background:new 0 0 64 64;" xml:space="preserve">
<path d="M56.964,25.291c0-3.914-24.767-3.291-24.767-3.291h-1.305c0,0-24.767-0.66-24.767,3.254c0,0,0.193,1.146,0.962,1.21
	l2.951,13.94c0,0-1.027,1.194-0.214,1.921c0,0,7.357,3.675,21.473,3.675h0.492c14.116,0,21.473-3.677,21.473-3.677
	c0.813-0.727-0.214-1.774-0.214-1.774l2.951-14.019C56.771,26.465,56.964,25.291,56.964,25.291z M43.718,26.862
	C44.316,41.491,31.401,41,31.401,41h-0.279c0,0-12.867,0.487-12.269-14.142c0,0-9.177-0.967-10.032-1.481
	c0,0,0.833-1.377,7.591-1.377c6.759,0,14.8,0,14.8,0s8.236,0,14.994,0c6.758,0,7.567,1.431,7.567,1.431
	C52.918,25.944,43.718,26.862,43.718,26.862z"/>
<path d="M42.669,31.278c-0.001,0.006-0.001,0.008-0.003,0.013C42.677,31.249,42.679,31.246,42.669,31.278z"/>
<path d="M33.073,32.127c-8.396-2.519-13.323-2.362-13.323-2.362l0.047,0.656c1,4.235,3.379,9.533,12.105,9.536
	c8.178,0.002,10.631-8.205,10.767-8.679C43.102,29.523,40.823,34.453,33.073,32.127z"/>
</svg>
