<?xml version="1.0" encoding="iso-8859-1"?>
<!-- Generator: Adobe Illustrator 17.1.0, SVG Export Plug-In . SVG Version: 6.00 Build 0)  -->
<!DOCTYPE svg PUBLIC "-//W3C//DTD SVG 1.1//EN" "http://www.w3.org/Graphics/SVG/1.1/DTD/svg11.dtd">
<svg version="1.1" id="Layer_1" xmlns="http://www.w3.org/2000/svg" xmlns:xlink="http://www.w3.org/1999/xlink" x="0px" y="0px"
	 viewBox="0 0 64 64" style="enable-background:new 0 0 64 64;" xml:space="preserve">
<g>
	<path d="M31.376,56.08c6.919,0,12.528-3.846,12.528-10.765c0-6.919-5.846-12.761-12.528-12.528
		c-5.912,0.206-12.528,5.609-12.528,12.528C18.848,52.235,24.457,56.08,31.376,56.08z"/>
	<path d="M17.085,35.108c0-4.249-1.875-7.713-4.237-7.957c-0.45-2.242-0.833-5.015-0.264-6.102c0,0-2.819,2.125-2.797,7.814
		c-1.037,1.462-1.703,3.714-1.703,6.245c0,4.408,2.015,7.981,4.501,7.981C15.07,43.088,17.085,39.515,17.085,35.108z"/>
	<path d="M24.277,30.586c2.793,0,5.058-4.015,5.058-8.968c0-4.953-2.264-8.968-5.058-8.968c-0.02,0-0.039,0.005-0.059,0.005
		c-0.524-2.336-1.165-5.923-0.498-7.197c0,0-3.321,2.5-2.725,9.345c-1.085,1.645-1.775,4.085-1.775,6.815
		C19.219,26.571,21.484,30.586,24.277,30.586z"/>
	<path d="M32.582,21.618c0,4.953,2.264,8.968,5.058,8.968s5.058-4.015,5.058-8.968c0-3.981-1.464-7.351-3.489-8.523
		c-0.036-5.557-2.799-7.637-2.799-7.637c0.732,1.398-0.109,5.578-0.645,7.836C33.901,14.616,32.582,17.841,32.582,21.618z"/>
	<path d="M48.659,19.935c0.485,0.927,0.276,3.079-0.074,5.084c-2.129,0.632-3.753,3.907-3.753,7.862
		c0,4.408,2.015,7.981,4.501,7.981c2.486,0,4.501-3.573,4.501-7.981c0-3.126-1.016-5.825-2.492-7.134
		C50.807,21.556,48.659,19.935,48.659,19.935z"/>
</g>
</svg>
