<?xml version="1.0" encoding="iso-8859-1"?>
<!-- Generator: Adobe Illustrator 17.1.0, SVG Export Plug-In . SVG Version: 6.00 Build 0)  -->
<!DOCTYPE svg PUBLIC "-//W3C//DTD SVG 1.1//EN" "http://www.w3.org/Graphics/SVG/1.1/DTD/svg11.dtd">
<svg version="1.1" id="Layer_1" xmlns="http://www.w3.org/2000/svg" xmlns:xlink="http://www.w3.org/1999/xlink" x="0px" y="0px"
	 viewBox="0 0 64 64" style="enable-background:new 0 0 64 64;" xml:space="preserve">
<path d="M42.609,22.258c-0.16-2.726-4.49-4.009-4.49-4.009s0-7.377-4.009-8.499c0,0-0.802,6.414-9.942,10.584
	c-4.33,3.849,0.321,6.896,4.33,7.537C28.497,27.871,42.609,30.276,42.609,22.258z"/>
<path d="M21.12,25.465c-0.802,1.123-6.735,5.292-2.726,9.622c10.424,10.263,24.215,4.169,28.544-0.481
	c4.33-4.65-2.887-9.461-2.887-9.461s-2.566,5.292-11.706,5.292S21.12,25.465,21.12,25.465z"/>
<path d="M49.665,33.484c-0.481-0.16-2.245,9.141-17.8,9.141c0,0-12.669,1.122-17.319-9.141c0,0-8.339,7.377-1.443,13.951
	s28.865,10.424,39.77-1.924C56.881,39.898,50.146,33.644,49.665,33.484z"/>
</svg>
