<?xml version="1.0" encoding="iso-8859-1"?>
<!-- Generator: Adobe Illustrator 17.1.0, SVG Export Plug-In . SVG Version: 6.00 Build 0)  -->
<!DOCTYPE svg PUBLIC "-//W3C//DTD SVG 1.1//EN" "http://www.w3.org/Graphics/SVG/1.1/DTD/svg11.dtd">
<svg version="1.1" id="Layer_1" xmlns="http://www.w3.org/2000/svg" xmlns:xlink="http://www.w3.org/1999/xlink" x="0px" y="0px"
	 viewBox="0 0 64 64" style="enable-background:new 0 0 64 64;" xml:space="preserve">
<g>
	<path d="M27,32.595V33h4V17h-4.342l-0.049,1.716c0,0-13.045,0.147-17.606-1.716c0,0-4.12,4.855-6.67,5.885
		c1.03,1.716,6.841,8.239,6.841,8.239L27,32.595z M22.808,22.787c1.314,0,2.378,1.065,2.378,2.379s-1.065,2.378-2.378,2.378
		c-1.314,0-2.379-1.065-2.379-2.378S21.495,22.787,22.808,22.787z M15.231,22.1c1.327,0,2.403,1.076,2.403,2.403
		c0,1.327-1.076,2.403-2.403,2.403c-1.327,0-2.403-1.076-2.403-2.403C12.828,23.176,13.904,22.1,15.231,22.1z"/>
	<path d="M33,33.478c0,0,7.307-1.106,7.307-8.425c0-7.319-7.307-8.004-7.307-8.004V33.478z"/>
	<path d="M59.957,24.749c0.245,0.049-5.395-7.7-5.395-7.7s-4.12,0.883-15.595,0c0,0,2.256,3.629,2.207,9.073
		c-0.049,5.444-2.207,7.209-2.207,7.356c0,0.147,15.448-0.883,16.086-1.913C55.691,30.535,59.712,24.699,59.957,24.749z
		 M48.702,27.544c-1.314,0-2.379-1.065-2.379-2.378s1.065-2.379,2.379-2.379c1.314,0,2.378,1.065,2.378,2.379
		S50.016,27.544,48.702,27.544z"/>
	<path d="M28.223,46.637c1.07,1.07,2.267,1.689,3.654,1.921l-0.025-3.392c-0.327-0.127-0.634-0.32-0.898-0.584
		c-1.02-1.02-1.02-2.673,0-3.693s2.673-1.02,3.693,0c1.02,1.02,1.02,2.673,0,3.693c-0.281,0.281-0.363,0.373-0.714,0.499
		l0.014,3.554c1.519-0.17,2.994-0.834,4.159-1.998c2.729-2.729,2.729-7.154,0-9.883c-2.729-2.729-7.154-2.729-9.883,0
		C25.494,39.483,25.494,43.908,28.223,46.637z"/>
</g>
</svg>
