<?xml version="1.0" encoding="iso-8859-1"?>
<!-- Generator: Adobe Illustrator 17.1.0, SVG Export Plug-In . SVG Version: 6.00 Build 0)  -->
<!DOCTYPE svg PUBLIC "-//W3C//DTD SVG 1.1//EN" "http://www.w3.org/Graphics/SVG/1.1/DTD/svg11.dtd">
<svg version="1.1" id="Layer_1" xmlns="http://www.w3.org/2000/svg" xmlns:xlink="http://www.w3.org/1999/xlink" x="0px" y="0px"
	 viewBox="0 0 64 64" style="enable-background:new 0 0 64 64;" xml:space="preserve">
<g>
	<path d="M32.582,3.369c-10.132,0-18.345,8.214-18.345,18.345c0,3.536,1.018,6.826,2.751,9.627c0.797,1.57,1.864,3.299,3.332,5.186
		c6.965,8.955,11.969,22.548,12.165,23.992c0.196,1.444,2.06-11.408,11.576-22.984c0,0,4.494-4.58,5.93-10.06
		c0.6-1.814,0.937-3.747,0.937-5.763C50.928,11.582,42.714,3.369,32.582,3.369z M32.386,29.394c-5.147,0-9.32-4.173-9.32-9.32
		s4.173-9.32,9.32-9.32s9.32,4.173,9.32,9.32S37.533,29.394,32.386,29.394z"/>
	<path d="M32.5,16c-5.463,0-7.229,2.913-7.229,2.913l2.793,1.292c0,0-0.246-1.818,0.164-1.818c0.555,0.021,0.288,4.816,0.288,5.042
		c0,0,0.945,1.571,3.984,1.571h0.164c3.04,0,3.984-1.576,3.984-1.576c0-0.226-0.267-4.875,0.288-4.896
		c0.411,0,0.164,1.734,0.164,1.734l2.793-1.347c0,0-1.766-2.915-7.229-2.915H32.5z M30.046,19.834c-0.267,0-0.483-0.216-0.483-0.483
		s0.216-0.483,0.483-0.483c0.267,0,0.483,0.216,0.483,0.483S30.312,19.834,30.046,19.834z M34.975,18.869
		c0.267,0,0.483,0.216,0.483,0.483s-0.216,0.483-0.483,0.483s-0.483-0.216-0.483-0.483S34.708,18.869,34.975,18.869z M34.065,20.882
		c0.555,0.39-1.36,0.999-1.36,0.999l-0.153,0.035l-0.147-0.039c0,0-1.916-0.605-1.362-0.995c0.555-0.39,1.404-0.326,1.404-0.326
		l0.235-0.004C32.681,20.552,33.51,20.492,34.065,20.882z"/>
</g>
</svg>
