<?xml version="1.0" encoding="iso-8859-1"?>
<!-- Generator: Adobe Illustrator 17.1.0, SVG Export Plug-In . SVG Version: 6.00 Build 0)  -->
<!DOCTYPE svg PUBLIC "-//W3C//DTD SVG 1.1//EN" "http://www.w3.org/Graphics/SVG/1.1/DTD/svg11.dtd">
<svg version="1.1" id="Layer_1" xmlns="http://www.w3.org/2000/svg" xmlns:xlink="http://www.w3.org/1999/xlink" x="0px" y="0px"
	 viewBox="0 0 64 64" style="enable-background:new 0 0 64 64;" xml:space="preserve">
<path d="M31.835,19.881c0,0-14.915-0.678-18.712,8.949c-3.797,9.627-6.102,13.559,4.475,17.356
	c10.576,3.797,34.034,1.627,38.644-5.831c3.119-3.661-6.213-16.17-6.78-16.813C47.79,21.644,43.768,19.339,31.835,19.881z
	 M40.809,41.763l-3.503-1.539c-0.429-0.189-1.02-0.049-1.35,0.284c-1.591,1.607-6.803,4.184-10.531-0.429
	c-0.295-0.364-0.881-1.001-0.792-1.461c1.194-6.159,8.386-6.338,11.388-3.319c0.33,0.332,0.796,0.428,1.151,0.122l2.623-2.263
	c0.355-0.306,0.56-0.183,0.458,0.274l-0.705,3.171c-0.102,0.457-0.021,1.171,0.18,1.595l1.493,3.141
	C41.422,41.762,41.238,41.952,40.809,41.763z M32.936,26.524c-6.846,0.281-12.434-0.401-12.48-1.524
	c-0.046-1.122,5.467-2.26,12.313-2.541s12.434,0.401,12.48,1.524S39.782,26.243,32.936,26.524z"/>
</svg>
