<?xml version="1.0" encoding="iso-8859-1"?>
<!-- Generator: Adobe Illustrator 17.1.0, SVG Export Plug-In . SVG Version: 6.00 Build 0)  -->
<!DOCTYPE svg PUBLIC "-//W3C//DTD SVG 1.1//EN" "http://www.w3.org/Graphics/SVG/1.1/DTD/svg11.dtd">
<svg version="1.1" id="Layer_1" xmlns="http://www.w3.org/2000/svg" xmlns:xlink="http://www.w3.org/1999/xlink" x="0px" y="0px"
	 viewBox="0 0 64 64" style="enable-background:new 0 0 64 64;" xml:space="preserve">
<g>
	<path d="M25.298,46.369c1.916,0,3.467-1.369,3.579-3.369h8.654c0.112,2,1.663,3.376,3.579,3.376c1.988,0,3.6-1.618,3.6-3.606
		c0-0.86-0.314-1.642-0.818-2.262c0.503-0.619,0.818-1.401,0.818-2.262c0-1.988-1.612-3.6-3.6-3.6c-1.982,0-3.588,1.375-3.598,3.353
		h-8.615c-0.01-1.979-1.616-3.468-3.598-3.468c-1.988,0-3.6,1.669-3.6,3.657c0,0.86,0.314,1.668,0.818,2.287
		c-0.503,0.619-0.818,1.413-0.818,2.273C21.698,44.738,23.31,46.369,25.298,46.369z"/>
	<path d="M28,31.965V33h4V17h-4.326l-0.047,1.647c0,0-12.518,0.141-16.894-1.647c0,0-3.953,4.659-6.4,5.647
		c0.988,1.647,6.563,7.906,6.563,7.906L28,31.965z M23.98,22.553c1.26,0,2.282,1.022,2.282,2.282c0,1.261-1.022,2.282-2.282,2.282
		c-1.26,0-2.282-1.022-2.282-2.282C21.698,23.575,22.72,22.553,23.98,22.553z M16.71,21.894c1.273,0,2.306,1.032,2.306,2.306
		c0,1.273-1.032,2.306-2.306,2.306c-1.274,0-2.306-1.032-2.306-2.306C14.404,22.926,15.436,21.894,16.71,21.894z"/>
	<path d="M40.012,24.727c0-7.023-7.012-7.68-7.012-7.68v15.765C33,32.812,40.012,31.751,40.012,24.727z"/>
	<path d="M59.627,24.435c0.235,0.047-5.177-7.388-5.177-7.388s-3.953,0.847-14.965,0c0,0,2.165,3.482,2.118,8.706
		c-0.047,5.224-2.118,6.918-2.118,7.059s14.823-0.847,15.435-1.835C55.533,29.988,59.392,24.388,59.627,24.435z M48.827,27.118
		c-1.261,0-2.282-1.022-2.282-2.282c0-1.26,1.022-2.282,2.282-2.282c1.26,0,2.282,1.022,2.282,2.282
		C51.109,26.096,50.088,27.118,48.827,27.118z"/>
</g>
</svg>
