<?xml version="1.0" encoding="iso-8859-1"?>
<!-- Generator: Adobe Illustrator 17.1.0, SVG Export Plug-In . SVG Version: 6.00 Build 0)  -->
<!DOCTYPE svg PUBLIC "-//W3C//DTD SVG 1.1//EN" "http://www.w3.org/Graphics/SVG/1.1/DTD/svg11.dtd">
<svg version="1.1" id="Layer_1" xmlns="http://www.w3.org/2000/svg" xmlns:xlink="http://www.w3.org/1999/xlink" x="0px" y="0px"
	 viewBox="0 0 64 64" style="enable-background:new 0 0 64 64;" xml:space="preserve">
<path d="M49.622,11.068c-1.61-7.871-14.312-8.05-23.018-3.936c-8.706,4.115-3.936,12.344-3.16,12.165s-0.358-3.936-0.358-4.592
	s1.312-5.188,7.931-7.573c16.578-1.968,15.445,6.202,15.385,7.275s-1.849,9.004-7.693,5.546c-10.793-4.89-14.073,8.348-13.954,5.307
	c0.119-3.041-0.358-3.161-0.358-3.161c-2.4,0.388-2.341,5.113-3.548,4.845c-1.61-0.537-3.444,0.85-3.444,0.85
	c-0.716-0.447-4.687-2.624-5.099-2.147c-0.76,1.297,2.415,3.086,2.281,4.83c-0.268,5.009,2.326,5.188,2.326,5.188
	c8.14,5.814,6.127,19.768,6.082,20.573c-0.045,0.805-0.76,2.996-0.939,2.505c-0.179-0.492-1.834-0.939-2.281-0.403
	S18.3,60.8,22.773,60.8c4.472,0,3.399-11.002,3.802-10.555c0.402,0.447,2.191,5.59,2.102,6.574c-0.089,0.984-1.55,0.784-1.655,1.61
	c0,2.326,2.057,1.61,2.057,1.61c-0.089,1.118,0.671,1.789,3.175,1.789s3.488-2.147,5.009-4.294c1.521-2.147,2.37-2.818,1.431-5.769
	s0.73-5.933,0.73-5.933s2.147,2.564,3.339,4.532c1.193,1.968,0.239,6.5-0.06,5.963s-2.445-1.133-2.505,0.656s1.431,1.67,2.743,1.61
	s2.385-0.358,2.385-2.803c0.477-5.784,2.028-5.426,2.087-6.917c0.06-1.491-3.041-3.518-3.161-6.082
	c2.624-13.179,1.014-10.495,0.537-14.908S51.232,18.939,49.622,11.068z M31.986,59.504c-0.179-0.716-0.76-0.894-0.76-0.894
	c0.716-1.073,0.119-1.87-0.939-4.92c-0.581-1.565-2.326-9.973-2.326-12.97c0-2.996,3.067-2.639,3.067-2.639
	c-0.16,7.066,3.731,9.884,3.731,13.775C34.759,55.747,32.165,60.219,31.986,59.504z"/>
</svg>
