<?xml version="1.0" encoding="iso-8859-1"?>
<!-- Generator: Adobe Illustrator 17.1.0, SVG Export Plug-In . SVG Version: 6.00 Build 0)  -->
<!DOCTYPE svg PUBLIC "-//W3C//DTD SVG 1.1//EN" "http://www.w3.org/Graphics/SVG/1.1/DTD/svg11.dtd">
<svg version="1.1" id="Layer_1" xmlns="http://www.w3.org/2000/svg" xmlns:xlink="http://www.w3.org/1999/xlink" x="0px" y="0px"
	 viewBox="0 0 64 64" style="enable-background:new 0 0 64 64;" xml:space="preserve">
<path d="M15.926,40.079c-2.886,0-5.225,2.354-5.225,5.257s2.339,5.257,5.225,5.257c2.886,0,5.225-2.354,5.225-5.257
	S18.812,40.079,15.926,40.079z M15.926,48.148c-1.553,0-2.812-1.267-2.812-2.829c0-1.563,1.259-2.829,2.812-2.829
	c1.553,0,2.812,1.267,2.812,2.829C18.738,46.881,17.479,48.148,15.926,48.148z"/>
<path d="M46.404,40.079c-2.886,0-5.225,2.354-5.225,5.257s2.339,5.257,5.225,5.257c2.886,0,5.225-2.354,5.225-5.257
	S49.29,40.079,46.404,40.079z M46.404,48.148c-1.553,0-2.812-1.267-2.812-2.829c0-1.563,1.259-2.829,2.812-2.829
	c1.553,0,2.812,1.267,2.812,2.829C49.216,46.881,47.957,48.148,46.404,48.148z"/>
<path d="M58.732,20H26v3h-2.21c-1.924,0-4.329,1.061-5.373,2.687L13.559,33H11.49C7.763,33,3,35.275,3,39.026v0.438
	c0,2.143,1.632,4.478,3.539,6.089c0.737,0.622,1.504,0.799,1.486,0.54c-0.011-0.155,0.037-0.311,0.037-0.468
	c0-4.219,3.426-7.639,7.62-7.639s7.606,3.42,7.606,7.639c0,0.333-0.016,0.875-0.06,1.196C23.155,47.358,23.823,48,24.785,48h12.759
	c0.962,0,1.673-0.543,1.632-0.952c-0.024-0.244-0.037-0.6-0.037-0.85c0-4.143,3.338-7.556,7.456-7.556s7.456,3.332,7.456,7.475
	c0,0.227-0.012,0.437-0.033,0.658c-0.035,0.37,0.55,0.485,1.315-0.101C57.246,45.21,58,42.179,58,39.464v-0.438
	c0-0.272-0.17-0.751,0.078-0.802C59.117,37.876,60,36.902,60,35.74V20.845C59.983,19.895,60.174,20,58.732,20z M28,30.483
	C28,31.451,26.603,32,25.641,32h-7.293c-0.962,0-1.367-0.571-0.906-1.42l2.138-3.489C20.042,26.242,21.196,26,22.158,26h3.483
	C26.603,26,28,26.01,28,26.978V30.483z M48.989,30.373c-1.156,0-2.185-0.513-2.902-1.314l-8.044,4.606
	c-0.132,0.075-0.284,0.115-0.438,0.115c-0.398,0-0.79-0.254-1.02-0.663c-0.329-0.58-0.209-1.253,0.274-1.531l8.254-4.725
	c-0.016-0.143-0.043-0.283-0.043-0.431c0-2.178,1.754-3.943,3.919-3.943c2.164,0,3.919,1.765,3.919,3.943
	S51.154,30.373,48.989,30.373z"/>
<ellipse cx="48.971" cy="26.43" rx="2.304" ry="2.355"/>
</svg>
