<?xml version="1.0" encoding="iso-8859-1"?>
<!-- Generator: Adobe Illustrator 17.1.0, SVG Export Plug-In . SVG Version: 6.00 Build 0)  -->
<!DOCTYPE svg PUBLIC "-//W3C//DTD SVG 1.1//EN" "http://www.w3.org/Graphics/SVG/1.1/DTD/svg11.dtd">
<svg version="1.1" id="Layer_1" xmlns="http://www.w3.org/2000/svg" xmlns:xlink="http://www.w3.org/1999/xlink" x="0px" y="0px"
	 viewBox="0 0 64 64" style="enable-background:new 0 0 64 64;" xml:space="preserve">
<path d="M39.792,43.613l-9.516-9.516c-0.347,0.262-0.74,0.529-1.194,0.795c-4.339,2.069-5.207,4.806-5.274,5.874
	c-0.067,1.068,0.734,4.005-2.804,2.87s-2.47-4.005-2.47-4.005C17.133,40.133,17,41.635,17,41.635c0.2,5.941,7.243,5.507,7.477,5.073
	c0.234-0.434,0.935-0.734,0.901-0.434s0.334,0.577,0.334,0.577s10.414,0.725,10.414-1.078c0-1.802-1.469-1.569-0.901-1.802
	c0.567-0.234,1.435-1.535,1.435-1.535s-0.1,3.104-0.167,3.304c-0.475,1.426,4.506,1.402,4.506,0.367
	c0-1.035-1.235-1.335-1.235-1.335S39.776,44.331,39.792,43.613z"/>
<path d="M41.366,15c-1.135,0-3.271,3.004-3.872,4.139c-0.074-0.063-0.16-0.117-0.255-0.161c-1.106-0.518-3.484,0.161-3.484,0.161
	c-0.801-0.668-5.874-3.672-6.742-2.804c-0.942,0.892,1.022,4.762,2.097,6.697l10.721,10.721c-0.038-0.958-0.101-1.616-0.202-1.731
	c-0.467-0.534-0.2-1.135-0.2-1.135c4.74-3.271,2.603-7.143,2.603-8.144S42.501,15,41.366,15z"/>
<path d="M32.495,5.5c-14.359,0-26,11.641-26,26c0,14.359,11.641,26,26,26c14.359,0,26-11.641,26-26
	C58.495,17.141,46.855,5.5,32.495,5.5z M32.612,52.983c-11.598,0-21-9.402-21-21c0-5.026,1.77-9.635,4.715-13.25l14.72,14.72
	l8.774,8.774l6.041,6.041C42.247,51.213,37.637,52.983,32.612,52.983z M49.325,44.661l-9.457-9.457L29.692,25.028l-9.758-9.758
	c3.525-2.678,7.909-4.287,12.678-4.287c11.598,0,21,9.402,21,21C53.612,36.753,52.003,41.136,49.325,44.661z"/>
</svg>
