<?xml version="1.0" encoding="iso-8859-1"?>
<!-- Generator: Adobe Illustrator 17.1.0, SVG Export Plug-In . SVG Version: 6.00 Build 0)  -->
<!DOCTYPE svg PUBLIC "-//W3C//DTD SVG 1.1//EN" "http://www.w3.org/Graphics/SVG/1.1/DTD/svg11.dtd">
<svg version="1.1" id="Layer_1" xmlns="http://www.w3.org/2000/svg" xmlns:xlink="http://www.w3.org/1999/xlink" x="0px" y="0px"
	 viewBox="0 0 64 64" style="enable-background:new 0 0 64 64;" xml:space="preserve">
<path d="M54.652,18.755c-0.274-1.211-1.501-2.14-2.741-2.076l-24.543,1.267c-1.24,0.064-1.958,1.08-1.604,2.27l3.4,11.425
	c0.354,1.19,1.646,2.1,2.886,2.034l23.42-1.257c1.24-0.067,2.022-1.102,1.749-2.313L54.652,18.755z"/>
<path d="M55.474,34.522l-23.425,1.729c-1.238,0.091-2.545,1.125-2.92,2.308l-3.326,10.511c-0.375,1.184,0.325,2.069,1.563,1.977
	l23.425-1.729c1.238-0.091,2.545-1.125,2.92-2.308L57.037,36.5C57.412,35.316,56.712,34.431,55.474,34.522z"/>
<path d="M27.03,34.045L23.78,20.62c-0.292-1.207-1.501-2.443-2.701-2.762l-7.643-2.03c-1.2-0.319-2.569,0.348-3.058,1.489
	l-3.848,8.98c-0.489,1.141-0.782,3.067-0.654,4.302l1.223,11.824c0.128,1.235,1.162,2.619,2.31,3.091l11.764,4.844
	c1.148,0.473,2.356-0.111,2.699-1.304l3.066-10.664C27.281,37.197,27.322,35.252,27.03,34.045z"/>
<path d="M26.248,16h2.248c0.621,0,1.184-0.502,1.369-1.095c0.414-1.331,1.488-3.4,4.157-3.4c2.743,0,4.074,2.094,4.628,3.426
	C38.888,15.504,39.488,16,40.109,16h1.873c0.621,0,1.115-0.503,1.029-1.118c-0.337-2.428-1.876-7.966-8.896-7.966
	c-7.164,0-8.56,5.53-8.879,7.967C25.155,15.499,25.627,16,26.248,16z"/>
</svg>
