<?xml version="1.0" encoding="iso-8859-1"?>
<!-- Generator: Adobe Illustrator 17.1.0, SVG Export Plug-In . SVG Version: 6.00 Build 0)  -->
<!DOCTYPE svg PUBLIC "-//W3C//DTD SVG 1.1//EN" "http://www.w3.org/Graphics/SVG/1.1/DTD/svg11.dtd">
<svg version="1.1" id="Layer_1" xmlns="http://www.w3.org/2000/svg" xmlns:xlink="http://www.w3.org/1999/xlink" x="0px" y="0px"
	 viewBox="0 0 64 64" style="enable-background:new 0 0 64 64;" xml:space="preserve">
<path d="M45.917,11.417c0,0-6.417-1.083-12.167,3.5c0,0-5.583-6.25-17.167-2.167C5,16.833,6.75,30.75,8,33.833
	c0,0,1.5-5.333,4.917-7.833c0,0-0.75-9,3.417-9.167c0,0,1.417-0.667,3.083,3.417c0,0,1.917-2.417,3.667,0.083
	c0,0,1.083,2.417,1,2.917c0,0,3.75,0.333,4.917,5.083c0,0,2.333,1.222,1.083,4.236c-1.25,3.014-2.917,3.014-5.75,3.014
	c0,0-2.833,7.5-3.25,9.083c0,0,10.917,5,12.667,9.167c0,0,1.667-4.5,16.917-11.25c-0.744-6.607-2-6.75-3-6.583
	c-1,0.167-6.167,3.333-9.917-0.5c0,0-4.083-1.417-1.333-3.5c2.75-2.083,6.167-4.583,6.25-5.333c0.083-0.75,0.167-3.417,1.75-4.333
	c0,0-1.167-3-1.083-4.417c0,0,4.5,0.833,5.5,1.833c0,0-1.083-4.083-0.5-5.167c0,0,5.25,1.75,6.75,6.083c0,0,4.333,6.167,4.417,8.167
	c0,0,0.667,1.75,1.167,1.75C60.667,30.583,62.833,13.833,45.917,11.417z"/>
</svg>
