<?xml version="1.0" encoding="utf-8"?>
<!-- Generator: Adobe Illustrator 16.0.4, SVG Export Plug-In . SVG Version: 6.00 Build 0)  -->
<!DOCTYPE svg PUBLIC "-//W3C//DTD SVG 1.1//EN" "http://www.w3.org/Graphics/SVG/1.1/DTD/svg11.dtd">
<svg version="1.1" id="Layer_1" xmlns="http://www.w3.org/2000/svg" xmlns:xlink="http://www.w3.org/1999/xlink" x="0px" y="0px"
	 width="144px" height="144px" viewBox="0 0 144 144" enable-background="new 0 0 144 144" xml:space="preserve">
<path d="M73.271,85.719c1.971-6.169,7.242-9.997,11.773-8.55c4.531,1.448,6.607,7.622,4.636,13.792
	c-1.971,6.17-7.241,9.998-11.772,8.551S71.301,91.889,73.271,85.719z M99.839,93.156c-4.099-1.311-8.952,2.415-10.837,8.319
	c-1.887,5.904-0.093,11.753,4.007,13.062c4.099,1.311,8.951-2.415,10.837-8.319C105.732,100.312,103.938,94.465,99.839,93.156z
	 M64.879,99.925c4.297-1.306,6.055-7.504,3.926-13.847c-2.131-6.343-7.344-10.429-11.642-9.123
	c-4.297,1.305-6.055,7.503-3.926,13.846C55.368,97.144,60.579,101.229,64.879,99.925z M53.852,101.412
	c-2.036-6.03-7.006-9.916-11.099-8.681c-4.095,1.235-5.762,7.124-3.726,13.153c2.036,6.03,7.004,9.916,11.099,8.681
	C54.218,113.33,55.888,107.441,53.852,101.412z M71.671,101.25h-0.886c0,0-17.53,2.887-17.444,23.076
	c-0.054,11.855,9.806,6.752,9.806,6.752s4.167-4.219,7.639-4.219l0.886-0.092c3.471,0,7.639,4.188,7.639,4.188
	s9.861,5.217,9.805-6.639C89.201,104.125,71.671,101.25,71.671,101.25z M104.814,49.852c2.211,2.51,6.773,2.105,10.191-0.904
	c3.418-3.01,4.396-7.485,2.186-9.996c-2.21-2.51-6.773-2.105-10.191,0.904C103.582,42.866,102.604,47.341,104.814,49.852z
	 M120.34,53.939c-1.999-2.271-6.271-1.777-9.543,1.103c-3.27,2.88-4.301,7.056-2.301,9.327c2,2.271,6.272,1.777,9.543-1.104
	C121.311,60.386,122.34,56.21,120.34,53.939z M96.807,45.394c3.064,0.765,6.363-2.34,7.371-6.934
	c1.006-4.597-0.662-8.944-3.727-9.709s-6.363,2.34-7.371,6.935C92.074,40.282,93.742,44.629,96.807,45.394z M79.059,39.649
	c-0.949,4.372,0.643,8.512,3.559,9.245c2.916,0.734,6.051-2.216,7-6.588c0.949-4.372-0.643-8.512-3.559-9.245
	S80.008,35.278,79.059,39.649z M100.931,47.804l-0.536-0.32c0,0-11.871-4.169-19.111,8.04c-4.315,7.132,3.351,7.825,3.351,7.825
	s3.974-0.934,6.068,0.32l0.538,0.317c2.094,1.253,3.08,5.312,3.08,5.312s4.309,6.3,8.559-0.871
	C110.223,56.279,100.931,47.804,100.931,47.804z M49.545,45.63c2.204-0.618,3.309-3.552,2.467-6.553
	c-0.841-3.001-3.31-4.933-5.514-4.314c-2.204,0.618-3.309,3.552-2.467,6.553C44.873,44.316,47.341,46.248,49.545,45.63z
	 M59.592,47.673c1.995-0.56,2.959-3.341,2.154-6.212c-0.805-2.872-3.075-4.747-5.07-4.187c-1.995,0.559-2.958,3.34-2.153,6.212
	C55.328,46.357,57.597,48.232,59.592,47.673z M37.325,48.661c2.536,1.985,5.713,2.248,7.094,0.585
	c1.381-1.663,0.448-4.619-2.088-6.604s-5.715-2.248-7.097-0.585C33.854,43.72,34.787,46.676,37.325,48.661z M42.365,59.036
	c1.318-1.58,0.43-4.39-1.984-6.273c-2.415-1.883-5.44-2.131-6.759-0.549c-1.318,1.58-0.43,4.39,1.985,6.273
	C38.021,60.37,41.047,60.615,42.365,59.036z M54.234,58.198c1.395-0.92,4.189-0.321,4.189-0.321s5.166-0.788,2.005-5.538
	c-5.314-8.136-13.3-4.923-13.3-4.923l-0.355,0.234c0,0-6.095,6.082-0.715,14.175c3.116,4.779,5.821,0.256,5.821,0.256
	s0.603-2.729,2-3.647L54.234,58.198z M75.332,15.554c1,1.144,3.074,0.966,4.631-0.396s2.008-3.394,1.008-4.538
	c-1.001-1.144-3.074-0.967-4.632,0.396C74.781,12.378,74.33,14.41,75.332,15.554z M78.039,17.922
	c-1.49,1.304-1.965,3.199-1.06,4.233c0.905,1.034,2.847,0.816,4.337-0.488c1.489-1.303,1.963-3.198,1.059-4.233
	C81.47,16.401,79.528,16.619,78.039,17.922z M71.699,13.518c1.39,0.353,2.893-1.053,3.357-3.139
	c0.464-2.088-0.288-4.063-1.679-4.417c-1.391-0.353-2.894,1.053-3.357,3.139C69.557,11.187,70.308,13.165,71.699,13.518z
	 M65.25,15.088c1.323,0.337,2.752-0.997,3.188-2.983c0.437-1.984-0.281-3.868-1.604-4.205c-1.323-0.337-2.752,0.997-3.188,2.983
	C63.209,12.87,63.927,14.751,65.25,15.088z M74.419,23.989c3.354-5.508-0.854-9.371-0.854-9.371l-0.244-0.146
	c0.005,0-5.381-1.911-8.689,3.625c-1.971,3.233,1.51,3.56,1.51,3.56s1.807-0.418,2.756,0.155l0.243,0.144
	c0.95,0.574,1.391,2.417,1.391,2.417S72.479,27.241,74.419,23.989z"/>
</svg>
