<?xml version="1.0" encoding="iso-8859-1"?>
<!-- Generator: Adobe Illustrator 17.1.0, SVG Export Plug-In . SVG Version: 6.00 Build 0)  -->
<!DOCTYPE svg PUBLIC "-//W3C//DTD SVG 1.1//EN" "http://www.w3.org/Graphics/SVG/1.1/DTD/svg11.dtd">
<svg version="1.1" id="Layer_1" xmlns="http://www.w3.org/2000/svg" xmlns:xlink="http://www.w3.org/1999/xlink" x="0px" y="0px"
	 viewBox="0 0 64 64" style="enable-background:new 0 0 64 64;" xml:space="preserve">
<path d="M24,45h24.711c0.017-0.084,0.032-0.175,0.05-0.248c0.789-3.304,3.018-14.651,0.145-27.789
	c-0.118-0.54-0.193-1.421-0.158-1.972l0.391-6.129c0.035-0.551-0.291-0.725-0.729-0.388l-2.909,2.238
	c-0.438,0.337-1.123,0.308-1.531-0.065l-2.499-2.282c-0.408-0.372-1.078-0.383-1.498-0.023l-3.322,2.847
	c-0.419,0.359-1.07,0.328-1.452-0.07l-2.935-3.053c-0.383-0.398-1.003-0.398-1.386,0l-2.935,3.053
	c-0.383,0.398-0.991,0.387-1.359-0.025l-2.99-3.348c-0.368-0.412-0.989-0.435-1.386-0.052l-3.227,3.107
	c-0.398,0.383-1.091,0.443-1.548,0.133l-3.703-2.508c-0.457-0.31-0.636-0.156-0.451,0.364c0.41,1.152,0.996,3.336,0.988,6.21H36
	c0.552,0,1,0.448,1,1c0,0.552-0.448,1-1,1H14.16c-0.018,0.183-0.025,0.357-0.049,0.545c-0.294,2.351-2.894,8.789,0.158,27.156
	c0.091,0.545,0.148,1.434,0.118,1.985c-0.097,1.807-0.338,5.629-0.734,7.744c-0.102,0.543,0.131,0.713,0.582,0.395l4.243-2.995
	c0.451-0.319,1.1-0.23,1.449,0.199l2.54,3.117c0.349,0.428,0.922,0.434,1.28,0.014l2.679-3.145c0.358-0.42,0.911-0.399,1.235,0.049
	l2.457,3.393c0.324,0.447,0.903,0.493,1.294,0.103l3.426-3.426c0.391-0.391,1.011-0.379,1.386,0.027l2.963,3.2
	c0.375,0.405,0.964,0.388,1.314-0.039l2.706-3.295c0.351-0.427,0.972-0.479,1.389-0.116l3.851,3.354
	c0.416,0.363,0.717,0.21,0.673-0.34c-0.147-1.825-0.452-5.7-0.565-7.923H24c-0.552,0-1-0.448-1-1C23,45.448,23.448,45,24,45z
	 M39.965,27.82c1.133,0.362,1.628,1.978,1.107,3.609c-0.521,1.631-1.862,2.66-2.994,2.298c-1.133-0.362-1.628-1.977-1.107-3.609
	C37.492,28.487,38.832,27.458,39.965,27.82z M32.626,25.764c0.544-1.705,2.001-2.762,3.253-2.362s1.825,2.106,1.281,3.81
	c-0.545,1.705-2.001,2.762-3.253,2.362S32.081,27.469,32.626,25.764z M32.183,30c0,0,4.843,0.821,4.82,6.399
	c0.015,3.276-2.709,1.861-2.709,1.861s-1.151-1.159-2.11-1.159l-0.245,0.022c-0.959,0-2.111,1.159-2.111,1.159
	s-2.724,1.396-2.709-1.879C27.094,30.825,31.938,30,31.938,30H32.183z M28.174,23.343c1.188-0.36,2.628,0.768,3.216,2.521
	c0.589,1.753,0.103,3.466-1.085,3.826c-1.188,0.36-2.628-0.768-3.216-2.521C26.501,25.416,26.987,23.703,28.174,23.343z
	 M24.193,27.702c1.131-0.341,2.504,0.733,3.067,2.398c0.562,1.666,0.101,3.293-1.03,3.634c-1.131,0.341-2.504-0.733-3.067-2.398
	S23.061,28.043,24.193,27.702z"/>
</svg>
