<?xml version="1.0" encoding="iso-8859-1"?>
<!-- Generator: Adobe Illustrator 17.1.0, SVG Export Plug-In . SVG Version: 6.00 Build 0)  -->
<!DOCTYPE svg PUBLIC "-//W3C//DTD SVG 1.1//EN" "http://www.w3.org/Graphics/SVG/1.1/DTD/svg11.dtd">
<svg version="1.1" id="Layer_1" xmlns="http://www.w3.org/2000/svg" xmlns:xlink="http://www.w3.org/1999/xlink" x="0px" y="0px"
	 viewBox="0 0 64 64" style="enable-background:new 0 0 64 64;" xml:space="preserve">
<path d="M42.628,14.622c-3.42-2.809-7.795-4.497-12.566-4.497c-10.942,0-19.812,8.87-19.812,19.812
	c0,4.834,1.735,9.259,4.611,12.698C28.424,40.533,39.369,29.3,42.628,14.622z M27.687,19.811c-4.02,0.344-7.102,2.853-7.039,7.039
	c0.057,3.825-5.871,3.819-5.928,0c-0.113-7.603,5.798-12.353,12.967-12.967C31.497,13.557,31.466,19.487,27.687,19.811z"/>
<path d="M45.525,38.324c0.789,0,1.563,0.12,2.31,0.327c1.293-2.633,2.039-5.582,2.039-8.714c0-3.636-0.996-7.031-2.705-9.96
	c-3.413,13.718-13.776,24.351-26.783,27.241c2.863,1.607,6.159,2.532,9.676,2.532c2.449,0,4.784-0.465,6.948-1.278
	c-0.086-0.491-0.136-0.991-0.136-1.498C36.875,42.205,40.756,38.324,45.525,38.324z"/>
<path d="M49.25,41.465c-0.719-0.487-1.544-0.822-2.426-0.998c-0.422-0.084-0.852-0.143-1.299-0.143c-3.673,0-6.65,2.977-6.65,6.65
	c0,0.227,0.012,0.451,0.034,0.672c0.154,1.526,0.826,2.899,1.835,3.944C44.745,49.789,47.873,46.084,49.25,41.465z"/>
<path d="M43.415,53.277c0.664,0.222,1.372,0.348,2.11,0.348c3.673,0,6.65-2.977,6.65-6.65c0-1.211-0.329-2.343-0.894-3.321
	C49.944,47.879,47.091,51.333,43.415,53.277z"/>
</svg>
