<?xml version="1.0" encoding="iso-8859-1"?>
<!-- Generator: Adobe Illustrator 17.1.0, SVG Export Plug-In . SVG Version: 6.00 Build 0)  -->
<!DOCTYPE svg PUBLIC "-//W3C//DTD SVG 1.1//EN" "http://www.w3.org/Graphics/SVG/1.1/DTD/svg11.dtd">
<svg version="1.1" id="Layer_1" xmlns="http://www.w3.org/2000/svg" xmlns:xlink="http://www.w3.org/1999/xlink" x="0px" y="0px"
	 viewBox="0 0 64 64" style="enable-background:new 0 0 64 64;" xml:space="preserve">
<g>
	<path d="M15.731,59.083c3.901,0,7.064-3.163,7.064-7.064c0-3.457-2.485-6.329-5.764-6.94c0.019-0.208-0.054-0.413-0.214-0.562
		c0.047,0.01,0.094,0.025,0.14,0.025c0.282,0,0.546-0.174,0.648-0.455c0.15-0.417,0.267-0.875,0.347-1.362
		c0.049-0.303-0.107-0.591-0.366-0.724c0.276-0.083,0.48-0.336,0.489-0.64l0.005-0.33c0-0.321-0.013-0.66-0.038-1.018
		c-0.021-0.299-0.23-0.54-0.504-0.615c0.249-0.134,0.399-0.415,0.354-0.71c-0.062-0.412-0.142-0.844-0.238-1.298
		c-0.062-0.29-0.296-0.498-0.573-0.539c0.228-0.162,0.343-0.454,0.267-0.74c-0.108-0.403-0.229-0.821-0.363-1.255
		c-0.087-0.28-0.336-0.465-0.612-0.484c0.212-0.18,0.303-0.479,0.204-0.756c-0.14-0.395-0.288-0.8-0.448-1.218
		c-0.105-0.274-0.366-0.442-0.643-0.442c0.199-0.191,0.272-0.492,0.16-0.762c-0.16-0.387-0.33-0.784-0.511-1.191
		c-0.118-0.268-0.387-0.43-0.662-0.409c0.19-0.2,0.249-0.503,0.125-0.768l-0.316-0.666l-0.175-0.455
		c-0.1-0.268-0.349-0.437-0.617-0.448c0.201-0.177,0.288-0.464,0.198-0.734c-0.136-0.407-0.261-0.806-0.373-1.195
		c-0.079-0.273-0.312-0.459-0.577-0.493c0.214-0.16,0.324-0.438,0.258-0.713c-0.1-0.417-0.188-0.823-0.263-1.218
		c-0.053-0.278-0.265-0.485-0.524-0.544c0.228-0.137,0.364-0.4,0.328-0.68c-0.056-0.423-0.097-0.833-0.124-1.23
		c-0.02-0.281-0.204-0.51-0.452-0.601c0.241-0.107,0.409-0.348,0.41-0.629c0.001-0.426,0.017-0.835,0.047-1.227
		c0.02-0.279-0.126-0.531-0.356-0.657c0.253-0.068,0.455-0.279,0.5-0.554c0.069-0.418,0.154-0.814,0.253-1.188
		c0.072-0.273-0.032-0.549-0.24-0.714c0.264-0.016,0.508-0.178,0.606-0.442c0.143-0.381,0.305-0.751,0.482-1.102
		c0.124-0.246,0.087-0.531-0.072-0.735c0.263,0.041,0.522-0.072,0.674-0.301c0.216-0.326,0.453-0.638,0.703-0.93L51.694,42.83
		c0.578,0.495,1.448,0.428,1.944-0.15l0.897-1.047c0.495-0.578,0.428-1.448-0.15-1.944L16.812,7.507
		c-0.578-0.495-1.448-0.428-1.944,0.15l-0.897,1.047c-0.435,0.507-0.412,1.226-0.015,1.732c-0.005,0.006-0.013,0.008-0.018,0.014
		c-0.293,0.341-0.57,0.707-0.823,1.088c-0.168,0.253-0.146,0.578,0.031,0.806c-0.292-0.042-0.577,0.1-0.715,0.371
		c-0.2,0.395-0.383,0.812-0.543,1.241c-0.11,0.294,0.001,0.607,0.241,0.786c-0.299,0.007-0.57,0.2-0.65,0.503
		c-0.108,0.415-0.203,0.853-0.278,1.314c-0.049,0.296,0.099,0.58,0.349,0.716c-0.274,0.074-0.484,0.314-0.508,0.613
		c-0.032,0.425-0.05,0.868-0.051,1.33c0,0.298,0.188,0.553,0.454,0.649c-0.258,0.114-0.429,0.38-0.408,0.678
		c0.029,0.424,0.072,0.863,0.132,1.315c0.039,0.294,0.258,0.521,0.531,0.583c-0.24,0.145-0.377,0.428-0.321,0.719
		c0.079,0.417,0.171,0.845,0.276,1.283c0.068,0.288,0.309,0.489,0.585,0.523c-0.224,0.167-0.332,0.46-0.25,0.744
		c0.118,0.407,0.247,0.823,0.389,1.248c0.094,0.279,0.348,0.459,0.626,0.471c-0.208,0.183-0.292,0.482-0.189,0.758l0.534,1.222
		c0.122,0.261,0.392,0.411,0.656,0.396c-0.187,0.196-0.247,0.492-0.131,0.755c0.175,0.396,0.341,0.783,0.497,1.16
		c0.109,0.265,0.366,0.425,0.637,0.426c-0.195,0.186-0.271,0.478-0.168,0.746c0.156,0.406,0.301,0.801,0.437,1.184
		c0.095,0.268,0.338,0.44,0.604,0.458c-0.204,0.173-0.298,0.458-0.213,0.73c0.129,0.416,0.245,0.817,0.348,1.203
		c0.073,0.273,0.302,0.465,0.565,0.504c-0.217,0.154-0.334,0.428-0.274,0.705c0.091,0.426,0.164,0.832,0.223,1.218
		c0.042,0.277,0.244,0.491,0.498,0.561c-0.231,0.125-0.38,0.377-0.36,0.656c0.023,0.323,0.034,0.629,0.034,0.919l-0.003,0.29
		c-0.009,0.274,0.146,0.516,0.374,0.633c-0.244,0.074-0.438,0.281-0.481,0.55c-0.065,0.403-0.16,0.777-0.282,1.113
		c-0.094,0.261-0.018,0.54,0.168,0.724c-0.252-0.044-0.518,0.048-0.677,0.268c-0.099,0.136-0.206,0.252-0.314,0.357
		c-3.786,0.131-6.818,3.234-6.818,7.052C8.667,55.92,11.829,59.083,15.731,59.083z M18.258,50.928c1.364,0,2.47,1.106,2.47,2.47
		s-1.106,2.47-2.47,2.47c-1.364,0-2.47-1.106-2.47-2.47S16.894,50.928,18.258,50.928z"/>
</g>
</svg>
