<?xml version="1.0" encoding="iso-8859-1"?>
<!-- Generator: Adobe Illustrator 17.1.0, SVG Export Plug-In . SVG Version: 6.00 Build 0)  -->
<!DOCTYPE svg PUBLIC "-//W3C//DTD SVG 1.1//EN" "http://www.w3.org/Graphics/SVG/1.1/DTD/svg11.dtd">
<svg version="1.1" id="Layer_1" xmlns="http://www.w3.org/2000/svg" xmlns:xlink="http://www.w3.org/1999/xlink" x="0px" y="0px"
	 viewBox="0 0 64 64" style="enable-background:new 0 0 64 64;" xml:space="preserve">
<path d="M19,50.926v0.196C19,54.536,21.767,57,25.181,57h17.464C46.059,57,49,54.536,49,51.123v-0.196
	c0-2.499-1.42-4.639-3.553-5.613C45.747,44.723,46,44.07,46,43.372v-0.392c0-2.277-1.955-4.141-4.284-4.45
	c0-0.022-0.072,0.08-0.072,0.059c0-2.601-2.266-4.588-4.964-4.588h-0.546c-0.238-3-1.757-5.148-1.435-3.14
	c0.181,1.13-0.31,2.14-0.887,3.14h-3.646c-2.699,0-4.886,1.987-4.886,4.588c0,0.114-0.043,0.159-0.035,0.271
	C23.429,39.527,22,41.083,22,42.979v0.392c0,0.692,0.264,1.34,0.582,1.926C20.433,46.266,19,48.416,19,50.926z"/>
<path d="M26.126,8.566c-1.193,0.682-6.847,4.372-2.221,10.755c5.147,7.103,1.099,10.557,1.099,10.557s7.056-3.79,2.336-10.703
	C22.931,12.718,25.028,9.301,26.126,8.566z"/>
<path d="M26.34,8.448c0,0-0.042,0.021-0.112,0.06C26.266,8.488,26.306,8.462,26.34,8.448z"/>
<path d="M35.759,6.879c0,0-0.042,0.021-0.112,0.06C35.685,6.918,35.725,6.892,35.759,6.879z"/>
<path d="M35.545,6.996c-1.193,0.682-6.847,4.372-2.221,10.755c5.147,7.103,1.099,10.557,1.099,10.557s7.056-3.79,2.336-10.703
	C32.35,11.148,34.447,7.732,35.545,6.996z"/>
<path d="M43.394,10.136c-1.193,0.682-6.847,4.372-2.221,10.756c5.147,7.103,1.099,10.557,1.099,10.557s7.056-3.79,2.336-10.703
	C40.199,14.288,42.296,10.871,43.394,10.136z"/>
<path d="M43.609,10.018c0,0-0.042,0.021-0.112,0.06C43.534,10.057,43.575,10.032,43.609,10.018z"/>
</svg>
