<?xml version="1.0" encoding="iso-8859-1"?>
<!-- Generator: Adobe Illustrator 17.1.0, SVG Export Plug-In . SVG Version: 6.00 Build 0)  -->
<!DOCTYPE svg PUBLIC "-//W3C//DTD SVG 1.1//EN" "http://www.w3.org/Graphics/SVG/1.1/DTD/svg11.dtd">
<svg version="1.1" id="Layer_1" xmlns="http://www.w3.org/2000/svg" xmlns:xlink="http://www.w3.org/1999/xlink" x="0px" y="0px"
	 viewBox="0 0 64 64" style="enable-background:new 0 0 64 64;" xml:space="preserve">
<g>
	<path d="M42.744,32l-1.808,0.032c-0.044-6-6.384-7.398-6.384-7.398c0.273,0.52,0.262,1.094,0.068,1.682L45.383,37.08
		c0.067-0.361,0.114-0.712,0.114-1.029C45.497,34.175,44.264,32,42.744,32z"/>
	<path d="M28.437,32h-1.114c-1.521,0-2.754,1.876-2.754,3.752c0,0.884,0.097,1.885,0.546,2.467C23.251,38.422,22,40.225,22,42.165
		v0.184C22,44.427,23.579,46,25.697,46h17.116L28.72,31.907C28.594,31.962,28.49,32,28.437,32z"/>
	<path d="M38.686,23.103c-0.722,0.282-0.408,1.459,0.323,1.173c1.083-0.424,1.685-1.205,1.275-2.376
		c-0.334-0.954-1.708-2.306-0.664-3.18c0.602-0.504-0.263-1.36-0.86-0.86c-0.843,0.706-0.926,1.679-0.513,2.652
		C38.561,21.254,39.845,22.65,38.686,23.103z"/>
	<path d="M32.928,18.721c0.602-0.504-0.263-1.36-0.86-0.86c-0.843,0.706-0.926,1.679-0.513,2.652c0.315,0.741,1.598,2.137,0.44,2.59
		c-0.15,0.059-0.246,0.161-0.312,0.276l0.815,0.815c0.965-0.438,1.481-1.191,1.095-2.293C33.258,20.946,31.884,19.595,32.928,18.721
		z"/>
	<path d="M35.036,20.216c-0.722,0.354-0.408,1.831,0.323,1.472c1.083-0.531,1.685-1.512,1.275-2.98
		c-0.334-1.197-1.708-2.892-0.664-3.988c0.602-0.632-0.263-1.706-0.86-1.079c-0.843,0.885-0.926,2.106-0.513,3.327
		C34.911,17.897,36.195,19.648,35.036,20.216z"/>
	<path d="M35.308,7.083c-14.014,0-25.375,11.361-25.375,25.375s11.361,25.375,25.375,25.375c14.014,0,25.375-11.361,25.375-25.375
		S49.322,7.083,35.308,7.083z M35.142,52.56c-11.115,0-20.125-9.01-20.125-20.125c0-4.414,1.425-8.493,3.835-11.811l10.782,10.782
		L44.227,46l2.726,2.726C43.635,51.135,39.556,52.56,35.142,52.56z M51.309,44.42l-3.448-3.448l-1.846-1.846l-0.918-0.918
		l-10.94-10.94L23.157,16.268c3.348-2.486,7.494-3.958,11.984-3.958c11.115,0,20.125,9.01,20.125,20.125
		C55.267,36.926,53.795,41.072,51.309,44.42z"/>
</g>
</svg>
