<?xml version="1.0" encoding="utf-8"?>
<!-- Generator: Adobe Illustrator 17.1.0, SVG Export Plug-In . SVG Version: 6.00 Build 0)  -->
<!DOCTYPE svg PUBLIC "-//W3C//DTD SVG 1.1//EN" "http://www.w3.org/Graphics/SVG/1.1/DTD/svg11.dtd">
<svg version="1.1" id="Layer_1" xmlns="http://www.w3.org/2000/svg" xmlns:xlink="http://www.w3.org/1999/xlink" x="0px" y="0px"
	 viewBox="0 0 612 792" enable-background="new 0 0 612 792" xml:space="preserve">
<path d="M530.6,608H357.2c-17.2,0-31.2-14-31.2-31.2l5.3-186.1c0-4,3.4-7.2,7.5-7c21.9,1.5,86.2,0,110.5,0s83.2,1.5,105.2,0
	c4-0.3,7.5,2.9,7.5,7v186.1C561.8,594,547.9,608,530.6,608z"/>
<path d="M251.5,356.5l-4.1,0.1c0,0-0.9-0.1-2.4-0.1c-4.6,0-14.8,0.6-22,5.7c-9.6,6.8,23.7,17.3,23.7,17.3s0.6,0.1,1.3,0.3
	s1.9,0.2,2.6,0l1.3-0.3c0,0,33.3-10.6,23.7-17.4c-7.4-5.2-17.5-5.8-21.9-5.8C252.2,356.5,251.5,356.5,251.5,356.5z"/>
<circle cx="291.4" cy="335.6" r="8.4"/>
<circle cx="205.6" cy="335.6" r="8.4"/>
<path d="M329,345.7c-3.3-1.4-5-3.6-5.8-5.2c-2.8-5.8-0.2-10.6,4.1-15.2c0.8-0.8,1.3-1.7,1.2-2.1c-0.1-0.4-1.1-0.8-2.2-0.9
	s-2.3-0.2-3.4-0.4c-1.1-0.1-2.4,0.5-2.8,1.5c-5.1,13.9-4.6,63.6-4.6,77.5v3.8c0,1.9-13.8,29.5-64.4,29.5h-2.9
	c-45,0-63.6-19.8-68.2-25.6c-0.7-0.9-1.1-2.5-1.1-3.6c0.5-13.2,3.9-82.9-5.1-83.3c-6.1,0-3.9,23.1-3.1,30.1c0.1,1.1-0.6,1.7-1.6,1.3
	l-44.9-17.4c-1-0.4-1.3-1.4-0.6-2.3c6.6-7.9,40.3-42.7,124.5-42.7h2.9c29.3,0,52.5,2.2,70.6,8.2c1,0.3,2,0.3,2.1-0.1s-0.7-1-1.7-1.4
	c-6.6-2.5-11.8-6.2-11.8-13.1s5.1-10.4,11.8-12.9c1-0.4,1.1-1.1,0.2-1.7c-5.9-3.8-10.2-8.2-8.7-14.9c1.5-6.8,7.3-8.8,14.3-9.7
	c1.1-0.1,1.3-0.8,0.6-1.6c-5-5-8.2-10.2-5.2-16.4c1.2-2.4,4.3-6.5,11.9-6.5c1.3,0,2.7,0.1,4.1,0.3c1.1,0.1,1.5-0.5,0.9-1.4
	c-3.7-6-5.7-11.7-1.4-17.1c1.2-1.5,4-4.1,9-4.1c2.4,0,5.1,0.7,8,1.7c1,0.4,1.6-0.2,1.2-1.2c-2.3-6.7-3-12.7,2.4-17
	c1.9-1.5,4.3-2.4,6.9-2.4c3.3,0,6.5,1.4,10.3,3.8c0.9,0.6,1.6,0.2,1.4-0.9c-0.8-7-0.1-13,6.2-16c1.5-0.7,3-1,4.7-1
	c4.4,0,7.9,2.5,11.7,6.3c0.8,0.8,1.5,0.5,1.6-0.6c0.8-6.3,2.5-11.4,7.7-13.5c1-0.4,2-0.6,2.1-0.6s0.2-0.9,0.3-2l1.2-19.3
	c0.2-3.5-1.1-5.5-3.2-5.5c-1.1,0-2.4,0.5-3.8,1.6l-27.9,21.4c-2,1.5-4.4,2.2-6.9,2.2c-2.8,0-5.7-1-7.8-2.9l-24-21.9
	c-2-1.8-4.7-2.8-7.3-2.8c-2.5,0-5.1,0.8-7,2.5l-31.9,27.3c-1.9,1.6-4.2,2.4-6.6,2.4c-2.7,0-5.4-1-7.3-3.1l-28.1-29.3
	c-1.8-1.9-4.2-2.9-6.6-2.9s-4.8,1-6.6,2.9l-28.1,29.3c-1.8,1.9-4.1,2.8-6.4,2.8c-2.4,0-4.8-1-6.6-3l-28.7-32.1
	c-1.8-2.1-4.4-3.1-6.9-3.1c-2.3,0-4.6,0.9-6.4,2.6l-30.9,29.8c-2.2,2.1-5.3,3.2-8.3,3.2c-2.3,0-4.6-0.6-6.5-1.9L74.1,131
	c-1-0.7-1.8-1-2.5-1c-2.4,0-3.2,5.9-1.8,9.8c3.8,10.8,9.3,35,9.5,62.9c0,1.1,0.9,2,2,2h206.4c5.3,0,9.6,4.3,9.6,9.6
	s-4.3,9.6-9.6,9.6H78.1c-0.2,0-0.2-1.9-0.5-0.1c-2.8,22.5-27.7,81.6,1.5,257.7c0.9,5.2,1.4,12.4,1.1,17.7c-0.9,17.3-3.2,53.3-7,73.6
	c-0.6,3.4,0.1,5,1.9,5c1,0,2.2-0.6,3.7-1.7l40.7-28.9c1.8-1.2,3.8-1.9,5.9-1.9c3,0,6,1.3,8,3.7l24.4,29.9c1.7,2.1,3.9,3.1,6.2,3.1
	c2.2,0,4.4-1,6.1-3l25.7-30.2c1.6-1.9,3.7-2.9,5.8-2.9c2.2,0,4.4,1.1,6.1,3.4l23.6,32.5c1.7,2.3,4.1,3.5,6.6,3.5
	c2.1,0,4.1-0.8,5.8-2.5l32.8-32.8c1.8-1.8,4.2-2.7,6.5-2.7c2.5,0,4.9,1,6.8,3l27.6,29c0.7,0.8,1.3,0.6,1.3-0.5v-66.2
	c0-1.1-0.9-2-2-2H172.4c-5.3,0-9.6-4.3-9.6-9.6s4.3-9.6,9.6-9.6h146.5c1.1,0,2-0.9,2-2c0,0,0.9-88.7,1.3-89.7
	c0-41.7,34.8-15.5,34.8-29.9c0.3-1-0.2-1.6-1.2-1.2c-2.9,0.9-5.5,1.1-8,1.1c-5,0-7.8-2.9-9-4.4c-4.5-5.6-2.2-11.7,1.8-17.9"/>
<path d="M438.9,228.8c-5.1,0-10,0.8-14.7,2.1c-1.5,0.5-3.1,1-4.6,1.6s-3,1.3-4.5,2c-16.9,8.7-28.6,26.2-28.6,46.5
	c0,23.9,16.1,44,38,50.2c1.6,0.4,3.2,0.8,4.8,1.1c1.6,0.3,3.2,0.5,4.8,0.7c1.5,0.1,3.1,0.2,4.6,0.2c28.8,0,52.2-23.4,52.2-52.2
	C491.2,252.2,467.7,228.8,438.9,228.8z"/>
<path d="M558.8,256.9c-0.9-4-24.3-1.5-25.7-5.4s18.5-16.5,16.7-20.2c-0.4-0.8-1.6-1-3.3-1c-5.1,0-14.6,2.5-19.7,2.5
	c-1.6,0-2.8-0.2-3.2-0.9c-2.2-3.5,14.3-20.2,11.8-23.4c-0.3-0.4-0.8-0.5-1.5-0.5c-4.8,0-17.7,7.3-22.5,7.3c-0.7,0-1.1-0.1-1.5-0.4
	c-2.9-2.9,9.5-22.9,6.3-25.5c-0.2-0.2-0.5-0.3-0.9-0.3c-4.3,0-17.4,12.3-21.7,12.3c-0.3,0-0.6-0.1-0.8-0.2
	c-3.5-2.2,4.2-24.5,0.5-26.2c-0.2-0.1-0.3-0.1-0.5-0.1c-4.1,0-15.2,16.9-19.3,16.9c-0.1,0-0.3-0.1-0.4-0.1
	c-3.8-1.3-1.4-24.9-5.4-25.8c-0.1,0-0.2-0.3-0.2-0.3c-4,0-11.5,20.3-15.6,20.3h-0.1c-4,0-6.8-23.8-11-23.8c-4.1,0-6.9,23.8-11,23.8
	h-0.1c-2.3,0-5.8-6.7-9.1-12.4c-1.5-2.7-3.1-5.1-4.4-6.5c-0.8-0.8-1.5-1.4-2.1-1.4c-0.1,0-0.2,0.5-0.2,0.6
	c-3.3,0.7-2.3,16.1-3.8,22.7c-0.4,1.5-0.8,2.7-1.5,3c-0.1,0-0.3,0.1-0.4,0.1c-4.1,0-15.2-16.9-19.3-16.9c-0.2,0-0.4,0-0.5,0.1
	c-3.7,1.8,4,24,0.5,26.2c-0.2,0.1-0.5,0.2-0.8,0.2c-4.4,0-17.4-12.3-21.7-12.3c-0.4,0-0.7,0.1-0.9,0.3c-3.2,2.6,9.2,22.6,6.3,25.5
	c-0.3,0.3-0.8,0.4-1.5,0.4c-4.8,0-17.7-7.3-22.5-7.3c-0.7,0-1.2,0.2-1.5,0.5c-2.5,3.2,14,20,11.8,23.4c-0.4,0.7-1.6,0.9-3.2,0.9
	c-5.1,0-14.6-2.5-19.7-2.5c-1.7,0-2.9,0.3-3.3,1c-1.8,3.7,18.1,16.3,16.7,20.2c-1.3,3.8-24.8,1.4-25.7,5.4c-0.9,4,21.3,11.8,20.8,16
	c-0.4,4-23.8,6.8-23.8,11c0,4.1,23.4,6.9,23.8,11c0.2,1.8-4,4.4-8.7,7c-1.8,1-3.6,2-5.4,3c-2,1.1-3.6,2.2-4.8,3.2
	c-0.5,0.4-0.9,0.8-1.2,1.2c-0.6,0.7-0.7,1.5-0.7,1.5s0,0,0,0.1c0.4,1.8,5.3,2.3,10.7,2.6c1.3,0.1,2.6,0.2,3.9,0.3
	c5.4,0.3,10.5,0.8,11.1,2.5c0.2,0.7-0.4,1.8-1.3,3c-1.8,2.4-5.2,5.4-8.5,8.3c-1.6,1.5-3.2,2.9-4.4,4.2c-1.8,2-3,3.7-2.5,4.6
	c0.3,0.6,1.3,0.9,2.6,1c0.3,0,0.4,0.1,0.7,0.1c1.1,0,2.6-0.2,4-0.3c0.8-0.1,1.6-0.2,2.5-0.4c4.7-0.7,9.9-1.8,13.2-1.8
	c1.1,0,1.9,0.2,2.5,0.5c0.3,0.1,0.6,0.2,0.8,0.5c0.6,0.9-0.2,2.8-1.5,5c-3.7,6.3-12.2,16.1-10.3,18.4c0.3,0.4,0.8,0.5,1.5,0.5
	c4.8,0,17.7-7.3,22.5-7.3c0.7,0,1.1,0.1,1.5,0.4c2.9,2.9-9.5,22.9-6.3,25.5c0.2,0.2,0.5,0.3,0.9,0.3c4.3,0,17.4-12.3,21.7-12.3
	c0.3,0,0.6,0,0.8,0.2c1.1,0.7,1.1,3.7,0.6,7.3c-0.1,1.1,0.6,1.9,1.7,1.7c10.3-1.2,21.4-2,33.1-2.5c1.6-0.1,3.2-0.1,4.8-0.2
	c1.6,0,3.2-0.1,4.8-0.1c3.6-0.1,7.2-0.1,10.9-0.1c16.2,0,31.6,0.7,45.8,2.1c1.1,0.1,1.9-0.7,1.7-1.8c-0.4-3.2-0.4-5.7,0.7-6.4
	c0.2-0.1,0.5-0.2,0.8-0.2c3.2,0,11.1,6.6,16.8,10.1c0.9,0.6,2.6,1.1,3.7,1.3c0.1,0,0.1,0,0.2,0c1.1,0.2,2.4-0.5,2.3-1.6
	c-0.5-5.8-9.2-20.8-6.7-23.3c0.3-0.3,0.8-0.4,1.5-0.4c4.8,0,17.7,7.3,22.5,7.3c0.7,0,1.2-0.2,1.5-0.5c2.5-3.2-14-20-11.8-23.4
	c0.4-0.7,1.6-0.9,3.2-0.9c5.1,0,14.6,2.5,19.7,2.5c1.7,0,2.9-0.3,3.3-1c1.8-3.7-18.1-16.3-16.7-20.2c1.3-3.8,24.8-1.4,25.7-5.4
	s-21.3-11.8-20.8-16c0.4-4,23.8-6.8,23.8-11s-23.4-7-23.8-11C537.5,268.8,559.7,260.9,558.8,256.9z M438.9,344.9
	c-1.5,0-3-0.1-4.5-0.2c-1.6-0.1-3.2-0.3-4.8-0.5c-1.6-0.2-3.2-0.5-4.8-0.9c-28.5-6.4-49.8-31.9-49.8-62.3c0-26,15.6-48.3,37.9-58.3
	c1.5-0.7,3-1.2,4.5-1.8c1.5-0.5,3-1,4.6-1.5c5.4-1.5,11-2.3,16.9-2.3c35.2,0,63.9,28.7,63.9,63.9S474.1,344.9,438.9,344.9z"/>
<path fill="#FFFFFF" d="M489.7,521.5c-6.5,0-15.7-4.7-15.8-4.6l-37.5,16.4c-1.2,0.5-1.8,4.1-2.1,5.1c-0.9,2.5-1.8,5-3.3,7.3
	c-1.5,2.2-3.5,4-6,5c-3.5,1.3-7.4,0.7-10.8-0.6c-3.2-1.2-6.2-3.1-8.6-5.7c-4-4.4-5.5-10.8-3.7-16.4c0.3-1.1-0.1-2.1-1.1-2.6
	c-3.8-1.7-7.1-5-8.9-8.9c-3.4-7.5-1.4-17.7,6-22c3.5-2.1,7.9-2.6,11.8-1.5c2,0.5,3.6,1.5,5.3,2.6c1.2,0.7,4.9,1.7,4.9,1.7l37.3-16.5
	c1.3-0.6,2.9-13.6,10.6-17c1.8-0.8,3.6-1.2,5.6-1.2c7.3,0,14.9,5.2,18,11.8c1.8,3.9,1.9,8.1,0.7,11.8c-0.3,1,0.1,2.1,1.1,2.6
	c3.8,1.8,7.2,5.3,9,9.2c3.8,8.4,0.3,19-8.2,22.8C492.6,521.3,491.2,521.5,489.7,521.5z"/>
</svg>
