<?xml version="1.0" encoding="iso-8859-1"?>
<!-- Generator: Adobe Illustrator 17.1.0, SVG Export Plug-In . SVG Version: 6.00 Build 0)  -->
<!DOCTYPE svg PUBLIC "-//W3C//DTD SVG 1.1//EN" "http://www.w3.org/Graphics/SVG/1.1/DTD/svg11.dtd">
<svg version="1.1" id="Layer_1" xmlns="http://www.w3.org/2000/svg" xmlns:xlink="http://www.w3.org/1999/xlink" x="0px" y="0px"
	 viewBox="0 0 64 64" style="enable-background:new 0 0 64 64;" xml:space="preserve">
<path d="M10.567,45.403c1.548,0,17.26,0.697,25.851,0.542c8.591-0.155,28.173-0.077,22.29-7.972c0,0-2.698-3.101-4.953-6.966
	c-2.305-3.95-7.275-9.675-12.151-8.127C38.275,22.029,31,19.552,23.492,26.982c0,0-3.792-4.179-6.114-4.566
	c0,0-0.851-3.406-2.167-3.406c-1.316,0-2.322,2.322-2.322,2.554c0,0.232-1.703,0.464-2.167,0.077
	c-0.464-0.387-3.018-3.096-4.489-2.632c-0.337,0.226,1.161,3.173,1.161,3.173s0.544,1.087-1.2,3.251
	c-0.698,0.841-0.697,4.528-0.619,4.799s-0.697,0.89,0.116,1.935c-0.039,1.2,0.664,1.855,1.438,1.932c0,0,0.032,6.117,2.277,8.052
	c0,0-5.031-0.542-5.031,1.858C4.375,46.409,9.019,45.403,10.567,45.403z"/>
</svg>
