<?xml version="1.0" encoding="iso-8859-1"?>
<!-- Generator: Adobe Illustrator 17.1.0, SVG Export Plug-In . SVG Version: 6.00 Build 0)  -->
<!DOCTYPE svg PUBLIC "-//W3C//DTD SVG 1.1//EN" "http://www.w3.org/Graphics/SVG/1.1/DTD/svg11.dtd">
<svg version="1.1" id="Layer_1" xmlns="http://www.w3.org/2000/svg" xmlns:xlink="http://www.w3.org/1999/xlink" x="0px" y="0px"
	 viewBox="0 0 64 64" style="enable-background:new 0 0 64 64;" xml:space="preserve">
<g>
	<path d="M10.544,40.853c4.313,1.277,8.628-0.231,10.204-3.386l6.755,0.556l0.926,13.201c0.959,5.817,7.517,4.309,7.517,4.309
		l-0.857-16.914l8.868,0.47c-3.112-1.627-5.521-4.41-6.659-7.779l-2.88-0.202l-0.555-6.756c3.155-1.576,4.665-5.893,3.389-10.206
		c-1.399-4.726-5.607-7.648-9.399-6.526c-3.792,1.122-5.733,5.864-4.334,10.59c0.681,2.302,2.032,4.171,3.674,5.358l0.737,7.892
		L20,30.76c-1.187-1.642-3.075-2.973-5.377-3.655c-4.726-1.399-9.477,0.551-10.6,4.343C2.901,35.241,5.818,39.454,10.544,40.853z
		 M27.135,16.947c-0.628-2.502,0.329-4.898,2.138-5.353c1.809-0.454,3.785,1.206,4.413,3.708c0.628,2.502-0.329,4.898-2.138,5.353
		C29.739,21.108,27.763,19.448,27.135,16.947z M7.988,32.879c0.454-1.809,2.851-2.766,5.353-2.138
		c2.502,0.628,4.162,2.604,3.708,4.413c-0.454,1.809-2.851,2.766-5.353,2.138C9.194,36.664,7.534,34.688,7.988,32.879z"/>
	<path d="M50.283,15.35c-6.398,0-11.584,5.186-11.584,11.584c0,1.611,0.33,3.145,0.925,4.539c1.766,4.141,5.873,7.045,10.659,7.045
		c0.623,0,1.23-0.063,1.827-0.158c5.527-0.878,9.757-5.652,9.757-11.426C61.867,20.536,56.681,15.35,50.283,15.35z M55.075,27.262
		c0,0,0.253-1.828-0.169-1.828c-0.569,0.021-0.295,4.769-0.295,5.001c0,0-0.97,1.565-4.092,1.565H50.35
		c-3.122,0-4.092-1.551-4.092-1.551c0-0.232,0.274-5.095-0.295-5.116c-0.422,0-0.169,1.884-0.169,1.884l-2.869-1.293
		c0,0,1.814-2.924,7.425-2.924h0.169c5.611,0,7.425,2.926,7.425,2.926L55.075,27.262z"/>
	<circle cx="47.83" cy="26.307" r="0.496"/>
	<circle cx="52.892" cy="26.307" r="0.496"/>
	<path d="M51.957,27.878c-0.569-0.401-1.421-0.339-1.421-0.339l-0.241,0.004c0,0-0.873-0.066-1.442,0.335s1.399,1.022,1.399,1.022
		l0.151,0.039l0.157-0.036C50.56,28.904,52.527,28.279,51.957,27.878z"/>
</g>
</svg>
