<?xml version="1.0" encoding="iso-8859-1"?>
<!-- Generator: Adobe Illustrator 17.1.0, SVG Export Plug-In . SVG Version: 6.00 Build 0)  -->
<!DOCTYPE svg PUBLIC "-//W3C//DTD SVG 1.1//EN" "http://www.w3.org/Graphics/SVG/1.1/DTD/svg11.dtd">
<svg version="1.1" id="Layer_1" xmlns="http://www.w3.org/2000/svg" xmlns:xlink="http://www.w3.org/1999/xlink" x="0px" y="0px"
	 viewBox="0 0 64 64" style="enable-background:new 0 0 64 64;" xml:space="preserve">
<path d="M60.333,14.294l-6.342-0.018c0,0,0.285-2.851-2.423-3.563c0,0-1.853-2.708-5.416-1.425c0,0-3.991-2.565-5.416,0.998
	c0,0-4.561,1.283-3.421,3.991c0,0-2.138,0.143-1.995,1.853c0,0-2.851-3.706-4.988,0c0,0-3.563-2.423-4.561,0.57
	c0,0-2.565,0.143-1.995,1.995c0,0-2.28,1.14-0.998,2.565c0,0-1.638,0.713-0.391,2.851c0,0-1.889-0.855-1.319,1.71
	c0,0-3.421-0.285-3.706,1.71l-1.71-0.998c0,0,2.708-0.855,1.995-2.993c0,0-0.285-2.708-1.995-2.993c0,0-2.708-2.708-4.846-0.713
	c0,0-3.563,0.855-2.565,3.136c0,0-0.855,3.706,1.853,4.561c0,0,1.853,2.423,3.706,0.713l1.283,1.568c0,0-2.28,0.57-1.995,3.848
	c0,0-1.568,1.568-0.57,3.278c0,0-0.143,3.278,2.138,3.706c0,0-0.143,0.285-0.143,1.283c0,0-3.563-1.283-3.278,1.283
	c0,0-2.423,2.708,1.853,4.133c0,0,0.428,0.871-0.713,1.077c0,0-3.349-0.614-3.136,2.166c0,0-0.962,1.71,0.641,3.1
	c0,0,1.603,1.603,3.207,3.1c1.603,1.497,5.772-0.214,2.459-2.459c0,0,1.39-0.534,1.176-2.779c0,0,1.39,0.962,4.596,1.283
	s1.603-1.71,0.321-2.352c0,0,1.176-4.169-1.603-4.596c0,0,4.062-1.069,4.596-4.81c0,0,8.765,3.314,13.469,2.779
	c0,0,0.891,1.603-0.784,2.993c0,0-1.782,0.962-0.926,2.672c0,0-0.855,1.069,0.321,2.779c0,0,0.534,2.245,2.245,3.314
	c0,0,0.723,0.55,2.754,2.474c2.031,1.924,4.408,0.519,4.515-0.337s-1.425-2.174-2.28-2.494c-0.855-0.321,0.546-0.792,0.974-0.044
	c0.428,0.748,2.677,2.792,4.5,1.958c2.125-1.208-1.667-3.042-1.667-3.042s-1.384-0.868-0.387-1.723s0.57-7.554-2.637-7.411
	c0,0-0.356-1.497,1.853-1.568c2.209-0.071,5.095-3.207,5.095-7.59c0,0,5.024,0.748,5.665-1.176c0,0,1.283-0.534,1.176-1.924
	c0,0,0.855-2.565-0.534-3.848c0,0,1.176-2.565-1.817-3.741c0,0-1.176-2.459-3.421-2.138c0,0,0-1.924,2.138-1.924
	c0,0,4.596,0.428,4.596-1.603c0,0,1.397-1.541,2.459-2.779C61.937,16.699,63.781,14.375,60.333,14.294z"/>
</svg>
