<?xml version="1.0" encoding="iso-8859-1"?>
<!-- Generator: Adobe Illustrator 17.1.0, SVG Export Plug-In . SVG Version: 6.00 Build 0)  -->
<!DOCTYPE svg PUBLIC "-//W3C//DTD SVG 1.1//EN" "http://www.w3.org/Graphics/SVG/1.1/DTD/svg11.dtd">
<svg version="1.1" id="Layer_1" xmlns="http://www.w3.org/2000/svg" xmlns:xlink="http://www.w3.org/1999/xlink" x="0px" y="0px"
	 viewBox="0 0 64 64" style="enable-background:new 0 0 64 64;" xml:space="preserve">
<path d="M21.279,54.255c0.94-0.529,2.997-1.175,3.614-0.235c0.617,0.94,4.642,10.401,16.042,4.936
	c7.992-4.055,1.293-7.228,1.293-7.228S45.9,45.5,41.493,34.57s-5.465-15.689-3.261-21.154c2.204-5.465-2.086-10.606-6.111-11.87
	c0,0,1.645,1.763,1.41,4.348c-7.022-0.617-4.877,3.349-8.227,5.876c1.087,3.232,2.967,2.204,4.407,2.35
	c1.44,0.147,4.907-0.176,1.645,8.55c-3.261,8.726-11.194,16.042-7.668,28.294c0,0-5.23-0.588-5.23,3.232s2.615,3.203,2.879,1.969
	C21.485,55.519,20.339,54.784,21.279,54.255z M41.052,53.984c0.397-1.476,1.388,2.137-1.234,2.137
	C39.818,56.121,40.656,55.46,41.052,53.984z"/>
</svg>
