<?xml version="1.0" encoding="iso-8859-1"?>
<!-- Generator: Adobe Illustrator 17.1.0, SVG Export Plug-In . SVG Version: 6.00 Build 0)  -->
<!DOCTYPE svg PUBLIC "-//W3C//DTD SVG 1.1//EN" "http://www.w3.org/Graphics/SVG/1.1/DTD/svg11.dtd">
<svg version="1.1" id="Layer_1" xmlns="http://www.w3.org/2000/svg" xmlns:xlink="http://www.w3.org/1999/xlink" x="0px" y="0px"
	 viewBox="0 0 64 64" style="enable-background:new 0 0 64 64;" xml:space="preserve">
<path d="M4.32,55.055C4.146,55.579,4.44,56,4.992,56H9c0.552,0,1.007-0.48,0.699-0.938C9.403,54.621,8.82,54.159,7.667,54
	c-1.167-4.167,1.255-5.033,5.083-7.167c-0.083,1.917,2.083,2.5,4.167,2.917s3.233,1.919,3.5,3.5c0.365,2.156,2.25,1.667,3.167,1.667
	c0.917,0,1.263-3.881,0-4.75c-0.667-0.458-5.667-0.5-7-4.25c-1.333-3.75,2.583-6,3.833-6.083c1.25-0.083,9.417,6.083,15.417,2.5
	c1.675-0.811,1.667,4.125,0.958,5.167c-0.708,1.042-0.223,2.5,0.451,3.75c0.674,1.25-0.034,5.083,0.424,5.375
	c0.344,0.219,4.054,0.109,5.876,0.041c0.552-0.021,0.914-0.493,0.628-0.965c-0.415-0.685-1.259-1.452-2.921-1.159
	C39,53.917,40.333,48,40.5,46.833c0.167-1.167,2.083-5.5,2.083-6.5s0.667,1.88,7.667-3.352c3.083-1.231,3.5,0.935,4.333,1.435
	c0.656,0.393,3.477,0.838,4.732,0.239c0.498-0.238,0.223-0.98-0.201-1.334c-2.541-2.118-3.849-5.436-5.364-4.072
	c-1.667,1.5-8.083,2.833-10.5,0.667c-1.333-1.167,3.833-11.75,4.583-12.083c0.75-0.333,11.333-0.167,12.083-4.625
	s1.25-6.292-2.25-5.708c-6.5,0.583-6.5-5.083-14.417-3.667c0,0-3.083-1.833-4.583-0.833c-1.099,0.733-2.96,3.435-3.875,4.827
	c-0.304,0.461-0.152,1.06,0.329,1.333l3.546,2.007c0,0,1.167,4-0.667,6.417s-8.5,7.917-20.167,6c0,0-4-0.333-5.833,0.75
	c0,0-6.083-1.167-7.417-11.125c0,0-3.5,7.896,4.917,13.812c0,0-1.875,2.365-1.208,6.865c0.667,4.5-1.063,6.891-2.646,7.807
	C4.12,46.576,7.011,46.971,4.32,55.055z"/>
</svg>
