<?xml version="1.0" encoding="iso-8859-1"?>
<!-- Generator: Adobe Illustrator 17.1.0, SVG Export Plug-In . SVG Version: 6.00 Build 0)  -->
<!DOCTYPE svg PUBLIC "-//W3C//DTD SVG 1.1//EN" "http://www.w3.org/Graphics/SVG/1.1/DTD/svg11.dtd">
<svg version="1.1" id="Layer_1" xmlns="http://www.w3.org/2000/svg" xmlns:xlink="http://www.w3.org/1999/xlink" x="0px" y="0px"
	 viewBox="0 0 64 64" style="enable-background:new 0 0 64 64;" xml:space="preserve">
<path d="M12.442,38.321c0,0-2.003,3.551-2.003,5.554c0,2.003,1.32,2.959,3.369,2.914c0,0,0.774-1.138-0.956-1.639
	s2.231-3.642,3.369-3.961c1.138-0.319,0.956,6.374,4.735,6.374s1.912-2.003,0.728-2.276c-1.184-0.273-3.733-2.14,0.364-4.416
	c4.097-2.276,4.234-4.598,10.243-1.821c3.232,1.821,6.692,1.821,7.239,1.684c0.546-0.137,1.093,3.141,0.774,4.507
	s3.87,3.505,4.507,1.457c0,0,0.182-0.956-1.776-1.229c-1.958-0.273-0.182-2.049,0.182-2.276c0.364-0.228,0.819,2.823,4.188,2.823
	c2.732-1.776-4.37-3.733-2.003-5.691c2.367-1.958,4.871-4.143,4.234-9.879c-0.091-3.278,3.733-3.642,4.097-3.46
	c0.364,0.182,5.554,0.728,5.645-1.639s-2.094-1.002-5.645-4.917s-8.65,0.637-10.016,1.457c-1.366,0.819-4.279,4.188-8.377,2.914
	c-1.998,0.577-1.093,3.096,1.093,3.187s-2.276,2.458-8.195,1.275c-5.918-1.184-13.02,1.639-14.932,5.463
	c-1.912,3.824-8.013,7.011-9.151,6.601C4.156,41.325,8.618,43.283,12.442,38.321z"/>
</svg>
