<?xml version="1.0" encoding="iso-8859-1"?>
<!-- Generator: Adobe Illustrator 17.1.0, SVG Export Plug-In . SVG Version: 6.00 Build 0)  -->
<!DOCTYPE svg PUBLIC "-//W3C//DTD SVG 1.1//EN" "http://www.w3.org/Graphics/SVG/1.1/DTD/svg11.dtd">
<svg version="1.1" id="Layer_1" xmlns="http://www.w3.org/2000/svg" xmlns:xlink="http://www.w3.org/1999/xlink" x="0px" y="0px"
	 viewBox="0 0 64 64" style="enable-background:new 0 0 64 64;" xml:space="preserve">
<path d="M57.018,29.46c-4.044,9.614-8.785,9.78-8.785,9.78c-2.884-2.586-11.139-15.216-12.034-17.106
	c-0.895-1.89-2.387-11.686-1.591-11.586c0.796,0.099,1.044,3.033,1.044,3.033c0.646-0.298,4.127-2.635,4.127-2.635
	c-3.829-7.061-6.697-3.829-6.697-3.829s-1.193-2.718-3.448-2.321c-6.962,1.658-6.63-0.729-7.691-0.928s-3.713,1.459-1.591,5.835
	c2.122,4.376,7.028,3.381,8.686,7.625c1.658,4.243-1.525,5.304-1.79,5.304s-3.116-2.652-3.713-4.177
	c-0.54-1.379-2.055-0.427-5.037-0.085c-0.549,0.063-0.751,0.465-0.351,0.845c2.068,1.962,4.474,0.969,4.474,0.969
	s1.825,1.582,2.222,2.909c-4.575,1.459-8.735-3.776-8.735-3.776c-1.061-0.893-3.203,0.141-5.041,0.49
	c-0.543,0.103-0.814,0.525-0.465,0.953c1.736,2.128,5.062,1.53,5.24,1.541c0.487,0.03,2.634-0.476,4.774,2.52
	c2.652,3.713,5.768,2.387,5.768,2.387c-2.321,9.813,4.641,10.095,6.581,10.99s9.498,3.879,8.006,4.873
	c-6.116,4.674-2.934,6.763-2.337,7.21s3.182,0.497,3.332,2.735c0.149,2.238-2.138,5.818-2.984,5.669s-1.094-1.542-2.238,0.199
	c-1.144,1.74,0.895,1.641,2.188,2.039s2.735,0.298,2.834-2.138c3.58,1.044,4.823,0.348,5.022-0.945
	c0.199-1.293,1.79-4.277,2.685-5.072c0.895-0.796,1.691-1.84,1.343-2.138s-3.531-3.182-2.785-4.326
	c1.939-1.591,1.293-4.774,1.293-4.774C56.223,37.947,57.018,29.46,57.018,29.46z M47.172,53.362
	c-0.181,0.765-1.788,4.231-2.451,3.718c-1.421-0.954-1.843-0.469-1.759-0.801c0.144-0.569,2.586-3.05,2.652-3.746
	c0.066-0.696-2.287-1.16-3.149-2.453s1.392-2.155,1.392-2.155s0.119-0.073,0.133,0c0.097,0.523,1.16,1.79,2.553,2.553
	C47.935,51.24,47.409,52.361,47.172,53.362z"/>
</svg>
