<?xml version="1.0" encoding="iso-8859-1"?>
<!-- Generator: Adobe Illustrator 17.1.0, SVG Export Plug-In . SVG Version: 6.00 Build 0)  -->
<!DOCTYPE svg PUBLIC "-//W3C//DTD SVG 1.1//EN" "http://www.w3.org/Graphics/SVG/1.1/DTD/svg11.dtd">
<svg version="1.1" id="Layer_1" xmlns="http://www.w3.org/2000/svg" xmlns:xlink="http://www.w3.org/1999/xlink" x="0px" y="0px"
	 viewBox="0 0 64 64" style="enable-background:new 0 0 64 64;" xml:space="preserve">
<path d="M50.162,17.123c-3.21,4.028-8.841,9.141-16.803,9.141c-8.953,0-14.387-5.455-16.94-8.926
	c-2.812,3.629-4.502,8.17-4.502,13.116c0,4.727,1.547,9.082,4.137,12.628c2.371-3.412,7.883-9.443,17.306-9.443
	c8.286,0,14.057,5.54,17.191,9.628c2.673-3.578,4.275-8.003,4.275-12.813C54.825,25.412,53.074,20.785,50.162,17.123z"/>
<path d="M18.71,14.821c2.698,3.348,7.447,7.42,14.661,7.42c6.358,0,11.116-3.981,14.236-7.807C43.818,11.064,38.841,9,33.371,9
	C27.694,9,22.547,11.221,18.71,14.821z"/>
<path d="M33.371,37.662c-7.634,0-12.527,4.567-15.128,8.002c3.879,3.858,9.224,6.245,15.128,6.245c5.696,0,10.86-2.235,14.701-5.857
	C44.971,42.058,40.053,37.662,33.371,37.662z"/>
</svg>
