<?xml version="1.0" encoding="iso-8859-1"?>
<!-- Generator: Adobe Illustrator 17.1.0, SVG Export Plug-In . SVG Version: 6.00 Build 0)  -->
<!DOCTYPE svg PUBLIC "-//W3C//DTD SVG 1.1//EN" "http://www.w3.org/Graphics/SVG/1.1/DTD/svg11.dtd">
<svg version="1.1" id="Layer_1" xmlns="http://www.w3.org/2000/svg" xmlns:xlink="http://www.w3.org/1999/xlink" x="0px" y="0px"
	 viewBox="0 0 64 64" style="enable-background:new 0 0 64 64;" xml:space="preserve">
<path d="M33.5,5.542c-0.999,0-1.5,0.604-1.5,1.348v0.033C28,7.656,24.814,11,24.45,15h-1.317c-1.383,0-2.505,1.164-2.505,2.5
	c0,1.336,1.121,2.5,2.505,2.5h20.038c1.383,0,2.505-1.164,2.505-2.5c0-1.336-1.122-2.5-2.505-2.5h-1.266C41.551,11,39,7.831,35,6.99
	v-0.1C35,6.145,34.499,5.542,33.5,5.542z"/>
<path d="M19.048,30h-0.41C17.094,30,17,31.23,17,32.135v0.353C17,33.392,17.733,34,18.638,34h0.285C19.613,36,22,38.153,24,38.198
	V51.06c-1,0-2,0.522-2,1.913v0.408c0,1.39,0,2.62,2.237,2.62c0.02,0,17.731,0,17.731,0h0.433C44.979,56,45,54.64,45,53.38v-0.408
	c0-1.259-1-1.802-3-1.894V38.198c0,0,0.267-0.053,0.301-0.053c2.581,0,4.936-2.145,5.635-4.145h0.084c0.905,0,1.98-0.608,1.98-1.512
	v-0.353C50,31.23,50,30,48.02,30h-0.209c-0.816-2-3.077-3.431-5.51-3.431c-0.035,0-0.301,0.086-0.301,0.086V23.24
	c0-1.336-0.682-2.24-2.018-2.24H26.677C25.34,21,24,21.904,24,23.24v3.588C22,26.871,19.853,28,19.048,30z M33.178,24.6
	c4.342,0,7.862,3.52,7.862,7.862c0,4.342-3.52,7.862-7.862,7.862c-4.342,0-7.862-3.52-7.862-7.862
	C25.316,28.12,28.836,24.6,33.178,24.6z"/>
<path d="M33.254,38.359c3.257,0,5.897-2.64,5.897-5.897c0-3.257-2.64-5.897-5.897-5.897c-3.257,0-5.897,2.64-5.897,5.897
	C27.357,35.719,29.997,38.359,33.254,38.359z M33.065,30.346c1.19,0,2.155,0.965,2.155,2.155c0,1.19-0.965,2.155-2.155,2.155
	c-1.19,0-2.155-0.965-2.155-2.155C30.91,31.31,31.875,30.346,33.065,30.346z"/>
</svg>
