<?xml version="1.0" encoding="iso-8859-1"?>
<!-- Generator: Adobe Illustrator 17.1.0, SVG Export Plug-In . SVG Version: 6.00 Build 0)  -->
<!DOCTYPE svg PUBLIC "-//W3C//DTD SVG 1.1//EN" "http://www.w3.org/Graphics/SVG/1.1/DTD/svg11.dtd">
<svg version="1.1" id="Layer_1" xmlns="http://www.w3.org/2000/svg" xmlns:xlink="http://www.w3.org/1999/xlink" x="0px" y="0px"
	 viewBox="0 0 64 64" style="enable-background:new 0 0 64 64;" xml:space="preserve">
<g>
	<path d="M26,8h4v2h-4v28.335l0.564,0.807l3.176,4.228L32,46.06V59h1V46.264l2.937-3.17l3.656-4.219L40,38.335V26.201
		c-0.707-0.358-1.375-0.779-2-1.256V35H28v-5.11c1,0.201,3.479,0.174,4.893,0.168c1.241-0.005,1.399-1.783,0.158-1.778
		C31.641,28.286,29,28.344,28,28.089v-3.54c1,0.182,2.999,0.178,4.171,0.175c1.241-0.003,1.083-1.781-0.158-1.778
		c-1.163,0.003-3.094,0.05-4.235-0.19c-0.006-0.001,0.222,0.001,0.222,0v-3.318c1,0.299,4.047,0.318,5.735,0.12
		c0.043-0.005,0.075-0.026,0.116-0.035c-0.22-0.545-0.398-1.11-0.542-1.688c-1.761,0.14-4.413,0.114-5.308-0.205V13h5.036
		c0.5-3.746,2.605-6.989,5.611-9H26V8z"/>
	<path d="M36,9.986c-0.454,0.938-0.775,1.949-0.943,3.014c-0.088,0.559-0.147,1.127-0.147,1.711c0,2.953,1.181,5.628,3.091,7.588
		c0.599,0.614,1.271,1.153,2,1.613c1.678,1.058,3.659,1.68,5.789,1.68c6.009,0,10.88-4.871,10.88-10.88
		c0-6.009-4.871-10.88-10.88-10.88c-2.13,0-4.111,0.621-5.789,1.68C38.941,6.178,38.007,7.019,37.236,8
		C36.755,8.612,36.342,9.278,36,9.986z M40,12.645C41.036,11.88,42.875,11,45.853,11h0.159c5.27,0,6.974,2.756,6.974,2.756
		l-2.694,1.326c0,0,0.238-1.647-0.158-1.647c-0.535,0.02-0.277,4.612-0.277,4.83c0,0-0.911,1.736-3.843,1.736h-0.159
		c-2.932,0-3.843-1.723-3.843-1.723c0-0.218,0.258-5.052-0.277-5.072c-0.396,0-0.158,1.768-0.158,1.768L40,14.261l-1.121-0.507
		C38.879,13.754,39.203,13.233,40,12.645z"/>
	<path d="M45.76,16.557l0.142,0.037l0.148-0.033c0,0,1.847-0.587,1.312-0.963s-1.334-0.318-1.334-0.318l-0.227,0.004
		c0,0-0.82-0.062-1.355,0.315S45.76,16.557,45.76,16.557z"/>
	<circle cx="48.24" cy="14.122" r="0.466"/>
	<circle cx="43.485" cy="14.122" r="0.466"/>
</g>
</svg>
