<?xml version="1.0" encoding="iso-8859-1"?>
<!-- Generator: Adobe Illustrator 17.1.0, SVG Export Plug-In . SVG Version: 6.00 Build 0)  -->
<!DOCTYPE svg PUBLIC "-//W3C//DTD SVG 1.1//EN" "http://www.w3.org/Graphics/SVG/1.1/DTD/svg11.dtd">
<svg version="1.1" id="Layer_1" xmlns="http://www.w3.org/2000/svg" xmlns:xlink="http://www.w3.org/1999/xlink" x="0px" y="0px"
	 viewBox="0 0 64 64" style="enable-background:new 0 0 64 64;" xml:space="preserve">
<g>
	<path d="M34,59V46.264l2.937-3.17l3.656-4.219L41,38.335V26.201c-0.707-0.358-1.375-0.779-2-1.256V35H29v-5.11
		c1,0.201,3.479,0.174,4.893,0.168c1.241-0.005,1.399-1.783,0.158-1.778C32.641,28.286,30,28.344,29,28.089v-3.54
		c1,0.182,2.999,0.178,4.171,0.175c1.241-0.003,1.083-1.781-0.158-1.778c-1.163,0.003-3.094,0.05-4.235-0.19
		c-0.006-0.001,0.222,0.001,0.222,0v-3.318c1,0.299,4.047,0.318,5.735,0.12c0.043-0.005,0.075-0.026,0.116-0.035
		c-0.22-0.545-0.398-1.11-0.542-1.688c-1.761,0.14-4.413,0.114-5.308-0.205V13h5.036c0.5-3.746,2.605-6.989,5.611-9H27v4h4v2h-4
		v28.335l0.564,0.807l3.176,4.228L33,46.06V59H34z"/>
	<circle cx="49.157" cy="15.804" r="0.744"/>
	<circle cx="44.497" cy="15.804" r="0.744"/>
	<path d="M46.789,25.591c6.009,0,10.88-4.871,10.88-10.88c0-6.009-4.871-10.88-10.88-10.88c-2.13,0-4.111,0.621-5.789,1.68
		C39.941,6.178,39.007,7.019,38.236,8C37.755,8.612,37.342,9.278,37,9.986c-0.454,0.938-0.775,1.949-0.943,3.014
		c-0.088,0.559-0.147,1.127-0.147,1.711c0,2.953,1.181,5.628,3.091,7.588c0.599,0.614,1.271,1.153,2,1.613
		C42.678,24.969,44.659,25.591,46.789,25.591z M40.182,17.983L41,17.684l1.081-0.395C42.038,17.224,41.995,17,41.995,17H41h-1v-2h1
		h0.736c0,0-0.063-0.815,0.605-1.224c0.132-0.193-0.775-3.49,0.195-3.835c0.777-0.302,2.958,1.921,2.958,1.921S46.363,12,46.665,12
		h0.248c0.302,0,1.17-0.272,1.17-0.272s2.182-1.99,2.958-1.688c0.971,0.345,0.063,3.726,0.196,3.919
		C51.906,14.368,51.843,15,51.843,15H54v2h-2.416c0,0-0.043,0.226-0.086,0.291l1.899,0.61l-0.324,0.906l-2.209-0.933
		c0,0-1.34,1.127-3.951,1.127h-0.248c-2.61,0-3.951-1.133-3.951-1.133L41,18.714l-0.494,0.244L40.182,17.983z"/>
</g>
</svg>
