<?xml version="1.0" encoding="iso-8859-1"?>
<!-- Generator: Adobe Illustrator 17.1.0, SVG Export Plug-In . SVG Version: 6.00 Build 0)  -->
<!DOCTYPE svg PUBLIC "-//W3C//DTD SVG 1.1//EN" "http://www.w3.org/Graphics/SVG/1.1/DTD/svg11.dtd">
<svg version="1.1" id="Layer_1" xmlns="http://www.w3.org/2000/svg" xmlns:xlink="http://www.w3.org/1999/xlink" x="0px" y="0px"
	 viewBox="0 0 64 64" style="enable-background:new 0 0 64 64;" xml:space="preserve">
<path d="M60.852,59.619c-1.866-1.086-6.07-1.606-14.099-1.606c-8.03,0-16.91,2.598-16.107-5.526
	c0.803-8.124-0.476-15.479-11.903-26.451c-5.668-5.574-0.661-9.541-0.661-14.076s-2.425-8.912-6.077-9.793
	c0,0,1.008,0.63,1.26,4.283c-2.787-0.157-5.574,0.504-6.991,4.471c-2.409,2.315-1.37,2.173-0.378,3.259
	c2.267,2.551,5.81-1.086,5.81,2.976s-0.85,6.755-2.976,11.572c-2.126,4.818,1.134,11.006,1.511,12.328s3.873,6.707,1.417,17.571
	c-2.267-3.842-4.22-1.512-4.22-0.252c0,2.33,3.401,4.786,6.109,1.134c0,0,0.598,1.008,2.519,1.008s5.385,0.031,8.754,0.504
	c3.369,0.472,5.92-0.567,5.983-1.228c0.063-0.661,0.787,1.582,7.18,1.578c6.392-0.004,18.925-2.46,21.444-0.318
	C61.584,63.044,62.718,60.706,60.852,59.619z M14.208,58.249c-0.409,0.945,0.252-6.959,1.575-8.471c0,0,2.047,3.401,5.763,7.18
	C18.302,56.014,14.618,57.305,14.208,58.249z"/>
</svg>
