<?xml version="1.0" encoding="iso-8859-1"?>
<!-- Generator: Adobe Illustrator 17.1.0, SVG Export Plug-In . SVG Version: 6.00 Build 0)  -->
<!DOCTYPE svg PUBLIC "-//W3C//DTD SVG 1.1//EN" "http://www.w3.org/Graphics/SVG/1.1/DTD/svg11.dtd">
<svg version="1.1" id="Layer_1" xmlns="http://www.w3.org/2000/svg" xmlns:xlink="http://www.w3.org/1999/xlink" x="0px" y="0px"
	 viewBox="0 0 64 64" style="enable-background:new 0 0 64 64;" xml:space="preserve">
<path d="M48.687,15.375c-6.248,0-11.312,5.065-11.312,11.312c0,3.836,1.914,7.22,4.834,9.265c-3.981,0.902-7.555,2.359-6.838,4.963
	c0.748,2.719,3.759,2.006,1.899,6.216c-1.252,2.833-4.882,2.471-7.139,1.926c-0.822-0.199-5.596-1.975-3.536-3.445
	c2.292-1.635,5.54-2.135,7.027-4.746c3.182-5.585-8.178-3.46-9.805-3.008c-7.122,1.978-13.619,5.48-20.457,8.178
	c-1.185,0.468-0.669,2.402,0.532,1.929c6.559-2.587,12.816-5.785,19.566-7.913c1.75-0.552,3.547-1.01,5.37-1.237
	c2.548-0.317,3.826,1.101,1.212,2.713c-2.097,1.293-5.182,1.92-6.221,4.387c-0.919,2.182,3.148,4.064,4.416,4.549
	c4.014,1.536,8.127,1.38,10.762-2.323c0.645-0.906,1.217-3.091,0.843-4.157c-0.645-1.838-3.493-3.69-0.539-4.838
	c2.021-0.785,4.142-1.215,6.276-1.59C46.566,37.839,47.607,38,48.687,38C54.935,38,60,32.935,60,26.688
	C60,20.44,54.935,15.375,48.687,15.375z"/>
</svg>
