<?xml version="1.0" encoding="iso-8859-1"?>
<!-- Generator: Adobe Illustrator 17.1.0, SVG Export Plug-In . SVG Version: 6.00 Build 0)  -->
<!DOCTYPE svg PUBLIC "-//W3C//DTD SVG 1.1//EN" "http://www.w3.org/Graphics/SVG/1.1/DTD/svg11.dtd">
<svg version="1.1" id="Layer_1" xmlns="http://www.w3.org/2000/svg" xmlns:xlink="http://www.w3.org/1999/xlink" x="0px" y="0px"
	 viewBox="0 0 64 64" style="enable-background:new 0 0 64 64;" xml:space="preserve">
<path d="M13.226,31.464c0,0-0.927,13.216-2.705,18.394c-1.778,5.178-0.541,8.115,1.7,8.424c2.241,0.309,5.874-14.685,5.951-15.535
	c0.077-0.85,2.319,15.544,6.338,15.539c4.019-0.005-0.155-13.994-0.464-14.689c-0.309-0.696,7.883,1.778,9.738,1.932
	c1.855,0.155-4.869,11.448-0.077,12.757c4.792,1.309,5.41-10.052,5.41-11.134c0-1.082,3.632,12.276,7.806,11.239
	c4.174-1.037-2.319-13.248-3.71-15.49c0,0,4.251-9.661,4.405-11.593c0,0,7.11,0.85,8.115,0.696c1.005-0.155,4.946-4.56,3.864-5.178
	c-1.082-0.618-5.256-4.019-5.874-6.569c-0.618-2.55-6.569-3.942-14.917-2.164c0,0,2.164,2.009,3.246,2.164
	c0.712,0.102-1.923,3.339-4.996,5.549L7.429,6.5L6.208,7.965l28.789,19.106c-0.938,0.465-1.858,0.76-2.682,0.76
	c-4.173,0-21.177,2.628-25.814-4.869c0,0-1.546-0.077-2.009,1.391C4.028,25.822,4.879,29.3,13.226,31.464z"/>
</svg>
